<svg xmlns="http://www.w3.org/2000/svg" width="181" height="56" viewBox="0 0 181 56"><path fill="#0b0b15" d="M42.48 5.53Q42.48 6.43 41.88 7.03Q41.28 7.63 40.38 7.63L40.38 7.63L4.98 7.63Q4.14 7.63 3.54 7.03Q2.94 6.43 2.94 5.53L2.94 5.53L2.94 4.21Q2.94 3.37 3.54 2.77Q4.14 2.17 4.98 2.17L4.98 2.17L34.86 2.17Q35.76 2.17 36.36 1.87Q36.96 1.57 36.96 1.09L36.96 1.09Q36.96 0.61 37.56 0.31Q38.16 0.01 39.06 0.01L39.06 0.01L40.38 0.01Q41.28 0.01 41.88 0.49Q42.48 0.97 42.48 1.63L42.48 1.63L42.48 5.53ZM4.98 55.09Q4.14 55.09 3.54 54.46Q2.94 53.83 2.94 52.99L2.94 52.99L2.94 51.67Q2.94 50.77 3.54 50.17Q4.14 49.57 4.98 49.57L4.98 49.57L5.28 49.57Q6.12 49.57 6.72 48.97Q7.32 48.37 7.32 47.53L7.32 47.53L7.32 18.97Q7.32 18.07 6.72 17.44Q6.12 16.81 5.28 16.81L5.28 16.81L4.98 16.81Q4.14 16.81 3.54 16.21Q2.94 15.61 2.94 14.71L2.94 14.71L2.94 13.45Q2.94 12.55 3.54 11.92Q4.14 11.29 4.98 11.29L4.98 11.29L40.38 11.29Q41.28 11.29 41.88 11.92Q42.48 12.55 42.48 13.45L42.48 13.45L42.48 14.71Q42.48 15.61 41.88 16.21Q41.28 16.81 40.38 16.81L40.38 16.81L14.88 16.81Q14.04 16.81 13.44 17.44Q12.84 18.07 12.84 18.97L12.84 18.97L12.84 21.73Q12.84 22.57 13.44 23.17Q14.04 23.77 14.88 23.77L14.88 23.77L40.38 23.77Q41.28 23.77 41.88 24.37Q42.48 24.97 42.48 25.81L42.48 25.81L42.48 52.99Q42.48 53.83 41.88 54.46Q41.28 55.09 40.38 55.09L40.38 55.09L23.64 55.09Q22.80 55.09 22.20 54.46Q21.60 53.83 21.60 52.99L21.60 52.99L21.60 51.67Q21.60 50.77 22.20 50.17Q22.80 49.57 23.64 49.57L23.64 49.57L34.86 49.57Q35.76 49.57 36.36 48.97Q36.96 48.37 36.96 47.53L36.96 47.53L36.96 31.87Q36.96 30.97 36.36 30.37Q35.76 29.77 34.86 29.77L34.86 29.77L14.88 29.77Q14.04 29.77 13.44 30.37Q12.84 30.97 12.84 31.87L12.84 31.87L12.84 52.99Q12.84 53.83 12.24 54.46Q11.64 55.09 10.74 55.09L10.74 55.09L4.98 55.09ZM48.84 7.51Q48.84 6.67 49.44 6.07Q50.04 5.47 50.88 5.47L50.88 5.47L77.82 5.47Q78.72 5.47 79.35 4.84Q79.98 4.21 79.98 3.37L79.98 3.37L79.98 2.05Q79.98 1.21 80.61 0.61Q81.24 0.01 82.08 0.01L82.08 0.01L83.46 0.01Q84.30 0.01 84.93 0.61Q85.56 1.21 85.56 2.05L85.56 2.05L85.56 3.37Q85.56 4.21 86.04 4.84Q86.52 5.47 87.18 5.47L87.18 5.47Q87.96 5.47 88.44 6.07Q88.92 6.67 88.92 7.51L88.92 7.51L88.92 8.89Q88.92 9.79 88.44 10.39Q87.96 10.99 87.18 10.99L87.18 10.99Q86.52 10.99 86.04 11.62Q85.56 12.25 85.56 13.15L85.56 13.15L85.56 52.99Q85.56 53.83 84.93 54.46Q84.30 55.09 83.46 55.09L83.46 55.09L57 55.09Q56.16 55.09 55.56 54.46Q54.96 53.83 54.96 52.99L54.96 52.99L54.96 51.61Q54.96 50.71 55.56 50.11Q56.16 49.51 57 49.51L57 49.51L77.82 49.51Q78.72 49.51 79.35 48.91Q79.98 48.31 79.98 47.41L79.98 47.41L79.98 13.15Q79.98 12.25 79.35 11.62Q78.72 10.99 77.82 10.99L77.82 10.99L50.88 10.99Q50.04 10.99 49.44 10.39Q48.84 9.79 48.84 8.89L48.84 8.89L48.84 7.51ZM58.86 17.47Q59.70 17.47 60.33 18.10Q60.96 18.73 60.96 19.63L60.96 19.63L60.96 33.55Q60.96 34.45 61.56 35.08Q62.16 35.71 63.06 35.71L63.06 35.71L69.78 35.71Q70.62 35.71 71.25 36.31Q71.88 36.91 71.88 37.75L71.88 37.75L71.88 39.13Q71.88 40.03 71.25 40.63Q70.62 41.23 69.78 41.23L69.78 41.23L57.48 41.23Q56.58 41.23 55.98 40.63Q55.38 40.03 55.38 39.13L55.38 39.13L55.38 19.63Q55.38 18.73 55.98 18.10Q56.58 17.47 57.48 17.47L57.48 17.47L58.86 17.47ZM94.74 4.81Q94.74 3.97 95.34 3.37Q95.94 2.77 96.78 2.77L96.78 2.77L126.78 2.77Q127.68 2.77 128.28 2.35Q128.88 1.93 128.88 1.39L128.88 1.39Q128.88 0.79 129.48 0.40Q130.08 0.01 130.98 0.01L130.98 0.01L132.30 0.01Q133.32-0.05 133.83 0.55Q134.34 1.15 134.34 2.11L134.34 2.11Q134.34 2.95 133.98 3.82Q133.62 4.69 132.90 5.29L132.90 5.29L131.40 6.85Q130.86 7.39 129.81 7.84Q128.76 8.29 127.92 8.29L127.92 8.29L96.78 8.29Q95.94 8.29 95.34 7.66Q94.74 7.03 94.74 6.19L94.74 6.19L94.74 4.81ZM94.74 50.71Q94.74 49.81 95.19 48.82Q95.64 47.83 96.30 47.23L96.30 47.23L127.32 19.15Q127.86 18.67 127.86 18.31L127.86 18.31Q127.86 17.77 126.78 17.77L126.78 17.77L96.78 17.77Q95.94 17.77 95.34 17.14Q94.74 16.51 94.74 15.67L94.74 15.67L94.74 14.35Q94.74 13.51 95.34 12.88Q95.94 12.25 96.78 12.25L96.78 12.25L132.42 12.25Q133.32 12.25 133.95 12.88Q134.58 13.51 134.58 14.35L134.58 14.35L134.58 18.01Q134.58 18.85 134.10 19.90Q133.62 20.95 133.02 21.49L133.02 21.49L103.50 48.25Q102.96 48.67 102.96 49.03L102.96 49.03Q102.96 49.57 104.04 49.57L104.04 49.57L132.24 49.57Q133.14 49.57 133.74 50.17Q134.34 50.77 134.34 51.67L134.34 51.67L134.34 52.99Q134.34 53.83 133.74 54.46Q133.14 55.09 132.24 55.09L132.24 55.09L96.78 55.09Q95.94 55.09 95.34 54.46Q94.74 53.83 94.74 52.99L94.74 52.99L94.74 50.71ZM144.12 0.01Q145.02 0.01 145.62 0.40Q146.22 0.79 146.22 1.39L146.22 1.39Q146.22 1.93 146.82 2.35Q147.42 2.77 148.32 2.77L148.32 2.77L178.50 2.77Q179.40 2.77 180 3.37Q180.60 3.97 180.60 4.81L180.60 4.81L180.60 48.55Q180.60 49.45 180.18 50.47Q179.76 51.49 179.10 52.03L179.10 52.03L177.66 53.59Q177 54.25 175.98 54.67Q174.96 55.09 174.06 55.09L174.06 55.09L171.48 55.09Q170.64 55.09 170.04 54.46Q169.44 53.83 169.44 52.99L169.44 52.99L169.44 51.61Q169.44 50.71 170.04 50.11Q170.64 49.51 171.48 49.51L171.48 49.51L172.92 49.51Q173.82 49.51 174.42 48.91Q175.02 48.31 175.02 47.41L175.02 47.41L175.02 10.39Q175.02 9.49 174.42 8.89Q173.82 8.29 172.92 8.29L172.92 8.29L147.18 8.29Q146.34 8.29 145.29 7.87Q144.24 7.45 143.64 6.85L143.64 6.85L142.08 5.29Q141.42 4.69 141.06 3.82Q140.70 2.95 140.70 2.11L140.70 2.11Q140.70 1.15 141.21 0.55Q141.72-0.05 142.68 0.01L142.68 0.01L144.12 0.01ZM140.64 14.35Q140.64 13.51 141.24 12.88Q141.84 12.25 142.68 12.25L142.68 12.25L144.12 12.25Q145.02 12.25 145.62 12.88Q146.22 13.51 146.22 14.35L146.22 14.35L146.22 52.99Q146.22 53.83 145.62 54.46Q145.02 55.09 144.12 55.09L144.12 55.09L142.68 55.09Q141.84 55.09 141.24 54.46Q140.64 53.83 140.64 52.99L140.64 52.99L140.64 14.35ZM171.54 41.83Q171.54 42.67 171.12 43.72Q170.70 44.77 170.10 45.49L170.10 45.49L168.54 46.93Q167.94 47.53 166.89 47.95Q165.84 48.37 165 48.37L165 48.37L152.40 48.37Q151.50 48.37 150.87 47.77Q150.24 47.17 150.24 46.27L150.24 46.27L150.24 16.09Q150.24 15.25 150.87 14.62Q151.50 13.99 152.40 13.99L152.40 13.99L169.50 13.99Q170.34 13.99 170.94 14.62Q171.54 15.25 171.54 16.09L171.54 16.09L171.54 41.83ZM157.92 19.57Q157.08 19.57 156.45 20.17Q155.82 20.77 155.82 21.67L155.82 21.67L155.82 26.23Q155.82 27.13 156.45 27.76Q157.08 28.39 157.92 28.39L157.92 28.39L163.92 28.39Q164.76 28.39 165.36 27.76Q165.96 27.13 165.96 26.23L165.96 26.23L165.96 21.67Q165.96 20.77 165.36 20.17Q164.76 19.57 163.92 19.57L163.92 19.57L157.92 19.57ZM163.92 42.85Q164.76 42.85 165.36 42.22Q165.96 41.59 165.96 40.75L165.96 40.75L165.96 36.07Q165.96 35.17 165.36 34.54Q164.76 33.91 163.92 33.91L163.92 33.91L157.92 33.91Q157.08 33.91 156.45 34.54Q155.82 35.17 155.82 36.07L155.82 36.07L155.82 40.75Q155.82 41.59 156.45 42.22Q157.08 42.85 157.92 42.85L157.92 42.85L163.92 42.85Z"></path></svg>