<svg width="1200" height="630" viewBox="0 0 1200 630" xmlns="http://www.w3.org/2000/svg"><rect x="0" y="0" width="1200" height="630" fill="#fefbfb"/><defs><clipPath id="satori_bc-id-0"><path x="105" y="39" width="1056" height="504" d="M109,39 h1048 a4,4 0 0 1 4,4 v496 a4,4 0 0 1 -4,4 h-1048 a4,4 0 0 1 -4,-4 v-496 a4,4 0 0 1 4,-4"/></clipPath></defs><g opacity="0.9"><path x="105" y="39" width="1056" height="504" fill="#ecebeb" d="M109,39 h1048 a4,4 0 0 1 4,4 v496 a4,4 0 0 1 -4,4 h-1048 a4,4 0 0 1 -4,-4 v-496 a4,4 0 0 1 4,-4"/><path width="1056" height="504" clip-path="url(#satori_bc-id-0)" fill="none" stroke="#000" stroke-width="8" d="M106.172,40.172 A4,4 0 0 1 109,39 h1048 a4,4 0 0 1 4,4 v496 a4,4 0 0 1 -4,4 h-1048 a4,4 0 0 1 -4,-4 v-496 A4,4 0 0 1 106.172,40.172"/></g><defs><clipPath id="satori_bc-id-1"><path x="72" y="63" width="1056" height="504" d="M76,63 h1048 a4,4 0 0 1 4,4 v496 a4,4 0 0 1 -4,4 h-1048 a4,4 0 0 1 -4,-4 v-496 a4,4 0 0 1 4,-4"/></clipPath></defs><path x="72" y="63" width="1056" height="504" fill="#fefbfb" d="M76,63 h1048 a4,4 0 0 1 4,4 v496 a4,4 0 0 1 -4,4 h-1048 a4,4 0 0 1 -4,-4 v-496 a4,4 0 0 1 4,-4"/><path width="1056" height="504" clip-path="url(#satori_bc-id-1)" fill="none" stroke="#000" stroke-width="8" d="M73.172,64.172 A4,4 0 0 1 76,63 h1048 a4,4 0 0 1 4,4 v496 a4,4 0 0 1 -4,4 h-1048 a4,4 0 0 1 -4,-4 v-496 A4,4 0 0 1 73.172,64.172"/><clipPath id="satori_cp-id-1-0-0"><rect x="128" y="103" width="944" height="104"/></clipPath><mask id="satori_om-id-1-0-0"><rect x="128" y="103" width="944" height="104" fill="#fff"/></mask><path fill="black" d="M146.1 153.1C147.7 147.5 149.3 141.5 150.7 135.6L151.0 135.6C152.6 141.4 154.0 147.5 155.6 153.1L157.2 158.9L144.6 158.9ZM127.7 180.8L138.5 180.8L142.3 167.2L159.5 167.2L163.3 180.8L174.4 180.8L157.3 127.5L144.8 127.5ZM179.8 180.8L190.4 180.8L190.4 156.8C192.7 151.0 196.5 148.9 199.6 148.9C201.3 148.9 202.4 149.1 203.9 149.5L205.7 140.4C204.5 139.9 203.2 139.5 200.9 139.5C196.8 139.5 192.4 142.4 189.5 147.7L189.3 147.7L188.5 140.5L179.8 140.5ZM227.5 181.9C232.0 181.9 236.9 180.3 240.8 177.0L236.5 170.0C234.3 171.8 231.5 173.2 228.7 173.2C222.9 173.2 218.6 168.3 218.6 160.7C218.6 153.1 222.8 148.2 229.0 148.2C231.2 148.2 233.1 149.1 235.1 150.8L240.2 144.0C237.2 141.5 233.4 139.5 228.4 139.5C217.5 139.5 207.8 147.3 207.8 160.7C207.8 174.1 216.3 181.9 227.5 181.9ZM248.3 180.8L258.9 180.8L258.9 153.1C261.8 150.2 263.9 148.6 267.2 148.6C271.2 148.6 272.9 150.8 272.9 157.0L272.9 180.8L283.5 180.8L283.5 155.7C283.5 145.6 279.8 139.5 271.1 139.5C265.6 139.5 261.6 142.4 258.4 145.4L258.9 137.9L258.9 123.4L248.3 123.4Z M312.5 180.8L344.8 180.8L344.8 171.9L323.1 171.9L323.1 127.5L312.5 127.5ZM353.2 180.8L363.8 180.8L363.8 140.5L353.2 140.5ZM358.5 134.0C362.1 134.0 364.7 131.7 364.7 128.2C364.7 124.8 362.1 122.5 358.5 122.5C354.9 122.5 352.4 124.8 352.4 128.2C352.4 131.7 354.9 134.0 358.5 134.0ZM375.1 180.8L385.7 180.8L385.7 153.1C388.6 150.2 390.7 148.6 394.0 148.6C398 148.6 399.7 150.8 399.7 157.0L399.7 180.8L410.3 180.8L410.3 155.7C410.3 145.6 406.6 139.5 397.9 139.5C392.4 139.5 388.3 142.4 384.8 145.9L384.5 145.9L383.7 140.5L375.1 140.5ZM433.3 181.9C438.8 181.9 442.6 179.2 446.1 175.1L446.4 175.1L447.2 180.8L455.8 180.8L455.8 140.5L445.2 140.5L445.2 167.7C442.5 171.3 440.3 172.8 437.0 172.8C433.1 172.8 431.4 170.6 431.4 164.4L431.4 140.5L420.8 140.5L420.8 165.7C420.8 175.8 424.6 181.9 433.3 181.9ZM462.6 180.8L473.5 180.8L477.3 173.4C478.4 171.1 479.5 168.7 480.7 166.4L481.0 166.4C482.3 168.7 483.6 171.1 484.9 173.4L489.4 180.8L500.7 180.8L488.1 161.0L500.0 140.5L489.0 140.5L485.6 147.7C484.7 150.0 483.6 152.3 482.7 154.5L482.4 154.5C481.2 152.3 479.9 150.0 478.8 147.7L474.8 140.5L463.4 140.5L475.2 159.8Z M545.0 142.0C544.0 149.9 542.4 156.5 540.0 162.1C537.5 160.0 535.2 158.0 532.9 156.2C534.0 151.8 535.2 146.9 536.2 142.0ZM548.5 133.9L547.0 134.1L537.8 134.1C538.7 129.6 539.4 125.0 540.0 120.7L531.6 120.2C531.2 124.5 530.5 129.4 529.6 134.1L521.2 134.1L521.2 142.0L528.1 142.0C526.8 148.4 525.2 154.4 523.6 159.0C527.3 162.1 531.6 165.8 535.7 169.4C531.8 174.5 527.0 178.0 520.8 180.2C522.5 181.9 524.6 185.1 525.8 187.3C532.4 184.4 537.8 180.6 541.9 175.3C544.3 177.5 546.4 179.8 548.0 181.6L553.6 174.4C551.9 172.5 549.4 170.1 546.6 167.7C550.6 159.5 552.9 148.8 553.7 134.7ZM564.2 171.7L564.2 135.3L576.8 135.3L576.8 171.7ZM556.0 127.3L556.0 185.2L564.2 185.2L564.2 179.8L576.8 179.8L576.8 184.0L585.3 184.0L585.3 127.3ZM608.2 119.8C604.6 129.9 598.4 140.0 592.1 146.4C593.6 148.5 595.9 153.2 596.7 155.3C598.4 153.5 600.1 151.5 601.8 149.2L601.8 186.9L610.3 186.9L610.3 135.6C612.6 131.2 614.6 126.8 616.2 122.4ZM632.4 149.5L632.4 160.7L624.4 160.7L624.4 149.5ZM640.4 168.1L640.4 142.0L616.4 142.0L616.4 172.8L624.4 172.8L624.4 168.1ZM659.9 126.1L615.6 126.1L615.6 134.3L647.0 134.3L647.0 176.8C647.0 178.2 646.5 178.6 645.1 178.6C643.7 178.6 638.6 178.6 633.9 178.4C635.2 180.9 636.5 184.7 636.8 187.2C643.5 187.2 648.4 186.9 651.4 185.6C654.5 184.2 655.6 181.9 655.6 177.0L655.6 134.3L659.9 134.3ZM680.7 164.3L680.7 146.6L693.9 144.0L692.5 136.3L680.7 138.5L680.7 122.7L672.5 122.7L672.5 140.1L663.9 141.8L665.3 149.6L672.5 148.2L672.5 164.1C672.5 167.3 670.3 169.3 668.7 170.3C670.0 172.1 671.9 175.7 672.5 177.8C674.3 176.2 677.1 174.6 693.9 166.9C693.4 165.1 692.8 161.7 692.6 159.3ZM691.9 125.2L691.9 133.4L701.9 133.4C701.6 153.7 700.6 170.8 684.5 180.5C686.7 182.1 689.2 185.1 690.5 187.4C708.2 176.0 710.0 156.2 710.6 133.4L721.6 133.4C720.9 162.4 720.1 174.0 718.0 176.4C717.2 177.5 716.5 177.8 715.2 177.8C713.5 177.8 710.1 177.8 706.3 177.5C707.9 180.0 709.0 183.8 709.1 186.2C713 186.4 716.8 186.5 719.5 186.0C722.2 185.5 724.0 184.6 726.0 181.7C728.8 177.8 729.6 165.3 730.4 129.5C730.4 128.4 730.5 125.2 730.5 125.2ZM771.2 159.2L771.2 144.6L777.2 144.6L777.2 152.7C777.2 154.7 777.1 156.9 776.6 159.2ZM786.3 133.1C785.1 134.8 783.8 136.6 782.6 138.2L769.7 138.2C771.2 136.6 772.6 134.9 773.9 133.1ZM790.8 144.6L790.8 159.2L785 159.2C785.4 156.9 785.5 154.8 785.5 152.8L785.5 144.6L786.4 144.6L786.4 144.7L786.5 144.6ZM803.5 166.5L803.5 159.2L799.3 159.2L799.3 138.2L792.1 138.2C794.5 135.3 796.7 132.1 798.2 129.4L792.6 125.6L791.3 126.0L778.4 126.0C779.2 124.5 779.9 123.0 780.6 121.6L772.1 120.0C769.7 125.7 765.2 132.4 758.7 137.6L758.7 133.5L752.8 133.5L752.8 119.9L744.5 119.9L744.5 133.5L737.2 133.5L737.2 141.4L744.5 141.4L744.5 154.2C741.4 155.1 738.6 155.8 736.2 156.3L738.1 164.4L744.5 162.6L744.5 177.1C744.5 178.0 744.2 178.3 743.4 178.3C742.5 178.3 740.1 178.3 737.7 178.3C738.8 180.6 739.8 184.2 740.1 186.5C744.5 186.6 747.7 186.2 749.9 184.8C752.1 183.4 752.8 181.2 752.8 177.1L752.8 160.3C755.2 159.5 757.5 158.8 759.9 158.1L758.7 150.4L752.8 152.0L752.8 141.4L758.7 141.4L758.7 138.4C760.2 139.6 761.9 141.7 763.0 143.3L763.0 159.2L758.6 159.2L758.6 166.5L774.0 166.5C771.0 171.6 765.4 176.9 754.7 181.3C756.6 182.6 759.3 185.5 760.5 187.2C770.7 182.4 776.9 176.7 780.5 171.1C785.1 178.2 791.6 183.7 799.7 186.7C800.8 184.7 803.2 181.6 804.9 180.0C796.7 177.6 789.9 172.6 785.9 166.5ZM863.4 140.2L863.4 166.2C859.4 161.2 851.7 153.8 845.6 148.3C846.2 145.5 846.5 142.8 846.6 140.2ZM821.4 140.2L837.8 140.2C837.4 149.0 835.0 159.7 821.4 166.7ZM871.9 131.8L846.7 131.8L846.7 119.9L837.8 119.9L837.8 131.8L812.8 131.8L812.8 187.3L821.4 187.3L821.4 167.0C823.4 168.5 826.1 171.6 827.3 173.3C835.2 168.7 840.0 162.8 842.8 156.7C848.1 162.0 853.5 167.8 856.4 171.8L863.4 166.3L863.4 177.1C863.4 178.4 863.0 178.8 861.6 178.8C860.2 178.8 855.4 178.9 851.2 178.7C852.4 180.9 853.7 184.7 854.0 187.2C860.4 187.2 865.0 187.0 867.9 185.7C871.0 184.3 871.9 181.9 871.9 177.3ZM934.3 140.2C933.2 142.3 931.9 144.3 930.4 146.4L920.9 146.8C923.1 143.5 925.5 139.6 927.6 136.1L947.5 136.1L947.5 128.4L932.8 128.4C932.2 125.6 930.6 122.0 929.1 119.1L921.0 121.6C922.0 123.7 923.0 126.1 923.5 128.4L906.7 128.4L906.7 136.1L918.6 136.1C916.4 139.7 913.7 144.1 912.5 145.4C911.1 146.8 908.6 147.4 906.8 147.7C907.5 149.5 908.6 153.5 908.9 155.5C910.4 154.9 912.8 154.4 923.6 153.6C918.6 158.1 912.5 162.0 905.9 164.6C907.4 166.2 909.6 169.3 910.6 171.2C924.2 165.1 935.6 154.6 942.4 143.0ZM906.8 156.3C905.5 154.3 900.4 146.1 898.4 143.5L898.4 141.2L905.6 141.2L905.6 133.3L898.4 133.3L898.4 119.9L890.2 119.9L890.2 133.3L881.5 133.3L881.5 141.2L890.1 141.2C888.0 149.8 884.2 159.9 879.8 165.5C881.3 167.8 883.1 171.7 883.9 174.2C886.2 170.8 888.3 165.9 890.2 160.5L890.2 187.0L898.4 187.0L898.4 154.4C899.8 157.2 901.1 160.0 901.8 162.1ZM938.5 154.0C932.6 165.4 919.1 175.3 902.3 179.9C903.8 181.8 906.2 185.2 907.3 187.2C916.0 184.5 923.7 180.5 930.4 175.6C934.8 179.2 939.4 183.5 941.9 186.5L948.4 180.9C945.7 178.0 940.9 173.9 936.6 170.5C940.8 166.4 944.5 162.0 947.4 157.2Z " clip-path="url(#satori_cp-id-1-0-0)" mask="url(#satori_om-id-1-0-0)"/><path fill="black" d="M137.3 515.6C140.8 515.6 143.9 512.6 143.9 507.4C143.9 502.8 141.7 499.7 137.8 499.7C136.1 499.7 134.4 500.6 133.0 501.8L133.1 499.1L133.1 493.0L130.6 493.0L130.6 515.3L132.6 515.3L132.8 513.7L133.0 513.7C134.3 514.9 135.9 515.6 137.3 515.6ZM136.8 513.5C135.8 513.5 134.5 513.1 133.1 511.9L133.1 503.9C134.6 502.6 135.9 501.8 137.2 501.8C140.1 501.8 141.2 504.1 141.2 507.5C141.2 511.2 139.4 513.5 136.8 513.5ZM148.0 521.8C151.0 521.8 152.6 519.5 153.7 516.5L159.4 500.1L156.9 500.1L154.2 508.5C153.8 509.9 153.3 511.4 152.9 512.8L152.8 512.8C152.3 511.4 151.8 509.8 151.3 508.5L148.2 500.1L145.6 500.1L151.7 515.3L151.3 516.4C150.7 518.3 149.6 519.7 147.9 519.7C147.5 519.7 147.0 519.6 146.7 519.5L146.2 521.5C146.7 521.7 147.3 521.8 148.0 521.8Z "/><clipPath id="satori_cp-id-1-0-1-0-2"><rect x="173" y="485" width="57" height="40"/></clipPath><mask id="satori_om-id-1-0-1-0-2"><rect x="173" y="485" width="57" height="40" fill="#fff"/></mask><path fill="black" d="M181.7 515.7C186.5 515.7 189.4 512.8 189.4 509.4C189.4 506.4 187.7 504.8 185.2 503.8L182.5 502.6C180.7 501.9 179.2 501.4 179.2 499.9C179.2 498.5 180.4 497.7 182.2 497.7C183.9 497.7 185.3 498.3 186.6 499.4L188.7 496.8C187.0 495.1 184.6 494.2 182.2 494.2C178.0 494.2 175.0 496.8 175.0 500.2C175.0 503.2 177.1 504.9 179.2 505.7L182.0 506.9C183.9 507.7 185.1 508.2 185.1 509.7C185.1 511.2 184.0 512.1 181.8 512.1C180 512.1 178.0 511.2 176.6 509.8L174.2 512.6C176.2 514.6 179.0 515.7 181.7 515.7ZM193.0 515.3L196.7 515.3L196.7 506.6C196.7 504.7 196.4 501.8 196.2 499.8L196.3 499.8L198.0 504.7L201.2 513.4L203.6 513.4L206.8 504.7L208.4 499.8L208.6 499.8C208.4 501.8 208.1 504.7 208.1 506.6L208.1 515.3L211.8 515.3L211.8 494.5L207.2 494.5L203.8 504.2C203.4 505.5 203.0 506.9 202.5 508.2L202.4 508.2C202.0 506.9 201.6 505.5 201.1 504.2L197.6 494.5L193.0 494.5ZM221.4 515.7C225.9 515.7 227.9 512.5 227.9 508.6L227.9 494.5L223.7 494.5L223.7 508.2C223.7 511.1 222.8 512.1 220.9 512.1C219.8 512.1 218.7 511.4 217.9 509.9L215.0 512.0C216.4 514.4 218.4 515.7 221.4 515.7Z " clip-path="url(#satori_cp-id-1-0-1-0-2)" mask="url(#satori_om-id-1-0-1-0-2)"/><clipPath id="satori_cp-id-1-0-1-1"><rect x="959" y="485" width="112" height="40"/></clipPath><mask id="satori_om-id-1-0-1-1"><rect x="959" y="485" width="112" height="40" fill="#fff"/></mask><path fill="black" d="M985.5 499.3L985.5 496.0L974.0 496.0L976.0 495.2C975.5 494.1 974.7 492.5 974.0 491.2L970.7 492.4C971.2 493.5 971.9 494.9 972.4 496.0L960.5 496.0L960.5 499.3L967.6 499.3C967.3 505.2 966.8 511.5 960.1 515.1C961.0 515.8 962.0 516.9 962.5 517.8C967.5 514.9 969.6 510.6 970.6 505.9L979.4 505.9C979.0 510.9 978.5 513.3 977.8 513.9C977.4 514.2 977.0 514.3 976.4 514.3C975.5 514.3 973.6 514.3 971.7 514.1C972.3 515.0 972.8 516.4 972.9 517.4C974.8 517.5 976.6 517.5 977.7 517.3C979.0 517.2 979.9 517.0 980.7 516.0C981.8 514.8 982.4 511.7 982.9 504.1C983.0 503.7 983.1 502.7 983.1 502.7L971.0 502.7C971.2 501.5 971.2 500.4 971.3 499.3ZM991.1 504.1C992.9 506.2 995.0 509.1 995.8 511.0L998.9 509.1C998.0 507.2 995.8 504.4 993.9 502.5ZM1013.7 497.2L1007.4 497.2L1007.4 491.6L1003.8 491.6L1003.8 497.2L988.3 497.2L988.3 500.5L1003.8 500.5L1003.8 513.3C1003.8 513.9 1003.5 514.2 1002.8 514.2C1002.1 514.2 999.7 514.2 997.4 514.1C997.9 515.1 998.7 516.7 998.9 517.8C1001.8 517.8 1004.1 517.7 1005.5 517.1C1006.9 516.5 1007.4 515.6 1007.4 513.3L1007.4 500.5L1013.7 500.5ZM1037.7 496.6L1037.0 496.7L1030.5 496.7L1032.2 495.8C1031.5 494.6 1030.1 492.6 1029.0 491.2L1026.0 492.8C1026.8 494.0 1027.9 495.5 1028.6 496.7L1017.6 496.7L1017.6 500.0L1034.5 500.0C1031.5 503.8 1026.7 508.1 1022.1 510.9L1022.0 510.9C1020.4 510.9 1018.2 512.4 1016.2 514.5L1018.6 517.7C1019.8 515.9 1021.0 514.0 1021.9 514.0C1022.5 514.0 1023.4 514.9 1024.6 515.6C1026.5 516.8 1028.8 517.2 1032.2 517.2C1035.0 517.2 1039.2 517.0 1041.2 516.9C1041.2 516.0 1041.8 514.2 1042.1 513.3C1039.5 513.7 1035.2 514.0 1032.3 514.0C1029.4 514.0 1027.0 513.8 1025.3 512.7C1030.9 509.0 1036.7 503.5 1040.3 498.3ZM1045.0 517.7L1048.5 517.7L1048.5 498.3L1045.0 498.3ZM1045.5 493.4C1046.7 494.7 1048.2 496.5 1048.7 497.7L1051.5 496.0C1050.9 494.7 1049.4 493.0 1048.1 491.7ZM1054.3 507.4L1059.7 507.4L1059.7 510.0L1054.3 510.0ZM1054.3 502.1L1059.7 502.1L1059.7 504.7L1054.3 504.7ZM1051.3 512.7L1062.8 512.7L1062.8 499.4L1051.3 499.4ZM1069.2 492.9L1052.5 492.9L1052.5 496.0L1065.7 496.0L1065.7 514.1C1065.7 514.4 1065.7 514.6 1065.3 514.6C1065.0 514.6 1063.9 514.6 1063.0 514.5C1063.4 515.4 1063.9 516.6 1064 517.5C1065.7 517.5 1067.1 517.5 1068.0 517.0C1068.9 516.4 1069.2 515.7 1069.2 514.1Z " clip-path="url(#satori_cp-id-1-0-1-1)" mask="url(#satori_om-id-1-0-1-1)"/></svg>