<svg width="1200" height="630" viewBox="0 0 1200 630" xmlns="http://www.w3.org/2000/svg"><rect x="0" y="0" width="1200" height="630" fill="#fefbfb"/><defs><clipPath id="satori_bc-id-0"><path x="105" y="39" width="1056" height="504" d="M109,39 h1048 a4,4 0 0 1 4,4 v496 a4,4 0 0 1 -4,4 h-1048 a4,4 0 0 1 -4,-4 v-496 a4,4 0 0 1 4,-4"/></clipPath></defs><g opacity="0.9"><path x="105" y="39" width="1056" height="504" fill="#ecebeb" d="M109,39 h1048 a4,4 0 0 1 4,4 v496 a4,4 0 0 1 -4,4 h-1048 a4,4 0 0 1 -4,-4 v-496 a4,4 0 0 1 4,-4"/><path width="1056" height="504" clip-path="url(#satori_bc-id-0)" fill="none" stroke="#000" stroke-width="8" d="M106.172,40.172 A4,4 0 0 1 109,39 h1048 a4,4 0 0 1 4,4 v496 a4,4 0 0 1 -4,4 h-1048 a4,4 0 0 1 -4,-4 v-496 A4,4 0 0 1 106.172,40.172"/></g><defs><clipPath id="satori_bc-id-1"><path x="72" y="63" width="1056" height="504" d="M76,63 h1048 a4,4 0 0 1 4,4 v496 a4,4 0 0 1 -4,4 h-1048 a4,4 0 0 1 -4,-4 v-496 a4,4 0 0 1 4,-4"/></clipPath></defs><path x="72" y="63" width="1056" height="504" fill="#fefbfb" d="M76,63 h1048 a4,4 0 0 1 4,4 v496 a4,4 0 0 1 -4,4 h-1048 a4,4 0 0 1 -4,-4 v-496 a4,4 0 0 1 4,-4"/><path width="1056" height="504" clip-path="url(#satori_bc-id-1)" fill="none" stroke="#000" stroke-width="8" d="M73.172,64.172 A4,4 0 0 1 76,63 h1048 a4,4 0 0 1 4,4 v496 a4,4 0 0 1 -4,4 h-1048 a4,4 0 0 1 -4,-4 v-496 A4,4 0 0 1 73.172,64.172"/><clipPath id="satori_cp-id-1-0-0"><rect x="128" y="103" width="944" height="209"/></clipPath><mask id="satori_om-id-1-0-0"><rect x="128" y="103" width="944" height="209" fill="#fff"/></mask><path fill="black" d="M146.1 153.1C147.7 147.5 149.3 141.5 150.7 135.6L151.0 135.6C152.6 141.4 154.0 147.5 155.6 153.1L157.2 158.9L144.6 158.9ZM127.7 180.8L138.5 180.8L142.3 167.2L159.5 167.2L163.3 180.8L174.4 180.8L157.3 127.5L144.8 127.5ZM179.8 180.8L190.4 180.8L190.4 156.8C192.7 151.0 196.5 148.9 199.6 148.9C201.3 148.9 202.4 149.1 203.9 149.5L205.7 140.4C204.5 139.9 203.2 139.5 200.9 139.5C196.8 139.5 192.4 142.4 189.5 147.7L189.3 147.7L188.5 140.5L179.8 140.5ZM227.5 181.9C232.0 181.9 236.9 180.3 240.8 177.0L236.5 170.0C234.3 171.8 231.5 173.2 228.7 173.2C222.9 173.2 218.6 168.3 218.6 160.7C218.6 153.1 222.8 148.2 229.0 148.2C231.2 148.2 233.1 149.1 235.1 150.8L240.2 144.0C237.2 141.5 233.4 139.5 228.4 139.5C217.5 139.5 207.8 147.3 207.8 160.7C207.8 174.1 216.3 181.9 227.5 181.9ZM248.3 180.8L258.9 180.8L258.9 153.1C261.8 150.2 263.9 148.6 267.2 148.6C271.2 148.6 272.9 150.8 272.9 157.0L272.9 180.8L283.5 180.8L283.5 155.7C283.5 145.6 279.8 139.5 271.1 139.5C265.6 139.5 261.6 142.4 258.4 145.4L258.9 137.9L258.9 123.4L248.3 123.4Z M312.5 180.8L344.8 180.8L344.8 171.9L323.1 171.9L323.1 127.5L312.5 127.5ZM353.2 180.8L363.8 180.8L363.8 140.5L353.2 140.5ZM358.5 134.0C362.1 134.0 364.7 131.7 364.7 128.2C364.7 124.8 362.1 122.5 358.5 122.5C354.9 122.5 352.4 124.8 352.4 128.2C352.4 131.7 354.9 134.0 358.5 134.0ZM375.1 180.8L385.7 180.8L385.7 153.1C388.6 150.2 390.7 148.6 394.0 148.6C398 148.6 399.7 150.8 399.7 157.0L399.7 180.8L410.3 180.8L410.3 155.7C410.3 145.6 406.6 139.5 397.9 139.5C392.4 139.5 388.3 142.4 384.8 145.9L384.5 145.9L383.7 140.5L375.1 140.5ZM433.3 181.9C438.8 181.9 442.6 179.2 446.1 175.1L446.4 175.1L447.2 180.8L455.8 180.8L455.8 140.5L445.2 140.5L445.2 167.7C442.5 171.3 440.3 172.8 437.0 172.8C433.1 172.8 431.4 170.6 431.4 164.4L431.4 140.5L420.8 140.5L420.8 165.7C420.8 175.8 424.6 181.9 433.3 181.9ZM462.6 180.8L473.5 180.8L477.3 173.4C478.4 171.1 479.5 168.7 480.7 166.4L481.0 166.4C482.3 168.7 483.6 171.1 484.9 173.4L489.4 180.8L500.7 180.8L488.1 161.0L500.0 140.5L489.0 140.5L485.6 147.7C484.7 150.0 483.6 152.3 482.7 154.5L482.4 154.5C481.2 152.3 479.9 150.0 478.8 147.7L474.8 140.5L463.4 140.5L475.2 159.8Z M587.2 148.2L572.6 148.2L572.6 121.0L563.8 121.0L563.8 148.2L545.5 148.2L545.5 132.8C550.2 131.2 554.7 129.4 558.8 127.4L552.6 120.2C545.0 124.7 533.1 128.9 521.8 131.4C523.0 133.3 524.4 136.4 524.8 138.4C528.8 137.6 532.9 136.6 537.0 135.4L537.0 148.2L521.4 148.2L521.4 156.4L536.7 156.4C535.9 165.4 532.6 174.3 520.7 180.6C522.7 182.1 525.7 185.2 526.9 187.3C541.0 179.5 544.6 168.0 545.3 156.4L563.8 156.4L563.8 187.1L572.6 187.1L572.6 156.4L587.2 156.4ZM607.4 156.9C611.8 151.3 616.2 144.9 619.8 138.6L612.9 134.3C611.6 136.8 610.2 139.4 608.7 141.9L602.3 142.4C606.5 136.7 610.4 129.7 613.2 123.1L605.4 119.4C602.7 127.9 597.7 136.8 596.1 139.1C594.5 141.4 593.3 142.9 591.8 143.3C592.8 145.6 594.1 149.5 594.4 151.0C595.6 150.5 597.4 150.0 604.0 149.2C601.5 153.0 599.2 155.8 598.1 157.0C595.8 159.8 594.1 161.3 592.3 161.8C593.2 163.9 594.4 167.7 594.8 169.2C596.7 167.9 599.7 166.7 618.2 161.4C617.9 159.7 617.7 156.4 617.8 154.2ZM641.9 132.2C640.3 138.7 638.4 145.3 636.9 150.0L648.8 150.0C647.3 155.6 645.2 160.6 642.4 164.9C638.6 159.8 635.5 153.7 633.4 147.5C633.9 142.7 634.3 137.6 634.6 132.2ZM653.0 142.3L651.6 142.7L647.5 142.7C649.1 136.9 650.9 130.2 652.3 124.3L619.2 124.3L619.2 132.2L626.2 132.2C625.5 148.1 623.7 161.9 619.0 172.4L617.7 166.3C608.7 169.8 599.3 173.4 593.3 175.3L595.3 183.8C602.0 181.1 610.3 177.5 618.2 174.1C616.7 177.0 615.0 179.8 612.8 182.1C614.9 183.2 618.9 186.0 620.3 187.3C625.6 180.6 629.0 171.9 631.1 161.5C633.0 165.1 635.1 168.4 637.4 171.6C633.9 175.3 629.8 178.4 625.3 180.7C627.2 182.0 630.1 185.2 631.3 187.1C635.5 184.8 639.3 181.8 642.9 177.9C646.4 181.5 650.5 184.4 655.0 186.8C656.2 184.7 658.8 181.5 660.6 179.9C655.9 177.8 651.7 174.9 648.0 171.3C652.7 164.1 656.3 155.1 658.4 144.4ZM679.8 165.2C676.4 169.8 670.6 174.7 665.1 177.6C667.3 178.9 670.9 181.7 672.6 183.3C677.8 179.7 684.2 173.8 688.4 168.3ZM717.8 159.8C719.6 162.1 721.1 164.4 722.2 166.2L728.9 162.1C726.1 157.5 720.3 150.8 714.8 145.8L708.3 149.2C709.7 150.5 711.1 151.9 712.4 153.4L690.8 154.9C700.1 150.2 709.4 144.5 717.9 137.8L711.7 132.2C708.5 135.0 705.1 137.6 701.6 140.0L687.2 140.7C691.4 137.7 695.6 134.3 699.2 130.7C708.5 129.8 717.4 128.5 724.8 126.7L718.8 119.6C706.6 122.5 686.6 124.4 669.0 125.0C669.8 127.0 670.9 130.4 671.0 132.5C676.4 132.4 681.8 132.1 687.4 131.7C683.6 135.2 679.9 137.9 678.4 138.9C676.2 140.4 674.6 141.4 672.9 141.6C673.8 143.7 675.0 147.3 675.3 148.9C676.9 148.3 679.3 147.9 690.6 147.2C685.9 150.0 682.0 152.0 679.8 153.0C675.3 155.3 672.5 156.5 669.7 156.9C670.5 159.0 671.7 162.9 672.1 164.4C674.5 163.5 677.6 163.1 694.2 161.7L694.2 177.5C694.2 178.3 693.8 178.5 692.6 178.6C691.4 178.6 687.0 178.6 683.3 178.4C684.6 180.7 686 184.3 686.4 186.8C691.8 186.8 695.8 186.8 698.9 185.5C702.1 184.1 702.9 181.9 702.9 177.8L702.9 161.0ZM706.7 169.4C712.4 173.5 719.3 179.5 722.5 183.3L730.1 178.3C726.5 174.3 719.3 168.7 713.7 164.8ZM803.6 154.4C801.7 149.9 797.2 143.1 793.4 138.2L786.8 141.4C787.9 143.0 789.0 144.7 790.2 146.5L775.9 147.7C778.6 144.4 781.5 140.4 784.1 136.9L802.9 136.9L802.9 129.2L783.1 129.2L787.7 127.9C787.0 125.8 785.4 122.2 784.1 119.5L776 121.5C777.0 123.9 778.1 127.0 778.8 129.2L762.9 129.2L762.9 136.9L774.1 136.9C771.2 140.7 767.6 145.3 766.4 146.6C764.8 147.9 762.7 148.6 761.1 149.0C761.9 150.8 763.3 155.1 763.6 157.2C766.1 156.1 769.6 155.6 794.1 153.1C795.0 154.9 795.9 156.7 796.4 158.2ZM751.2 157.0C755.7 151.4 760.0 145.1 763.5 138.8L756.1 134.1C754.9 136.7 753.5 139.2 752.2 141.6L746.9 142.0C750.9 136.5 754.7 129.6 757.4 123.2L748.6 119.1C746.2 127.4 741.6 136.1 740.1 138.3C738.5 140.6 737.3 142.1 735.8 142.5C736.8 144.9 738.3 149.2 738.8 151.0C739.9 150.5 741.6 150.0 747.2 149.4C745.0 152.6 743.2 154.9 742.2 156.0C739.9 158.7 738.3 160.2 736.5 160.6C737.5 162.8 738.8 166.9 739.2 168.5C741.2 167.4 744.1 166.4 761.2 162.4C761.0 160.7 761.0 157.3 761.2 154.9ZM761.1 167.6C752.2 170.7 743.0 174.0 736.9 175.7L738.8 184.2C745.8 181.6 754.6 178.2 762.7 174.8ZM769.7 156.0C769.2 168.2 768.3 175.8 757.4 180.4C759.2 182.0 761.5 185.3 762.6 187.5C775.6 181.5 777.5 171.1 778.1 156.0ZM792.8 178.7C791.8 178.7 791.6 178.4 791.6 176.2L791.6 155.9L783.2 155.9L783.2 176.2C783.2 183.4 784.7 185.9 791.1 185.9L796.1 185.9C801.6 185.9 803.4 182.6 804.1 171.3C801.9 170.8 798.5 169.4 796.8 168.0C796.6 177.1 796.4 178.7 795.2 178.7ZM862.9 131.7L843.5 131.7L843.5 128.1L862.9 128.1ZM862.9 140.9L843.5 140.9L843.5 137.2L862.9 137.2ZM871.1 122.1L835.6 122.1L835.6 146.9L871.1 146.9ZM832.0 158.0L830.9 150.3L824.4 152.0L824.4 141.4L831.6 141.4L831.6 133.5L824.4 133.5L824.4 119.9L816.6 119.9L816.6 133.5L808.8 133.5L808.8 141.4L816.6 141.4L816.6 154.1C813.4 154.9 810.5 155.7 808.0 156.2L810.0 164.5C812.1 163.9 814.2 163.3 816.6 162.6L816.6 177.0C816.6 178.0 816.2 178.3 815.4 178.3C814.5 178.3 812.1 178.3 809.4 178.3C810.5 180.5 811.4 184.0 811.6 186.1C816.2 186.2 819.4 185.9 821.6 184.4C823.7 183.2 824.4 181.1 824.4 177.1L824.4 160.3ZM857.1 170.2L870.9 170.2L870.9 163.5L857.1 163.5L857.1 157.2L874.7 157.2L874.7 150.2L832.2 150.2L832.2 157.2L849.1 157.2L849.1 176.0C846.5 174.3 844.4 171.7 842.8 167.5C843.4 165.3 843.8 162.8 844.2 160.3L836.4 159.3C835.3 169.1 832.4 177.1 826.4 181.9C828.1 182.9 831.4 185.6 832.7 187.0C835.8 184.0 838.4 180.2 840.2 175.7C845.1 184.4 852.4 186.1 861.8 186.1L874.4 186.1C874.6 183.9 875.6 180.3 876.7 178.6C873.6 178.7 864.6 178.7 862.2 178.7C860.4 178.7 858.8 178.6 857.1 178.5ZM939.6 124.5L888.8 124.5L888.8 133.0L939.6 133.0ZM892.5 155.6C890.0 163.0 885.2 170.6 880.0 175.4C882.2 176.5 886.1 179.0 887.9 180.5C893 175.1 898.4 166.4 901.6 158.0ZM946.3 150.3L946.3 141.8L882.3 141.8L882.3 150.3L909.8 150.3L909.8 176.8C909.8 177.8 909.3 178.2 907.9 178.2C906.5 178.3 901.5 178.2 897.4 178.0C898.7 180.6 900.0 184.4 900.4 187.1C906.7 187.1 911.4 187.0 914.7 185.6C918.1 184.2 919.1 181.9 919.1 177.0L919.1 150.3ZM926.5 158.7C931.1 165.5 936.0 174.8 937.6 180.7L946.5 176.7C944.5 170.6 939.3 161.9 934.5 155.3ZM1003.1 159.3C1000.9 165.6 997.6 172.7 994.2 177.8L955.1 177.8L955.1 185.4L1017.6 185.4L1017.6 177.8L1003.4 177.8C1006.0 172.9 1008.8 166.8 1010.8 161.5ZM962.1 163.1C964.7 167.0 967.7 172.4 969.0 175.7L976.2 172.3C974.9 168.9 971.6 163.8 969.0 160.0ZM980.0 161.5C982.2 165.8 984.8 171.6 985.7 175.1L992.9 172.2C991.9 168.7 989.0 163.0 986.7 159.0ZM975.7 150.8C979.5 148.5 983.1 146.1 986.3 143.3C989.3 146.1 992.7 148.5 996.5 150.8ZM990.6 136.9C991.9 135.6 993.1 134.1 994.2 132.4L998.3 132.4C1000.4 135.2 1002.3 138.6 1003.2 140.8L1011.4 139.1C1010.5 137.2 1008.9 134.7 1007.3 132.4L1017.8 132.4L1017.8 125.6L998.3 125.6C999.0 124.2 999.6 122.7 1000.1 121.3L992.1 119.3C990.6 123.6 988.0 127.9 984.9 131.0L984.9 125.6L969.3 125.6C970.0 124.2 970.5 122.7 971.0 121.4L963.1 119.3C960.8 126.2 956.7 133.3 952.3 137.7C954.3 138.7 957.7 140.9 959.3 142.2C961.6 139.6 963.8 136.1 966.0 132.4L966.9 132.4C968.5 135.3 970.0 138.7 970.6 140.8L978.2 138.7C977.7 136.9 976.6 134.6 975.3 132.4L983.5 132.4L983.4 132.5C984.9 133.3 987.3 134.9 989.1 136.1L985.4 134.3C978.2 142.5 964.7 148.9 952.3 152.3C954.2 154.1 956.1 156.9 957.2 159.0C961.9 157.4 966.6 155.4 971.0 153.3L971.0 157.8L1000.6 157.8L1000.6 153.1C1005.2 155.4 1010.1 157.2 1014.9 158.4C1016.0 156.4 1018.3 153.2 1020.0 151.6C1009.0 149.4 997.3 144.6 990.9 138.9C991.4 138.5 991.8 138.1 992.1 137.6Z M153.8 280.5L153.8 266.9L180.8 266.9L180.8 280.5ZM189.7 259.1L166.4 259.1C176.4 252.8 184.6 244.6 189.6 234.3L183.7 230.7L182.2 231.2L161.2 231.2C162.6 229.4 163.9 227.6 165.2 225.8L155.6 223.8C151.3 230.5 143.3 237.7 131.6 242.8C133.5 244.4 136.2 247.6 137.5 249.7C143.8 246.5 149.1 242.8 153.6 239.0L176.7 239.0C172.9 243.9 167.8 248.3 162.0 251.9C158.8 249.2 154.9 246.3 151.8 244.1L145.1 249.0C147.9 251.0 151.2 253.8 154.0 256.3C146.6 259.9 138.4 262.6 130.2 264.2C131.8 266.1 133.8 269.8 134.6 272.1C138.2 271.2 141.8 270.3 145.3 269.0L145.3 291.4L153.8 291.4L153.8 288.2L180.8 288.2L180.8 291.4L189.7 291.4ZM248.9 281.2C245.8 281.2 245.3 280.8 245.3 278.0L245.3 257.5L269.0 257.5L269.0 249.0L238.2 249.0C238.7 245.1 238.9 241.0 239.1 237.0L265.0 237.0L265.0 228.6L207.8 228.6L207.8 237.0L230.2 237.0C230.1 241.0 229.9 245.1 229.4 249.0L203.5 249.0L203.5 257.5L227.8 257.5C224.8 268.5 218.1 278.1 202.3 284.2C204.5 285.9 206.8 289.1 208.1 291.4C225.4 284.2 232.8 272.6 236.2 259.7L236.2 278.2C236.2 286.8 238.6 289.6 247.7 289.6L258.4 289.6C266.2 289.6 268.6 286.3 269.6 274.1C267.2 273.5 263.3 272.0 261.4 270.5C261.0 279.7 260.6 281.2 257.7 281.2ZM329.3 244.6C328.3 251.9 326.7 258.3 324.4 263.8C322.3 259.3 320.6 254.3 319.3 249.1C319.9 247.7 320.4 246.2 320.9 244.6ZM340.9 244.6L340.9 236.6L323.1 236.6C324.0 233.0 324.8 229.2 325.3 225.3L317.4 224.0C315.9 234.8 313.3 245.3 309.0 252.8C307.2 249.3 304.4 245.1 301.6 241.7L309.8 241.7L309.8 234.0L293.2 234.0L297.8 232.2C297.1 229.9 295.2 226.4 293.3 223.8L286.0 226.4C287.4 228.7 288.9 231.6 289.8 234.0L275.5 234.0L275.5 241.7L300.2 241.7L295.0 244.6C297.2 247.5 299.5 251.0 301.2 254.3L294.4 253.0C293.8 255.7 293.0 258.2 292.2 260.6C290.6 258.8 288.9 257.2 287.3 255.6L282.0 259.5C285.0 254.9 288.1 249.2 290.3 244.1L283.0 241.8C280.8 247.5 277.1 253.8 273.5 257.9C275.2 259.2 278.0 261.8 279.3 263.3C280.0 262.4 280.6 261.5 281.4 260.5C283.7 262.9 286.2 265.7 288.6 268.4C285.0 274.8 280.2 280.1 274.0 283.7C275.7 285.1 278.6 288.3 279.7 289.9C285.4 286.2 290.2 281.1 294.0 275.0C296.6 278.4 298.8 281.6 300.2 284.3L307.1 278.9C305.0 275.5 301.8 271.4 298.1 267.0C299.6 263.6 301.0 259.9 302.1 255.9C302.6 257.1 303.0 258.1 303.3 259.0L306.6 257.2C308.2 258.9 310.7 262.1 311.5 263.8C312.6 262.4 313.6 260.8 314.6 259.3C316.1 263.9 317.8 268.2 319.8 272.1C315.8 277.9 310.3 282.2 303.0 285.4C304.7 286.9 307.8 290.1 308.9 291.7C315.1 288.5 320.2 284.5 324.3 279.6C327.6 284.4 331.6 288.3 336.3 291.4C337.7 289.3 340.3 286.2 342.2 284.6C337.1 281.6 332.7 277.4 329.2 272.2C333.2 264.7 335.9 255.6 337.5 244.6Z " clip-path="url(#satori_cp-id-1-0-0)" mask="url(#satori_om-id-1-0-0)"/><path fill="black" d="M137.3 515.6C140.8 515.6 143.9 512.6 143.9 507.4C143.9 502.8 141.7 499.7 137.8 499.7C136.1 499.7 134.4 500.6 133.0 501.8L133.1 499.1L133.1 493.0L130.6 493.0L130.6 515.3L132.6 515.3L132.8 513.7L133.0 513.7C134.3 514.9 135.9 515.6 137.3 515.6ZM136.8 513.5C135.8 513.5 134.5 513.1 133.1 511.9L133.1 503.9C134.6 502.6 135.9 501.8 137.2 501.8C140.1 501.8 141.2 504.1 141.2 507.5C141.2 511.2 139.4 513.5 136.8 513.5ZM148.0 521.8C151.0 521.8 152.6 519.5 153.7 516.5L159.4 500.1L156.9 500.1L154.2 508.5C153.8 509.9 153.3 511.4 152.9 512.8L152.8 512.8C152.3 511.4 151.8 509.8 151.3 508.5L148.2 500.1L145.6 500.1L151.7 515.3L151.3 516.4C150.7 518.3 149.6 519.7 147.9 519.7C147.5 519.7 147.0 519.6 146.7 519.5L146.2 521.5C146.7 521.7 147.3 521.8 148.0 521.8Z "/><clipPath id="satori_cp-id-1-0-1-0-2"><rect x="173" y="485" width="57" height="40"/></clipPath><mask id="satori_om-id-1-0-1-0-2"><rect x="173" y="485" width="57" height="40" fill="#fff"/></mask><path fill="black" d="M181.7 515.7C186.5 515.7 189.4 512.8 189.4 509.4C189.4 506.4 187.7 504.8 185.2 503.8L182.5 502.6C180.7 501.9 179.2 501.4 179.2 499.9C179.2 498.5 180.4 497.7 182.2 497.7C183.9 497.7 185.3 498.3 186.6 499.4L188.7 496.8C187.0 495.1 184.6 494.2 182.2 494.2C178.0 494.2 175.0 496.8 175.0 500.2C175.0 503.2 177.1 504.9 179.2 505.7L182.0 506.9C183.9 507.7 185.1 508.2 185.1 509.7C185.1 511.2 184.0 512.1 181.8 512.1C180 512.1 178.0 511.2 176.6 509.8L174.2 512.6C176.2 514.6 179.0 515.7 181.7 515.7ZM193.0 515.3L196.7 515.3L196.7 506.6C196.7 504.7 196.4 501.8 196.2 499.8L196.3 499.8L198.0 504.7L201.2 513.4L203.6 513.4L206.8 504.7L208.4 499.8L208.6 499.8C208.4 501.8 208.1 504.7 208.1 506.6L208.1 515.3L211.8 515.3L211.8 494.5L207.2 494.5L203.8 504.2C203.4 505.5 203.0 506.9 202.5 508.2L202.4 508.2C202.0 506.9 201.6 505.5 201.1 504.2L197.6 494.5L193.0 494.5ZM221.4 515.7C225.9 515.7 227.9 512.5 227.9 508.6L227.9 494.5L223.7 494.5L223.7 508.2C223.7 511.1 222.8 512.1 220.9 512.1C219.8 512.1 218.7 511.4 217.9 509.9L215.0 512.0C216.4 514.4 218.4 515.7 221.4 515.7Z " clip-path="url(#satori_cp-id-1-0-1-0-2)" mask="url(#satori_om-id-1-0-1-0-2)"/><clipPath id="satori_cp-id-1-0-1-1"><rect x="959" y="485" width="112" height="40"/></clipPath><mask id="satori_om-id-1-0-1-1"><rect x="959" y="485" width="112" height="40" fill="#fff"/></mask><path fill="black" d="M985.5 499.3L985.5 496.0L974.0 496.0L976.0 495.2C975.5 494.1 974.7 492.5 974.0 491.2L970.7 492.4C971.2 493.5 971.9 494.9 972.4 496.0L960.5 496.0L960.5 499.3L967.6 499.3C967.3 505.2 966.8 511.5 960.1 515.1C961.0 515.8 962.0 516.9 962.5 517.8C967.5 514.9 969.6 510.6 970.6 505.9L979.4 505.9C979.0 510.9 978.5 513.3 977.8 513.9C977.4 514.2 977.0 514.3 976.4 514.3C975.5 514.3 973.6 514.3 971.7 514.1C972.3 515.0 972.8 516.4 972.9 517.4C974.8 517.5 976.6 517.5 977.7 517.3C979.0 517.2 979.9 517.0 980.7 516.0C981.8 514.8 982.4 511.7 982.9 504.1C983.0 503.7 983.1 502.7 983.1 502.7L971.0 502.7C971.2 501.5 971.2 500.4 971.3 499.3ZM991.1 504.1C992.9 506.2 995.0 509.1 995.8 511.0L998.9 509.1C998.0 507.2 995.8 504.4 993.9 502.5ZM1013.7 497.2L1007.4 497.2L1007.4 491.6L1003.8 491.6L1003.8 497.2L988.3 497.2L988.3 500.5L1003.8 500.5L1003.8 513.3C1003.8 513.9 1003.5 514.2 1002.8 514.2C1002.1 514.2 999.7 514.2 997.4 514.1C997.9 515.1 998.7 516.7 998.9 517.8C1001.8 517.8 1004.1 517.7 1005.5 517.1C1006.9 516.5 1007.4 515.6 1007.4 513.3L1007.4 500.5L1013.7 500.5ZM1037.7 496.6L1037.0 496.7L1030.5 496.7L1032.2 495.8C1031.5 494.6 1030.1 492.6 1029.0 491.2L1026.0 492.8C1026.8 494.0 1027.9 495.5 1028.6 496.7L1017.6 496.7L1017.6 500.0L1034.5 500.0C1031.5 503.8 1026.7 508.1 1022.1 510.9L1022.0 510.9C1020.4 510.9 1018.2 512.4 1016.2 514.5L1018.6 517.7C1019.8 515.9 1021.0 514.0 1021.9 514.0C1022.5 514.0 1023.4 514.9 1024.6 515.6C1026.5 516.8 1028.8 517.2 1032.2 517.2C1035.0 517.2 1039.2 517.0 1041.2 516.9C1041.2 516.0 1041.8 514.2 1042.1 513.3C1039.5 513.7 1035.2 514.0 1032.3 514.0C1029.4 514.0 1027.0 513.8 1025.3 512.7C1030.9 509.0 1036.7 503.5 1040.3 498.3ZM1045.0 517.7L1048.5 517.7L1048.5 498.3L1045.0 498.3ZM1045.5 493.4C1046.7 494.7 1048.2 496.5 1048.7 497.7L1051.5 496.0C1050.9 494.7 1049.4 493.0 1048.1 491.7ZM1054.3 507.4L1059.7 507.4L1059.7 510.0L1054.3 510.0ZM1054.3 502.1L1059.7 502.1L1059.7 504.7L1054.3 504.7ZM1051.3 512.7L1062.8 512.7L1062.8 499.4L1051.3 499.4ZM1069.2 492.9L1052.5 492.9L1052.5 496.0L1065.7 496.0L1065.7 514.1C1065.7 514.4 1065.7 514.6 1065.3 514.6C1065.0 514.6 1063.9 514.6 1063.0 514.5C1063.4 515.4 1063.9 516.6 1064 517.5C1065.7 517.5 1067.1 517.5 1068.0 517.0C1068.9 516.4 1069.2 515.7 1069.2 514.1Z " clip-path="url(#satori_cp-id-1-0-1-1)" mask="url(#satori_om-id-1-0-1-1)"/></svg>