<svg width="1200" height="630" viewBox="0 0 1200 630" xmlns="http://www.w3.org/2000/svg"><rect x="0" y="0" width="1200" height="630" fill="#fefbfb"/><defs><clipPath id="satori_bc-id-0"><path x="105" y="39" width="1056" height="504" d="M109,39 h1048 a4,4 0 0 1 4,4 v496 a4,4 0 0 1 -4,4 h-1048 a4,4 0 0 1 -4,-4 v-496 a4,4 0 0 1 4,-4"/></clipPath></defs><g opacity="0.9"><path x="105" y="39" width="1056" height="504" fill="#ecebeb" d="M109,39 h1048 a4,4 0 0 1 4,4 v496 a4,4 0 0 1 -4,4 h-1048 a4,4 0 0 1 -4,-4 v-496 a4,4 0 0 1 4,-4"/><path width="1056" height="504" clip-path="url(#satori_bc-id-0)" fill="none" stroke="#000" stroke-width="8" d="M106.172,40.172 A4,4 0 0 1 109,39 h1048 a4,4 0 0 1 4,4 v496 a4,4 0 0 1 -4,4 h-1048 a4,4 0 0 1 -4,-4 v-496 A4,4 0 0 1 106.172,40.172"/></g><defs><clipPath id="satori_bc-id-1"><path x="72" y="63" width="1056" height="504" d="M76,63 h1048 a4,4 0 0 1 4,4 v496 a4,4 0 0 1 -4,4 h-1048 a4,4 0 0 1 -4,-4 v-496 a4,4 0 0 1 4,-4"/></clipPath></defs><path x="72" y="63" width="1056" height="504" fill="#fefbfb" d="M76,63 h1048 a4,4 0 0 1 4,4 v496 a4,4 0 0 1 -4,4 h-1048 a4,4 0 0 1 -4,-4 v-496 a4,4 0 0 1 4,-4"/><path width="1056" height="504" clip-path="url(#satori_bc-id-1)" fill="none" stroke="#000" stroke-width="8" d="M73.172,64.172 A4,4 0 0 1 76,63 h1048 a4,4 0 0 1 4,4 v496 a4,4 0 0 1 -4,4 h-1048 a4,4 0 0 1 -4,-4 v-496 A4,4 0 0 1 73.172,64.172"/><clipPath id="satori_cp-id-1-0-0"><rect x="128" y="103" width="944" height="104"/></clipPath><mask id="satori_om-id-1-0-0"><rect x="128" y="103" width="944" height="104" fill="#fff"/></mask><path fill="black" d="M146.1 153.1C147.7 147.5 149.3 141.5 150.7 135.6L151.0 135.6C152.6 141.4 154.0 147.5 155.6 153.1L157.2 158.9L144.6 158.9ZM127.7 180.8L138.5 180.8L142.3 167.2L159.5 167.2L163.3 180.8L174.4 180.8L157.3 127.5L144.8 127.5ZM179.8 180.8L190.4 180.8L190.4 156.8C192.7 151.0 196.5 148.9 199.6 148.9C201.3 148.9 202.4 149.1 203.9 149.5L205.7 140.4C204.5 139.9 203.2 139.5 200.9 139.5C196.8 139.5 192.4 142.4 189.5 147.7L189.3 147.7L188.5 140.5L179.8 140.5ZM227.5 181.9C232.0 181.9 236.9 180.3 240.8 177.0L236.5 170.0C234.3 171.8 231.5 173.2 228.7 173.2C222.9 173.2 218.6 168.3 218.6 160.7C218.6 153.1 222.8 148.2 229.0 148.2C231.2 148.2 233.1 149.1 235.1 150.8L240.2 144.0C237.2 141.5 233.4 139.5 228.4 139.5C217.5 139.5 207.8 147.3 207.8 160.7C207.8 174.1 216.3 181.9 227.5 181.9ZM248.3 180.8L258.9 180.8L258.9 153.1C261.8 150.2 263.9 148.6 267.2 148.6C271.2 148.6 272.9 150.8 272.9 157.0L272.9 180.8L283.5 180.8L283.5 155.7C283.5 145.6 279.8 139.5 271.1 139.5C265.6 139.5 261.6 142.4 258.4 145.4L258.9 137.9L258.9 123.4L248.3 123.4ZM295.3 180.8L327.6 180.8L327.6 171.9L305.9 171.9L305.9 127.5L295.3 127.5ZM336.0 180.8L346.6 180.8L346.6 140.5L336.0 140.5ZM341.3 134.0C344.9 134.0 347.5 131.7 347.5 128.2C347.5 124.8 344.9 122.5 341.3 122.5C337.7 122.5 335.1 124.8 335.1 128.2C335.1 131.7 337.7 134.0 341.3 134.0ZM357.9 180.8L368.5 180.8L368.5 153.1C371.4 150.2 373.5 148.6 376.8 148.6C380.8 148.6 382.5 150.8 382.5 157.0L382.5 180.8L393.1 180.8L393.1 155.7C393.1 145.6 389.4 139.5 380.6 139.5C375.2 139.5 371.1 142.4 367.5 145.9L367.3 145.9L366.5 140.5L357.9 140.5ZM416.1 181.9C421.5 181.9 425.4 179.2 428.9 175.1L429.2 175.1L430.0 180.8L438.6 180.8L438.6 140.5L428.0 140.5L428.0 167.7C425.3 171.3 423.1 172.8 419.8 172.8C415.9 172.8 414.2 170.6 414.2 164.4L414.2 140.5L403.6 140.5L403.6 165.7C403.6 175.8 407.4 181.9 416.1 181.9ZM445.4 180.8L456.3 180.8L460.1 173.4C461.2 171.1 462.3 168.7 463.4 166.4L463.8 166.4C465.1 168.7 466.4 171.1 467.7 173.4L472.2 180.8L483.5 180.8L470.9 161.0L482.7 140.5L471.8 140.5L468.4 147.7C467.5 150.0 466.4 152.3 465.5 154.5L465.2 154.5C464.0 152.3 462.7 150.0 461.6 147.7L457.5 140.5L446.2 140.5L458.0 159.8ZM499.2 135.6L542.0 135.6L542.0 143.7L551.1 143.7L551.1 127.6L525.7 127.6C524.6 125.2 523.1 122.1 521.8 119.6L512.8 121.7C513.6 123.5 514.6 125.6 515.4 127.6L490.4 127.6L490.4 143.7L499.2 143.7ZM529.8 155.8C528.0 159.9 525.5 163.4 522.5 166.3C518.5 164.8 514.6 163.3 510.7 162.0C512.0 160.1 513.3 158.0 514.6 155.8ZM552.5 155.8L552.5 147.7L519.0 147.7C520.5 144.8 521.9 141.9 523.1 139.1L513.5 137.1C512.2 140.5 510.5 144.1 508.6 147.7L489.1 147.7L489.1 155.8L504.0 155.8C501.8 159.4 499.4 162.8 497.3 165.6L497.1 165.7C502.5 167.5 508.4 169.7 514.3 172.1C507.6 175.6 499.2 177.8 489.3 179.2C491.0 181.1 493.5 185.0 494.4 187.1C506.1 184.9 516.0 181.5 523.8 176.1C532.3 180.0 540.1 183.9 545.2 187.3L552.2 180.1C546.9 176.8 539.3 173.2 531.1 169.8C534.6 165.9 537.5 161.3 539.7 155.8ZM600.5 144.1L587 144.1L587 151.4L623.2 151.4L623.2 144.1L609.1 144.1L609.1 135.6L624.7 135.6L624.7 128.2L609.1 128.2L609.1 119.9L600.5 119.9L600.5 128.2L585.1 128.2L585.1 135.6L600.5 135.6ZM574.3 130.4C572.3 128.2 568.3 125.2 565.2 123.2L560.3 128.0C563.5 130.2 567.3 133.5 569.1 135.8ZM574.6 154.4L582.5 154.4L582.5 119.9L574.6 119.9L574.6 138.2C568.8 140.7 563.1 143.0 558.9 144.5L561.7 151.4C565.5 149.7 570.2 147.7 574.6 145.8ZM615.7 164.2C612.9 166.3 609.0 168.8 605.6 170.6C603.6 168.8 601.8 166.7 600.3 164.2ZM617.2 164.2L625.4 164.2L625.4 157.4L597.9 157.4C597.2 155.6 596.1 153.6 595.2 151.9L586.9 154.3C587.3 155.2 587.7 156.3 588.2 157.4L560.1 157.4L560.1 164.2L581.5 164.2C575.4 167.8 567.1 170.6 558.7 171.9C560.3 173.5 562.4 176.2 563.4 178.0C567.1 177.2 570.7 176.2 574.3 174.9L574.3 176.0C574.3 179.3 571.7 180.6 570.1 181.1C571.0 182.5 572.2 185.7 572.6 187.6C574.3 186.5 577.4 185.9 597.6 181.6C597.6 180.1 597.8 176.8 598.2 174.9L582.6 177.9L582.6 171.2C586.3 169.2 589.5 167.0 592.3 164.4C597.8 176.3 606.9 183.5 621.8 186.7C622.8 184.5 624.9 181.4 626.6 179.7C620.6 178.7 615.4 177.0 611.3 174.7C614.9 172.9 619.1 170.6 622.5 168.2ZM685.2 140.9C684.4 147.2 683.1 152.8 681.4 157.7C679.4 152.6 678.0 146.9 677 140.9ZM659.2 149.0L657.7 149.5L653.7 149.5C654.8 148.3 655.8 147.1 656.8 145.8L665.2 145.8C664.1 147.7 663.0 149.5 661.7 151.0ZM649.9 133.6L655.7 133.6C654.6 135.3 653.5 136.9 652.4 138.4L649.9 138.4ZM698.3 140.9L698.3 133.0L679.2 133.0C680.2 129.2 681.0 125.2 681.8 121.2L673.0 119.9C671.7 128.7 669.4 137.3 666.1 144.1L666.1 138.4L662.0 138.4C664.8 134.0 667.4 129.1 669.4 123.8L661.4 121.7C660.2 125.0 658.7 128.4 656.9 131.5L656.9 126.4L649.9 126.4L649.9 119.9L642.0 119.9L642.0 126.4L633.8 126.4L633.8 133.6L642.0 133.6L642.0 138.4L631.1 138.4L631.1 145.8L646.0 145.8C644.8 147.1 643.4 148.3 642.1 149.5L637.3 149.5L637.3 153.1C635.0 154.6 632.6 156.0 630.1 157.3C631.8 158.8 634.7 162.1 635.9 163.8C639.8 161.6 643.4 159.0 646.9 156.1L651.4 156.1C649.5 158.0 647.4 159.8 645.5 161.1L645.5 165.2C640.0 165.7 634.9 166.0 630.8 166.3L631.8 173.9C635.7 173.6 640.4 173.1 645.5 172.7L645.5 178.8C645.5 179.5 645.2 179.7 644.2 179.8C643.3 179.8 640.3 179.8 637.4 179.7C638.5 181.8 639.6 184.7 639.8 187.0C644.4 187.0 647.8 186.9 650.3 185.7C652.8 184.6 653.5 182.6 653.5 178.9L653.5 172.1C657.7 171.7 662.0 171.3 666.3 170.9L666.3 163.6C662.0 163.9 657.7 164.3 653.5 164.6L653.5 162.6C657.0 159.8 660.6 156.5 663.4 153.3C665.2 154.8 667.2 156.7 668.1 157.7C669.3 156.2 670.4 154.5 671.5 152.8C672.8 158.0 674.4 162.9 676.4 167.3C672.7 172.6 667.6 176.7 660.9 179.6C662.5 181.4 665.0 185.4 665.8 187.4C672.0 184.2 677 180.3 681.0 175.7C684.2 180.3 688.2 184.2 693.1 187.2C694.4 184.8 697.1 181.4 699.0 179.7C693.8 177.0 689.5 172.9 686.3 167.7C690.1 160.4 692.6 151.6 694.1 140.9ZM758.4 139.7L741.7 139.7L741.7 129.7L758.4 129.7ZM766.8 122.5L733.7 122.5L733.7 146.9L766.8 146.9ZM731.6 159.5C730.3 158.0 724.4 151.7 722.4 150.1L722.4 148.0L730.1 148.0L730.1 140.0L722.4 140.0L722.4 129.9C725.5 129.1 728.4 128.1 731 127.1L725.3 120.6C719.8 123.1 710.9 125.2 703.0 126.6C703.9 128.3 704.9 131.2 705.4 133.1C708.2 132.8 711.1 132.2 714.2 131.7L714.2 140.0L703.9 140.0L703.9 148.0L713 148.0C710.3 155.0 706.4 162.6 702.3 167.3C703.7 169.5 705.5 173.0 706.3 175.4C709.1 171.8 711.8 166.7 714.2 161.2L714.2 187.0L722.4 187.0L722.4 159.0C724.2 161.6 725.9 164.4 726.8 166.2ZM754.3 178.0L754.3 171.7L767 171.7L767 164.5L754.3 164.5L754.3 158.5L768.7 158.5L768.7 151.2L731.4 151.2L731.4 158.5L745.8 158.5L745.8 164.5L733.2 164.5L733.2 171.7L745.8 171.7L745.8 178.0L728.6 178.0L728.6 185.5L770.2 185.5L770.2 178.0Z " clip-path="url(#satori_cp-id-1-0-0)" mask="url(#satori_om-id-1-0-0)"/><path fill="black" d="M137.3 515.6C140.8 515.6 143.9 512.6 143.9 507.4C143.9 502.8 141.7 499.7 137.8 499.7C136.1 499.7 134.4 500.6 133.0 501.8L133.1 499.1L133.1 493.0L130.6 493.0L130.6 515.3L132.6 515.3L132.8 513.7L133.0 513.7C134.3 514.9 135.9 515.6 137.3 515.6ZM136.8 513.5C135.8 513.5 134.5 513.1 133.1 511.9L133.1 503.9C134.6 502.6 135.9 501.8 137.2 501.8C140.1 501.8 141.2 504.1 141.2 507.5C141.2 511.2 139.4 513.5 136.8 513.5ZM148.0 521.8C151.0 521.8 152.6 519.5 153.7 516.5L159.4 500.1L156.9 500.1L154.2 508.5C153.8 509.9 153.3 511.4 152.9 512.8L152.8 512.8C152.3 511.4 151.8 509.8 151.3 508.5L148.2 500.1L145.6 500.1L151.7 515.3L151.3 516.4C150.7 518.3 149.6 519.7 147.9 519.7C147.5 519.7 147.0 519.6 146.7 519.5L146.2 521.5C146.7 521.7 147.3 521.8 148.0 521.8Z "/><clipPath id="satori_cp-id-1-0-1-0-2"><rect x="173" y="485" width="57" height="40"/></clipPath><mask id="satori_om-id-1-0-1-0-2"><rect x="173" y="485" width="57" height="40" fill="#fff"/></mask><path fill="black" d="M181.7 515.7C186.5 515.7 189.4 512.8 189.4 509.4C189.4 506.4 187.7 504.8 185.2 503.8L182.5 502.6C180.7 501.9 179.2 501.4 179.2 499.9C179.2 498.5 180.4 497.7 182.2 497.7C183.9 497.7 185.3 498.3 186.6 499.4L188.7 496.8C187.0 495.1 184.6 494.2 182.2 494.2C178.0 494.2 175.0 496.8 175.0 500.2C175.0 503.2 177.1 504.9 179.2 505.7L182.0 506.9C183.9 507.7 185.1 508.2 185.1 509.7C185.1 511.2 184.0 512.1 181.8 512.1C180 512.1 178.0 511.2 176.6 509.8L174.2 512.6C176.2 514.6 179.0 515.7 181.7 515.7ZM193.0 515.3L196.7 515.3L196.7 506.6C196.7 504.7 196.4 501.8 196.2 499.8L196.3 499.8L198.0 504.7L201.2 513.4L203.6 513.4L206.8 504.7L208.4 499.8L208.6 499.8C208.4 501.8 208.1 504.7 208.1 506.6L208.1 515.3L211.8 515.3L211.8 494.5L207.2 494.5L203.8 504.2C203.4 505.5 203.0 506.9 202.5 508.2L202.4 508.2C202.0 506.9 201.6 505.5 201.1 504.2L197.6 494.5L193.0 494.5ZM221.4 515.7C225.9 515.7 227.9 512.5 227.9 508.6L227.9 494.5L223.7 494.5L223.7 508.2C223.7 511.1 222.8 512.1 220.9 512.1C219.8 512.1 218.7 511.4 217.9 509.9L215.0 512.0C216.4 514.4 218.4 515.7 221.4 515.7Z " clip-path="url(#satori_cp-id-1-0-1-0-2)" mask="url(#satori_om-id-1-0-1-0-2)"/><clipPath id="satori_cp-id-1-0-1-1"><rect x="959" y="485" width="112" height="40"/></clipPath><mask id="satori_om-id-1-0-1-1"><rect x="959" y="485" width="112" height="40" fill="#fff"/></mask><path fill="black" d="M985.5 499.3L985.5 496.0L974.0 496.0L976.0 495.2C975.5 494.1 974.7 492.5 974.0 491.2L970.7 492.4C971.2 493.5 971.9 494.9 972.4 496.0L960.5 496.0L960.5 499.3L967.6 499.3C967.3 505.2 966.8 511.5 960.1 515.1C961.0 515.8 962.0 516.9 962.5 517.8C967.5 514.9 969.6 510.6 970.6 505.9L979.4 505.9C979.0 510.9 978.5 513.3 977.8 513.9C977.4 514.2 977.0 514.3 976.4 514.3C975.5 514.3 973.6 514.3 971.7 514.1C972.3 515.0 972.8 516.4 972.9 517.4C974.8 517.5 976.6 517.5 977.7 517.3C979.0 517.2 979.9 517.0 980.7 516.0C981.8 514.8 982.4 511.7 982.9 504.1C983.0 503.7 983.1 502.7 983.1 502.7L971.0 502.7C971.2 501.5 971.2 500.4 971.3 499.3ZM991.1 504.1C992.9 506.2 995.0 509.1 995.8 511.0L998.9 509.1C998.0 507.2 995.8 504.4 993.9 502.5ZM1013.7 497.2L1007.4 497.2L1007.4 491.6L1003.8 491.6L1003.8 497.2L988.3 497.2L988.3 500.5L1003.8 500.5L1003.8 513.3C1003.8 513.9 1003.5 514.2 1002.8 514.2C1002.1 514.2 999.7 514.2 997.4 514.1C997.9 515.1 998.7 516.7 998.9 517.8C1001.8 517.8 1004.1 517.7 1005.5 517.1C1006.9 516.5 1007.4 515.6 1007.4 513.3L1007.4 500.5L1013.7 500.5ZM1037.7 496.6L1037.0 496.7L1030.5 496.7L1032.2 495.8C1031.5 494.6 1030.1 492.6 1029.0 491.2L1026.0 492.8C1026.8 494.0 1027.9 495.5 1028.6 496.7L1017.6 496.7L1017.6 500.0L1034.5 500.0C1031.5 503.8 1026.7 508.1 1022.1 510.9L1022.0 510.9C1020.4 510.9 1018.2 512.4 1016.2 514.5L1018.6 517.7C1019.8 515.9 1021.0 514.0 1021.9 514.0C1022.5 514.0 1023.4 514.9 1024.6 515.6C1026.5 516.8 1028.8 517.2 1032.2 517.2C1035.0 517.2 1039.2 517.0 1041.2 516.9C1041.2 516.0 1041.8 514.2 1042.1 513.3C1039.5 513.7 1035.2 514.0 1032.3 514.0C1029.4 514.0 1027.0 513.8 1025.3 512.7C1030.9 509.0 1036.7 503.5 1040.3 498.3ZM1045.0 517.7L1048.5 517.7L1048.5 498.3L1045.0 498.3ZM1045.5 493.4C1046.7 494.7 1048.2 496.5 1048.7 497.7L1051.5 496.0C1050.9 494.7 1049.4 493.0 1048.1 491.7ZM1054.3 507.4L1059.7 507.4L1059.7 510.0L1054.3 510.0ZM1054.3 502.1L1059.7 502.1L1059.7 504.7L1054.3 504.7ZM1051.3 512.7L1062.8 512.7L1062.8 499.4L1051.3 499.4ZM1069.2 492.9L1052.5 492.9L1052.5 496.0L1065.7 496.0L1065.7 514.1C1065.7 514.4 1065.7 514.6 1065.3 514.6C1065.0 514.6 1063.9 514.6 1063.0 514.5C1063.4 515.4 1063.9 516.6 1064 517.5C1065.7 517.5 1067.1 517.5 1068.0 517.0C1068.9 516.4 1069.2 515.7 1069.2 514.1Z " clip-path="url(#satori_cp-id-1-0-1-1)" mask="url(#satori_om-id-1-0-1-1)"/></svg>