<svg width="1200" height="630" viewBox="0 0 1200 630" xmlns="http://www.w3.org/2000/svg"><rect x="0" y="0" width="1200" height="630" fill="#fefbfb"/><defs><clipPath id="satori_bc-id-0"><path x="105" y="39" width="1056" height="504" d="M109,39 h1048 a4,4 0 0 1 4,4 v496 a4,4 0 0 1 -4,4 h-1048 a4,4 0 0 1 -4,-4 v-496 a4,4 0 0 1 4,-4"/></clipPath></defs><g opacity="0.9"><path x="105" y="39" width="1056" height="504" fill="#ecebeb" d="M109,39 h1048 a4,4 0 0 1 4,4 v496 a4,4 0 0 1 -4,4 h-1048 a4,4 0 0 1 -4,-4 v-496 a4,4 0 0 1 4,-4"/><path width="1056" height="504" clip-path="url(#satori_bc-id-0)" fill="none" stroke="#000" stroke-width="8" d="M106.172,40.172 A4,4 0 0 1 109,39 h1048 a4,4 0 0 1 4,4 v496 a4,4 0 0 1 -4,4 h-1048 a4,4 0 0 1 -4,-4 v-496 A4,4 0 0 1 106.172,40.172"/></g><defs><clipPath id="satori_bc-id-1"><path x="72" y="63" width="1056" height="504" d="M76,63 h1048 a4,4 0 0 1 4,4 v496 a4,4 0 0 1 -4,4 h-1048 a4,4 0 0 1 -4,-4 v-496 a4,4 0 0 1 4,-4"/></clipPath></defs><path x="72" y="63" width="1056" height="504" fill="#fefbfb" d="M76,63 h1048 a4,4 0 0 1 4,4 v496 a4,4 0 0 1 -4,4 h-1048 a4,4 0 0 1 -4,-4 v-496 a4,4 0 0 1 4,-4"/><path width="1056" height="504" clip-path="url(#satori_bc-id-1)" fill="none" stroke="#000" stroke-width="8" d="M73.172,64.172 A4,4 0 0 1 76,63 h1048 a4,4 0 0 1 4,4 v496 a4,4 0 0 1 -4,4 h-1048 a4,4 0 0 1 -4,-4 v-496 A4,4 0 0 1 73.172,64.172"/><clipPath id="satori_cp-id-1-0-0"><rect x="128" y="103" width="944" height="209"/></clipPath><mask id="satori_om-id-1-0-0"><rect x="128" y="103" width="944" height="209" fill="#fff"/></mask><path fill="black" d="M146.1 153.1C147.7 147.5 149.3 141.5 150.7 135.6L151.0 135.6C152.6 141.4 154.0 147.5 155.6 153.1L157.2 158.9L144.6 158.9ZM127.7 180.8L138.5 180.8L142.3 167.2L159.5 167.2L163.3 180.8L174.4 180.8L157.3 127.5L144.8 127.5ZM179.8 180.8L190.4 180.8L190.4 156.8C192.7 151.0 196.5 148.9 199.6 148.9C201.3 148.9 202.4 149.1 203.9 149.5L205.7 140.4C204.5 139.9 203.2 139.5 200.9 139.5C196.8 139.5 192.4 142.4 189.5 147.7L189.3 147.7L188.5 140.5L179.8 140.5ZM227.5 181.9C232.0 181.9 236.9 180.3 240.8 177.0L236.5 170.0C234.3 171.8 231.5 173.2 228.7 173.2C222.9 173.2 218.6 168.3 218.6 160.7C218.6 153.1 222.8 148.2 229.0 148.2C231.2 148.2 233.1 149.1 235.1 150.8L240.2 144.0C237.2 141.5 233.4 139.5 228.4 139.5C217.5 139.5 207.8 147.3 207.8 160.7C207.8 174.1 216.3 181.9 227.5 181.9ZM248.3 180.8L258.9 180.8L258.9 153.1C261.8 150.2 263.9 148.6 267.2 148.6C271.2 148.6 272.9 150.8 272.9 157.0L272.9 180.8L283.5 180.8L283.5 155.7C283.5 145.6 279.8 139.5 271.1 139.5C265.6 139.5 261.6 142.4 258.4 145.4L258.9 137.9L258.9 123.4L248.3 123.4Z M312.5 180.8L344.8 180.8L344.8 171.9L323.1 171.9L323.1 127.5L312.5 127.5ZM353.2 180.8L363.8 180.8L363.8 140.5L353.2 140.5ZM358.5 134.0C362.1 134.0 364.7 131.7 364.7 128.2C364.7 124.8 362.1 122.5 358.5 122.5C354.9 122.5 352.4 124.8 352.4 128.2C352.4 131.7 354.9 134.0 358.5 134.0ZM375.1 180.8L385.7 180.8L385.7 153.1C388.6 150.2 390.7 148.6 394.0 148.6C398 148.6 399.7 150.8 399.7 157.0L399.7 180.8L410.3 180.8L410.3 155.7C410.3 145.6 406.6 139.5 397.9 139.5C392.4 139.5 388.3 142.4 384.8 145.9L384.5 145.9L383.7 140.5L375.1 140.5ZM433.3 181.9C438.8 181.9 442.6 179.2 446.1 175.1L446.4 175.1L447.2 180.8L455.8 180.8L455.8 140.5L445.2 140.5L445.2 167.7C442.5 171.3 440.3 172.8 437.0 172.8C433.1 172.8 431.4 170.6 431.4 164.4L431.4 140.5L420.8 140.5L420.8 165.7C420.8 175.8 424.6 181.9 433.3 181.9ZM462.6 180.8L473.5 180.8L477.3 173.4C478.4 171.1 479.5 168.7 480.7 166.4L481.0 166.4C482.3 168.7 483.6 171.1 484.9 173.4L489.4 180.8L500.7 180.8L488.1 161.0L500.0 140.5L489.0 140.5L485.6 147.7C484.7 150.0 483.6 152.3 482.7 154.5L482.4 154.5C481.2 152.3 479.9 150.0 478.8 147.7L474.8 140.5L463.4 140.5L475.2 159.8ZM553.0 161.3L553.0 166.0L523.2 166.0L523.2 161.3ZM523.2 177.7L523.2 172.5L553.0 172.5L553.0 177.7ZM514.6 187.3L523.2 187.3L523.2 184.7L553.0 184.7L553.0 187.2L562.0 187.2L562.0 154.1L514.6 154.1ZM548.8 133.3C548.0 136.1 546.8 139.4 545.6 142.1L530.8 142.1C530.3 139.5 528.8 136.0 527.1 133.3ZM555.0 142.1C556.1 139.9 557.3 137.4 558.6 134.7L551.9 133.3L566.8 133.3L566.8 125.7L543.7 125.7C542.9 123.5 541.9 121.0 540.6 119.1L531.7 120.5C532.5 122.0 533.4 123.9 533.9 125.7L509.7 125.7L509.7 133.3L525.5 133.3L518.5 134.6C519.7 136.9 520.8 139.7 521.4 142.1L505.6 142.1L505.6 149.7L570.2 149.7L570.2 142.1ZM591.4 134.0L591.4 160.5L586.1 160.5L586.1 134.0ZM598.4 126.1L578.7 126.1L578.7 174.7L586.1 174.7L586.1 168.3L598.4 168.3ZM624.3 150.5L624.3 163.9L619.7 163.9L619.7 150.5ZM629.8 169.8L629.8 144.6L614.1 144.6L614.1 173.6L619.7 173.6L619.7 169.8ZM641.8 131.6L622.4 131.6C623.8 128.5 625.3 125.0 626.7 121.4L616.7 119.7C616.1 123.2 614.7 127.9 613.4 131.6L602.2 131.6L602.2 186.6L610.3 186.6L610.3 138.9L633.5 138.9L633.5 178.3C633.5 179.3 633.2 179.6 632.3 179.6C631.4 179.6 628.5 179.6 626.0 179.5C627.0 181.5 628.0 185.0 628.3 187.0C633.0 187.1 636.3 187.0 638.7 185.6C641.1 184.4 641.8 182.3 641.8 178.5ZM697.5 154.4L671.5 154.4L671.5 149.7L697.5 149.7ZM671.5 166.2L671.5 161.5L697.5 161.5L697.5 166.2ZM713.9 136.6L713.9 128.5L678.8 128.5C679.7 126.3 680.4 124.0 681.1 121.8L672.2 119.8C671.5 122.7 670.6 125.6 669.4 128.5L650.1 128.5L650.1 136.6L665.8 136.6C661.5 144.9 655.5 152.5 647.9 157.6C649.6 159.2 652.3 162.3 653.5 164.1C657.1 161.8 660.2 158.9 663.0 155.7L663.0 187.0L671.5 187.0L671.5 173.3L697.5 173.3L697.5 177.6C697.5 178.6 697.1 179.0 695.9 179.0C694.6 179.0 690.5 179.0 686.8 178.8C687.9 181.1 689.0 184.7 689.4 187.1C695.2 187.1 699.3 187.0 702.1 185.7C705.1 184.4 705.9 182.1 705.9 177.8L705.9 142.3L672.5 142.3C673.6 140.4 674.6 138.5 675.4 136.6ZM762.5 135.8L762.5 142.0C762.5 149.7 764.5 152.1 771.5 152.1L777.9 152.1C783.6 152.1 785.8 149.5 786.7 140.0C784.4 139.4 780.8 138.0 779.1 136.7C778.9 143.2 778.5 144.1 777.1 144.1L772.9 144.1C771.3 144.1 771.1 143.8 771.1 141.8L771.1 127.8L751.2 127.8C751.6 125.3 751.9 122.7 752.1 119.9L743.2 119.9C743.0 122.7 742.7 125.3 742.3 127.8L724.6 127.8L724.6 135.8L739.6 135.8C736.8 141.0 731.4 144.8 720.8 147.4C722.6 149.0 724.7 152.3 725.5 154.4C739.7 150.5 746.1 144.3 749.2 135.8ZM735.0 165.6C732.0 170.3 726.5 175.0 721.1 177.8C723.0 179.2 726.4 182.1 728.0 183.7C733.4 180.1 739.7 174.2 743.5 168.2ZM763.3 169.1C767.9 173.2 773.8 179.2 776.5 182.9L784.2 178.8C781.3 174.9 775.1 169.3 770.5 165.5ZM758.1 150.2L748.9 150.2L748.9 155.9L722.7 155.9L722.7 163.9L748.9 163.9L748.9 177.7C748.9 178.6 748.6 178.8 747.4 178.8C746.3 178.9 742.4 178.9 739.0 178.8C740.2 181.1 741.5 184.6 741.9 187.0C747.3 187.0 751.3 186.9 754.3 185.6C757.2 184.4 758.1 182.1 758.1 177.8L758.1 163.9L785.1 163.9L785.1 155.9L758.1 155.9ZM841.0 161.3L841.0 166.0L811.2 166.0L811.2 161.3ZM811.2 177.7L811.2 172.5L841.0 172.5L841.0 177.7ZM802.6 187.3L811.2 187.3L811.2 184.7L841.0 184.7L841.0 187.2L850.0 187.2L850.0 154.1L802.6 154.1ZM836.8 133.3C836.0 136.1 834.8 139.4 833.6 142.1L818.8 142.1C818.3 139.5 816.8 136.0 815.1 133.3ZM843.0 142.1C844.1 139.9 845.3 137.4 846.6 134.7L839.9 133.3L854.8 133.3L854.8 125.7L831.7 125.7C830.9 123.5 829.9 121.0 828.6 119.1L819.7 120.5C820.5 122.0 821.4 123.9 821.9 125.7L797.7 125.7L797.7 133.3L813.5 133.3L806.5 134.6C807.7 136.9 808.8 139.7 809.4 142.1L793.6 142.1L793.6 149.7L858.2 149.7L858.2 142.1ZM875.1 172.1L875.1 158.0L886.6 158.0L886.6 172.1ZM886.6 150.6L875.1 150.6L875.1 138.9L886.6 138.9ZM909.5 131.0C910.6 127.9 911.5 124.9 912.3 121.8L904.1 119.9C902.0 128.4 898.5 137.1 894.4 143.1L894.4 131.5L883.2 131.5C884.4 128.4 885.7 124.8 887.0 121.2L877.6 119.9C877.3 123.2 876.4 127.9 875.5 131.5L867.4 131.5L867.4 185.0L875.1 185.0L875.1 179.7L894.4 179.7L894.4 146.1C896.3 147.4 898.8 149.0 899.9 150.1C902.1 147.0 904.4 143.0 906.2 138.7L921.7 138.7C920.9 164.1 919.9 174.9 917.8 177.2C916.9 178.2 916.1 178.5 914.7 178.5C912.8 178.5 908.6 178.5 903.9 178.0C905.5 180.4 906.6 184.0 906.8 186.4C911.0 186.5 915.3 186.6 918.1 186.2C920.9 185.7 923.0 185.0 925.0 182.3C927.9 178.5 928.7 167.0 929.6 134.8C929.7 133.8 929.7 131.0 929.7 131.0ZM917.8 163.8C915.5 159.6 910.8 152.8 907.2 147.8L900.5 151.6C904.0 156.9 908.5 163.9 910.5 168.2ZM968.8 143.8C970.4 145.1 972.0 147.5 972.7 149.2C973.2 149.0 973.7 148.7 974.2 148.4C973.2 153.8 971.4 159.3 968.8 163.1ZM957.7 170.5L961.8 170.5L961.8 178.2C961.8 178.9 961.6 179.1 961.0 179.1C960.5 179.1 959.2 179.1 957.7 179.0ZM947.9 164.2C948.1 161.8 948.2 159.5 948.2 157.3L948.2 156.9L952.1 156.9L952.1 164.2ZM956.9 133.0C956.3 134.9 955.6 136.7 954.9 138.3L947.3 138.3C948.2 136.6 949.0 134.9 949.8 133.0ZM948.2 144.6L952.1 144.6L952.1 150.8L948.2 150.8ZM961.8 156.9L961.8 164.2L957.7 164.2L957.7 156.9ZM957.7 150.8L957.7 144.6L961.8 144.6L961.8 150.8ZM1003.4 167.6L992.6 167.6L992.6 161.1L1001.9 161.1L1001.9 153.9L992.6 153.9L992.6 148.2L984.5 148.2L984.5 153.9L980.2 153.9C980.6 152.4 981.0 150.8 981.2 149.3L974.9 148.1C982.1 144.0 984.8 138.0 986.0 130.5L993.9 130.5C993.7 136.5 993.3 138.9 992.6 139.7C992.1 140.4 991.6 140.5 990.6 140.5C989.8 140.5 987.8 140.5 985.5 140.2C986.6 142.1 987.3 144.9 987.5 147.2C990.4 147.2 993.2 147.2 994.7 146.9C996.6 146.6 997.9 146.1 999.1 144.6C1000.6 142.8 1001.3 137.7 1001.6 126.3C1001.7 125.3 1001.8 123.5 1001.8 123.5L970.2 123.5L970.2 130.5L978.2 130.5C977.2 135.8 975.0 140.2 968.8 142.9L968.8 138.3L962.3 138.3C963.8 135.4 965.3 132.1 966.3 129.4L961.3 126.2L960.1 126.6L952.3 126.6C952.8 124.9 953.3 123.2 953.8 121.5L946.1 119.9C944.2 128.4 940.4 136.7 935.5 142.0C937.0 143.0 939.6 145.1 941.1 146.6L941.1 157.3C941.1 165.4 940.7 176.0 935.9 183.4C937.5 184.2 940.7 186.2 942.0 187.3C945.0 182.7 946.6 176.6 947.4 170.5L952.1 170.5L952.1 182.6L957.7 182.6L957.7 180.1C958.5 182.0 959.2 184.4 959.4 186.2C962.6 186.2 964.8 186.0 966.6 184.7C968.4 183.5 968.8 181.4 968.8 178.3L968.8 163.5C970.5 164.3 973.4 165.7 974.8 166.7C975.8 165.1 976.8 163.2 977.7 161.1L984.5 161.1L984.5 167.6L970.9 167.6L970.9 174.9L984.5 174.9L984.5 187.0L992.6 187.0L992.6 174.9L1003.4 174.9Z M149.3 242.3C146.9 238.0 141.7 231.5 137.6 226.9L130.9 231.0C134.8 236.0 139.9 242.8 141.9 246.9ZM142.2 259.2C138.4 267.9 133.5 277.3 129.9 282.9L137.4 288.1C141.3 280.9 145.4 272.3 148.7 264.4ZM175.8 242.8L183.4 242.8L183.4 256.2L175.5 256.2C175.7 253.8 175.8 251.5 175.8 249.1ZM197.6 264.4L197.6 256.2L191.6 256.2L191.6 234.8L175.8 234.8L175.8 224.0L166.7 224.0L166.7 234.8L153.8 234.8L153.8 242.8L166.7 242.8L166.7 249.0C166.7 251.4 166.7 253.8 166.5 256.2L150.5 256.2L150.5 264.4L165.0 264.4C162.8 272.1 157.7 279.4 146.1 284.6C148.2 286.3 151.1 289.6 152.3 291.5C163.7 285.5 169.8 277.3 172.8 268.8C176.8 279.3 182.9 287.0 192.9 291.2C194.2 288.8 196.7 285.3 198.6 283.6C189.3 280.4 183.2 273.4 179.8 264.4ZM270.3 270.3C268.8 264.6 265.4 255.2 262.4 248.2L255.2 250.6C255.4 247.7 255.4 244.4 255.6 240.8C255.7 239.6 255.7 236.4 255.7 236.4L234.7 236.4L234.7 224.3L225.3 224.3L225.3 236.4L206.0 236.4L206.0 245.1L225.2 245.1C224.5 258.2 220.6 274.2 202.5 284.9C204.8 286.3 208.1 289.8 209.6 291.9C229.9 279.6 233.9 260.5 234.6 245.1L245.9 245.1C245.1 268.0 244.1 277.8 242.1 280.0C241.2 281.0 240.4 281.2 239.0 281.2C237.1 281.2 233.1 281.2 228.8 280.9C230.3 283.4 231.6 287.4 231.8 290.0C236.1 290.1 240.6 290.2 243.3 289.8C246.4 289.3 248.5 288.4 250.5 285.6C253.1 282.4 254.2 273.8 255.2 252.6C257.8 259.5 260.6 268.3 261.8 273.7ZM211.6 249.0C209.3 255.5 205.5 262.9 201.6 267.9L209.6 272.4C213.4 266.8 216.9 258.7 219.5 252.3ZM297.3 232.1C294.2 229.8 288.1 226.6 283.6 224.8L278.9 231.2C283.5 233.3 289.4 236.7 292.3 239.2ZM292.9 251.1C289.8 248.7 283.7 245.8 279.2 244.1L274.7 250.5C279.3 252.5 285.3 255.9 288.1 258.2ZM284.5 290.6C288.7 283.6 293.3 275.4 297.1 267.9L290.8 262.1C286.5 270.5 281.1 279.3 277.2 284.8ZM341.0 287.5C339.2 281.6 333.9 273.3 329.2 267.0L322.2 270.5C323.8 272.7 325.5 275.3 327.0 277.9L310.1 279.6C313.6 274.2 317.2 267.7 320.1 261.1L339.7 261.1L339.7 253.1L322.3 253.1L322.3 242.9L337.0 242.9L337.0 234.8L322.3 234.8L322.3 224.0L313.6 224.0L313.6 234.8L299.4 234.8L299.4 242.9L313.6 242.9L313.6 253.1L296.6 253.1L296.6 261.1L310.1 261.1C307.2 268.3 303.8 274.6 302.5 276.5C300.8 279.1 299.4 280.6 297.8 281.1C298.9 283.6 300.3 287.8 300.8 289.7C303.2 288.5 306.8 287.9 330.9 285.0C332.0 287.3 332.9 289.5 333.3 291.4Z " clip-path="url(#satori_cp-id-1-0-0)" mask="url(#satori_om-id-1-0-0)"/><path fill="black" d="M137.3 515.6C140.8 515.6 143.9 512.6 143.9 507.4C143.9 502.8 141.7 499.7 137.8 499.7C136.1 499.7 134.4 500.6 133.0 501.8L133.1 499.1L133.1 493.0L130.6 493.0L130.6 515.3L132.6 515.3L132.8 513.7L133.0 513.7C134.3 514.9 135.9 515.6 137.3 515.6ZM136.8 513.5C135.8 513.5 134.5 513.1 133.1 511.9L133.1 503.9C134.6 502.6 135.9 501.8 137.2 501.8C140.1 501.8 141.2 504.1 141.2 507.5C141.2 511.2 139.4 513.5 136.8 513.5ZM148.0 521.8C151.0 521.8 152.6 519.5 153.7 516.5L159.4 500.1L156.9 500.1L154.2 508.5C153.8 509.9 153.3 511.4 152.9 512.8L152.8 512.8C152.3 511.4 151.8 509.8 151.3 508.5L148.2 500.1L145.6 500.1L151.7 515.3L151.3 516.4C150.7 518.3 149.6 519.7 147.9 519.7C147.5 519.7 147.0 519.6 146.7 519.5L146.2 521.5C146.7 521.7 147.3 521.8 148.0 521.8Z "/><clipPath id="satori_cp-id-1-0-1-0-2"><rect x="173" y="485" width="57" height="40"/></clipPath><mask id="satori_om-id-1-0-1-0-2"><rect x="173" y="485" width="57" height="40" fill="#fff"/></mask><path fill="black" d="M181.7 515.7C186.5 515.7 189.4 512.8 189.4 509.4C189.4 506.4 187.7 504.8 185.2 503.8L182.5 502.6C180.7 501.9 179.2 501.4 179.2 499.9C179.2 498.5 180.4 497.7 182.2 497.7C183.9 497.7 185.3 498.3 186.6 499.4L188.7 496.8C187.0 495.1 184.6 494.2 182.2 494.2C178.0 494.2 175.0 496.8 175.0 500.2C175.0 503.2 177.1 504.9 179.2 505.7L182.0 506.9C183.9 507.7 185.1 508.2 185.1 509.7C185.1 511.2 184.0 512.1 181.8 512.1C180 512.1 178.0 511.2 176.6 509.8L174.2 512.6C176.2 514.6 179.0 515.7 181.7 515.7ZM193.0 515.3L196.7 515.3L196.7 506.6C196.7 504.7 196.4 501.8 196.2 499.8L196.3 499.8L198.0 504.7L201.2 513.4L203.6 513.4L206.8 504.7L208.4 499.8L208.6 499.8C208.4 501.8 208.1 504.7 208.1 506.6L208.1 515.3L211.8 515.3L211.8 494.5L207.2 494.5L203.8 504.2C203.4 505.5 203.0 506.9 202.5 508.2L202.4 508.2C202.0 506.9 201.6 505.5 201.1 504.2L197.6 494.5L193.0 494.5ZM221.4 515.7C225.9 515.7 227.9 512.5 227.9 508.6L227.9 494.5L223.7 494.5L223.7 508.2C223.7 511.1 222.8 512.1 220.9 512.1C219.8 512.1 218.7 511.4 217.9 509.9L215.0 512.0C216.4 514.4 218.4 515.7 221.4 515.7Z " clip-path="url(#satori_cp-id-1-0-1-0-2)" mask="url(#satori_om-id-1-0-1-0-2)"/><clipPath id="satori_cp-id-1-0-1-1"><rect x="959" y="485" width="112" height="40"/></clipPath><mask id="satori_om-id-1-0-1-1"><rect x="959" y="485" width="112" height="40" fill="#fff"/></mask><path fill="black" d="M985.5 499.3L985.5 496.0L974.0 496.0L976.0 495.2C975.5 494.1 974.7 492.5 974.0 491.2L970.7 492.4C971.2 493.5 971.9 494.9 972.4 496.0L960.5 496.0L960.5 499.3L967.6 499.3C967.3 505.2 966.8 511.5 960.1 515.1C961.0 515.8 962.0 516.9 962.5 517.8C967.5 514.9 969.6 510.6 970.6 505.9L979.4 505.9C979.0 510.9 978.5 513.3 977.8 513.9C977.4 514.2 977.0 514.3 976.4 514.3C975.5 514.3 973.6 514.3 971.7 514.1C972.3 515.0 972.8 516.4 972.9 517.4C974.8 517.5 976.6 517.5 977.7 517.3C979.0 517.2 979.9 517.0 980.7 516.0C981.8 514.8 982.4 511.7 982.9 504.1C983.0 503.7 983.1 502.7 983.1 502.7L971.0 502.7C971.2 501.5 971.2 500.4 971.3 499.3ZM991.1 504.1C992.9 506.2 995.0 509.1 995.8 511.0L998.9 509.1C998.0 507.2 995.8 504.4 993.9 502.5ZM1013.7 497.2L1007.4 497.2L1007.4 491.6L1003.8 491.6L1003.8 497.2L988.3 497.2L988.3 500.5L1003.8 500.5L1003.8 513.3C1003.8 513.9 1003.5 514.2 1002.8 514.2C1002.1 514.2 999.7 514.2 997.4 514.1C997.9 515.1 998.7 516.7 998.9 517.8C1001.8 517.8 1004.1 517.7 1005.5 517.1C1006.9 516.5 1007.4 515.6 1007.4 513.3L1007.4 500.5L1013.7 500.5ZM1037.7 496.6L1037.0 496.7L1030.5 496.7L1032.2 495.8C1031.5 494.6 1030.1 492.6 1029.0 491.2L1026.0 492.8C1026.8 494.0 1027.9 495.5 1028.6 496.7L1017.6 496.7L1017.6 500.0L1034.5 500.0C1031.5 503.8 1026.7 508.1 1022.1 510.9L1022.0 510.9C1020.4 510.9 1018.2 512.4 1016.2 514.5L1018.6 517.7C1019.8 515.9 1021.0 514.0 1021.9 514.0C1022.5 514.0 1023.4 514.9 1024.6 515.6C1026.5 516.8 1028.8 517.2 1032.2 517.2C1035.0 517.2 1039.2 517.0 1041.2 516.9C1041.2 516.0 1041.8 514.2 1042.1 513.3C1039.5 513.7 1035.2 514.0 1032.3 514.0C1029.4 514.0 1027.0 513.8 1025.3 512.7C1030.9 509.0 1036.7 503.5 1040.3 498.3ZM1045.0 517.7L1048.5 517.7L1048.5 498.3L1045.0 498.3ZM1045.5 493.4C1046.7 494.7 1048.2 496.5 1048.7 497.7L1051.5 496.0C1050.9 494.7 1049.4 493.0 1048.1 491.7ZM1054.3 507.4L1059.7 507.4L1059.7 510.0L1054.3 510.0ZM1054.3 502.1L1059.7 502.1L1059.7 504.7L1054.3 504.7ZM1051.3 512.7L1062.8 512.7L1062.8 499.4L1051.3 499.4ZM1069.2 492.9L1052.5 492.9L1052.5 496.0L1065.7 496.0L1065.7 514.1C1065.7 514.4 1065.7 514.6 1065.3 514.6C1065.0 514.6 1063.9 514.6 1063.0 514.5C1063.4 515.4 1063.9 516.6 1064 517.5C1065.7 517.5 1067.1 517.5 1068.0 517.0C1068.9 516.4 1069.2 515.7 1069.2 514.1Z " clip-path="url(#satori_cp-id-1-0-1-1)" mask="url(#satori_om-id-1-0-1-1)"/></svg>