<svg width="1200" height="630" viewBox="0 0 1200 630" xmlns="http://www.w3.org/2000/svg"><rect x="0" y="0" width="1200" height="630" fill="#fefbfb"/><defs><clipPath id="satori_bc-id-0"><path x="105" y="39" width="1056" height="504" d="M109,39 h1048 a4,4 0 0 1 4,4 v496 a4,4 0 0 1 -4,4 h-1048 a4,4 0 0 1 -4,-4 v-496 a4,4 0 0 1 4,-4"/></clipPath></defs><g opacity="0.9"><path x="105" y="39" width="1056" height="504" fill="#ecebeb" d="M109,39 h1048 a4,4 0 0 1 4,4 v496 a4,4 0 0 1 -4,4 h-1048 a4,4 0 0 1 -4,-4 v-496 a4,4 0 0 1 4,-4"/><path width="1056" height="504" clip-path="url(#satori_bc-id-0)" fill="none" stroke="#000" stroke-width="8" d="M106.172,40.172 A4,4 0 0 1 109,39 h1048 a4,4 0 0 1 4,4 v496 a4,4 0 0 1 -4,4 h-1048 a4,4 0 0 1 -4,-4 v-496 A4,4 0 0 1 106.172,40.172"/></g><defs><clipPath id="satori_bc-id-1"><path x="72" y="63" width="1056" height="504" d="M76,63 h1048 a4,4 0 0 1 4,4 v496 a4,4 0 0 1 -4,4 h-1048 a4,4 0 0 1 -4,-4 v-496 a4,4 0 0 1 4,-4"/></clipPath></defs><path x="72" y="63" width="1056" height="504" fill="#fefbfb" d="M76,63 h1048 a4,4 0 0 1 4,4 v496 a4,4 0 0 1 -4,4 h-1048 a4,4 0 0 1 -4,-4 v-496 a4,4 0 0 1 4,-4"/><path width="1056" height="504" clip-path="url(#satori_bc-id-1)" fill="none" stroke="#000" stroke-width="8" d="M73.172,64.172 A4,4 0 0 1 76,63 h1048 a4,4 0 0 1 4,4 v496 a4,4 0 0 1 -4,4 h-1048 a4,4 0 0 1 -4,-4 v-496 A4,4 0 0 1 73.172,64.172"/><clipPath id="satori_cp-id-1-0-0"><rect x="128" y="103" width="944" height="104"/></clipPath><mask id="satori_om-id-1-0-0"><rect x="128" y="103" width="944" height="104" fill="#fff"/></mask><path fill="black" d="M156.3 181.9C163.2 181.9 168.9 179.1 173.3 174.0L167.7 167.4C164.8 170.5 161.3 172.6 156.7 172.6C148.2 172.6 142.8 165.7 142.8 154.1C142.8 142.6 148.8 135.7 156.9 135.7C160.9 135.7 164 137.6 166.7 140.2L172.3 133.4C168.8 129.8 163.4 126.6 156.7 126.6C143.2 126.6 131.9 136.9 131.9 154.4C131.9 172.2 142.8 181.9 156.3 181.9ZM192.6 172.9L200.4 172.9L200.4 157.7L215.0 157.7L215.0 150.1L200.4 150.1L200.4 134.8L192.6 134.8L192.6 150.1L178.0 150.1L178.0 157.7L192.6 157.7ZM235.0 172.9L242.8 172.9L242.8 157.7L257.4 157.7L257.4 150.1L242.8 150.1L242.8 134.8L235.0 134.8L235.0 150.1L220.4 150.1L220.4 157.7L235.0 157.7Z M298.9 181.9C311.2 181.9 318.5 174.4 318.5 165.7C318.5 158.0 314.3 153.9 307.8 151.3L300.8 148.3C296.3 146.5 292.5 145.1 292.5 141.3C292.5 137.8 295.5 135.7 300.2 135.7C304.5 135.7 308.1 137.3 311.5 140.1L316.9 133.4C312.5 129.0 306.3 126.6 300.2 126.6C289.4 126.6 281.7 133.3 281.7 142.0C281.7 149.7 287.1 154.1 292.5 156.3L299.6 159.3C304.4 161.3 307.6 162.6 307.6 166.5C307.6 170.3 304.7 172.6 299.1 172.6C294.5 172.6 289.4 170.3 285.6 166.7L279.5 174.1C284.7 179.0 291.8 181.9 298.9 181.9ZM339.6 181.9C343.1 181.9 345.9 181.1 348.1 180.3L346.4 172.6C345.3 173.1 343.7 173.5 342.4 173.5C338.8 173.5 336.9 171.3 336.9 166.7L336.9 148.9L346.9 148.9L346.9 140.5L336.9 140.5L336.9 129.7L328.2 129.7L326.9 140.5L320.7 141.0L320.7 148.9L326.4 148.9L326.4 166.7C326.4 175.7 330.0 181.9 339.6 181.9ZM363.4 181.9C368.0 181.9 372.0 179.6 375.5 176.5L375.8 176.5L376.5 180.8L385.2 180.8L385.2 157.3C385.2 145.6 379.9 139.5 369.7 139.5C363.4 139.5 357.6 141.9 352.9 144.8L356.7 151.8C360.4 149.7 364.0 148.0 367.8 148.0C372.7 148.0 374.5 151.0 374.7 155.0C358.4 156.7 351.4 161.3 351.4 169.9C351.4 176.7 356.2 181.9 363.4 181.9ZM366.8 173.6C363.7 173.6 361.5 172.2 361.5 169.0C361.5 165.4 364.8 162.7 374.7 161.5L374.7 169.6C372.1 172.1 369.8 173.6 366.8 173.6ZM409.4 181.9C412.9 181.9 415.7 181.1 417.9 180.3L416.1 172.6C415.1 173.1 413.5 173.5 412.2 173.5C408.6 173.5 406.7 171.3 406.7 166.7L406.7 148.9L416.6 148.9L416.6 140.5L406.7 140.5L406.7 129.7L397.9 129.7L396.7 140.5L390.4 141.0L390.4 148.9L396.1 148.9L396.1 166.7C396.1 175.7 399.8 181.9 409.4 181.9ZM424.9 180.8L435.4 180.8L435.4 140.5L424.9 140.5ZM430.2 134.0C433.8 134.0 436.3 131.7 436.3 128.2C436.3 124.8 433.8 122.5 430.2 122.5C426.5 122.5 424.0 124.8 424.0 128.2C424.0 131.7 426.5 134.0 430.2 134.0ZM463.9 181.9C468.3 181.9 473.2 180.3 477.1 177.0L472.9 170.0C470.6 171.8 467.9 173.2 465.0 173.2C459.3 173.2 455.0 168.3 455.0 160.7C455.0 153.1 459.2 148.2 465.4 148.2C467.6 148.2 469.5 149.1 471.5 150.8L476.6 144.0C473.6 141.5 469.8 139.5 464.8 139.5C453.9 139.5 444.2 147.3 444.2 160.7C444.2 174.1 452.7 181.9 463.9 181.9ZM546.7 161.2L546.7 152.7L520.6 152.7L520.6 152.1L520.6 142.9L542.9 142.9L542.9 134.4L531.0 134.4C533.3 131.0 535.8 126.9 538.0 123.0L528.7 119.9C527.0 124.3 524.1 130.2 521.5 134.4L504.1 134.4L508.5 132.0C507.2 128.6 504.1 123.7 501.0 120.1L493.8 123.7C496.2 126.8 498.8 131.1 500.2 134.4L488.2 134.4L488.2 142.9L510.5 142.9L510.5 152.0L510.5 152.7L483.5 152.7L483.5 161.2L508.8 161.2C506.0 167.7 498.8 174.3 481.3 179.3C483.6 181.4 486.5 185.1 487.6 187.0C504.1 182.0 512.6 175.1 516.8 167.8C522.8 177.0 531.3 183.4 543.2 186.7C544.5 184.2 547.2 180.2 549.3 178.3C536.9 175.6 527.9 169.6 522.4 161.2ZM610.7 130.8L610.7 134.6L606.6 134.6L606.6 130.8ZM610.7 144.5L606.6 144.5L606.6 140.7L610.7 140.7ZM600.1 134.6L590.7 134.6L590.7 140.7L600.1 140.7L600.1 144.5L593.3 144.5L593.3 150.2L600.1 150.2L600.1 153.8L593.0 153.8L593.0 160.3L600.1 160.3L600.1 164.1L591.2 164.1L591.2 170.4L600.1 170.4L600.1 176.9L606.6 176.9L606.6 170.4L618.8 170.4L618.8 164.1L606.6 164.1L606.6 160.3L617.4 160.3L617.4 153.8L606.6 153.8L606.6 150.2L616.6 150.2L616.6 140.7L620.6 140.7L620.6 134.6L616.6 134.6L616.6 125.0L606.6 125.0L606.6 120.4L600.1 120.4L600.1 125.0L593.3 125.0L593.3 130.8L600.1 130.8ZM575.8 158.5L575.8 154.5L568.6 154.5L568.6 147.5L574.3 147.5C575.3 148.9 576.9 151.3 577.5 152.6C577.5 152.1 577.9 151.7 578.5 151.2L584.6 151.2C584.1 155.4 583.6 159.2 582.8 162.6C582.2 160.8 581.5 158.7 581.0 156.5ZM587.4 144.1L586.2 144.2L584.8 144.2C587.6 138.7 590.2 132.0 592.2 125.3L587.8 122.3L585.6 123.2L576.1 123.2L576.1 131.1L583.1 131.1C581.5 136.3 579.4 140.7 578.6 142.3C577.8 143.9 576.4 145.6 575.2 146.6L575.2 140.2L559.9 140.2C561.3 138.4 562.5 136.4 563.7 134.3L575.1 134.3L575.1 126.6L567.1 126.6C567.8 124.9 568.4 123.2 568.9 121.7L561.5 119.6C559.6 126.3 556.4 132.7 552.4 137.0C553.9 138.6 556.3 142.3 557.0 143.8L557.3 143.6L557.3 147.5L561.7 147.5L561.7 154.5L554.7 154.5L554.7 162.2L561.7 162.2L561.7 172.9C561.7 176.5 559.4 179.4 557.9 180.6C559.2 181.9 561.4 185.0 562.2 186.6C563.3 185.0 565.3 183.3 576.9 174.8C576.1 173.4 575.0 170.3 574.5 168.3L568.6 172.6L568.6 162.2L575.8 162.2L575.8 159.5C577.0 164.2 578.4 168.0 580.2 171.3C578.1 176.0 575.5 179.6 572.0 181.8C573.3 183.2 575.0 186.0 576.0 187.9C579.6 185.2 582.4 182.0 584.7 177.8C590.6 184.1 598.3 185.8 607.4 185.8L618.9 185.8C619.3 183.9 620.2 180.6 621.1 178.9C618.3 179.0 610.2 179.0 608.0 179.0C600.0 179.0 592.8 177.3 587.6 171.1C589.7 164.2 591.0 155.5 591.5 144.5ZM636.5 134.8L681.0 134.8L681.0 143.2L689.9 143.2L689.9 126.7L665.1 126.7C664.2 124.4 662.5 121.5 660.7 119.4L652.2 122.0C653.2 123.3 654.1 125.0 655.0 126.7L628.0 126.7L628.0 143.2L636.5 143.2ZM690.4 158.3L663.5 158.3L663.5 157.1C669.6 153.6 675.3 149.0 679.4 144.6L673.8 140.2L671.8 140.6L640.0 140.6L640.0 148.6L663.2 148.6C660.4 150.8 657.4 153.0 654.4 154.5L654.4 158.3L627.7 158.3L627.7 166.4L654.4 166.4L654.4 177.1C654.4 178.1 654.0 178.4 652.5 178.4C651.1 178.4 645.7 178.4 641.2 178.3C642.7 180.6 644.4 184.4 645.0 187.0C650.9 187.0 655.5 186.9 658.9 185.5C662.5 184.2 663.5 181.9 663.5 177.3L663.5 166.4L690.4 166.4ZM718.8 131.2C716.2 128.3 710.7 123.8 706.7 120.8L701.3 126.3C705.2 129.6 710.6 134.4 712.9 137.5ZM764.2 162.8L748.1 162.8L748.1 155.8L760.9 155.8L760.9 148.0L748.1 148.0L748.1 141.0L763.0 141.0L763.0 133.2L756.3 133.2C758.1 129.8 759.8 126.0 761.5 122.2L752.7 119.6C751.7 123.8 749.4 129.2 747.4 133.2L735.4 133.2L740.6 131.2C739.7 128.1 737.1 123.5 734.9 120.1L727.3 122.7C729.2 126.0 731.2 130.1 732.2 133.2L723.9 133.2L723.9 141.0L739.5 141.0L739.5 148.0L726.1 148.0L726.1 155.8L739.5 155.8L739.5 162.8L722.2 162.8L722.2 169.6C721.7 168.3 721.3 167.0 721.0 165.9L715.3 170.3L715.3 142.0L697.4 142.0L697.4 150.2L707.1 150.2L707.1 172.9C707.1 176.7 705.1 179.4 703.5 180.7C704.9 181.9 707.2 185.0 707.9 186.7C709.2 185.0 711.3 183.0 723.8 173.3C723.4 172.6 723.1 171.8 722.7 170.8L739.5 170.8L739.5 187.1L748.1 187.1L748.1 170.8L764.2 170.8ZM801.9 143.8C803.5 145.1 805.1 147.5 805.8 149.2C806.3 149.0 806.8 148.7 807.3 148.4C806.3 153.8 804.5 159.3 801.9 163.1ZM790.8 170.5L794.9 170.5L794.9 178.2C794.9 178.9 794.7 179.1 794.1 179.1C793.6 179.1 792.3 179.1 790.8 179.0ZM781.0 164.2C781.2 161.8 781.3 159.5 781.3 157.3L781.3 156.9L785.2 156.9L785.2 164.2ZM790.0 133.0C789.4 134.9 788.7 136.7 788.0 138.3L780.4 138.3C781.3 136.6 782.1 134.9 782.9 133.0ZM781.3 144.6L785.2 144.6L785.2 150.8L781.3 150.8ZM794.9 156.9L794.9 164.2L790.8 164.2L790.8 156.9ZM790.8 150.8L790.8 144.6L794.9 144.6L794.9 150.8ZM836.5 167.6L825.8 167.6L825.8 161.1L835.0 161.1L835.0 153.9L825.8 153.9L825.8 148.2L817.6 148.2L817.6 153.9L813.3 153.9C813.7 152.4 814.1 150.8 814.3 149.3L808.0 148.1C815.2 144.0 817.9 138.0 819.1 130.5L827.0 130.5C826.8 136.5 826.4 138.9 825.8 139.7C825.2 140.4 824.7 140.5 823.7 140.5C822.9 140.5 820.9 140.5 818.6 140.2C819.7 142.1 820.4 144.9 820.6 147.2C823.5 147.2 826.3 147.2 827.8 146.9C829.7 146.6 831.0 146.1 832.2 144.6C833.7 142.8 834.4 137.7 834.8 126.3C834.8 125.3 834.9 123.5 834.9 123.5L803.3 123.5L803.3 130.5L811.4 130.5C810.3 135.8 808.1 140.2 801.9 142.9L801.9 138.3L795.4 138.3C797.0 135.4 798.4 132.1 799.4 129.4L794.4 126.2L793.2 126.6L785.4 126.6C785.9 124.9 786.4 123.2 786.9 121.5L779.2 119.9C777.3 128.4 773.5 136.7 768.6 142.0C770.1 143.0 772.7 145.1 774.2 146.6L774.2 157.3C774.2 165.4 773.8 176.0 769.0 183.4C770.6 184.2 773.8 186.2 775.1 187.3C778.1 182.7 779.7 176.6 780.5 170.5L785.2 170.5L785.2 182.6L790.8 182.6L790.8 180.1C791.6 182.0 792.3 184.4 792.5 186.2C795.7 186.2 797.9 186.0 799.7 184.7C801.5 183.5 801.9 181.4 801.9 178.3L801.9 163.5C803.6 164.3 806.5 165.7 807.9 166.7C808.9 165.1 809.9 163.2 810.8 161.1L817.6 161.1L817.6 167.6L804.0 167.6L804.0 174.9L817.6 174.9L817.6 187.0L825.8 187.0L825.8 174.9L836.5 174.9Z " clip-path="url(#satori_cp-id-1-0-0)" mask="url(#satori_om-id-1-0-0)"/><path fill="black" d="M137.3 515.6C140.8 515.6 143.9 512.6 143.9 507.4C143.9 502.8 141.7 499.7 137.8 499.7C136.1 499.7 134.4 500.6 133.0 501.8L133.1 499.1L133.1 493.0L130.6 493.0L130.6 515.3L132.6 515.3L132.8 513.7L133.0 513.7C134.3 514.9 135.9 515.6 137.3 515.6ZM136.8 513.5C135.8 513.5 134.5 513.1 133.1 511.9L133.1 503.9C134.6 502.6 135.9 501.8 137.2 501.8C140.1 501.8 141.2 504.1 141.2 507.5C141.2 511.2 139.4 513.5 136.8 513.5ZM148.0 521.8C151.0 521.8 152.6 519.5 153.7 516.5L159.4 500.1L156.9 500.1L154.2 508.5C153.8 509.9 153.3 511.4 152.9 512.8L152.8 512.8C152.3 511.4 151.8 509.8 151.3 508.5L148.2 500.1L145.6 500.1L151.7 515.3L151.3 516.4C150.7 518.3 149.6 519.7 147.9 519.7C147.5 519.7 147.0 519.6 146.7 519.5L146.2 521.5C146.7 521.7 147.3 521.8 148.0 521.8Z "/><clipPath id="satori_cp-id-1-0-1-0-2"><rect x="173" y="485" width="57" height="40"/></clipPath><mask id="satori_om-id-1-0-1-0-2"><rect x="173" y="485" width="57" height="40" fill="#fff"/></mask><path fill="black" d="M181.7 515.7C186.5 515.7 189.4 512.8 189.4 509.4C189.4 506.4 187.7 504.8 185.2 503.8L182.5 502.6C180.7 501.9 179.2 501.4 179.2 499.9C179.2 498.5 180.4 497.7 182.2 497.7C183.9 497.7 185.3 498.3 186.6 499.4L188.7 496.8C187.0 495.1 184.6 494.2 182.2 494.2C178.0 494.2 175.0 496.8 175.0 500.2C175.0 503.2 177.1 504.9 179.2 505.7L182.0 506.9C183.9 507.7 185.1 508.2 185.1 509.7C185.1 511.2 184.0 512.1 181.8 512.1C180 512.1 178.0 511.2 176.6 509.8L174.2 512.6C176.2 514.6 179.0 515.7 181.7 515.7ZM193.0 515.3L196.7 515.3L196.7 506.6C196.7 504.7 196.4 501.8 196.2 499.8L196.3 499.8L198.0 504.7L201.2 513.4L203.6 513.4L206.8 504.7L208.4 499.8L208.6 499.8C208.4 501.8 208.1 504.7 208.1 506.6L208.1 515.3L211.8 515.3L211.8 494.5L207.2 494.5L203.8 504.2C203.4 505.5 203.0 506.9 202.5 508.2L202.4 508.2C202.0 506.9 201.6 505.5 201.1 504.2L197.6 494.5L193.0 494.5ZM221.4 515.7C225.9 515.7 227.9 512.5 227.9 508.6L227.9 494.5L223.7 494.5L223.7 508.2C223.7 511.1 222.8 512.1 220.9 512.1C219.8 512.1 218.7 511.4 217.9 509.9L215.0 512.0C216.4 514.4 218.4 515.7 221.4 515.7Z " clip-path="url(#satori_cp-id-1-0-1-0-2)" mask="url(#satori_om-id-1-0-1-0-2)"/><clipPath id="satori_cp-id-1-0-1-1"><rect x="959" y="485" width="112" height="40"/></clipPath><mask id="satori_om-id-1-0-1-1"><rect x="959" y="485" width="112" height="40" fill="#fff"/></mask><path fill="black" d="M985.5 499.3L985.5 496.0L974.0 496.0L976.0 495.2C975.5 494.1 974.7 492.5 974.0 491.2L970.7 492.4C971.2 493.5 971.9 494.9 972.4 496.0L960.5 496.0L960.5 499.3L967.6 499.3C967.3 505.2 966.8 511.5 960.1 515.1C961.0 515.8 962.0 516.9 962.5 517.8C967.5 514.9 969.6 510.6 970.6 505.9L979.4 505.9C979.0 510.9 978.5 513.3 977.8 513.9C977.4 514.2 977.0 514.3 976.4 514.3C975.5 514.3 973.6 514.3 971.7 514.1C972.3 515.0 972.8 516.4 972.9 517.4C974.8 517.5 976.6 517.5 977.7 517.3C979.0 517.2 979.9 517.0 980.7 516.0C981.8 514.8 982.4 511.7 982.9 504.1C983.0 503.7 983.1 502.7 983.1 502.7L971.0 502.7C971.2 501.5 971.2 500.4 971.3 499.3ZM991.1 504.1C992.9 506.2 995.0 509.1 995.8 511.0L998.9 509.1C998.0 507.2 995.8 504.4 993.9 502.5ZM1013.7 497.2L1007.4 497.2L1007.4 491.6L1003.8 491.6L1003.8 497.2L988.3 497.2L988.3 500.5L1003.8 500.5L1003.8 513.3C1003.8 513.9 1003.5 514.2 1002.8 514.2C1002.1 514.2 999.7 514.2 997.4 514.1C997.9 515.1 998.7 516.7 998.9 517.8C1001.8 517.8 1004.1 517.7 1005.5 517.1C1006.9 516.5 1007.4 515.6 1007.4 513.3L1007.4 500.5L1013.7 500.5ZM1037.7 496.6L1037.0 496.7L1030.5 496.7L1032.2 495.8C1031.5 494.6 1030.1 492.6 1029.0 491.2L1026.0 492.8C1026.8 494.0 1027.9 495.5 1028.6 496.7L1017.6 496.7L1017.6 500.0L1034.5 500.0C1031.5 503.8 1026.7 508.1 1022.1 510.9L1022.0 510.9C1020.4 510.9 1018.2 512.4 1016.2 514.5L1018.6 517.7C1019.8 515.9 1021.0 514.0 1021.9 514.0C1022.5 514.0 1023.4 514.9 1024.6 515.6C1026.5 516.8 1028.8 517.2 1032.2 517.2C1035.0 517.2 1039.2 517.0 1041.2 516.9C1041.2 516.0 1041.8 514.2 1042.1 513.3C1039.5 513.7 1035.2 514.0 1032.3 514.0C1029.4 514.0 1027.0 513.8 1025.3 512.7C1030.9 509.0 1036.7 503.5 1040.3 498.3ZM1045.0 517.7L1048.5 517.7L1048.5 498.3L1045.0 498.3ZM1045.5 493.4C1046.7 494.7 1048.2 496.5 1048.7 497.7L1051.5 496.0C1050.9 494.7 1049.4 493.0 1048.1 491.7ZM1054.3 507.4L1059.7 507.4L1059.7 510.0L1054.3 510.0ZM1054.3 502.1L1059.7 502.1L1059.7 504.7L1054.3 504.7ZM1051.3 512.7L1062.8 512.7L1062.8 499.4L1051.3 499.4ZM1069.2 492.9L1052.5 492.9L1052.5 496.0L1065.7 496.0L1065.7 514.1C1065.7 514.4 1065.7 514.6 1065.3 514.6C1065.0 514.6 1063.9 514.6 1063.0 514.5C1063.4 515.4 1063.9 516.6 1064 517.5C1065.7 517.5 1067.1 517.5 1068.0 517.0C1068.9 516.4 1069.2 515.7 1069.2 514.1Z " clip-path="url(#satori_cp-id-1-0-1-1)" mask="url(#satori_om-id-1-0-1-1)"/></svg>