<svg width="1200" height="630" viewBox="0 0 1200 630" xmlns="http://www.w3.org/2000/svg"><rect x="0" y="0" width="1200" height="630" fill="#fefbfb"/><defs><clipPath id="satori_bc-id-0"><path x="105" y="39" width="1056" height="504" d="M109,39 h1048 a4,4 0 0 1 4,4 v496 a4,4 0 0 1 -4,4 h-1048 a4,4 0 0 1 -4,-4 v-496 a4,4 0 0 1 4,-4"/></clipPath></defs><g opacity="0.9"><path x="105" y="39" width="1056" height="504" fill="#ecebeb" d="M109,39 h1048 a4,4 0 0 1 4,4 v496 a4,4 0 0 1 -4,4 h-1048 a4,4 0 0 1 -4,-4 v-496 a4,4 0 0 1 4,-4"/><path width="1056" height="504" clip-path="url(#satori_bc-id-0)" fill="none" stroke="#000" stroke-width="8" d="M106.172,40.172 A4,4 0 0 1 109,39 h1048 a4,4 0 0 1 4,4 v496 a4,4 0 0 1 -4,4 h-1048 a4,4 0 0 1 -4,-4 v-496 A4,4 0 0 1 106.172,40.172"/></g><defs><clipPath id="satori_bc-id-1"><path x="72" y="63" width="1056" height="504" d="M76,63 h1048 a4,4 0 0 1 4,4 v496 a4,4 0 0 1 -4,4 h-1048 a4,4 0 0 1 -4,-4 v-496 a4,4 0 0 1 4,-4"/></clipPath></defs><path x="72" y="63" width="1056" height="504" fill="#fefbfb" d="M76,63 h1048 a4,4 0 0 1 4,4 v496 a4,4 0 0 1 -4,4 h-1048 a4,4 0 0 1 -4,-4 v-496 a4,4 0 0 1 4,-4"/><path width="1056" height="504" clip-path="url(#satori_bc-id-1)" fill="none" stroke="#000" stroke-width="8" d="M73.172,64.172 A4,4 0 0 1 76,63 h1048 a4,4 0 0 1 4,4 v496 a4,4 0 0 1 -4,4 h-1048 a4,4 0 0 1 -4,-4 v-496 A4,4 0 0 1 73.172,64.172"/><clipPath id="satori_cp-id-1-0-0"><rect x="128" y="103" width="944" height="104"/></clipPath><mask id="satori_om-id-1-0-0"><rect x="128" y="103" width="944" height="104" fill="#fff"/></mask><path fill="black" d="M156.3 181.9C163.2 181.9 168.9 179.1 173.3 174.0L167.7 167.4C164.8 170.5 161.3 172.6 156.7 172.6C148.2 172.6 142.8 165.7 142.8 154.1C142.8 142.6 148.8 135.7 156.9 135.7C160.9 135.7 164 137.6 166.7 140.2L172.3 133.4C168.8 129.8 163.4 126.6 156.7 126.6C143.2 126.6 131.9 136.9 131.9 154.4C131.9 172.2 142.8 181.9 156.3 181.9ZM192.6 172.9L200.4 172.9L200.4 157.7L215.0 157.7L215.0 150.1L200.4 150.1L200.4 134.8L192.6 134.8L192.6 150.1L178.0 150.1L178.0 157.7L192.6 157.7ZM235.0 172.9L242.8 172.9L242.8 157.7L257.4 157.7L257.4 150.1L242.8 150.1L242.8 134.8L235.0 134.8L235.0 150.1L220.4 150.1L220.4 157.7L235.0 157.7Z M282.2 180.8L292.7 180.8L292.7 140.5L282.2 140.5ZM287.5 134.0C291.1 134.0 293.6 131.7 293.6 128.2C293.6 124.8 291.1 122.5 287.5 122.5C283.8 122.5 281.3 124.8 281.3 128.2C281.3 131.7 283.8 134.0 287.5 134.0ZM304.0 180.8L314.6 180.8L314.6 153.1C317.6 150.2 319.7 148.6 323.0 148.6C326.9 148.6 328.7 150.8 328.7 157.0L328.7 180.8L339.2 180.8L339.2 155.7C339.2 145.6 335.5 139.5 326.8 139.5C321.3 139.5 317.2 142.4 313.7 145.9L313.5 145.9L312.7 140.5L304.0 140.5ZM360.1 181.9C362.6 181.9 364.4 181.4 365.6 180.9L364.3 173.1C363.6 173.2 363.3 173.2 362.9 173.2C361.9 173.2 360.8 172.4 360.8 170.0L360.8 123.4L350.2 123.4L350.2 169.5C350.2 177.0 352.8 181.9 360.1 181.9ZM372.9 180.8L383.5 180.8L383.5 140.5L372.9 140.5ZM378.2 134.0C381.8 134.0 384.3 131.7 384.3 128.2C384.3 124.8 381.8 122.5 378.2 122.5C374.5 122.5 372.0 124.8 372.0 128.2C372.0 131.7 374.5 134.0 378.2 134.0ZM394.8 180.8L405.3 180.8L405.3 153.1C408.3 150.2 410.4 148.6 413.7 148.6C417.7 148.6 419.4 150.8 419.4 157.0L419.4 180.8L430.0 180.8L430.0 155.7C430.0 145.6 426.2 139.5 417.5 139.5C412.0 139.5 407.9 142.4 404.4 145.9L404.2 145.9L403.4 140.5L394.8 140.5ZM458.5 181.9C463.4 181.9 468.6 180.1 472.5 177.4L468.9 170.9C466.0 172.7 463.2 173.7 459.8 173.7C453.9 173.7 449.6 170.3 448.7 163.6L473.5 163.6C473.8 162.7 474.0 160.8 474.0 158.7C474.0 147.7 468.3 139.5 457.2 139.5C447.6 139.5 438.4 147.7 438.4 160.7C438.4 174.0 447.2 181.9 458.5 181.9ZM448.5 156.6C449.3 150.8 453.1 147.7 457.3 147.7C462.5 147.7 465.0 151.2 465.0 156.6ZM544.7 161.2L544.7 152.7L518.7 152.7L518.7 152.1L518.7 142.9L541.0 142.9L541.0 134.4L529.0 134.4C531.3 131.0 533.9 126.9 536.1 123.0L526.7 119.9C525.0 124.3 522.2 130.2 519.5 134.4L502.2 134.4L506.6 132.0C505.2 128.6 502.2 123.7 499.0 120.1L491.8 123.7C494.3 126.8 496.9 131.1 498.2 134.4L486.3 134.4L486.3 142.9L508.6 142.9L508.6 152.0L508.6 152.7L481.5 152.7L481.5 161.2L506.9 161.2C504.1 167.7 496.9 174.3 479.4 179.3C481.7 181.4 484.5 185.1 485.7 187.0C502.2 182.0 510.7 175.1 514.9 167.8C520.9 177.0 529.3 183.4 541.3 186.7C542.6 184.2 545.2 180.2 547.3 178.3C534.9 175.6 525.9 169.6 520.5 161.2ZM608.7 130.8L608.7 134.6L604.6 134.6L604.6 130.8ZM608.7 144.5L604.6 144.5L604.6 140.7L608.7 140.7ZM598.2 134.6L588.8 134.6L588.8 140.7L598.2 140.7L598.2 144.5L591.4 144.5L591.4 150.2L598.2 150.2L598.2 153.8L591.1 153.8L591.1 160.3L598.2 160.3L598.2 164.1L589.3 164.1L589.3 170.4L598.2 170.4L598.2 176.9L604.6 176.9L604.6 170.4L616.8 170.4L616.8 164.1L604.6 164.1L604.6 160.3L615.4 160.3L615.4 153.8L604.6 153.8L604.6 150.2L614.6 150.2L614.6 140.7L618.6 140.7L618.6 134.6L614.6 134.6L614.6 125.0L604.6 125.0L604.6 120.4L598.2 120.4L598.2 125.0L591.4 125.0L591.4 130.8L598.2 130.8ZM573.8 158.5L573.8 154.5L566.7 154.5L566.7 147.5L572.4 147.5C573.4 148.9 575.0 151.3 575.6 152.6C575.6 152.1 575.9 151.7 576.6 151.2L582.6 151.2C582.2 155.4 581.7 159.2 580.9 162.6C580.2 160.8 579.6 158.7 579.1 156.5ZM585.4 144.1L584.3 144.2L582.9 144.2C585.6 138.7 588.2 132.0 590.2 125.3L585.8 122.3L583.7 123.2L574.1 123.2L574.1 131.1L581.2 131.1C579.5 136.3 577.5 140.7 576.7 142.3C575.8 143.9 574.5 145.6 573.2 146.6L573.2 140.2L558.0 140.2C559.4 138.4 560.6 136.4 561.7 134.3L573.2 134.3L573.2 126.6L565.2 126.6C565.8 124.9 566.4 123.2 566.9 121.7L559.6 119.6C557.7 126.3 554.5 132.7 550.5 137.0C551.9 138.6 554.3 142.3 555.1 143.8L555.3 143.6L555.3 147.5L559.8 147.5L559.8 154.5L552.7 154.5L552.7 162.2L559.8 162.2L559.8 172.9C559.8 176.5 557.4 179.4 556.0 180.6C557.3 181.9 559.5 185.0 560.2 186.6C561.4 185.0 563.4 183.3 575.0 174.8C574.1 173.4 573.0 170.3 572.5 168.3L566.7 172.6L566.7 162.2L573.8 162.2L573.8 159.5C575.0 164.2 576.5 168.0 578.2 171.3C576.2 176.0 573.5 179.6 570.0 181.8C571.4 183.2 573.1 186.0 574.0 187.9C577.6 185.2 580.4 182.0 582.8 177.8C588.7 184.1 596.4 185.8 605.5 185.8L617.0 185.8C617.3 183.9 618.2 180.6 619.1 178.9C616.4 179.0 608.2 179.0 606.0 179.0C598.0 179.0 590.8 177.3 585.6 171.1C587.8 164.2 589.0 155.5 589.5 144.5ZM634.5 134.8L679.1 134.8L679.1 143.2L687.9 143.2L687.9 126.7L663.2 126.7C662.2 124.4 660.5 121.5 658.8 119.4L650.2 122.0C651.2 123.3 652.2 125.0 653.0 126.7L626.1 126.7L626.1 143.2L634.5 143.2ZM688.4 158.3L661.6 158.3L661.6 157.1C667.6 153.6 673.3 149.0 677.5 144.6L671.8 140.2L669.9 140.6L638.0 140.6L638.0 148.6L661.2 148.6C658.5 150.8 655.5 153.0 652.4 154.5L652.4 158.3L625.7 158.3L625.7 166.4L652.4 166.4L652.4 177.1C652.4 178.1 652.0 178.4 650.6 178.4C649.1 178.4 643.7 178.4 639.3 178.3C640.8 180.6 642.4 184.4 643.0 187.0C648.9 187.0 653.5 186.9 657.0 185.5C660.5 184.2 661.6 181.9 661.6 177.3L661.6 166.4L688.4 166.4ZM716.8 131.2C714.2 128.3 708.8 123.8 704.7 120.8L699.3 126.3C703.3 129.6 708.6 134.4 711.0 137.5ZM762.2 162.8L746.2 162.8L746.2 155.8L758.9 155.8L758.9 148.0L746.2 148.0L746.2 141.0L761.0 141.0L761.0 133.2L754.4 133.2C756.1 129.8 757.9 126.0 759.5 122.2L750.8 119.6C749.7 123.8 747.5 129.2 745.5 133.2L733.4 133.2L738.7 131.2C737.8 128.1 735.2 123.5 732.9 120.1L725.3 122.7C727.3 126.0 729.3 130.1 730.3 133.2L721.9 133.2L721.9 141.0L737.6 141.0L737.6 148.0L724.2 148.0L724.2 155.8L737.6 155.8L737.6 162.8L720.3 162.8L720.3 169.6C719.8 168.3 719.3 167.0 719.0 165.9L713.4 170.3L713.4 142.0L695.5 142.0L695.5 150.2L705.2 150.2L705.2 172.9C705.2 176.7 703.1 179.4 701.6 180.7C702.9 181.9 705.2 185.0 705.9 186.7C707.2 185.0 709.4 183.0 721.9 173.3C721.5 172.6 721.1 171.8 720.8 170.8L737.6 170.8L737.6 187.1L746.2 187.1L746.2 170.8L762.2 170.8ZM800.0 143.8C801.6 145.1 803.1 147.5 803.9 149.2C804.4 149.0 804.9 148.7 805.4 148.4C804.4 153.8 802.6 159.3 800.0 163.1ZM788.9 170.5L793.0 170.5L793.0 178.2C793.0 178.9 792.8 179.1 792.1 179.1C791.7 179.1 790.4 179.1 788.9 179.0ZM779.1 164.2C779.2 161.8 779.3 159.5 779.3 157.3L779.3 156.9L783.3 156.9L783.3 164.2ZM788.1 133.0C787.4 134.9 786.7 136.7 786.1 138.3L778.4 138.3C779.3 136.6 780.2 134.9 781.0 133.0ZM779.3 144.6L783.3 144.6L783.3 150.8L779.3 150.8ZM793.0 156.9L793.0 164.2L788.9 164.2L788.9 156.9ZM788.9 150.8L788.9 144.6L793.0 144.6L793.0 150.8ZM834.5 167.6L823.8 167.6L823.8 161.1L833.0 161.1L833.0 153.9L823.8 153.9L823.8 148.2L815.7 148.2L815.7 153.9L811.4 153.9C811.8 152.4 812.1 150.8 812.4 149.3L806.0 148.1C813.2 144.0 816.0 138.0 817.1 130.5L825.1 130.5C824.8 136.5 824.5 138.9 823.8 139.7C823.3 140.4 822.7 140.5 821.8 140.5C820.9 140.5 819.0 140.5 816.7 140.2C817.8 142.1 818.5 144.9 818.6 147.2C821.6 147.2 824.3 147.2 825.9 146.9C827.8 146.6 829.1 146.1 830.3 144.6C831.8 142.8 832.4 137.7 832.8 126.3C832.9 125.3 833.0 123.5 833.0 123.5L801.3 123.5L801.3 130.5L809.4 130.5C808.4 135.8 806.2 140.2 800.0 142.9L800.0 138.3L793.5 138.3C795.0 135.4 796.4 132.1 797.5 129.4L792.4 126.2L791.3 126.6L783.4 126.6C784.0 124.9 784.5 123.2 784.9 121.5L777.3 119.9C775.4 128.4 771.5 136.7 766.6 142.0C768.2 143.0 770.7 145.1 772.3 146.6L772.3 157.3C772.3 165.4 771.9 176.0 767.1 183.4C768.7 184.2 771.8 186.2 773.1 187.3C776.1 182.7 777.7 176.6 778.5 170.5L783.3 170.5L783.3 182.6L788.9 182.6L788.9 180.1C789.7 182.0 790.3 184.4 790.5 186.2C793.7 186.2 795.9 186.0 797.7 184.7C799.5 183.5 800.0 181.4 800.0 178.3L800.0 163.5C801.7 164.3 804.6 165.7 806.0 166.7C807.0 165.1 808.0 163.2 808.9 161.1L815.7 161.1L815.7 167.6L802.1 167.6L802.1 174.9L815.7 174.9L815.7 187.0L823.8 187.0L823.8 174.9L834.5 174.9Z " clip-path="url(#satori_cp-id-1-0-0)" mask="url(#satori_om-id-1-0-0)"/><path fill="black" d="M137.3 515.6C140.8 515.6 143.9 512.6 143.9 507.4C143.9 502.8 141.7 499.7 137.8 499.7C136.1 499.7 134.4 500.6 133.0 501.8L133.1 499.1L133.1 493.0L130.6 493.0L130.6 515.3L132.6 515.3L132.8 513.7L133.0 513.7C134.3 514.9 135.9 515.6 137.3 515.6ZM136.8 513.5C135.8 513.5 134.5 513.1 133.1 511.9L133.1 503.9C134.6 502.6 135.9 501.8 137.2 501.8C140.1 501.8 141.2 504.1 141.2 507.5C141.2 511.2 139.4 513.5 136.8 513.5ZM148.0 521.8C151.0 521.8 152.6 519.5 153.7 516.5L159.4 500.1L156.9 500.1L154.2 508.5C153.8 509.9 153.3 511.4 152.9 512.8L152.8 512.8C152.3 511.4 151.8 509.8 151.3 508.5L148.2 500.1L145.6 500.1L151.7 515.3L151.3 516.4C150.7 518.3 149.6 519.7 147.9 519.7C147.5 519.7 147.0 519.6 146.7 519.5L146.2 521.5C146.7 521.7 147.3 521.8 148.0 521.8Z "/><clipPath id="satori_cp-id-1-0-1-0-2"><rect x="173" y="485" width="57" height="40"/></clipPath><mask id="satori_om-id-1-0-1-0-2"><rect x="173" y="485" width="57" height="40" fill="#fff"/></mask><path fill="black" d="M181.7 515.7C186.5 515.7 189.4 512.8 189.4 509.4C189.4 506.4 187.7 504.8 185.2 503.8L182.5 502.6C180.7 501.9 179.2 501.4 179.2 499.9C179.2 498.5 180.4 497.7 182.2 497.7C183.9 497.7 185.3 498.3 186.6 499.4L188.7 496.8C187.0 495.1 184.6 494.2 182.2 494.2C178.0 494.2 175.0 496.8 175.0 500.2C175.0 503.2 177.1 504.9 179.2 505.7L182.0 506.9C183.9 507.7 185.1 508.2 185.1 509.7C185.1 511.2 184.0 512.1 181.8 512.1C180 512.1 178.0 511.2 176.6 509.8L174.2 512.6C176.2 514.6 179.0 515.7 181.7 515.7ZM193.0 515.3L196.7 515.3L196.7 506.6C196.7 504.7 196.4 501.8 196.2 499.8L196.3 499.8L198.0 504.7L201.2 513.4L203.6 513.4L206.8 504.7L208.4 499.8L208.6 499.8C208.4 501.8 208.1 504.7 208.1 506.6L208.1 515.3L211.8 515.3L211.8 494.5L207.2 494.5L203.8 504.2C203.4 505.5 203.0 506.9 202.5 508.2L202.4 508.2C202.0 506.9 201.6 505.5 201.1 504.2L197.6 494.5L193.0 494.5ZM221.4 515.7C225.9 515.7 227.9 512.5 227.9 508.6L227.9 494.5L223.7 494.5L223.7 508.2C223.7 511.1 222.8 512.1 220.9 512.1C219.8 512.1 218.7 511.4 217.9 509.9L215.0 512.0C216.4 514.4 218.4 515.7 221.4 515.7Z " clip-path="url(#satori_cp-id-1-0-1-0-2)" mask="url(#satori_om-id-1-0-1-0-2)"/><clipPath id="satori_cp-id-1-0-1-1"><rect x="959" y="485" width="112" height="40"/></clipPath><mask id="satori_om-id-1-0-1-1"><rect x="959" y="485" width="112" height="40" fill="#fff"/></mask><path fill="black" d="M985.5 499.3L985.5 496.0L974.0 496.0L976.0 495.2C975.5 494.1 974.7 492.5 974.0 491.2L970.7 492.4C971.2 493.5 971.9 494.9 972.4 496.0L960.5 496.0L960.5 499.3L967.6 499.3C967.3 505.2 966.8 511.5 960.1 515.1C961.0 515.8 962.0 516.9 962.5 517.8C967.5 514.9 969.6 510.6 970.6 505.9L979.4 505.9C979.0 510.9 978.5 513.3 977.8 513.9C977.4 514.2 977.0 514.3 976.4 514.3C975.5 514.3 973.6 514.3 971.7 514.1C972.3 515.0 972.8 516.4 972.9 517.4C974.8 517.5 976.6 517.5 977.7 517.3C979.0 517.2 979.9 517.0 980.7 516.0C981.8 514.8 982.4 511.7 982.9 504.1C983.0 503.7 983.1 502.7 983.1 502.7L971.0 502.7C971.2 501.5 971.2 500.4 971.3 499.3ZM991.1 504.1C992.9 506.2 995.0 509.1 995.8 511.0L998.9 509.1C998.0 507.2 995.8 504.4 993.9 502.5ZM1013.7 497.2L1007.4 497.2L1007.4 491.6L1003.8 491.6L1003.8 497.2L988.3 497.2L988.3 500.5L1003.8 500.5L1003.8 513.3C1003.8 513.9 1003.5 514.2 1002.8 514.2C1002.1 514.2 999.7 514.2 997.4 514.1C997.9 515.1 998.7 516.7 998.9 517.8C1001.8 517.8 1004.1 517.7 1005.5 517.1C1006.9 516.5 1007.4 515.6 1007.4 513.3L1007.4 500.5L1013.7 500.5ZM1037.7 496.6L1037.0 496.7L1030.5 496.7L1032.2 495.8C1031.5 494.6 1030.1 492.6 1029.0 491.2L1026.0 492.8C1026.8 494.0 1027.9 495.5 1028.6 496.7L1017.6 496.7L1017.6 500.0L1034.5 500.0C1031.5 503.8 1026.7 508.1 1022.1 510.9L1022.0 510.9C1020.4 510.9 1018.2 512.4 1016.2 514.5L1018.6 517.7C1019.8 515.9 1021.0 514.0 1021.9 514.0C1022.5 514.0 1023.4 514.9 1024.6 515.6C1026.5 516.8 1028.8 517.2 1032.2 517.2C1035.0 517.2 1039.2 517.0 1041.2 516.9C1041.2 516.0 1041.8 514.2 1042.1 513.3C1039.5 513.7 1035.2 514.0 1032.3 514.0C1029.4 514.0 1027.0 513.8 1025.3 512.7C1030.9 509.0 1036.7 503.5 1040.3 498.3ZM1045.0 517.7L1048.5 517.7L1048.5 498.3L1045.0 498.3ZM1045.5 493.4C1046.7 494.7 1048.2 496.5 1048.7 497.7L1051.5 496.0C1050.9 494.7 1049.4 493.0 1048.1 491.7ZM1054.3 507.4L1059.7 507.4L1059.7 510.0L1054.3 510.0ZM1054.3 502.1L1059.7 502.1L1059.7 504.7L1054.3 504.7ZM1051.3 512.7L1062.8 512.7L1062.8 499.4L1051.3 499.4ZM1069.2 492.9L1052.5 492.9L1052.5 496.0L1065.7 496.0L1065.7 514.1C1065.7 514.4 1065.7 514.6 1065.3 514.6C1065.0 514.6 1063.9 514.6 1063.0 514.5C1063.4 515.4 1063.9 516.6 1064 517.5C1065.7 517.5 1067.1 517.5 1068.0 517.0C1068.9 516.4 1069.2 515.7 1069.2 514.1Z " clip-path="url(#satori_cp-id-1-0-1-1)" mask="url(#satori_om-id-1-0-1-1)"/></svg>