<svg width="1200" height="630" viewBox="0 0 1200 630" xmlns="http://www.w3.org/2000/svg"><rect x="0" y="0" width="1200" height="630" fill="#fefbfb"/><defs><clipPath id="satori_bc-id-0"><path x="105" y="39" width="1056" height="504" d="M109,39 h1048 a4,4 0 0 1 4,4 v496 a4,4 0 0 1 -4,4 h-1048 a4,4 0 0 1 -4,-4 v-496 a4,4 0 0 1 4,-4"/></clipPath></defs><g opacity="0.9"><path x="105" y="39" width="1056" height="504" fill="#ecebeb" d="M109,39 h1048 a4,4 0 0 1 4,4 v496 a4,4 0 0 1 -4,4 h-1048 a4,4 0 0 1 -4,-4 v-496 a4,4 0 0 1 4,-4"/><path width="1056" height="504" clip-path="url(#satori_bc-id-0)" fill="none" stroke="#000" stroke-width="8" d="M106.172,40.172 A4,4 0 0 1 109,39 h1048 a4,4 0 0 1 4,4 v496 a4,4 0 0 1 -4,4 h-1048 a4,4 0 0 1 -4,-4 v-496 A4,4 0 0 1 106.172,40.172"/></g><defs><clipPath id="satori_bc-id-1"><path x="72" y="63" width="1056" height="504" d="M76,63 h1048 a4,4 0 0 1 4,4 v496 a4,4 0 0 1 -4,4 h-1048 a4,4 0 0 1 -4,-4 v-496 a4,4 0 0 1 4,-4"/></clipPath></defs><path x="72" y="63" width="1056" height="504" fill="#fefbfb" d="M76,63 h1048 a4,4 0 0 1 4,4 v496 a4,4 0 0 1 -4,4 h-1048 a4,4 0 0 1 -4,-4 v-496 a4,4 0 0 1 4,-4"/><path width="1056" height="504" clip-path="url(#satori_bc-id-1)" fill="none" stroke="#000" stroke-width="8" d="M73.172,64.172 A4,4 0 0 1 76,63 h1048 a4,4 0 0 1 4,4 v496 a4,4 0 0 1 -4,4 h-1048 a4,4 0 0 1 -4,-4 v-496 A4,4 0 0 1 73.172,64.172"/><clipPath id="satori_cp-id-1-0-0"><rect x="128" y="103" width="944" height="104"/></clipPath><mask id="satori_om-id-1-0-0"><rect x="128" y="103" width="944" height="104" fill="#fff"/></mask><path fill="black" d="M156.3 181.9C163.2 181.9 168.9 179.1 173.3 174.0L167.7 167.4C164.8 170.5 161.3 172.6 156.7 172.6C148.2 172.6 142.8 165.7 142.8 154.1C142.8 142.6 148.8 135.7 156.9 135.7C160.9 135.7 164 137.6 166.7 140.2L172.3 133.4C168.8 129.8 163.4 126.6 156.7 126.6C143.2 126.6 131.9 136.9 131.9 154.4C131.9 172.2 142.8 181.9 156.3 181.9ZM192.6 172.9L200.4 172.9L200.4 157.7L215.0 157.7L215.0 150.1L200.4 150.1L200.4 134.8L192.6 134.8L192.6 150.1L178.0 150.1L178.0 157.7L192.6 157.7ZM235.0 172.9L242.8 172.9L242.8 157.7L257.4 157.7L257.4 150.1L242.8 150.1L242.8 134.8L235.0 134.8L235.0 150.1L220.4 150.1L220.4 157.7L235.0 157.7ZM270.2 136.6C271.4 135.2 272.5 133.6 273.5 131.9L277.1 131.9L277.1 135.0C277.1 135.5 277.1 136.0 277.0 136.6ZM296.5 150.2C294.6 149.0 287.4 144.8 284.4 143.3L296.3 143.3L296.3 136.6L285.2 136.6C285.2 136.1 285.2 135.6 285.2 135.1L285.2 131.9L294.6 131.9L294.6 125.3L276.8 125.3C277.3 123.8 277.8 122.4 278.2 121.0L270.6 119.4C269.2 124.8 266.4 130.0 262.7 133.5C264.2 134.2 266.5 135.5 268.2 136.6L263.4 136.6L263.4 143.3L275.3 143.3C273.5 146.9 269.8 150.4 262.5 153.3C264.4 154.6 266.7 157.3 267.9 159.0C274.4 156.0 278.6 152.3 281.1 148.7C284.4 150.9 288.4 153.8 290.4 155.6ZM311.1 163.4L311.1 167.5L281.4 167.5L281.4 163.4ZM281.4 177.9L281.4 173.6L311.1 173.6L311.1 177.9ZM272.9 187.1L281.4 187.1L281.4 184.7L311.1 184.7L311.1 187.0L319.9 187.0L319.9 156.7L272.9 156.7ZM317.6 144.8L306.6 144.8L306.6 132.7L317.6 132.7ZM298.7 125.1L298.7 152.4L326.1 152.4L326.1 125.1ZM346.7 167.1L346.7 162.9L357.4 162.9L357.4 167.1ZM357.4 152.8L357.4 156.6L346.7 156.6L346.7 152.8ZM365.9 145.7L338.7 145.7L338.7 187.0L346.7 187.0L346.7 173.4L357.4 173.4L357.4 178.3C357.4 179.1 357.1 179.3 356.2 179.3C355.3 179.4 352.5 179.5 349.9 179.3C351.1 181.4 352.3 184.7 352.7 186.9C357.0 186.9 360.3 186.8 362.7 185.5C365.2 184.2 365.9 182.1 365.9 178.4ZM354.0 126.9C355.2 128.9 356.5 131.0 357.6 133.2L347.0 133.8C349.8 130.4 352.7 126.1 354.7 122.0L345.7 119.6C343.6 125.0 340.2 130.0 339.2 131.5C338.0 133.0 336.8 134.0 335.6 134.3C336.7 136.5 338.1 140.5 338.5 142.3C340.3 141.5 343.2 141.0 360.6 139.6C361.1 140.9 361.5 142.1 361.7 143.2L369.5 140.1C368.3 135.6 364.7 129.2 361.4 124.3ZM391.7 152.0C398.3 152.0 400.6 149.5 401.5 140.2C399.2 139.7 395.8 138.4 394.0 137.1C393.7 143.4 393.2 144.5 390.9 144.5L383.1 144.5C380.4 144.5 379.9 144.2 379.9 141.6L379.9 137.4C386.2 135.5 393.0 133.3 398.4 130.6L393.0 124.4C389.6 126.3 384.8 128.5 379.9 130.4L379.9 120.1L371.4 120.1L371.4 141.8C371.4 149.6 373.5 152.0 381.9 152.0ZM383.3 179.1C380.5 179.1 380 178.8 380 176.2L380 170.6C386.6 168.5 393.6 165.9 399.2 162.9L393.5 156.7C390.1 159.0 385.1 161.3 380 163.4L380 153.6L371.5 153.6L371.5 176.2C371.5 184.1 373.7 186.6 382.1 186.6L392.2 186.6C399.0 186.6 401.3 183.7 402.2 173.6C399.9 173.1 396.5 171.8 394.7 170.6C394.3 177.8 393.9 179.1 391.4 179.1ZM431.8 150.2C429.3 150.8 426.8 151.5 424.3 152.1L424.3 141.3L431.6 141.3L431.6 133.4L424.3 133.4L424.3 119.9L415.9 119.9L415.9 133.4L406.9 133.4L406.9 141.3L415.9 141.3L415.9 154.1C412.2 155.0 408.7 155.8 405.8 156.4L407.9 164.6L415.9 162.5L415.9 177.9C415.9 178.9 415.5 179.2 414.5 179.3C413.6 179.3 410.7 179.3 407.9 179.1C408.9 181.4 410.0 184.8 410.2 187.0C415.3 187.0 418.7 186.8 421.1 185.5C423.6 184.1 424.3 182.1 424.3 177.8L424.3 160.3C427.2 159.5 430.0 158.7 432.8 158.0ZM461.7 161.3L461.7 165.7L443.4 165.7L443.4 161.3ZM443.4 177.2L443.4 172.4L461.7 172.4L461.7 177.2ZM435.2 187.1L443.4 187.1L443.4 184.0L461.7 184.0L461.7 186.8L470.2 186.8L470.2 154.3L435.2 154.3ZM448.8 142.5C444.7 142.5 443.9 142.1 443.9 139.4L443.9 136.4C452.5 134.6 462.1 132.2 469.4 129.2L463.1 123.0C458.3 125.3 451.1 127.6 443.9 129.4L443.9 119.9L435.4 119.9L435.4 139.4C435.4 147.7 438.0 150.2 448.0 150.2L461.9 150.2C470.1 150.2 472.7 147.4 473.7 137.3C471.4 136.9 467.8 135.5 466.0 134.2C465.5 141.3 464.9 142.5 461.3 142.5ZM497.9 174.2L497.9 162.6L506.4 162.6L506.4 154.9L497.9 154.9L497.9 147.9L504.7 147.9L504.7 140.2L485.8 140.2C487.1 138.7 488.4 136.9 489.6 135.1L506.7 135.1L506.7 127.1L494.0 127.1C494.8 125.6 495.5 123.9 496.1 122.4L488.6 120.1C486.3 126.4 482.1 132.5 477.6 136.4C478.9 138.4 480.9 143.0 481.4 144.8C482.3 144.1 483.1 143.3 483.9 142.4L483.9 147.9L489.7 147.9L489.7 154.9L480.3 154.9L480.3 162.6L489.7 162.6L489.7 173.5C489.7 176.7 487.6 178.9 486.0 179.9C487.4 181.6 489.3 185.3 489.9 187.4C491.4 186.0 493.9 184.6 508.3 177.5C507.8 175.7 507.2 172.3 507.0 170.0ZM545.0 142.4L530.7 142.4L530.7 120.5L521.9 120.5L521.9 142.4L506.4 142.4L506.4 150.9L521.9 150.9L521.9 187.1L530.7 187.1L530.7 150.9L545.0 150.9ZM600.4 132.0L567.4 132.0L567.4 128.4L600.4 128.4ZM600.4 141.2L567.4 141.2L567.4 137.6L600.4 137.6ZM609.1 122.3L559.1 122.3L559.1 147.3L609.1 147.3ZM589.2 170.8L611.4 170.8L611.4 163.4L589.2 163.4L589.2 158.0L615.9 158.0L615.9 150.5L552.4 150.5L552.4 158.0L580.5 158.0L580.5 176.3C575.9 174.9 572.4 172.2 570.2 167.3C570.7 165.2 571.3 163.1 571.8 160.8L563.2 159.5C561.6 169.1 557.2 176.7 549.8 181.3C551.8 182.5 555.1 185.7 556.3 187.3C560.5 184.4 563.8 180.6 566.4 175.8C572.5 184.2 581.4 186.0 594.6 186.0L615.1 186.0C615.5 183.5 616.8 179.8 618.0 177.8C612.8 178.0 599.0 178.0 595.0 178.0C593.0 178.0 591.1 178.0 589.2 177.8ZM638.6 120.1C635.0 130.5 628.7 140.8 622.1 147.4C623.5 149.5 625.9 154.2 626.7 156.3C628.5 154.4 630.3 152.2 632.1 149.8L632.1 187.0L640.5 187.0L640.5 136.4C642.9 132.0 645.0 127.2 646.8 122.7ZM689.2 143.6L671.5 143.6L671.5 120.9L662.5 120.9L662.5 143.6L644.0 143.6L644.0 152.0L662.5 152.0L662.5 187.1L671.5 187.1L671.5 152.0L689.2 152.0ZM722.4 120.3C717.0 130.1 706.2 142.5 695.5 149.8C697.6 151.3 700.6 154.1 702.3 156.0C713.4 147.8 724.2 135.1 731.3 123.6ZM761.3 181.6C758.1 174.4 751.7 163.7 745.5 155.6L737.8 159.5C740.3 162.9 743.0 167.1 745.4 171.1L716.3 173.2C727.0 163.7 738.3 151.9 748.4 137.4L739.5 133.0C728.8 149.2 714.3 164.1 709.2 168.2C704.6 172.3 701.9 174.3 699.2 175.0C700.4 177.5 702.2 181.8 702.8 183.5C706.4 182.3 711.6 182.4 749.9 179.3C751.1 181.7 752.1 184.0 752.9 186.0Z " clip-path="url(#satori_cp-id-1-0-0)" mask="url(#satori_om-id-1-0-0)"/><path fill="black" d="M137.3 515.6C140.8 515.6 143.9 512.6 143.9 507.4C143.9 502.8 141.7 499.7 137.8 499.7C136.1 499.7 134.4 500.6 133.0 501.8L133.1 499.1L133.1 493.0L130.6 493.0L130.6 515.3L132.6 515.3L132.8 513.7L133.0 513.7C134.3 514.9 135.9 515.6 137.3 515.6ZM136.8 513.5C135.8 513.5 134.5 513.1 133.1 511.9L133.1 503.9C134.6 502.6 135.9 501.8 137.2 501.8C140.1 501.8 141.2 504.1 141.2 507.5C141.2 511.2 139.4 513.5 136.8 513.5ZM148.0 521.8C151.0 521.8 152.6 519.5 153.7 516.5L159.4 500.1L156.9 500.1L154.2 508.5C153.8 509.9 153.3 511.4 152.9 512.8L152.8 512.8C152.3 511.4 151.8 509.8 151.3 508.5L148.2 500.1L145.6 500.1L151.7 515.3L151.3 516.4C150.7 518.3 149.6 519.7 147.9 519.7C147.5 519.7 147.0 519.6 146.7 519.5L146.2 521.5C146.7 521.7 147.3 521.8 148.0 521.8Z "/><clipPath id="satori_cp-id-1-0-1-0-2"><rect x="173" y="485" width="57" height="40"/></clipPath><mask id="satori_om-id-1-0-1-0-2"><rect x="173" y="485" width="57" height="40" fill="#fff"/></mask><path fill="black" d="M181.7 515.7C186.5 515.7 189.4 512.8 189.4 509.4C189.4 506.4 187.7 504.8 185.2 503.8L182.5 502.6C180.7 501.9 179.2 501.4 179.2 499.9C179.2 498.5 180.4 497.7 182.2 497.7C183.9 497.7 185.3 498.3 186.6 499.4L188.7 496.8C187.0 495.1 184.6 494.2 182.2 494.2C178.0 494.2 175.0 496.8 175.0 500.2C175.0 503.2 177.1 504.9 179.2 505.7L182.0 506.9C183.9 507.7 185.1 508.2 185.1 509.7C185.1 511.2 184.0 512.1 181.8 512.1C180 512.1 178.0 511.2 176.6 509.8L174.2 512.6C176.2 514.6 179.0 515.7 181.7 515.7ZM193.0 515.3L196.7 515.3L196.7 506.6C196.7 504.7 196.4 501.8 196.2 499.8L196.3 499.8L198.0 504.7L201.2 513.4L203.6 513.4L206.8 504.7L208.4 499.8L208.6 499.8C208.4 501.8 208.1 504.7 208.1 506.6L208.1 515.3L211.8 515.3L211.8 494.5L207.2 494.5L203.8 504.2C203.4 505.5 203.0 506.9 202.5 508.2L202.4 508.2C202.0 506.9 201.6 505.5 201.1 504.2L197.6 494.5L193.0 494.5ZM221.4 515.7C225.9 515.7 227.9 512.5 227.9 508.6L227.9 494.5L223.7 494.5L223.7 508.2C223.7 511.1 222.8 512.1 220.9 512.1C219.8 512.1 218.7 511.4 217.9 509.9L215.0 512.0C216.4 514.4 218.4 515.7 221.4 515.7Z " clip-path="url(#satori_cp-id-1-0-1-0-2)" mask="url(#satori_om-id-1-0-1-0-2)"/><clipPath id="satori_cp-id-1-0-1-1"><rect x="959" y="485" width="112" height="40"/></clipPath><mask id="satori_om-id-1-0-1-1"><rect x="959" y="485" width="112" height="40" fill="#fff"/></mask><path fill="black" d="M985.5 499.3L985.5 496.0L974.0 496.0L976.0 495.2C975.5 494.1 974.7 492.5 974.0 491.2L970.7 492.4C971.2 493.5 971.9 494.9 972.4 496.0L960.5 496.0L960.5 499.3L967.6 499.3C967.3 505.2 966.8 511.5 960.1 515.1C961.0 515.8 962.0 516.9 962.5 517.8C967.5 514.9 969.6 510.6 970.6 505.9L979.4 505.9C979.0 510.9 978.5 513.3 977.8 513.9C977.4 514.2 977.0 514.3 976.4 514.3C975.5 514.3 973.6 514.3 971.7 514.1C972.3 515.0 972.8 516.4 972.9 517.4C974.8 517.5 976.6 517.5 977.7 517.3C979.0 517.2 979.9 517.0 980.7 516.0C981.8 514.8 982.4 511.7 982.9 504.1C983.0 503.7 983.1 502.7 983.1 502.7L971.0 502.7C971.2 501.5 971.2 500.4 971.3 499.3ZM991.1 504.1C992.9 506.2 995.0 509.1 995.8 511.0L998.9 509.1C998.0 507.2 995.8 504.4 993.9 502.5ZM1013.7 497.2L1007.4 497.2L1007.4 491.6L1003.8 491.6L1003.8 497.2L988.3 497.2L988.3 500.5L1003.8 500.5L1003.8 513.3C1003.8 513.9 1003.5 514.2 1002.8 514.2C1002.1 514.2 999.7 514.2 997.4 514.1C997.9 515.1 998.7 516.7 998.9 517.8C1001.8 517.8 1004.1 517.7 1005.5 517.1C1006.9 516.5 1007.4 515.6 1007.4 513.3L1007.4 500.5L1013.7 500.5ZM1037.7 496.6L1037.0 496.7L1030.5 496.7L1032.2 495.8C1031.5 494.6 1030.1 492.6 1029.0 491.2L1026.0 492.8C1026.8 494.0 1027.9 495.5 1028.6 496.7L1017.6 496.7L1017.6 500.0L1034.5 500.0C1031.5 503.8 1026.7 508.1 1022.1 510.9L1022.0 510.9C1020.4 510.9 1018.2 512.4 1016.2 514.5L1018.6 517.7C1019.8 515.9 1021.0 514.0 1021.9 514.0C1022.5 514.0 1023.4 514.9 1024.6 515.6C1026.5 516.8 1028.8 517.2 1032.2 517.2C1035.0 517.2 1039.2 517.0 1041.2 516.9C1041.2 516.0 1041.8 514.2 1042.1 513.3C1039.5 513.7 1035.2 514.0 1032.3 514.0C1029.4 514.0 1027.0 513.8 1025.3 512.7C1030.9 509.0 1036.7 503.5 1040.3 498.3ZM1045.0 517.7L1048.5 517.7L1048.5 498.3L1045.0 498.3ZM1045.5 493.4C1046.7 494.7 1048.2 496.5 1048.7 497.7L1051.5 496.0C1050.9 494.7 1049.4 493.0 1048.1 491.7ZM1054.3 507.4L1059.7 507.4L1059.7 510.0L1054.3 510.0ZM1054.3 502.1L1059.7 502.1L1059.7 504.7L1054.3 504.7ZM1051.3 512.7L1062.8 512.7L1062.8 499.4L1051.3 499.4ZM1069.2 492.9L1052.5 492.9L1052.5 496.0L1065.7 496.0L1065.7 514.1C1065.7 514.4 1065.7 514.6 1065.3 514.6C1065.0 514.6 1063.9 514.6 1063.0 514.5C1063.4 515.4 1063.9 516.6 1064 517.5C1065.7 517.5 1067.1 517.5 1068.0 517.0C1068.9 516.4 1069.2 515.7 1069.2 514.1Z " clip-path="url(#satori_cp-id-1-0-1-1)" mask="url(#satori_om-id-1-0-1-1)"/></svg>