<svg width="1200" height="630" viewBox="0 0 1200 630" xmlns="http://www.w3.org/2000/svg"><rect x="0" y="0" width="1200" height="630" fill="#fefbfb"/><defs><clipPath id="satori_bc-id-0"><path x="105" y="39" width="1056" height="504" d="M109,39 h1048 a4,4 0 0 1 4,4 v496 a4,4 0 0 1 -4,4 h-1048 a4,4 0 0 1 -4,-4 v-496 a4,4 0 0 1 4,-4"/></clipPath></defs><g opacity="0.9"><path x="105" y="39" width="1056" height="504" fill="#ecebeb" d="M109,39 h1048 a4,4 0 0 1 4,4 v496 a4,4 0 0 1 -4,4 h-1048 a4,4 0 0 1 -4,-4 v-496 a4,4 0 0 1 4,-4"/><path width="1056" height="504" clip-path="url(#satori_bc-id-0)" fill="none" stroke="#000" stroke-width="8" d="M106.172,40.172 A4,4 0 0 1 109,39 h1048 a4,4 0 0 1 4,4 v496 a4,4 0 0 1 -4,4 h-1048 a4,4 0 0 1 -4,-4 v-496 A4,4 0 0 1 106.172,40.172"/></g><defs><clipPath id="satori_bc-id-1"><path x="72" y="63" width="1056" height="504" d="M76,63 h1048 a4,4 0 0 1 4,4 v496 a4,4 0 0 1 -4,4 h-1048 a4,4 0 0 1 -4,-4 v-496 a4,4 0 0 1 4,-4"/></clipPath></defs><path x="72" y="63" width="1056" height="504" fill="#fefbfb" d="M76,63 h1048 a4,4 0 0 1 4,4 v496 a4,4 0 0 1 -4,4 h-1048 a4,4 0 0 1 -4,-4 v-496 a4,4 0 0 1 4,-4"/><path width="1056" height="504" clip-path="url(#satori_bc-id-1)" fill="none" stroke="#000" stroke-width="8" d="M73.172,64.172 A4,4 0 0 1 76,63 h1048 a4,4 0 0 1 4,4 v496 a4,4 0 0 1 -4,4 h-1048 a4,4 0 0 1 -4,-4 v-496 A4,4 0 0 1 73.172,64.172"/><clipPath id="satori_cp-id-1-0-0"><rect x="128" y="103" width="944" height="104"/></clipPath><mask id="satori_om-id-1-0-0"><rect x="128" y="103" width="944" height="104" fill="#fff"/></mask><path fill="black" d="M156.3 181.9C163.2 181.9 168.9 179.1 173.3 174.0L167.7 167.4C164.8 170.5 161.3 172.6 156.7 172.6C148.2 172.6 142.8 165.7 142.8 154.1C142.8 142.6 148.8 135.7 156.9 135.7C160.9 135.7 164 137.6 166.7 140.2L172.3 133.4C168.8 129.8 163.4 126.6 156.7 126.6C143.2 126.6 131.9 136.9 131.9 154.4C131.9 172.2 142.8 181.9 156.3 181.9ZM192.6 172.9L200.4 172.9L200.4 157.7L215.0 157.7L215.0 150.1L200.4 150.1L200.4 134.8L192.6 134.8L192.6 150.1L178.0 150.1L178.0 157.7L192.6 157.7ZM235.0 172.9L242.8 172.9L242.8 157.7L257.4 157.7L257.4 150.1L242.8 150.1L242.8 134.8L235.0 134.8L235.0 150.1L220.4 150.1L220.4 157.7L235.0 157.7ZM321.8 125.0C321.0 129.0 319.2 134.6 317.6 138.2L322.5 139.7C324.3 136.4 326.6 131.2 328.5 126.7ZM307.5 138.0C306.8 134.6 305.3 129.3 303.8 125.3L298.4 126.6C299.7 130.7 301.2 136.1 301.8 139.5ZM309.4 175.2L316.4 175.2L316.4 156.4C319.4 160.7 322.5 165.9 324.0 169.0L329.2 163.4C327.5 161.1 320.9 152.6 317.5 148.8L328.8 148.8L328.8 141.7L316.4 141.7L316.4 120.4L309.4 120.4L309.4 141.7L297.8 141.7L297.8 148.8L307.3 148.8C304.9 154.4 301.2 160.0 297.6 163.5C298.8 165.4 300.4 168.6 301.0 170.8C304.1 167.5 307.0 162.8 309.4 157.6ZM263.9 183.2C270.7 181.5 279.1 179.4 287.2 177.2L286.4 170.3C277.6 172.3 268.5 174.2 262.6 175.3ZM271.8 142.8C275.8 136.9 279.6 129.7 282.2 123.0L274.2 119.3C271.9 127.7 267.3 136.8 265.8 139.0C264.4 141.4 263.2 142.9 261.7 143.3C262.7 145.5 264.0 149.5 264.4 151.1C265.5 150.5 267.2 150.1 273.4 149.4C271.1 152.8 269.0 155.5 268.0 156.7C265.7 159.3 264.2 160.9 262.4 161.3C263.3 163.4 264.4 167.0 264.9 168.6C266.7 167.5 269.6 166.7 286.2 163.5C286.1 161.8 286.2 158.6 286.5 156.4L275.7 158.2C280.5 152.3 285.0 145.6 288.7 138.9L282.0 134.6C280.8 137.2 279.3 139.8 278.0 142.3ZM296.5 177.0L296.5 122.5L288.7 122.5L288.7 184.4L329.6 184.4L329.6 177.0ZM351.5 136.8L349.9 137.1L336.3 137.1L336.3 144.8L347.4 144.8C345.1 157.5 340.3 168.1 333.8 174.3C335.6 175.5 338.8 178.8 340.0 180.8C348.2 172.7 354.2 157.4 356.7 138.7ZM372.8 160.0L380.6 160.0L380.6 152.8L372.8 152.8L372.8 149.1L379.3 149.1L379.3 141.9L372.8 141.9L372.8 140.0C379.9 136.1 386.5 130.7 391.2 125.6L385.5 121.2L383.5 121.7L345.9 121.7L345.9 129.4L375.2 129.4C371.9 132.1 367.9 134.8 364.1 136.5L364.1 141.9L357.1 141.9L357.1 149.1L364.1 149.1L364.1 152.8L355.6 152.8L355.6 160.0L364.1 160.0L364.1 164.3L352.4 164.3L352.4 171.5L364.1 171.5L364.1 177.0C364.1 178.2 363.7 178.5 362.4 178.5C361.1 178.5 357.0 178.5 353.1 178.4C354.2 180.6 355.6 184.2 356.0 186.5C361.9 186.5 366.0 186.4 368.9 185.0C371.9 183.7 372.8 181.6 372.8 177.2L372.8 171.5L383.8 171.5L383.8 164.3L372.8 164.3ZM394.6 136.6C393.1 139.3 390.9 142.5 388.6 145.4C387.9 142.1 387.3 138.7 386.8 135.4L379.6 136.5C382.1 154.9 386.5 170.7 396.2 179.7C397.6 177.4 400.3 174.2 402.2 172.6C397.1 168.4 393.5 161.8 390.9 153.8C394.2 150.4 398.1 145.9 401.4 142.0ZM421.7 140.1C421.7 136.1 423.9 133.6 427.1 133.6C429.8 133.6 431.0 135.6 431.0 138.2C431.0 142.1 427.8 144.7 423.6 147.2C422.4 144.7 421.7 142.3 421.7 140.1ZM423.7 181.9C430.3 181.9 435.7 179.7 440.0 176.2C444.5 179.0 449.1 180.9 453.4 181.9L456.0 173.2C453.2 172.7 449.9 171.3 446.5 169.4C450.6 163.9 453.5 157.7 455.5 151.1L445.9 151.1C444.4 156.4 442.1 160.9 439.3 164.6C435.1 161.4 431.0 157.5 427.8 153.6C433.5 149.6 439.3 145.2 439.3 138.2C439.3 131.2 434.5 126.6 426.9 126.6C418.4 126.6 412.9 132.7 412.9 140.1C412.9 143.6 414.1 147.6 416.3 151.6C411.0 155.0 406.3 159.3 406.3 166.7C406.3 175.0 412.5 181.9 423.7 181.9ZM416.4 166.1C416.4 163.2 418.2 160.8 420.8 158.6C424.1 163.1 428.2 167.3 432.8 171.1C430.3 172.7 427.7 173.7 425 173.7C419.9 173.7 416.4 170.6 416.4 166.1ZM510.8 125.3L509.3 125.7L494.1 125.7C495.5 124.4 496.8 123.1 498.0 121.8L488.8 119.6C484.0 125.3 475.4 131.4 463.8 135.7C465.7 136.9 468.3 139.9 469.6 141.8C475.4 139.2 480.4 136.4 484.9 133.3L502.8 133.3C499.7 136.4 495.6 139.2 491.0 141.7C488.7 139.7 486.1 137.8 483.8 136.4L477.4 140.3C479.3 141.7 481.4 143.3 483.3 145.1C476.7 147.7 469.4 149.5 462.0 150.5C463.5 152.4 465.2 155.9 466.0 158.1C486.7 154.2 507.2 145.3 516.4 128.7ZM520.0 151.8L518.5 152.3L505.6 152.3C507.2 150.7 508.5 149.1 510.0 147.4L500.7 145.3C495.2 152.3 485.3 159.3 470.4 163.9C472.2 165.4 474.7 168.6 475.7 170.6C483.9 167.5 490.7 163.9 496.5 159.8L512.8 159.8C509.7 163.8 505.7 167.0 500.9 169.6C498.7 167.7 495.9 165.7 493.7 164.1L486.6 168.2C488.6 169.6 490.9 171.4 492.8 173.2C483.7 176.5 472.8 178.2 461.3 179.0C462.7 181.1 464.1 184.9 464.7 187.3C492.2 184.7 515.8 177.1 525.9 155.2ZM540.1 184.7C543.0 179.6 545.0 171.6 546.5 165.2L538.8 162.6C537.6 169.0 535.2 176.0 532.3 180.8ZM561.7 178.0C557.6 178.0 556.8 177.8 556.8 175.4L556.8 163.2L548.3 163.2L548.3 175.5C548.3 183.3 550.9 185.7 560.9 185.7L574.8 185.7C582.8 185.7 585.3 183.1 586.4 172.8C584.0 172.3 580.5 171.1 578.6 169.7C578.2 177.0 577.6 178.0 574.1 178.0ZM556.3 152.6C560.5 154.9 565.7 158.6 568.1 161.0L576.1 156.3C573.2 153.7 567.8 150.3 563.7 148.2ZM558.5 162.3C562.2 166.0 566.6 171.3 568.4 174.7L575.5 170.3C573.5 166.8 568.8 161.8 565.0 158.5ZM582.5 164.3C585.9 170.6 589.3 179.0 590.5 184.2L598.6 181.4C597.2 176.0 593.6 168.0 590.0 161.8ZM597.9 136.9L597.9 129.0L568.8 129.0C569.4 125.8 569.7 122.5 570.0 119.1L561.2 119.1C560.9 122.5 560.5 125.8 559.9 129.0L532.9 129.0L532.9 136.9L557.6 136.9C554.1 144.6 547.3 150.9 532.1 154.7C533.9 156.6 536.0 159.9 536.9 161.9C554.7 156.9 562.6 148.4 566.4 138.1C571.9 149.6 580.3 157.2 593.8 161.0C595.0 158.7 597.5 155.0 599.5 153.2C587.9 150.7 580.0 145.0 575.0 136.9ZM618.9 140.1C618.9 136.1 621.1 133.6 624.3 133.6C627.0 133.6 628.3 135.6 628.3 138.2C628.3 142.1 625.0 144.7 620.8 147.2C619.6 144.7 618.9 142.3 618.9 140.1ZM620.9 181.9C627.5 181.9 632.9 179.7 637.3 176.2C641.7 179.0 646.3 180.9 650.6 181.9L653.2 173.2C650.4 172.7 647.1 171.3 643.7 169.4C647.8 163.9 650.7 157.7 652.7 151.1L643.1 151.1C641.6 156.4 639.3 160.9 636.5 164.6C632.3 161.4 628.2 157.5 625.0 153.6C630.7 149.6 636.5 145.2 636.5 138.2C636.5 131.2 631.7 126.6 624.1 126.6C615.6 126.6 610.1 132.7 610.1 140.1C610.1 143.6 611.3 147.6 613.5 151.6C608.2 155.0 603.5 159.3 603.5 166.7C603.5 175.0 609.8 181.9 620.9 181.9ZM613.6 166.1C613.6 163.2 615.4 160.8 618.0 158.6C621.3 163.1 625.4 167.3 630.0 171.1C627.5 172.7 624.9 173.7 622.2 173.7C617.1 173.7 613.6 170.6 613.6 166.1ZM704.5 159.8L696.5 159.8L696.5 178.8L691.5 178.8L691.5 159.8L683.6 159.8L683.6 178.8L668.6 178.8L668.6 186.0L721.9 186.0L721.9 178.8L704.5 178.8ZM671.2 164.8C673.1 168.8 675.1 174.1 675.8 177.3L683.1 174.7C682.4 171.3 680.2 166.3 678.0 162.6ZM710.8 162.1C709.5 165.9 707.0 171.1 704.9 174.7L710.8 177.0C713.4 173.9 716.4 169.1 719.3 164.6ZM698.5 152.3C694.4 152.3 693.7 152.0 693.7 149.9L693.7 149.7L709.0 148.5L708.6 142.9L693.7 144.1L693.7 141.1L712.1 141.1C711.7 142.7 711.3 144.2 710.8 145.4L718.5 147.9C720.0 144.7 721.7 139.9 722.7 135.4L716.1 133.8L714.7 134.2L694.2 134.2L694.2 131.2L717.1 131.2L717.1 124.4L694.2 124.4L694.2 119.9L685.6 119.9L685.6 134.2L663.3 134.2L663.3 150.7C663.3 160.1 662.8 173.4 657.1 182.7C659.1 183.5 662.9 185.7 664.5 187.0C670.7 177.0 671.7 161.4 671.7 150.7L671.7 141.1L685.6 141.1L685.6 144.7L673.6 145.6L674.0 151.3L685.6 150.4C685.8 156.7 688.3 158.4 697.7 158.4L712.2 158.4C718.8 158.4 721.2 156.8 722.1 150.6C720.0 150.2 716.8 149.3 715.2 148.4C714.9 151.7 714.2 152.3 711.3 152.3ZM758.3 166.2C758.3 167.1 758.0 167.4 757.1 167.4C756.1 167.4 753.0 167.4 750.2 167.2C751.2 169.4 752.3 172.6 752.6 174.8C757.4 174.8 761.0 174.7 763.4 173.5C766.1 172.3 766.8 170.3 766.8 166.4L766.8 157.3C771.4 161.7 775.9 166.3 778.5 169.7L783.8 163.9C781.5 161.1 777.9 157.5 773.8 153.9C777.0 150.7 780.7 146.5 784.0 142.6L776.9 138.9C774.9 142.1 771.9 146.4 769.1 149.7L766.8 147.9L766.8 139.8C773.6 136.1 780.2 131.2 785.2 126.6L779.6 122.0L777.7 122.5L739.6 122.5L739.6 130.3L768.6 130.3C765.3 132.8 761.7 135.1 758.3 136.7L758.3 151.5C751.5 155.4 744.8 159.3 740.4 161.6L744.3 168.7C748.6 165.9 753.5 162.5 758.3 159.0ZM784.7 136.2L784.7 176.6L740.4 176.6L740.4 136.6L731.7 136.6L731.7 184.3L784.7 184.3L784.7 187.3L793.2 187.3L793.2 136.2ZM756.1 148.6C754.1 146.0 750.2 142.1 746.8 139.3L741.5 143.7C744.7 146.8 748.7 151.1 750.6 153.8ZM829.1 120.8C828.0 123.5 826.0 127.4 824.4 129.9L829.9 132.3C831.7 130.1 834.0 126.8 836.3 123.6ZM815.5 152.2L823.4 152.2L823.4 144.3C826.1 146.5 828.9 148.9 830.5 150.4L835.0 144.4C833.7 143.6 829.7 141.2 826.5 139.3L837.0 139.3L837.0 132.5L823.4 132.5L823.4 119.9L815.5 119.9L815.5 132.5L808.2 132.5L814.0 129.9C813.4 127.5 811.6 123.8 809.7 121.1L803.6 123.6C805.2 126.4 806.9 130.1 807.5 132.5L801.8 132.5L801.8 139.3L812.5 139.3C809.1 142.8 804.6 146.0 800.3 147.7C801.9 149.3 803.8 152.1 804.7 154.0C808.3 152.0 812.1 149.0 815.5 145.7ZM825.6 163.6C824.3 166.2 822.6 168.4 820.6 170.4C818.7 169.4 816.7 168.4 814.7 167.5C815.5 166.3 816.2 165.0 816.9 163.6ZM832.1 177.1C830.6 176.1 828.9 175.0 827.0 173.9C830.6 169.8 833.5 164.6 835.3 158.2L830.6 156.5L829.4 156.7L820.2 156.7C820.6 155.8 821.1 154.9 821.4 153.9L813.9 152.6C813.4 153.9 812.8 155.3 812.1 156.7L803.1 156.7L803.1 163.6L808.6 163.6C807.2 166.1 805.8 168.3 804.5 170.2C807.8 171.6 811.4 173.2 814.7 175.0C810.6 177.5 805.8 179.4 800.6 180.6C802.1 182.0 803.7 185.0 804.5 187.0C811.0 185.2 816.8 182.6 821.6 178.9C823.7 180.2 825.6 181.5 827.0 182.6ZM854.9 141.0C854.2 147.2 853.0 152.6 851.4 157.4C849.5 152.3 848.1 146.8 847.0 141.0ZM867.4 141.0L867.4 133.1L848.2 133.1C849.1 129.3 849.8 125.3 850.4 121.2L842.6 120.1C840.9 132.9 837.8 145.1 832.0 152.6C833.7 153.8 837.0 156.7 838.1 158.1C839.5 156.2 840.8 154.0 842.0 151.7C843.4 157.2 845.0 162.2 847.1 166.7C843.4 172.7 838.1 177.2 830.8 180.5C832.3 182.1 834.5 185.7 835.3 187.5C842.0 184.1 847.2 179.8 851.3 174.3C854.6 179.3 858.5 183.4 863.5 186.5C864.6 184.4 867.2 181.3 869.0 179.8C863.6 176.8 859.2 172.3 855.9 166.6C859.3 159.5 861.5 151.1 862.8 141.0Z " clip-path="url(#satori_cp-id-1-0-0)" mask="url(#satori_om-id-1-0-0)"/><path fill="black" d="M137.3 515.6C140.8 515.6 143.9 512.6 143.9 507.4C143.9 502.8 141.7 499.7 137.8 499.7C136.1 499.7 134.4 500.6 133.0 501.8L133.1 499.1L133.1 493.0L130.6 493.0L130.6 515.3L132.6 515.3L132.8 513.7L133.0 513.7C134.3 514.9 135.9 515.6 137.3 515.6ZM136.8 513.5C135.8 513.5 134.5 513.1 133.1 511.9L133.1 503.9C134.6 502.6 135.9 501.8 137.2 501.8C140.1 501.8 141.2 504.1 141.2 507.5C141.2 511.2 139.4 513.5 136.8 513.5ZM148.0 521.8C151.0 521.8 152.6 519.5 153.7 516.5L159.4 500.1L156.9 500.1L154.2 508.5C153.8 509.9 153.3 511.4 152.9 512.8L152.8 512.8C152.3 511.4 151.8 509.8 151.3 508.5L148.2 500.1L145.6 500.1L151.7 515.3L151.3 516.4C150.7 518.3 149.6 519.7 147.9 519.7C147.5 519.7 147.0 519.6 146.7 519.5L146.2 521.5C146.7 521.7 147.3 521.8 148.0 521.8Z "/><clipPath id="satori_cp-id-1-0-1-0-2"><rect x="173" y="485" width="57" height="40"/></clipPath><mask id="satori_om-id-1-0-1-0-2"><rect x="173" y="485" width="57" height="40" fill="#fff"/></mask><path fill="black" d="M181.7 515.7C186.5 515.7 189.4 512.8 189.4 509.4C189.4 506.4 187.7 504.8 185.2 503.8L182.5 502.6C180.7 501.9 179.2 501.4 179.2 499.9C179.2 498.5 180.4 497.7 182.2 497.7C183.9 497.7 185.3 498.3 186.6 499.4L188.7 496.8C187.0 495.1 184.6 494.2 182.2 494.2C178.0 494.2 175.0 496.8 175.0 500.2C175.0 503.2 177.1 504.9 179.2 505.7L182.0 506.9C183.9 507.7 185.1 508.2 185.1 509.7C185.1 511.2 184.0 512.1 181.8 512.1C180 512.1 178.0 511.2 176.6 509.8L174.2 512.6C176.2 514.6 179.0 515.7 181.7 515.7ZM193.0 515.3L196.7 515.3L196.7 506.6C196.7 504.7 196.4 501.8 196.2 499.8L196.3 499.8L198.0 504.7L201.2 513.4L203.6 513.4L206.8 504.7L208.4 499.8L208.6 499.8C208.4 501.8 208.1 504.7 208.1 506.6L208.1 515.3L211.8 515.3L211.8 494.5L207.2 494.5L203.8 504.2C203.4 505.5 203.0 506.9 202.5 508.2L202.4 508.2C202.0 506.9 201.6 505.5 201.1 504.2L197.6 494.5L193.0 494.5ZM221.4 515.7C225.9 515.7 227.9 512.5 227.9 508.6L227.9 494.5L223.7 494.5L223.7 508.2C223.7 511.1 222.8 512.1 220.9 512.1C219.8 512.1 218.7 511.4 217.9 509.9L215.0 512.0C216.4 514.4 218.4 515.7 221.4 515.7Z " clip-path="url(#satori_cp-id-1-0-1-0-2)" mask="url(#satori_om-id-1-0-1-0-2)"/><clipPath id="satori_cp-id-1-0-1-1"><rect x="959" y="485" width="112" height="40"/></clipPath><mask id="satori_om-id-1-0-1-1"><rect x="959" y="485" width="112" height="40" fill="#fff"/></mask><path fill="black" d="M985.5 499.3L985.5 496.0L974.0 496.0L976.0 495.2C975.5 494.1 974.7 492.5 974.0 491.2L970.7 492.4C971.2 493.5 971.9 494.9 972.4 496.0L960.5 496.0L960.5 499.3L967.6 499.3C967.3 505.2 966.8 511.5 960.1 515.1C961.0 515.8 962.0 516.9 962.5 517.8C967.5 514.9 969.6 510.6 970.6 505.9L979.4 505.9C979.0 510.9 978.5 513.3 977.8 513.9C977.4 514.2 977.0 514.3 976.4 514.3C975.5 514.3 973.6 514.3 971.7 514.1C972.3 515.0 972.8 516.4 972.9 517.4C974.8 517.5 976.6 517.5 977.7 517.3C979.0 517.2 979.9 517.0 980.7 516.0C981.8 514.8 982.4 511.7 982.9 504.1C983.0 503.7 983.1 502.7 983.1 502.7L971.0 502.7C971.2 501.5 971.2 500.4 971.3 499.3ZM991.1 504.1C992.9 506.2 995.0 509.1 995.8 511.0L998.9 509.1C998.0 507.2 995.8 504.4 993.9 502.5ZM1013.7 497.2L1007.4 497.2L1007.4 491.6L1003.8 491.6L1003.8 497.2L988.3 497.2L988.3 500.5L1003.8 500.5L1003.8 513.3C1003.8 513.9 1003.5 514.2 1002.8 514.2C1002.1 514.2 999.7 514.2 997.4 514.1C997.9 515.1 998.7 516.7 998.9 517.8C1001.8 517.8 1004.1 517.7 1005.5 517.1C1006.9 516.5 1007.4 515.6 1007.4 513.3L1007.4 500.5L1013.7 500.5ZM1037.7 496.6L1037.0 496.7L1030.5 496.7L1032.2 495.8C1031.5 494.6 1030.1 492.6 1029.0 491.2L1026.0 492.8C1026.8 494.0 1027.9 495.5 1028.6 496.7L1017.6 496.7L1017.6 500.0L1034.5 500.0C1031.5 503.8 1026.7 508.1 1022.1 510.9L1022.0 510.9C1020.4 510.9 1018.2 512.4 1016.2 514.5L1018.6 517.7C1019.8 515.9 1021.0 514.0 1021.9 514.0C1022.5 514.0 1023.4 514.9 1024.6 515.6C1026.5 516.8 1028.8 517.2 1032.2 517.2C1035.0 517.2 1039.2 517.0 1041.2 516.9C1041.2 516.0 1041.8 514.2 1042.1 513.3C1039.5 513.7 1035.2 514.0 1032.3 514.0C1029.4 514.0 1027.0 513.8 1025.3 512.7C1030.9 509.0 1036.7 503.5 1040.3 498.3ZM1045.0 517.7L1048.5 517.7L1048.5 498.3L1045.0 498.3ZM1045.5 493.4C1046.7 494.7 1048.2 496.5 1048.7 497.7L1051.5 496.0C1050.9 494.7 1049.4 493.0 1048.1 491.7ZM1054.3 507.4L1059.7 507.4L1059.7 510.0L1054.3 510.0ZM1054.3 502.1L1059.7 502.1L1059.7 504.7L1054.3 504.7ZM1051.3 512.7L1062.8 512.7L1062.8 499.4L1051.3 499.4ZM1069.2 492.9L1052.5 492.9L1052.5 496.0L1065.7 496.0L1065.7 514.1C1065.7 514.4 1065.7 514.6 1065.3 514.6C1065.0 514.6 1063.9 514.6 1063.0 514.5C1063.4 515.4 1063.9 516.6 1064 517.5C1065.7 517.5 1067.1 517.5 1068.0 517.0C1068.9 516.4 1069.2 515.7 1069.2 514.1Z " clip-path="url(#satori_cp-id-1-0-1-1)" mask="url(#satori_om-id-1-0-1-1)"/></svg>