<svg width="1200" height="630" viewBox="0 0 1200 630" xmlns="http://www.w3.org/2000/svg"><rect x="0" y="0" width="1200" height="630" fill="#fefbfb"/><defs><clipPath id="satori_bc-id-0"><path x="105" y="39" width="1056" height="504" d="M109,39 h1048 a4,4 0 0 1 4,4 v496 a4,4 0 0 1 -4,4 h-1048 a4,4 0 0 1 -4,-4 v-496 a4,4 0 0 1 4,-4"/></clipPath></defs><g opacity="0.9"><path x="105" y="39" width="1056" height="504" fill="#ecebeb" d="M109,39 h1048 a4,4 0 0 1 4,4 v496 a4,4 0 0 1 -4,4 h-1048 a4,4 0 0 1 -4,-4 v-496 a4,4 0 0 1 4,-4"/><path width="1056" height="504" clip-path="url(#satori_bc-id-0)" fill="none" stroke="#000" stroke-width="8" d="M106.172,40.172 A4,4 0 0 1 109,39 h1048 a4,4 0 0 1 4,4 v496 a4,4 0 0 1 -4,4 h-1048 a4,4 0 0 1 -4,-4 v-496 A4,4 0 0 1 106.172,40.172"/></g><defs><clipPath id="satori_bc-id-1"><path x="72" y="63" width="1056" height="504" d="M76,63 h1048 a4,4 0 0 1 4,4 v496 a4,4 0 0 1 -4,4 h-1048 a4,4 0 0 1 -4,-4 v-496 a4,4 0 0 1 4,-4"/></clipPath></defs><path x="72" y="63" width="1056" height="504" fill="#fefbfb" d="M76,63 h1048 a4,4 0 0 1 4,4 v496 a4,4 0 0 1 -4,4 h-1048 a4,4 0 0 1 -4,-4 v-496 a4,4 0 0 1 4,-4"/><path width="1056" height="504" clip-path="url(#satori_bc-id-1)" fill="none" stroke="#000" stroke-width="8" d="M73.172,64.172 A4,4 0 0 1 76,63 h1048 a4,4 0 0 1 4,4 v496 a4,4 0 0 1 -4,4 h-1048 a4,4 0 0 1 -4,-4 v-496 A4,4 0 0 1 73.172,64.172"/><clipPath id="satori_cp-id-1-0-0"><rect x="128" y="103" width="944" height="209"/></clipPath><mask id="satori_om-id-1-0-0"><rect x="128" y="103" width="944" height="209" fill="#fff"/></mask><path fill="black" d="M156.3 181.9C163.2 181.9 168.9 179.1 173.3 174.0L167.7 167.4C164.8 170.5 161.3 172.6 156.7 172.6C148.2 172.6 142.8 165.7 142.8 154.1C142.8 142.6 148.8 135.7 156.9 135.7C160.9 135.7 164 137.6 166.7 140.2L172.3 133.4C168.8 129.8 163.4 126.6 156.7 126.6C143.2 126.6 131.9 136.9 131.9 154.4C131.9 172.2 142.8 181.9 156.3 181.9ZM190.9 181.9C193.4 181.9 195.2 181.4 196.4 180.9L195.1 173.1C194.4 173.2 194.1 173.2 193.7 173.2C192.7 173.2 191.6 172.4 191.6 170.0L191.6 123.4L181.0 123.4L181.0 169.5C181.0 177.0 183.6 181.9 190.9 181.9ZM220.5 181.9C230.6 181.9 239.9 174.1 239.9 160.7C239.9 147.3 230.6 139.5 220.5 139.5C210.4 139.5 201.2 147.3 201.2 160.7C201.2 174.1 210.4 181.9 220.5 181.9ZM220.5 173.2C215.0 173.2 212.0 168.3 212.0 160.7C212.0 153.1 215.0 148.2 220.5 148.2C226.0 148.2 229.1 153.1 229.1 160.7C229.1 168.3 226.0 173.2 220.5 173.2ZM260.8 181.9C266.2 181.9 270.1 179.2 273.6 175.1L273.9 175.1L274.7 180.8L283.3 180.8L283.3 140.5L272.7 140.5L272.7 167.7C270.0 171.3 267.8 172.8 264.5 172.8C260.6 172.8 258.9 170.6 258.9 164.4L258.9 140.5L248.3 140.5L248.3 165.7C248.3 175.8 252.1 181.9 260.8 181.9ZM308.8 181.9C313.0 181.9 317 179.6 320.0 176.7L320.2 176.7L321.0 180.8L329.6 180.8L329.6 123.4L319.1 123.4L319.1 137.6L319.4 143.9C316.6 141.2 313.8 139.5 309.2 139.5C300.5 139.5 292.3 147.6 292.3 160.7C292.3 173.9 298.8 181.9 308.8 181.9ZM311.5 173.1C306.2 173.1 303.2 169.0 303.2 160.6C303.2 152.6 307.0 148.2 311.5 148.2C314.0 148.2 316.6 149.0 319.1 151.3L319.1 169.0C316.7 172.0 314.3 173.1 311.5 173.1ZM342.8 180.8L353.4 180.8L353.4 148.9L360.9 148.9L360.9 140.5L353.4 140.5L353.4 137.1C353.4 132.6 355.1 130.7 358.3 130.7C359.6 130.7 361.1 131.0 362.5 131.6L364.4 123.8C362.6 123.1 359.9 122.4 356.8 122.4C346.7 122.4 342.8 128.9 342.8 137.3L342.8 140.6L337.4 141.0L337.4 148.9L342.8 148.9ZM377.7 181.9C380.2 181.9 381.9 181.4 383.2 180.9L381.9 173.1C381.2 173.2 380.9 173.2 380.4 173.2C379.4 173.2 378.3 172.4 378.3 170.0L378.3 123.4L367.8 123.4L367.8 169.5C367.8 177.0 370.4 181.9 377.7 181.9ZM400.4 181.9C405.0 181.9 409.0 179.6 412.5 176.5L412.8 176.5L413.6 180.8L422.2 180.8L422.2 157.3C422.2 145.6 416.9 139.5 406.7 139.5C400.4 139.5 394.6 141.9 389.9 144.8L393.7 151.8C397.4 149.7 401.0 148.0 404.8 148.0C409.7 148.0 411.5 151.0 411.7 155.0C395.4 156.7 388.4 161.3 388.4 169.9C388.4 176.7 393.2 181.9 400.4 181.9ZM403.8 173.6C400.7 173.6 398.5 172.2 398.5 169.0C398.5 165.4 401.8 162.7 411.7 161.5L411.7 169.6C409.1 172.1 406.9 173.6 403.8 173.6ZM433.0 180.8L443.6 180.8L443.6 156.8C445.8 151.0 449.6 148.9 452.8 148.9C454.4 148.9 455.6 149.1 457.0 149.5L458.8 140.4C457.6 139.9 456.3 139.5 454.1 139.5C449.9 139.5 445.6 142.4 442.6 147.7L442.4 147.7L441.6 140.5L433.0 140.5ZM481.1 181.9C486.1 181.9 491.2 180.1 495.1 177.4L491.5 170.9C488.6 172.7 485.8 173.7 482.5 173.7C476.5 173.7 472.2 170.3 471.3 163.6L496.1 163.6C496.4 162.7 496.6 160.8 496.6 158.7C496.6 147.7 490.9 139.5 479.8 139.5C470.2 139.5 461.0 147.7 461.0 160.7C461.0 174.0 469.8 181.9 481.1 181.9ZM471.2 156.6C471.9 150.8 475.7 147.7 479.9 147.7C485.1 147.7 487.6 151.2 487.6 156.6Z M534.0 180.8L544.7 180.8L544.7 136.4L559.8 136.4L559.8 127.5L519.0 127.5L519.0 136.4L534.0 136.4ZM576.1 181.9C581.5 181.9 585.4 179.2 588.9 175.1L589.2 175.1L590.0 180.8L598.6 180.8L598.6 140.5L588.0 140.5L588.0 167.7C585.3 171.3 583.1 172.8 579.8 172.8C575.9 172.8 574.2 170.6 574.2 164.4L574.2 140.5L563.6 140.5L563.6 165.7C563.6 175.8 567.3 181.9 576.1 181.9ZM609.9 180.8L620.5 180.8L620.5 153.1C623.4 150.2 625.5 148.6 628.8 148.6C632.8 148.6 634.5 150.8 634.5 157.0L634.5 180.8L645.1 180.8L645.1 155.7C645.1 145.6 641.4 139.5 632.6 139.5C627.2 139.5 623.1 142.4 619.5 145.9L619.3 145.9L618.5 140.5L609.9 140.5ZM656.0 180.8L666.6 180.8L666.6 153.1C669.6 150.2 671.7 148.6 675.0 148.6C678.9 148.6 680.7 150.8 680.7 157.0L680.7 180.8L691.3 180.8L691.3 155.7C691.3 145.6 687.5 139.5 678.8 139.5C673.3 139.5 669.2 142.4 665.7 145.9L665.5 145.9L664.7 140.5L656.0 140.5ZM719.8 181.9C724.7 181.9 729.8 180.1 733.8 177.4L730.2 170.9C727.3 172.7 724.4 173.7 721.1 173.7C715.2 173.7 710.8 170.3 710.0 163.6L734.8 163.6C735.1 162.7 735.3 160.8 735.3 158.7C735.3 147.7 729.6 139.5 718.5 139.5C708.9 139.5 699.7 147.7 699.7 160.7C699.7 174.0 708.5 181.9 719.8 181.9ZM709.8 156.6C710.6 150.8 714.4 147.7 718.6 147.7C723.8 147.7 726.2 151.2 726.2 156.6ZM754.0 181.9C756.5 181.9 758.2 181.4 759.4 180.9L758.1 173.1C757.4 173.2 757.1 173.2 756.7 173.2C755.7 173.2 754.6 172.4 754.6 170.0L754.6 123.4L744.0 123.4L744.0 169.5C744.0 177.0 746.6 181.9 754.0 181.9Z M821.6 147.6L821.6 140.1C823.1 137.9 824.5 135.7 825.8 133.5L848.1 133.5L848.1 124.7L785.7 124.7L785.7 133.5L814.4 133.5C807.8 144.5 796.5 155.6 783.4 161.8C785.3 163.7 788.0 167.2 789.3 169.5C798.0 165.1 805.7 158.8 812.2 151.8L812.2 187.0L821.6 187.0L821.6 149.7C829.4 155.6 839.1 163.9 843.6 169.2L850.9 162.6C845.7 156.9 834.6 148.7 826.9 143.1ZM866.6 135.5L910.5 135.5L910.5 145.1L919.5 145.1L919.5 127.3L894.7 127.3C893.7 124.6 892.2 121.6 890.8 119.1L882.0 121.7C882.8 123.4 883.7 125.3 884.4 127.3L858.2 127.3L858.2 145.1L866.6 145.1ZM907.2 148.6L907.2 140.7L870.0 140.7L870.0 148.6ZM904.7 178.3C902.1 178.3 901.7 178.0 901.7 175.7L901.7 161.9L920.9 161.9L920.9 153.8L856.8 153.8L856.8 161.9L874.6 161.9C873.9 172.3 871.8 177.2 855.5 179.8C857.1 181.6 859.4 185.0 860.0 187.1C879.0 183.4 882.4 175.7 883.4 161.9L893.0 161.9L893.0 175.7C893.0 183.5 895.0 186.1 903.4 186.1L912.4 186.1C919.1 186.1 921.4 183.3 922.3 172.9C919.9 172.3 916.3 170.9 914.6 169.6C914.2 177.0 913.9 178.3 911.6 178.3ZM943.3 145.8C949.7 141.6 955.6 136.5 960.8 130.8C966.4 136.8 972.1 141.6 978.5 145.8ZM983.1 153.3L983.1 148.7C985.2 150.0 987.6 151.3 990.0 152.6C991.1 150.1 993.6 147.2 995.7 145.2C984.2 140.2 974.3 133.8 965.7 124.7C966.2 124.0 966.6 123.4 967.0 122.7L959.4 119.2C952.2 130.4 939.1 139.7 926.2 145.1C928.4 147.1 930.9 150.0 932.0 152.2C934.4 151.1 936.7 149.9 938.9 148.5L938.9 153.3L956.4 153.3L956.4 161.6L939.9 161.6L939.9 169.1L956.4 169.1L956.4 177.8L930.5 177.8L930.5 185.4L991.7 185.4L991.7 177.8L965.4 177.8L965.4 169.1L982.5 169.1L982.5 161.6L965.4 161.6L965.4 153.3ZM1035.2 174.9L1035.2 150.0L1060.6 150.0L1060.6 141.3L1035.2 141.3L1035.2 120.7L1026.0 120.7L1026.0 174.9L1000.2 174.9L1000.2 183.6L1065.7 183.6L1065.7 174.9Z M197.0 261.0L168.5 261.0L168.5 252.6L192.7 252.6L192.7 244.4L168.5 244.4L168.5 234.9C176.5 234.0 184.0 232.8 190.4 231.1L184.2 224.0C172.4 227.1 152.7 229.0 135.3 229.7C136.2 231.6 137.3 235.1 137.5 237.3C144.6 237.0 152.1 236.6 159.6 235.9L159.6 244.4L136.1 244.4L136.1 252.6L159.6 252.6L159.6 261.0L131.2 261.0L131.2 269.3L159.6 269.3L159.6 280.9C159.6 282.4 159.0 282.9 157.3 282.9C155.7 282.9 149.7 282.9 144.3 282.7C145.7 285.0 147.4 288.8 147.9 291.2C155.2 291.3 160.4 291.1 163.9 289.8C167.2 288.4 168.5 286.2 168.5 281.1L168.5 269.3L197.0 269.3ZM227.6 254.4C225.2 255.1 222.7 255.7 220.2 256.4L220.2 245.6L227.5 245.6L227.5 237.7L220.2 237.7L220.2 224.2L211.7 224.2L211.7 237.7L202.8 237.7L202.8 245.6L211.7 245.6L211.7 258.4C208.1 259.3 204.6 260.0 201.7 260.6L203.7 268.8L211.7 266.7L211.7 282.2C211.7 283.2 211.4 283.4 210.4 283.5C209.4 283.5 206.6 283.5 203.7 283.4C204.8 285.6 205.9 289.1 206.1 291.2C211.2 291.2 214.6 291.0 217.0 289.7C219.4 288.3 220.2 286.3 220.2 282.1L220.2 264.6C223.0 263.8 225.8 263.0 228.7 262.2ZM257.6 265.6L257.6 270.0L239.2 270.0L239.2 265.6ZM239.2 281.4L239.2 276.7L257.6 276.7L257.6 281.4ZM231.1 291.4L239.2 291.4L239.2 288.3L257.6 288.3L257.6 291.1L266.1 291.1L266.1 258.5L231.1 258.5ZM244.7 246.7C240.5 246.7 239.8 246.4 239.8 243.6L239.8 240.6C248.4 238.9 258.0 236.4 265.3 233.5L259.0 227.3C254.2 229.5 247.0 231.8 239.8 233.6L239.8 224.2L231.2 224.2L231.2 243.7C231.2 252.0 233.8 254.4 243.8 254.4L257.8 254.4C266.0 254.4 268.5 251.7 269.6 241.5C267.2 241.1 263.6 239.7 261.8 238.4C261.3 245.6 260.8 246.7 257.2 246.7ZM339.8 238.1L339.8 230.1L312.8 230.1L312.8 224.6L303.4 224.6L303.4 230.1L276.2 230.1L276.2 238.1L303.4 238.1L303.4 243.5L278.9 243.5L278.9 291.2L287.6 291.2L287.6 251.3L301.2 251.3L294.7 253.3C296.0 255.6 297.5 258.6 298.2 260.8L291.9 260.8L291.9 267.5L303.8 267.5L303.8 272.2L290.5 272.2L290.5 279.1L303.8 279.1L303.8 289.3L311.8 289.3L311.8 279.1L325.6 279.1L325.6 272.2L311.8 272.2L311.8 267.5L324.0 267.5L324.0 260.8L317.8 260.8C319.2 258.7 320.6 256.1 322.1 253.4L314.9 251.4C314.0 254.2 312.1 258.1 310.5 260.7L311.0 260.8L300.2 260.8L305.6 259.0C304.8 256.8 303.2 253.7 301.6 251.3L328.3 251.3L328.3 282.5C328.3 283.7 327.9 284.0 326.6 284.0C325.5 284.1 321.0 284.1 317.5 283.9C318.6 285.9 319.9 289.0 320.3 291.2C326.1 291.2 330.3 291.1 333.2 289.9C336.2 288.7 337.2 286.8 337.2 282.6L337.2 243.5L312.8 243.5L312.8 238.1Z " clip-path="url(#satori_cp-id-1-0-0)" mask="url(#satori_om-id-1-0-0)"/><path fill="black" d="M137.3 515.6C140.8 515.6 143.9 512.6 143.9 507.4C143.9 502.8 141.7 499.7 137.8 499.7C136.1 499.7 134.4 500.6 133.0 501.8L133.1 499.1L133.1 493.0L130.6 493.0L130.6 515.3L132.6 515.3L132.8 513.7L133.0 513.7C134.3 514.9 135.9 515.6 137.3 515.6ZM136.8 513.5C135.8 513.5 134.5 513.1 133.1 511.9L133.1 503.9C134.6 502.6 135.9 501.8 137.2 501.8C140.1 501.8 141.2 504.1 141.2 507.5C141.2 511.2 139.4 513.5 136.8 513.5ZM148.0 521.8C151.0 521.8 152.6 519.5 153.7 516.5L159.4 500.1L156.9 500.1L154.2 508.5C153.8 509.9 153.3 511.4 152.9 512.8L152.8 512.8C152.3 511.4 151.8 509.8 151.3 508.5L148.2 500.1L145.6 500.1L151.7 515.3L151.3 516.4C150.7 518.3 149.6 519.7 147.9 519.7C147.5 519.7 147.0 519.6 146.7 519.5L146.2 521.5C146.7 521.7 147.3 521.8 148.0 521.8Z "/><clipPath id="satori_cp-id-1-0-1-0-2"><rect x="173" y="485" width="57" height="40"/></clipPath><mask id="satori_om-id-1-0-1-0-2"><rect x="173" y="485" width="57" height="40" fill="#fff"/></mask><path fill="black" d="M181.7 515.7C186.5 515.7 189.4 512.8 189.4 509.4C189.4 506.4 187.7 504.8 185.2 503.8L182.5 502.6C180.7 501.9 179.2 501.4 179.2 499.9C179.2 498.5 180.4 497.7 182.2 497.7C183.9 497.7 185.3 498.3 186.6 499.4L188.7 496.8C187.0 495.1 184.6 494.2 182.2 494.2C178.0 494.2 175.0 496.8 175.0 500.2C175.0 503.2 177.1 504.9 179.2 505.7L182.0 506.9C183.9 507.7 185.1 508.2 185.1 509.7C185.1 511.2 184.0 512.1 181.8 512.1C180 512.1 178.0 511.2 176.6 509.8L174.2 512.6C176.2 514.6 179.0 515.7 181.7 515.7ZM193.0 515.3L196.7 515.3L196.7 506.6C196.7 504.7 196.4 501.8 196.2 499.8L196.3 499.8L198.0 504.7L201.2 513.4L203.6 513.4L206.8 504.7L208.4 499.8L208.6 499.8C208.4 501.8 208.1 504.7 208.1 506.6L208.1 515.3L211.8 515.3L211.8 494.5L207.2 494.5L203.8 504.2C203.4 505.5 203.0 506.9 202.5 508.2L202.4 508.2C202.0 506.9 201.6 505.5 201.1 504.2L197.6 494.5L193.0 494.5ZM221.4 515.7C225.9 515.7 227.9 512.5 227.9 508.6L227.9 494.5L223.7 494.5L223.7 508.2C223.7 511.1 222.8 512.1 220.9 512.1C219.8 512.1 218.7 511.4 217.9 509.9L215.0 512.0C216.4 514.4 218.4 515.7 221.4 515.7Z " clip-path="url(#satori_cp-id-1-0-1-0-2)" mask="url(#satori_om-id-1-0-1-0-2)"/><clipPath id="satori_cp-id-1-0-1-1"><rect x="959" y="485" width="112" height="40"/></clipPath><mask id="satori_om-id-1-0-1-1"><rect x="959" y="485" width="112" height="40" fill="#fff"/></mask><path fill="black" d="M985.5 499.3L985.5 496.0L974.0 496.0L976.0 495.2C975.5 494.1 974.7 492.5 974.0 491.2L970.7 492.4C971.2 493.5 971.9 494.9 972.4 496.0L960.5 496.0L960.5 499.3L967.6 499.3C967.3 505.2 966.8 511.5 960.1 515.1C961.0 515.8 962.0 516.9 962.5 517.8C967.5 514.9 969.6 510.6 970.6 505.9L979.4 505.9C979.0 510.9 978.5 513.3 977.8 513.9C977.4 514.2 977.0 514.3 976.4 514.3C975.5 514.3 973.6 514.3 971.7 514.1C972.3 515.0 972.8 516.4 972.9 517.4C974.8 517.5 976.6 517.5 977.7 517.3C979.0 517.2 979.9 517.0 980.7 516.0C981.8 514.8 982.4 511.7 982.9 504.1C983.0 503.7 983.1 502.7 983.1 502.7L971.0 502.7C971.2 501.5 971.2 500.4 971.3 499.3ZM991.1 504.1C992.9 506.2 995.0 509.1 995.8 511.0L998.9 509.1C998.0 507.2 995.8 504.4 993.9 502.5ZM1013.7 497.2L1007.4 497.2L1007.4 491.6L1003.8 491.6L1003.8 497.2L988.3 497.2L988.3 500.5L1003.8 500.5L1003.8 513.3C1003.8 513.9 1003.5 514.2 1002.8 514.2C1002.1 514.2 999.7 514.2 997.4 514.1C997.9 515.1 998.7 516.7 998.9 517.8C1001.8 517.8 1004.1 517.7 1005.5 517.1C1006.9 516.5 1007.4 515.6 1007.4 513.3L1007.4 500.5L1013.7 500.5ZM1037.7 496.6L1037.0 496.7L1030.5 496.7L1032.2 495.8C1031.5 494.6 1030.1 492.6 1029.0 491.2L1026.0 492.8C1026.8 494.0 1027.9 495.5 1028.6 496.7L1017.6 496.7L1017.6 500.0L1034.5 500.0C1031.5 503.8 1026.7 508.1 1022.1 510.9L1022.0 510.9C1020.4 510.9 1018.2 512.4 1016.2 514.5L1018.6 517.7C1019.8 515.9 1021.0 514.0 1021.9 514.0C1022.5 514.0 1023.4 514.9 1024.6 515.6C1026.5 516.8 1028.8 517.2 1032.2 517.2C1035.0 517.2 1039.2 517.0 1041.2 516.9C1041.2 516.0 1041.8 514.2 1042.1 513.3C1039.5 513.7 1035.2 514.0 1032.3 514.0C1029.4 514.0 1027.0 513.8 1025.3 512.7C1030.9 509.0 1036.7 503.5 1040.3 498.3ZM1045.0 517.7L1048.5 517.7L1048.5 498.3L1045.0 498.3ZM1045.5 493.4C1046.7 494.7 1048.2 496.5 1048.7 497.7L1051.5 496.0C1050.9 494.7 1049.4 493.0 1048.1 491.7ZM1054.3 507.4L1059.7 507.4L1059.7 510.0L1054.3 510.0ZM1054.3 502.1L1059.7 502.1L1059.7 504.7L1054.3 504.7ZM1051.3 512.7L1062.8 512.7L1062.8 499.4L1051.3 499.4ZM1069.2 492.9L1052.5 492.9L1052.5 496.0L1065.7 496.0L1065.7 514.1C1065.7 514.4 1065.7 514.6 1065.3 514.6C1065.0 514.6 1063.9 514.6 1063.0 514.5C1063.4 515.4 1063.9 516.6 1064 517.5C1065.7 517.5 1067.1 517.5 1068.0 517.0C1068.9 516.4 1069.2 515.7 1069.2 514.1Z " clip-path="url(#satori_cp-id-1-0-1-1)" mask="url(#satori_om-id-1-0-1-1)"/></svg>