<svg width="1200" height="630" viewBox="0 0 1200 630" xmlns="http://www.w3.org/2000/svg"><rect x="0" y="0" width="1200" height="630" fill="#fefbfb"/><defs><clipPath id="satori_bc-id-0"><path x="105" y="39" width="1056" height="504" d="M109,39 h1048 a4,4 0 0 1 4,4 v496 a4,4 0 0 1 -4,4 h-1048 a4,4 0 0 1 -4,-4 v-496 a4,4 0 0 1 4,-4"/></clipPath></defs><g opacity="0.9"><path x="105" y="39" width="1056" height="504" fill="#ecebeb" d="M109,39 h1048 a4,4 0 0 1 4,4 v496 a4,4 0 0 1 -4,4 h-1048 a4,4 0 0 1 -4,-4 v-496 a4,4 0 0 1 4,-4"/><path width="1056" height="504" clip-path="url(#satori_bc-id-0)" fill="none" stroke="#000" stroke-width="8" d="M106.172,40.172 A4,4 0 0 1 109,39 h1048 a4,4 0 0 1 4,4 v496 a4,4 0 0 1 -4,4 h-1048 a4,4 0 0 1 -4,-4 v-496 A4,4 0 0 1 106.172,40.172"/></g><defs><clipPath id="satori_bc-id-1"><path x="72" y="63" width="1056" height="504" d="M76,63 h1048 a4,4 0 0 1 4,4 v496 a4,4 0 0 1 -4,4 h-1048 a4,4 0 0 1 -4,-4 v-496 a4,4 0 0 1 4,-4"/></clipPath></defs><path x="72" y="63" width="1056" height="504" fill="#fefbfb" d="M76,63 h1048 a4,4 0 0 1 4,4 v496 a4,4 0 0 1 -4,4 h-1048 a4,4 0 0 1 -4,-4 v-496 a4,4 0 0 1 4,-4"/><path width="1056" height="504" clip-path="url(#satori_bc-id-1)" fill="none" stroke="#000" stroke-width="8" d="M73.172,64.172 A4,4 0 0 1 76,63 h1048 a4,4 0 0 1 4,4 v496 a4,4 0 0 1 -4,4 h-1048 a4,4 0 0 1 -4,-4 v-496 A4,4 0 0 1 73.172,64.172"/><clipPath id="satori_cp-id-1-0-0"><rect x="128" y="103" width="944" height="104"/></clipPath><mask id="satori_om-id-1-0-0"><rect x="128" y="103" width="944" height="104" fill="#fff"/></mask><path fill="black" d="M156.3 181.9C163.2 181.9 168.9 179.1 173.3 174.0L167.7 167.4C164.8 170.5 161.3 172.6 156.7 172.6C148.2 172.6 142.8 165.7 142.8 154.1C142.8 142.6 148.8 135.7 156.9 135.7C160.9 135.7 164 137.6 166.7 140.2L172.3 133.4C168.8 129.8 163.4 126.6 156.7 126.6C143.2 126.6 131.9 136.9 131.9 154.4C131.9 172.2 142.8 181.9 156.3 181.9ZM181.9 180.8L192.5 180.8L192.5 160.7L199.9 160.7L210.9 180.8L222.8 180.8L210.3 159.0C216.4 156.7 220.4 151.7 220.4 143.7C220.4 131.5 211.6 127.5 200.4 127.5L181.9 127.5ZM192.5 152.3L192.5 136.0L199.4 136.0C206.3 136.0 210.1 137.9 210.1 143.7C210.1 149.4 206.3 152.3 199.4 152.3ZM231.0 180.8L263.3 180.8L263.3 171.9L241.6 171.9L241.6 127.5L231.0 127.5ZM272.6 180.8L283.2 180.8L283.2 159.2L302.2 159.2L302.2 150.3L283.2 150.3L283.2 136.4L305.4 136.4L305.4 127.5L272.6 127.5ZM333.0 149.2L343.4 149.2L343.4 141.2L333.0 141.2L333.0 130.2C336.8 129.4 340.5 128.4 343.7 127.2L338.2 120.5C331.6 123.1 321.1 125.4 311.7 126.7C312.7 128.6 313.7 131.5 314.0 133.4C317.4 133.0 320.8 132.5 324.3 131.9L324.3 141.2L311.5 141.2L311.5 149.2L322.3 149.2C319.4 157.1 314.8 165.4 309.9 170.6C311.4 172.7 313.5 176.1 314.3 178.6C318.1 174.4 321.5 168.2 324.3 161.4L324.3 187.0L333.0 187.0L333.0 160.5C335.4 163.9 337.7 167.5 339.0 169.9L343.9 162.8C342.3 160.8 335.9 153.3 333.0 150.4ZM353.7 169.8L353.7 134.8L365.2 134.8L365.2 169.8ZM345.3 126.6L345.3 183.7L353.7 183.7L353.7 178.0L365.2 178.0L365.2 183.2L374.1 183.2L374.1 126.6ZM386.7 180.8L419.0 180.8L419.0 171.9L397.4 171.9L397.4 127.5L386.7 127.5ZM428.3 180.8L439.0 180.8L439.0 159.2L457.9 159.2L457.9 150.3L439.0 150.3L439.0 136.4L461.1 136.4L461.1 127.5L428.3 127.5ZM522.2 132.8L520.5 133.2L503.6 133.2L508.0 130.7C506.4 127.6 502.6 122.6 500.0 119.0L492.2 123.1C494.3 126.1 497 130.1 498.7 133.2L470.6 133.2L470.6 141.6L514.1 141.6C506.4 151.4 494.0 162.5 482.2 169.5L481.8 169.5C477.8 169.5 472.2 173.4 467.0 178.9L473.2 187.0C476.1 182.4 479.4 177.5 481.6 177.5C483.2 177.5 485.6 180.0 488.6 181.8C493.5 184.8 499.3 185.7 508.2 185.7C515.2 185.7 526.1 185.3 531.2 185.0C531.3 182.6 532.8 178.2 533.6 175.8C526.8 176.8 515.8 177.5 508.4 177.5C500.9 177.5 494.8 177.0 490.4 174.3C504.8 164.8 519.8 150.6 528.8 137.1ZM541.1 187.0L550.1 187.0L550.1 137.1L541.1 137.1ZM542.2 124.5C545.5 127.9 549.1 132.7 550.6 135.8L557.8 131.2C556.2 127.9 552.3 123.5 548.9 120.3ZM565.0 160.5L578.9 160.5L578.9 167.4L565.0 167.4ZM565.0 146.9L578.9 146.9L578.9 153.6L565.0 153.6ZM557.3 174.3L586.9 174.3L586.9 140.0L557.3 140.0ZM603.3 123.4L560.4 123.4L560.4 131.4L594.3 131.4L594.3 177.8C594.3 178.7 594.1 179.0 593.2 179.0C592.3 179.0 589.7 179.1 587.4 179.0C588.4 181.1 589.5 184.4 589.9 186.6C594.3 186.6 597.8 186.5 600.2 185.2C602.6 183.8 603.3 181.9 603.3 177.8ZM621.1 172.1L621.1 158.0L632.6 158.0L632.6 172.1ZM632.6 150.6L621.1 150.6L621.1 138.9L632.6 138.9ZM655.5 131.0C656.6 127.9 657.5 124.9 658.3 121.8L650.1 119.9C648.0 128.4 644.5 137.1 640.4 143.1L640.4 131.5L629.2 131.5C630.4 128.4 631.7 124.8 632.9 121.2L623.6 119.9C623.3 123.2 622.4 127.9 621.5 131.5L613.4 131.5L613.4 185.0L621.1 185.0L621.1 179.7L640.4 179.7L640.4 146.1C642.3 147.4 644.7 149.0 645.9 150.1C648.1 147.0 650.4 143.0 652.2 138.7L667.6 138.7C666.8 164.1 665.9 174.9 663.8 177.2C662.9 178.2 662.1 178.5 660.7 178.5C658.8 178.5 654.5 178.5 649.9 178.0C651.4 180.4 652.6 184.0 652.7 186.4C657.0 186.5 661.3 186.6 664.0 186.2C666.9 185.7 668.9 185.0 671.0 182.3C673.9 178.5 674.7 167.0 675.6 134.8C675.7 133.8 675.7 131.0 675.7 131.0ZM663.8 163.8C661.5 159.6 656.8 152.8 653.2 147.8L646.5 151.6C650 156.9 654.5 163.9 656.5 168.2ZM694.4 176.9L694.4 131.2L746.8 131.2L746.8 123.0L686 123.0L686 185.1L748.6 185.1L748.6 176.9ZM741.9 167.2C738.3 163.3 732.9 158.4 726.9 153.4C731.7 148.2 736.0 142.6 739.6 136.7L731.5 133.5C728.5 138.6 724.8 143.5 720.5 148.1C715.1 143.6 709.5 139.4 704.9 135.7L698.9 141.0C703.8 144.8 709.3 149.3 714.6 153.9C708.8 159.1 702.5 163.7 695.9 167.1C697.9 168.7 701.0 172.0 702.5 173.7C708.8 169.9 715.0 165.1 720.9 159.5C726.7 164.7 731.9 169.7 735.2 173.6ZM779.5 140.4L765.6 140.4L765.6 130.5L779.5 130.5ZM787.7 123.0L757.9 123.0L757.9 148.0L787.7 148.0ZM774.6 154.0C774.7 152.5 774.8 151.0 774.8 149.5L766.8 149.5C766.7 151.0 766.6 152.5 766.6 154.0L755.8 154.0L755.8 161.7L765.9 161.7C764.7 170.1 761.7 176.6 753.6 181.0C755.3 182.4 757.6 185.4 758.6 187.4C768.9 181.8 772.5 172.9 773.9 161.7L781.0 161.7C780.5 172.2 779.9 176.4 779.0 177.6C778.3 178.3 777.8 178.5 776.8 178.5C775.6 178.5 773.3 178.5 770.8 178.2C772.1 180.4 773.0 183.8 773.1 186.3C776.4 186.4 779.3 186.3 781.1 186.0C783.3 185.7 784.7 185.0 786.2 183.2C788.1 180.8 788.7 173.9 789.4 157.3C789.5 156.2 789.5 154.0 789.5 154.0ZM803.3 128.6L795.0 128.6L795.0 169.1L803.3 169.1ZM810.0 121.3L810.0 176.8C810.0 178.0 809.6 178.5 808.3 178.5C807.0 178.5 802.9 178.5 798.8 178.3C800.0 180.8 801.2 184.7 801.6 187.2C807.8 187.2 812 186.9 814.8 185.5C817.5 184.0 818.5 181.6 818.5 176.9L818.5 121.3ZM872.3 162.1L827.6 162.1L827.6 170.3L872.3 170.3ZM846.1 146.6C846.7 143.5 847.4 140.2 848 136.8L887.7 136.8L887.7 128.6L849.5 128.6C849.9 126.3 850.3 124.0 850.7 121.9L841.9 121.0C840.3 131.8 837.6 145.8 835.3 154.4L842.7 154.5L880.0 154.5C878.7 168.2 877.0 175.3 874.6 177.1C873.6 177.9 872.4 178.0 870.8 178.0C868.3 178.0 862.5 178.0 856.8 177.5C858.6 179.9 860.0 183.5 860.1 186.0C865.4 186.2 870.5 186.3 873.5 186.1C877.3 185.7 879.7 185.1 882.1 182.6C885.5 179.2 887.4 170.6 889.2 150.3C889.4 149.2 889.5 146.6 889.5 146.6ZM909.6 168.2L909.6 159.4L917.0 159.4L917.0 167.0ZM917.0 130.2L917.0 137.8L909.6 137.8L909.6 130.2ZM909.6 144.8L917.0 144.8L917.0 152.4L909.6 152.4ZM965.1 160.3L965.1 152.5L949.5 152.5L949.5 151.8L949.5 142.5L963.1 142.5L963.1 134.7L954.8 134.7C956.9 131.4 959.2 127.3 961.2 123.3L952.5 121.1C951.2 125.3 948.6 130.9 946.4 134.7L938.1 134.7L944.1 131.5C942.8 128.5 939.8 124.2 936.9 121.0L930.1 124.3C932.7 127.4 935.3 131.6 936.6 134.7L928.9 134.7L928.9 142.5L940.8 142.5L940.8 151.7L940.8 152.5L927.6 152.5L927.6 160.3L940.2 160.3C938.8 167.4 935.1 175.5 924.3 181.8L924.3 173.4L929.9 172.4L929.3 165.1L924.3 165.9L924.3 130.2L926.9 130.2L926.9 122.6L899.0 122.6L899.0 130.2L902.1 130.2L902.1 169.3L898.1 169.8L899.8 177.8C904.8 176.9 910.8 175.9 917.0 174.7L917.0 187.1L924.3 187.1L924.3 181.9C926.6 183.4 929.3 186.0 930.7 187.9C938.1 183.1 942.8 177.3 945.5 171.5C949.0 178.3 953.9 183.8 960.6 187.0C961.8 184.7 964.4 181.6 966.3 179.9C957.7 176.5 951.9 169.1 948.9 160.3ZM985.4 165.2C982.0 169.8 976.2 174.7 970.8 177.6C972.9 178.9 976.5 181.7 978.2 183.3C983.4 179.7 989.8 173.8 994.1 168.3ZM1023.4 159.8C1025.3 162.1 1026.8 164.4 1027.9 166.2L1034.6 162.1C1031.7 157.5 1025.9 150.8 1020.4 145.8L1014.0 149.2C1015.3 150.5 1016.7 151.9 1018.1 153.4L996.4 154.9C1005.8 150.2 1015.0 144.5 1023.5 137.8L1017.3 132.2C1014.2 135.0 1010.7 137.6 1007.2 140.0L992.8 140.7C997.0 137.7 1001.2 134.3 1004.9 130.7C1014.2 129.8 1023.0 128.5 1030.4 126.7L1024.4 119.6C1012.2 122.5 992.2 124.4 974.6 125.0C975.4 127.0 976.5 130.4 976.7 132.5C982.0 132.4 987.5 132.1 993.0 131.7C989.3 135.2 985.5 137.9 984.0 138.9C981.8 140.4 980.3 141.4 978.5 141.6C979.4 143.7 980.6 147.3 981.0 148.9C982.6 148.3 984.9 147.9 996.2 147.2C991.5 150.0 987.6 152.0 985.4 153.0C980.9 155.3 978.1 156.5 975.3 156.9C976.2 159.0 977.4 162.9 977.7 164.4C980.1 163.5 983.3 163.1 999.8 161.7L999.8 177.5C999.8 178.3 999.5 178.5 998.3 178.6C997.0 178.6 992.6 178.6 989.0 178.4C990.2 180.7 991.6 184.3 992.1 186.8C997.4 186.8 1001.4 186.8 1004.5 185.5C1007.7 184.1 1008.6 181.9 1008.6 177.8L1008.6 161.0ZM1012.4 169.4C1018.0 173.5 1025.0 179.5 1028.1 183.3L1035.7 178.3C1032.2 174.3 1024.9 168.7 1019.4 164.8Z " clip-path="url(#satori_cp-id-1-0-0)" mask="url(#satori_om-id-1-0-0)"/><path fill="black" d="M137.3 515.6C140.8 515.6 143.9 512.6 143.9 507.4C143.9 502.8 141.7 499.7 137.8 499.7C136.1 499.7 134.4 500.6 133.0 501.8L133.1 499.1L133.1 493.0L130.6 493.0L130.6 515.3L132.6 515.3L132.8 513.7L133.0 513.7C134.3 514.9 135.9 515.6 137.3 515.6ZM136.8 513.5C135.8 513.5 134.5 513.1 133.1 511.9L133.1 503.9C134.6 502.6 135.9 501.8 137.2 501.8C140.1 501.8 141.2 504.1 141.2 507.5C141.2 511.2 139.4 513.5 136.8 513.5ZM148.0 521.8C151.0 521.8 152.6 519.5 153.7 516.5L159.4 500.1L156.9 500.1L154.2 508.5C153.8 509.9 153.3 511.4 152.9 512.8L152.8 512.8C152.3 511.4 151.8 509.8 151.3 508.5L148.2 500.1L145.6 500.1L151.7 515.3L151.3 516.4C150.7 518.3 149.6 519.7 147.9 519.7C147.5 519.7 147.0 519.6 146.7 519.5L146.2 521.5C146.7 521.7 147.3 521.8 148.0 521.8Z "/><clipPath id="satori_cp-id-1-0-1-0-2"><rect x="173" y="485" width="57" height="40"/></clipPath><mask id="satori_om-id-1-0-1-0-2"><rect x="173" y="485" width="57" height="40" fill="#fff"/></mask><path fill="black" d="M181.7 515.7C186.5 515.7 189.4 512.8 189.4 509.4C189.4 506.4 187.7 504.8 185.2 503.8L182.5 502.6C180.7 501.9 179.2 501.4 179.2 499.9C179.2 498.5 180.4 497.7 182.2 497.7C183.9 497.7 185.3 498.3 186.6 499.4L188.7 496.8C187.0 495.1 184.6 494.2 182.2 494.2C178.0 494.2 175.0 496.8 175.0 500.2C175.0 503.2 177.1 504.9 179.2 505.7L182.0 506.9C183.9 507.7 185.1 508.2 185.1 509.7C185.1 511.2 184.0 512.1 181.8 512.1C180 512.1 178.0 511.2 176.6 509.8L174.2 512.6C176.2 514.6 179.0 515.7 181.7 515.7ZM193.0 515.3L196.7 515.3L196.7 506.6C196.7 504.7 196.4 501.8 196.2 499.8L196.3 499.8L198.0 504.7L201.2 513.4L203.6 513.4L206.8 504.7L208.4 499.8L208.6 499.8C208.4 501.8 208.1 504.7 208.1 506.6L208.1 515.3L211.8 515.3L211.8 494.5L207.2 494.5L203.8 504.2C203.4 505.5 203.0 506.9 202.5 508.2L202.4 508.2C202.0 506.9 201.6 505.5 201.1 504.2L197.6 494.5L193.0 494.5ZM221.4 515.7C225.9 515.7 227.9 512.5 227.9 508.6L227.9 494.5L223.7 494.5L223.7 508.2C223.7 511.1 222.8 512.1 220.9 512.1C219.8 512.1 218.7 511.4 217.9 509.9L215.0 512.0C216.4 514.4 218.4 515.7 221.4 515.7Z " clip-path="url(#satori_cp-id-1-0-1-0-2)" mask="url(#satori_om-id-1-0-1-0-2)"/><clipPath id="satori_cp-id-1-0-1-1"><rect x="959" y="485" width="112" height="40"/></clipPath><mask id="satori_om-id-1-0-1-1"><rect x="959" y="485" width="112" height="40" fill="#fff"/></mask><path fill="black" d="M985.5 499.3L985.5 496.0L974.0 496.0L976.0 495.2C975.5 494.1 974.7 492.5 974.0 491.2L970.7 492.4C971.2 493.5 971.9 494.9 972.4 496.0L960.5 496.0L960.5 499.3L967.6 499.3C967.3 505.2 966.8 511.5 960.1 515.1C961.0 515.8 962.0 516.9 962.5 517.8C967.5 514.9 969.6 510.6 970.6 505.9L979.4 505.9C979.0 510.9 978.5 513.3 977.8 513.9C977.4 514.2 977.0 514.3 976.4 514.3C975.5 514.3 973.6 514.3 971.7 514.1C972.3 515.0 972.8 516.4 972.9 517.4C974.8 517.5 976.6 517.5 977.7 517.3C979.0 517.2 979.9 517.0 980.7 516.0C981.8 514.8 982.4 511.7 982.9 504.1C983.0 503.7 983.1 502.7 983.1 502.7L971.0 502.7C971.2 501.5 971.2 500.4 971.3 499.3ZM991.1 504.1C992.9 506.2 995.0 509.1 995.8 511.0L998.9 509.1C998.0 507.2 995.8 504.4 993.9 502.5ZM1013.7 497.2L1007.4 497.2L1007.4 491.6L1003.8 491.6L1003.8 497.2L988.3 497.2L988.3 500.5L1003.8 500.5L1003.8 513.3C1003.8 513.9 1003.5 514.2 1002.8 514.2C1002.1 514.2 999.7 514.2 997.4 514.1C997.9 515.1 998.7 516.7 998.9 517.8C1001.8 517.8 1004.1 517.7 1005.5 517.1C1006.9 516.5 1007.4 515.6 1007.4 513.3L1007.4 500.5L1013.7 500.5ZM1037.7 496.6L1037.0 496.7L1030.5 496.7L1032.2 495.8C1031.5 494.6 1030.1 492.6 1029.0 491.2L1026.0 492.8C1026.8 494.0 1027.9 495.5 1028.6 496.7L1017.6 496.7L1017.6 500.0L1034.5 500.0C1031.5 503.8 1026.7 508.1 1022.1 510.9L1022.0 510.9C1020.4 510.9 1018.2 512.4 1016.2 514.5L1018.6 517.7C1019.8 515.9 1021.0 514.0 1021.9 514.0C1022.5 514.0 1023.4 514.9 1024.6 515.6C1026.5 516.8 1028.8 517.2 1032.2 517.2C1035.0 517.2 1039.2 517.0 1041.2 516.9C1041.2 516.0 1041.8 514.2 1042.1 513.3C1039.5 513.7 1035.2 514.0 1032.3 514.0C1029.4 514.0 1027.0 513.8 1025.3 512.7C1030.9 509.0 1036.7 503.5 1040.3 498.3ZM1045.0 517.7L1048.5 517.7L1048.5 498.3L1045.0 498.3ZM1045.5 493.4C1046.7 494.7 1048.2 496.5 1048.7 497.7L1051.5 496.0C1050.9 494.7 1049.4 493.0 1048.1 491.7ZM1054.3 507.4L1059.7 507.4L1059.7 510.0L1054.3 510.0ZM1054.3 502.1L1059.7 502.1L1059.7 504.7L1054.3 504.7ZM1051.3 512.7L1062.8 512.7L1062.8 499.4L1051.3 499.4ZM1069.2 492.9L1052.5 492.9L1052.5 496.0L1065.7 496.0L1065.7 514.1C1065.7 514.4 1065.7 514.6 1065.3 514.6C1065.0 514.6 1063.9 514.6 1063.0 514.5C1063.4 515.4 1063.9 516.6 1064 517.5C1065.7 517.5 1067.1 517.5 1068.0 517.0C1068.9 516.4 1069.2 515.7 1069.2 514.1Z " clip-path="url(#satori_cp-id-1-0-1-1)" mask="url(#satori_om-id-1-0-1-1)"/></svg>