<svg width="1200" height="630" viewBox="0 0 1200 630" xmlns="http://www.w3.org/2000/svg"><rect x="0" y="0" width="1200" height="630" fill="#fefbfb"/><defs><clipPath id="satori_bc-id-0"><path x="105" y="39" width="1056" height="504" d="M109,39 h1048 a4,4 0 0 1 4,4 v496 a4,4 0 0 1 -4,4 h-1048 a4,4 0 0 1 -4,-4 v-496 a4,4 0 0 1 4,-4"/></clipPath></defs><g opacity="0.9"><path x="105" y="39" width="1056" height="504" fill="#ecebeb" d="M109,39 h1048 a4,4 0 0 1 4,4 v496 a4,4 0 0 1 -4,4 h-1048 a4,4 0 0 1 -4,-4 v-496 a4,4 0 0 1 4,-4"/><path width="1056" height="504" clip-path="url(#satori_bc-id-0)" fill="none" stroke="#000" stroke-width="8" d="M106.172,40.172 A4,4 0 0 1 109,39 h1048 a4,4 0 0 1 4,4 v496 a4,4 0 0 1 -4,4 h-1048 a4,4 0 0 1 -4,-4 v-496 A4,4 0 0 1 106.172,40.172"/></g><defs><clipPath id="satori_bc-id-1"><path x="72" y="63" width="1056" height="504" d="M76,63 h1048 a4,4 0 0 1 4,4 v496 a4,4 0 0 1 -4,4 h-1048 a4,4 0 0 1 -4,-4 v-496 a4,4 0 0 1 4,-4"/></clipPath></defs><path x="72" y="63" width="1056" height="504" fill="#fefbfb" d="M76,63 h1048 a4,4 0 0 1 4,4 v496 a4,4 0 0 1 -4,4 h-1048 a4,4 0 0 1 -4,-4 v-496 a4,4 0 0 1 4,-4"/><path width="1056" height="504" clip-path="url(#satori_bc-id-1)" fill="none" stroke="#000" stroke-width="8" d="M73.172,64.172 A4,4 0 0 1 76,63 h1048 a4,4 0 0 1 4,4 v496 a4,4 0 0 1 -4,4 h-1048 a4,4 0 0 1 -4,-4 v-496 A4,4 0 0 1 73.172,64.172"/><clipPath id="satori_cp-id-1-0-0"><rect x="128" y="103" width="944" height="209"/></clipPath><mask id="satori_om-id-1-0-0"><rect x="128" y="103" width="944" height="209" fill="#fff"/></mask><path fill="black" d="M134.6 180.8L149.7 180.8C165.4 180.8 175.5 171.9 175.5 154.0C175.5 136.0 165.4 127.5 149.2 127.5L134.6 127.5ZM145.2 172.3L145.2 136.1L148.5 136.1C158.5 136.1 164.6 141.0 164.6 154.0C164.6 167.0 158.5 172.3 148.5 172.3ZM182.3 197.3C192.4 197.3 195.8 190.5 195.8 181.9L195.8 140.5L185.2 140.5L185.2 182.1C185.2 186.7 184.2 189.0 180.8 189.0C179.6 189.0 178.5 188.8 177.4 188.4L175.5 196.3C177.1 196.8 179.2 197.3 182.3 197.3ZM190.4 134.0C194.1 134.0 196.6 131.7 196.6 128.2C196.6 124.8 194.1 122.5 190.4 122.5C186.8 122.5 184.3 124.8 184.3 128.2C184.3 131.7 186.8 134.0 190.4 134.0ZM217.1 181.9C221.7 181.9 225.7 179.6 229.2 176.5L229.5 176.5L230.2 180.8L238.9 180.8L238.9 157.3C238.9 145.6 233.6 139.5 223.4 139.5C217.1 139.5 211.3 141.9 206.6 144.8L210.4 151.8C214.1 149.7 217.7 148.0 221.5 148.0C226.4 148.0 228.2 151.0 228.4 155.0C212.1 156.7 205.1 161.3 205.1 169.9C205.1 176.7 209.9 181.9 217.1 181.9ZM220.5 173.6C217.4 173.6 215.2 172.2 215.2 169.0C215.2 165.4 218.5 162.7 228.4 161.5L228.4 169.6C225.8 172.1 223.5 173.6 220.5 173.6ZM249.7 180.8L260.3 180.8L260.3 153.1C263.2 150.2 265.3 148.6 268.6 148.6C272.6 148.6 274.3 150.8 274.3 157.0L274.3 180.8L284.9 180.8L284.9 155.7C284.9 145.6 281.1 139.5 272.4 139.5C267.0 139.5 262.9 142.4 259.3 145.9L259.1 145.9L258.3 140.5L249.7 140.5ZM310.0 198.3C323.5 198.3 332.0 192.2 332.0 184.0C332.0 177.0 326.6 173.9 316.9 173.9L310.1 173.9C305.3 173.9 303.8 172.8 303.8 170.6C303.8 169.0 304.4 168.1 305.5 167.2C307.2 167.7 309.1 168.1 310.7 168.1C319.3 168.1 326.2 163.5 326.2 154.4C326.2 151.9 325.4 149.7 324.4 148.3L331.3 148.3L331.3 140.5L316.7 140.5C315.1 140.0 312.9 139.5 310.7 139.5C302.1 139.5 294.4 144.6 294.4 154.1C294.4 158.8 297.0 162.6 299.8 164.6L299.8 164.9C297.3 166.7 295.3 169.5 295.3 172.5C295.3 175.8 296.8 177.9 298.9 179.3L298.9 179.6C295.3 181.7 293.2 184.6 293.2 188.0C293.2 195.1 300.5 198.3 310.0 198.3ZM310.7 161.6C307.1 161.6 304.3 158.9 304.3 154.1C304.3 149.4 307.1 146.7 310.7 146.7C314.3 146.7 317 149.4 317 154.1C317 158.9 314.2 161.6 310.7 161.6ZM311.6 191.6C305.8 191.6 302.0 189.7 302.0 186.3C302.0 184.7 302.8 183.1 304.6 181.6C306.1 182.0 307.8 182.2 310.2 182.2L315.1 182.2C319.4 182.2 321.8 182.9 321.8 185.8C321.8 189.0 317.6 191.6 311.6 191.6ZM354.3 181.9C364.4 181.9 373.7 174.1 373.7 160.7C373.7 147.3 364.4 139.5 354.3 139.5C344.2 139.5 334.9 147.3 334.9 160.7C334.9 174.1 344.2 181.9 354.3 181.9ZM354.3 173.2C348.8 173.2 345.7 168.3 345.7 160.7C345.7 153.1 348.8 148.2 354.3 148.2C359.8 148.2 362.9 153.1 362.9 160.7C362.9 168.3 359.8 173.2 354.3 173.2ZM406.4 135.8L406.4 169.7L414.8 169.7L414.8 143.3L433.6 143.3L433.6 169.4L442.4 169.4L442.4 135.8L425.8 135.8C426.7 134.1 427.7 132.2 428.7 130.2L446.0 130.2L446.0 122.6L404.5 122.6L404.5 130.2L418.7 130.2C418.1 132.2 417.4 134.0 416.9 135.8ZM403.8 159.2L396.3 161.1L396.3 135.7L403.5 135.7L403.5 127.6L379.6 127.6L379.6 135.7L387.8 135.7L387.8 163.4C384.2 164.4 381.0 165.2 378.3 165.8L380.4 174.9C387.4 172.5 396.3 169.3 404.8 166.4ZM428.6 146.1L420.0 146.1L420.0 160.7C420.0 167.8 417.6 176.0 398.4 180.8C400.3 182.4 402.8 185.5 403.8 187.3C424.1 181.1 428.6 170.8 428.6 160.8ZM426.2 175.5C431.3 178.8 438.0 183.7 441.2 186.9L446.9 181.1C443.5 177.9 436.5 173.4 431.4 170.4ZM467.8 173.5L467.8 165.0L501.1 165.0L501.1 173.5ZM501.1 148.4L501.1 156.9L467.8 156.9L467.8 148.4ZM501.1 132.1L501.1 140.4L467.8 140.4L467.8 132.1ZM459.1 123.8L459.1 186.3L467.8 186.3L467.8 181.9L501.1 181.9L501.1 186.3L510.2 186.3L510.2 123.8ZM542.4 133.1L542.4 145.6L533.8 145.6L533.8 133.1ZM533.8 166.2L533.8 153.1L542.4 153.1L542.4 166.2ZM550.4 125.5L525.7 125.5L525.7 179.6L533.8 179.6L533.8 173.9L550.4 173.9ZM590.5 133.1L583.2 133.1L583.2 120.4L574.5 120.4L574.5 133.1L553.2 133.1L553.2 141.6L574.5 141.6L574.5 175.6C574.5 177.1 573.9 177.6 572.3 177.6C570.8 177.6 565.5 177.6 560.4 177.4C561.7 179.8 563.1 183.7 563.5 186.0C570.7 186.1 575.7 185.9 578.9 184.5C582.1 183.2 583.2 180.9 583.2 175.7L583.2 141.6L590.5 141.6ZM571.7 162.1C569.4 158.0 564.5 151.3 560.9 146.3L553.9 150.0C557.3 155.3 561.9 162.3 564.1 166.5ZM607.3 176.9L607.3 131.2L659.7 131.2L659.7 123.0L599.0 123.0L599.0 185.1L661.6 185.1L661.6 176.9ZM654.9 167.2C651.3 163.3 645.9 158.4 639.8 153.4C644.7 148.2 649.0 142.6 652.6 136.7L644.5 133.5C641.4 138.6 637.8 143.5 633.4 148.1C628.0 143.6 622.5 139.4 617.8 135.7L611.8 141.0C616.7 144.8 622.2 149.3 627.5 153.9C621.8 159.1 615.4 163.7 608.9 167.1C610.8 168.7 614 172.0 615.4 173.7C621.7 169.9 628.0 165.1 633.9 159.5C639.6 164.7 644.8 169.7 648.1 173.6ZM695.5 164.6C694.6 166.9 693.4 168.9 691.3 170.8C688.7 169.2 686.4 167.2 684.3 164.6ZM683.6 152.9L696.9 152.9L696.9 155.2C696.9 156.0 696.9 156.8 696.8 157.6L683.6 157.6ZM683.6 141.9L696.9 141.9L696.9 146.5L683.6 146.5ZM719.4 141.9L719.4 146.5L705.9 146.5L705.9 141.9ZM719.4 157.6L705.8 157.6C705.9 156.8 705.9 156.0 705.9 155.3L705.9 152.9L719.4 152.9ZM727.9 164.6L727.9 135.0L705.9 135.0L705.9 130.7L732.4 130.7L732.4 123.1L669.3 123.1L669.3 130.7L696.9 130.7L696.9 135.0L675.6 135.0L675.6 164.6L683.2 164.6L676.6 167.2C678.8 170.4 681.2 173.1 684.1 175.3C680.0 177.0 674.7 178.5 667.8 179.6C669.7 181.6 672.0 185.2 673.0 187.2C681.3 185.5 687.7 183.2 692.5 180.4C702.8 185.0 716.0 186.0 731.6 186.4C732.2 183.4 733.7 179.8 735.3 177.9C720.7 178.0 708.9 177.7 699.5 174.6C702.2 171.6 703.9 168.2 704.8 164.6ZM782.2 140.6L793.6 140.6C792.6 148.0 790.8 154.4 788.2 159.9C785.4 154.3 783.4 147.9 782.0 141.0ZM805.8 140.6L805.8 132.7L784.8 132.7C785.9 129.0 786.7 125.2 787.4 121.4L779.0 119.9C777.1 130.9 773.6 141.8 768.4 149.0L768.4 124.3L741.7 124.3L741.7 132.8L759.9 132.8L759.9 144.8L742.4 144.8L742.4 171.6C742.4 174.3 741.2 175.5 739.8 176.2C741.2 178.3 742.6 182.6 743.0 185.0C745.2 183.4 748.5 181.7 769.3 173.9C768.9 172.0 768.4 168.4 768.4 165.8L751.1 171.8L751.1 153.3L768.4 153.3L768.4 152.3C770.2 154.0 772.3 156.3 773.2 157.4C774.5 155.9 775.7 154.1 776.9 152.1C778.5 158.0 780.5 163.4 783.1 168.1C779.2 172.9 774.1 176.7 767.6 179.5C769.2 181.4 771.8 185.4 772.5 187.4C779.0 184.4 784.1 180.5 788.2 175.7C791.8 180.2 796.2 183.9 801.5 186.7C802.7 184.4 805.4 181.1 807.3 179.3C801.7 176.9 797.2 173.1 793.5 168.5C798.0 160.9 800.8 151.7 802.6 140.6ZM829.5 147.9L837.0 147.9L837.0 140.2L818.1 140.2C819.3 138.8 820.3 137.4 821.3 135.8L837.9 135.8L837.9 127.7L825.8 127.7C826.5 125.9 827.3 124.1 828.0 122.3L820.8 120.1C818.6 126.3 814.7 132.4 810.5 136.4C811.8 138.2 813.7 142.7 814.2 144.4C815.0 143.7 815.8 142.9 816.5 142.0L816.5 147.9L821.7 147.9L821.7 154.9L812.9 154.9L812.9 162.6L821.7 162.6L821.7 173.6C821.7 176.7 819.6 178.8 818.1 179.8C819.4 181.4 821.1 184.9 821.7 186.9C823.1 185.5 825.5 184.1 838.4 177.5C837.8 175.7 837.2 172.4 837.1 170.0L829.5 173.6L829.5 162.6L838.4 162.6L838.4 154.9L829.5 154.9ZM866.1 161.2L866.1 165.9L850.8 165.9L850.8 161.2ZM850.8 177.6L850.8 172.7L866.1 172.7L866.1 177.6ZM843.1 187.0L850.8 187.0L850.8 184.4L866.1 184.4L866.1 186.7L874.1 186.7L874.1 154.2L843.1 154.2ZM854.3 135.6L861.5 135.6L861.5 142.5L854.3 142.5ZM869.2 142.5L869.2 135.6L876.4 135.6L876.4 128.2L869.2 128.2L869.2 119.9L861.5 119.9L861.5 128.2L854.3 128.2L854.3 119.9L846.7 119.9L846.7 128.2L840.2 128.2L840.2 135.6L846.7 135.6L846.7 142.5L838.7 142.5L838.7 150.2L878.2 150.2L878.2 142.5ZM937.7 136.9L918.3 136.9L918.3 130.4L937.7 130.4ZM946.1 123.0L910.4 123.0L910.4 144.2L946.1 144.2ZM904.5 131.8C902.1 128.7 896.7 124.0 892.9 120.9L887.2 126.3C891.1 129.7 896.2 134.6 898.5 137.9ZM900.8 171.3L900.8 141.7L883.4 141.7L883.4 149.9L892.5 149.9L892.5 171.8C892.5 175.0 890.6 177.5 889.0 178.5C890.5 180.3 892.8 184.2 893.5 186.3C894.7 184.7 896.8 183.1 908.5 174.9C907.8 173.2 906.8 169.9 906.4 167.6ZM950.4 168.9L950.4 161.4L931.6 161.4C931.8 159.7 932.0 158.0 932.1 156.2L947.8 156.2L947.8 148.6L908.9 148.6L908.9 156.2L924.0 156.2C923.8 158.0 923.7 159.8 923.4 161.4L906.9 161.4L906.9 168.9L921.3 168.9C919.0 174.0 914.4 177.8 905.2 180.3C906.9 181.9 909.1 185.2 909.8 187.3C919.7 184.2 925.1 179.6 928.1 173.6C932.1 180.1 937.8 184.8 945.8 187.2C946.9 184.9 949.4 181.6 951.2 179.8C943.4 178.1 937.6 174.2 934.3 168.9ZM966.1 172.1L966.1 158.0L977.5 158.0L977.5 172.1ZM977.5 150.6L966.1 150.6L966.1 138.9L977.5 138.9ZM1000.4 131.0C1001.5 127.9 1002.4 124.9 1003.2 121.8L995.0 119.9C992.9 128.4 989.5 137.1 985.3 143.1L985.3 131.5L974.1 131.5C975.4 128.4 976.7 124.8 977.9 121.2L968.5 119.9C968.2 123.2 967.4 127.9 966.4 131.5L958.3 131.5L958.3 185.0L966.1 185.0L966.1 179.7L985.3 179.7L985.3 146.1C987.2 147.4 989.7 149.0 990.8 150.1C993.1 147.0 995.3 143.0 997.2 138.7L1012.6 138.7C1011.8 164.1 1010.9 174.9 1008.8 177.2C1007.8 178.2 1007.0 178.5 1005.6 178.5C1003.7 178.5 999.5 178.5 994.9 178.0C996.4 180.4 997.5 184.0 997.7 186.4C1001.9 186.5 1006.3 186.6 1009.0 186.2C1011.9 185.7 1013.9 185.0 1015.9 182.3C1018.9 178.5 1019.6 167.0 1020.6 134.8C1020.7 133.8 1020.7 131.0 1020.7 131.0ZM1008.7 163.8C1006.5 159.6 1001.7 152.8 998.1 147.8L991.4 151.6C995.0 156.9 999.4 163.9 1001.4 168.2Z M162.9 248.0C164.5 249.4 166.1 251.8 166.8 253.4C167.3 253.2 167.8 252.9 168.3 252.7C167.3 258.1 165.5 263.6 162.9 267.4ZM151.8 274.7L155.9 274.7L155.9 282.4C155.9 283.2 155.7 283.4 155.1 283.4C154.6 283.4 153.3 283.4 151.8 283.3ZM142.0 268.5C142.2 266.0 142.3 263.7 142.3 261.6L142.3 261.1L146.2 261.1L146.2 268.5ZM151.0 237.3C150.4 239.2 149.7 241.0 149.0 242.6L141.4 242.6C142.3 240.8 143.1 239.2 143.9 237.3ZM142.3 248.8L146.2 248.8L146.2 255.0L142.3 255.0ZM155.9 261.1L155.9 268.5L151.8 268.5L151.8 261.1ZM151.8 255.0L151.8 248.8L155.9 248.8L155.9 255.0ZM197.5 271.9L186.8 271.9L186.8 265.4L196.0 265.4L196.0 258.2L186.8 258.2L186.8 252.4L178.6 252.4L178.6 258.2L174.3 258.2C174.7 256.7 175.1 255.1 175.3 253.6L169.0 252.3C176.2 248.2 178.9 242.3 180.1 234.8L188.0 234.8C187.8 240.8 187.4 243.2 186.8 244.0C186.2 244.6 185.7 244.8 184.7 244.8C183.9 244.8 181.9 244.7 179.6 244.5C180.7 246.4 181.4 249.2 181.6 251.4C184.5 251.5 187.3 251.4 188.8 251.2C190.7 250.9 192.0 250.3 193.2 248.8C194.7 247.0 195.4 242.0 195.8 230.5C195.8 229.6 195.9 227.8 195.9 227.8L164.3 227.8L164.3 234.8L172.4 234.8C171.3 240.1 169.1 244.4 162.9 247.2L162.9 242.6L156.4 242.6C158.0 239.7 159.4 236.4 160.4 233.6L155.4 230.5L154.2 230.8L146.4 230.8C146.9 229.2 147.4 227.4 147.9 225.8L140.2 224.1C138.3 232.6 134.5 241.0 129.6 246.2C131.1 247.2 133.7 249.4 135.2 250.8L135.2 261.6C135.2 269.6 134.8 280.3 130.0 287.7C131.6 288.5 134.8 290.5 136.1 291.6C139.1 287.0 140.7 280.9 141.5 274.7L146.2 274.7L146.2 286.9L151.8 286.9L151.8 284.3C152.6 286.3 153.3 288.7 153.5 290.4C156.7 290.4 158.9 290.3 160.7 289.0C162.5 287.8 162.9 285.7 162.9 282.6L162.9 267.8C164.6 268.5 167.5 270.0 168.9 270.9C169.9 269.3 170.9 267.5 171.8 265.4L178.6 265.4L178.6 271.9L165.0 271.9L165.0 279.2L178.6 279.2L178.6 291.3L186.8 291.3L186.8 279.2L197.5 279.2ZM221.3 242.3C218.9 238.0 213.7 231.5 209.6 226.9L202.9 231.0C206.8 236.0 211.9 242.8 213.9 246.9ZM214.2 259.2C210.4 267.9 205.5 277.3 201.9 282.9L209.4 288.1C213.3 280.9 217.4 272.3 220.7 264.4ZM247.8 242.8L255.4 242.8L255.4 256.2L247.5 256.2C247.7 253.8 247.8 251.5 247.8 249.1ZM269.6 264.4L269.6 256.2L263.6 256.2L263.6 234.8L247.8 234.8L247.8 224.0L238.7 224.0L238.7 234.8L225.8 234.8L225.8 242.8L238.7 242.8L238.7 249.0C238.7 251.4 238.7 253.8 238.5 256.2L222.5 256.2L222.5 264.4L237.0 264.4C234.8 272.1 229.7 279.4 218.1 284.6C220.2 286.3 223.1 289.6 224.3 291.5C235.7 285.5 241.8 277.3 244.8 268.8C248.8 279.3 254.9 287.0 264.9 291.2C266.2 288.8 268.7 285.3 270.6 283.6C261.3 280.4 255.2 273.4 251.8 264.4ZM340.2 244.0L340.2 235.6L310.7 235.6L315.6 233.5C314.6 230.7 312.4 226.4 310.4 223.2L302.0 226.4C303.5 229.2 305.2 232.8 306.3 235.6L276.0 235.6L276.0 244.0L294.1 244.0C293.4 259.2 292.0 275.4 274.7 284.6C277.0 286.4 279.7 289.4 281 291.7C294.0 284.2 299.3 273.0 301.7 261.0L324.4 261.0C323.4 273.9 322.1 280.0 320.2 281.6C319.2 282.4 318.3 282.6 316.7 282.6C314.6 282.6 309.5 282.5 304.6 282.1C306.3 284.4 307.5 288.0 307.6 290.5C312.5 290.7 317.3 290.7 320.1 290.4C323.3 290.1 325.6 289.4 327.8 287.0C330.8 284.0 332.3 276.0 333.6 256.4C333.8 255.3 333.8 252.7 333.8 252.7L303.0 252.7C303.3 249.8 303.5 246.9 303.7 244.0ZM388.5 248.0C386.8 250.0 384.6 251.7 382.1 253.1C378.0 252.3 373.7 251.5 369.5 250.8C370.4 249.9 371.2 249.0 372.2 248.0ZM356.4 254.9C361.1 255.6 365.7 256.4 370.1 257.3C364.0 258.6 356.8 259.3 348.3 259.7C349.5 261.4 350.7 264.0 351.3 266.2C364.7 265.2 375.2 263.6 383.2 260.2C391.4 262.2 398.6 264.3 403.9 266.5L410.8 260.6C405.7 258.8 399.1 257.0 391.7 255.2C394.0 253.2 396.2 250.8 398 248.0L412.0 248.0L412.0 241.3L378.3 241.3C379.4 240.0 380.2 238.7 381.2 237.6L375.9 236.0L402.6 236.0L402.6 240.0L410.9 240.0L410.9 228.9L383.7 228.9C382.8 227.1 381.7 225.2 380.7 223.5L373.3 225.9C373.8 226.9 374.3 227.9 374.8 228.9L349.3 228.9L349.3 240.0L357.2 240.0L357.2 236.0L372.7 236.0C371.6 237.7 370.4 239.5 369.0 241.3L348.0 241.3L348.0 248.0L363.2 248.0C361.3 250.3 359.2 252.3 357.3 254.0ZM412.8 275.2L412.8 268.2L384.1 268.2L384.1 263.2L375.5 263.2L375.5 268.2L347.5 268.2L347.5 275.2L369.5 275.2C363.3 279.1 354.3 282.3 345.7 283.8C347.5 285.5 349.8 288.6 351.0 290.6C359.9 288.5 368.9 284.4 375.5 278.9L375.5 291.4L384.1 291.4L384.1 278.6C390.9 284.1 400.2 288.4 409.2 290.6C410.4 288.4 412.8 285.2 414.6 283.4C406.1 282.0 397.0 279.0 390.7 275.2Z " clip-path="url(#satori_cp-id-1-0-0)" mask="url(#satori_om-id-1-0-0)"/><path fill="black" d="M137.3 515.6C140.8 515.6 143.9 512.6 143.9 507.4C143.9 502.8 141.7 499.7 137.8 499.7C136.1 499.7 134.4 500.6 133.0 501.8L133.1 499.1L133.1 493.0L130.6 493.0L130.6 515.3L132.6 515.3L132.8 513.7L133.0 513.7C134.3 514.9 135.9 515.6 137.3 515.6ZM136.8 513.5C135.8 513.5 134.5 513.1 133.1 511.9L133.1 503.9C134.6 502.6 135.9 501.8 137.2 501.8C140.1 501.8 141.2 504.1 141.2 507.5C141.2 511.2 139.4 513.5 136.8 513.5ZM148.0 521.8C151.0 521.8 152.6 519.5 153.7 516.5L159.4 500.1L156.9 500.1L154.2 508.5C153.8 509.9 153.3 511.4 152.9 512.8L152.8 512.8C152.3 511.4 151.8 509.8 151.3 508.5L148.2 500.1L145.6 500.1L151.7 515.3L151.3 516.4C150.7 518.3 149.6 519.7 147.9 519.7C147.5 519.7 147.0 519.6 146.7 519.5L146.2 521.5C146.7 521.7 147.3 521.8 148.0 521.8Z "/><clipPath id="satori_cp-id-1-0-1-0-2"><rect x="173" y="485" width="57" height="40"/></clipPath><mask id="satori_om-id-1-0-1-0-2"><rect x="173" y="485" width="57" height="40" fill="#fff"/></mask><path fill="black" d="M181.7 515.7C186.5 515.7 189.4 512.8 189.4 509.4C189.4 506.4 187.7 504.8 185.2 503.8L182.5 502.6C180.7 501.9 179.2 501.4 179.2 499.9C179.2 498.5 180.4 497.7 182.2 497.7C183.9 497.7 185.3 498.3 186.6 499.4L188.7 496.8C187.0 495.1 184.6 494.2 182.2 494.2C178.0 494.2 175.0 496.8 175.0 500.2C175.0 503.2 177.1 504.9 179.2 505.7L182.0 506.9C183.9 507.7 185.1 508.2 185.1 509.7C185.1 511.2 184.0 512.1 181.8 512.1C180 512.1 178.0 511.2 176.6 509.8L174.2 512.6C176.2 514.6 179.0 515.7 181.7 515.7ZM193.0 515.3L196.7 515.3L196.7 506.6C196.7 504.7 196.4 501.8 196.2 499.8L196.3 499.8L198.0 504.7L201.2 513.4L203.6 513.4L206.8 504.7L208.4 499.8L208.6 499.8C208.4 501.8 208.1 504.7 208.1 506.6L208.1 515.3L211.8 515.3L211.8 494.5L207.2 494.5L203.8 504.2C203.4 505.5 203.0 506.9 202.5 508.2L202.4 508.2C202.0 506.9 201.6 505.5 201.1 504.2L197.6 494.5L193.0 494.5ZM221.4 515.7C225.9 515.7 227.9 512.5 227.9 508.6L227.9 494.5L223.7 494.5L223.7 508.2C223.7 511.1 222.8 512.1 220.9 512.1C219.8 512.1 218.7 511.4 217.9 509.9L215.0 512.0C216.4 514.4 218.4 515.7 221.4 515.7Z " clip-path="url(#satori_cp-id-1-0-1-0-2)" mask="url(#satori_om-id-1-0-1-0-2)"/><clipPath id="satori_cp-id-1-0-1-1"><rect x="959" y="485" width="112" height="40"/></clipPath><mask id="satori_om-id-1-0-1-1"><rect x="959" y="485" width="112" height="40" fill="#fff"/></mask><path fill="black" d="M985.5 499.3L985.5 496.0L974.0 496.0L976.0 495.2C975.5 494.1 974.7 492.5 974.0 491.2L970.7 492.4C971.2 493.5 971.9 494.9 972.4 496.0L960.5 496.0L960.5 499.3L967.6 499.3C967.3 505.2 966.8 511.5 960.1 515.1C961.0 515.8 962.0 516.9 962.5 517.8C967.5 514.9 969.6 510.6 970.6 505.9L979.4 505.9C979.0 510.9 978.5 513.3 977.8 513.9C977.4 514.2 977.0 514.3 976.4 514.3C975.5 514.3 973.6 514.3 971.7 514.1C972.3 515.0 972.8 516.4 972.9 517.4C974.8 517.5 976.6 517.5 977.7 517.3C979.0 517.2 979.9 517.0 980.7 516.0C981.8 514.8 982.4 511.7 982.9 504.1C983.0 503.7 983.1 502.7 983.1 502.7L971.0 502.7C971.2 501.5 971.2 500.4 971.3 499.3ZM991.1 504.1C992.9 506.2 995.0 509.1 995.8 511.0L998.9 509.1C998.0 507.2 995.8 504.4 993.9 502.5ZM1013.7 497.2L1007.4 497.2L1007.4 491.6L1003.8 491.6L1003.8 497.2L988.3 497.2L988.3 500.5L1003.8 500.5L1003.8 513.3C1003.8 513.9 1003.5 514.2 1002.8 514.2C1002.1 514.2 999.7 514.2 997.4 514.1C997.9 515.1 998.7 516.7 998.9 517.8C1001.8 517.8 1004.1 517.7 1005.5 517.1C1006.9 516.5 1007.4 515.6 1007.4 513.3L1007.4 500.5L1013.7 500.5ZM1037.7 496.6L1037.0 496.7L1030.5 496.7L1032.2 495.8C1031.5 494.6 1030.1 492.6 1029.0 491.2L1026.0 492.8C1026.8 494.0 1027.9 495.5 1028.6 496.7L1017.6 496.7L1017.6 500.0L1034.5 500.0C1031.5 503.8 1026.7 508.1 1022.1 510.9L1022.0 510.9C1020.4 510.9 1018.2 512.4 1016.2 514.5L1018.6 517.7C1019.8 515.9 1021.0 514.0 1021.9 514.0C1022.5 514.0 1023.4 514.9 1024.6 515.6C1026.5 516.8 1028.8 517.2 1032.2 517.2C1035.0 517.2 1039.2 517.0 1041.2 516.9C1041.2 516.0 1041.8 514.2 1042.1 513.3C1039.5 513.7 1035.2 514.0 1032.3 514.0C1029.4 514.0 1027.0 513.8 1025.3 512.7C1030.9 509.0 1036.7 503.5 1040.3 498.3ZM1045.0 517.7L1048.5 517.7L1048.5 498.3L1045.0 498.3ZM1045.5 493.4C1046.7 494.7 1048.2 496.5 1048.7 497.7L1051.5 496.0C1050.9 494.7 1049.4 493.0 1048.1 491.7ZM1054.3 507.4L1059.7 507.4L1059.7 510.0L1054.3 510.0ZM1054.3 502.1L1059.7 502.1L1059.7 504.7L1054.3 504.7ZM1051.3 512.7L1062.8 512.7L1062.8 499.4L1051.3 499.4ZM1069.2 492.9L1052.5 492.9L1052.5 496.0L1065.7 496.0L1065.7 514.1C1065.7 514.4 1065.7 514.6 1065.3 514.6C1065.0 514.6 1063.9 514.6 1063.0 514.5C1063.4 515.4 1063.9 516.6 1064 517.5C1065.7 517.5 1067.1 517.5 1068.0 517.0C1068.9 516.4 1069.2 515.7 1069.2 514.1Z " clip-path="url(#satori_cp-id-1-0-1-1)" mask="url(#satori_om-id-1-0-1-1)"/></svg>