<svg width="1200" height="630" viewBox="0 0 1200 630" xmlns="http://www.w3.org/2000/svg"><rect x="0" y="0" width="1200" height="630" fill="#fefbfb"/><defs><clipPath id="satori_bc-id-0"><path x="105" y="39" width="1056" height="504" d="M109,39 h1048 a4,4 0 0 1 4,4 v496 a4,4 0 0 1 -4,4 h-1048 a4,4 0 0 1 -4,-4 v-496 a4,4 0 0 1 4,-4"/></clipPath></defs><g opacity="0.9"><path x="105" y="39" width="1056" height="504" fill="#ecebeb" d="M109,39 h1048 a4,4 0 0 1 4,4 v496 a4,4 0 0 1 -4,4 h-1048 a4,4 0 0 1 -4,-4 v-496 a4,4 0 0 1 4,-4"/><path width="1056" height="504" clip-path="url(#satori_bc-id-0)" fill="none" stroke="#000" stroke-width="8" d="M106.172,40.172 A4,4 0 0 1 109,39 h1048 a4,4 0 0 1 4,4 v496 a4,4 0 0 1 -4,4 h-1048 a4,4 0 0 1 -4,-4 v-496 A4,4 0 0 1 106.172,40.172"/></g><defs><clipPath id="satori_bc-id-1"><path x="72" y="63" width="1056" height="504" d="M76,63 h1048 a4,4 0 0 1 4,4 v496 a4,4 0 0 1 -4,4 h-1048 a4,4 0 0 1 -4,-4 v-496 a4,4 0 0 1 4,-4"/></clipPath></defs><path x="72" y="63" width="1056" height="504" fill="#fefbfb" d="M76,63 h1048 a4,4 0 0 1 4,4 v496 a4,4 0 0 1 -4,4 h-1048 a4,4 0 0 1 -4,-4 v-496 a4,4 0 0 1 4,-4"/><path width="1056" height="504" clip-path="url(#satori_bc-id-1)" fill="none" stroke="#000" stroke-width="8" d="M73.172,64.172 A4,4 0 0 1 76,63 h1048 a4,4 0 0 1 4,4 v496 a4,4 0 0 1 -4,4 h-1048 a4,4 0 0 1 -4,-4 v-496 A4,4 0 0 1 73.172,64.172"/><clipPath id="satori_cp-id-1-0-0"><rect x="128" y="103" width="944" height="104"/></clipPath><mask id="satori_om-id-1-0-0"><rect x="128" y="103" width="944" height="104" fill="#fff"/></mask><path fill="black" d="M134.6 180.8L149.7 180.8C165.4 180.8 175.5 171.9 175.5 154.0C175.5 136.0 165.4 127.5 149.2 127.5L134.6 127.5ZM145.2 172.3L145.2 136.1L148.5 136.1C158.5 136.1 164.6 141.0 164.6 154.0C164.6 167.0 158.5 172.3 148.5 172.3ZM186.0 180.8L196.0 180.8L196.0 159.5C196.0 153.3 195.2 146.6 194.7 140.9L195.1 140.9L200.5 152.3L215.9 180.8L226.7 180.8L226.7 127.5L216.6 127.5L216.6 148.8C216.6 154.9 217.5 161.9 218.0 167.5L217.6 167.5L212.3 155.9L196.8 127.5L186.0 127.5ZM255.8 181.9C268.1 181.9 275.4 174.4 275.4 165.7C275.4 158.0 271.1 153.9 264.7 151.3L257.7 148.3C253.1 146.5 249.4 145.1 249.4 141.3C249.4 137.8 252.3 135.7 257.0 135.7C261.4 135.7 264.9 137.3 268.3 140.1L273.7 133.4C269.4 129.0 263.2 126.6 257.0 126.6C246.2 126.6 238.6 133.3 238.6 142.0C238.6 149.7 244.0 154.1 249.4 156.3L256.5 159.3C261.3 161.3 264.5 162.6 264.5 166.5C264.5 170.3 261.6 172.6 256.0 172.6C251.3 172.6 246.3 170.3 242.5 166.7L236.4 174.1C241.5 179.0 248.7 181.9 255.8 181.9ZM291.5 172.1L291.5 158.0L303.0 158.0L303.0 172.1ZM303.0 150.6L291.5 150.6L291.5 138.9L303.0 138.9ZM325.9 131.0C326.9 127.9 327.9 124.9 328.7 121.8L320.5 119.9C318.4 128.4 314.9 137.1 310.7 143.1L310.7 131.5L299.6 131.5C300.8 128.4 302.1 124.8 303.3 121.2L294.0 119.9C293.7 123.2 292.8 127.9 291.9 131.5L283.7 131.5L283.7 185.0L291.5 185.0L291.5 179.7L310.7 179.7L310.7 146.1C312.7 147.4 315.1 149.0 316.3 150.1C318.5 147.0 320.7 143.0 322.6 138.7L338.0 138.7C337.2 164.1 336.3 174.9 334.2 177.2C333.3 178.2 332.5 178.5 331.0 178.5C329.2 178.5 324.9 178.5 320.3 178.0C321.8 180.4 323.0 184.0 323.1 186.4C327.4 186.5 331.7 186.6 334.4 186.2C337.3 185.7 339.3 185.0 341.3 182.3C344.3 178.5 345.1 167.0 346.0 134.8C346.1 133.8 346.1 131.0 346.1 131.0ZM334.1 163.8C331.9 159.6 327.2 152.8 323.6 147.8L316.9 151.6C320.4 156.9 324.8 163.9 326.9 168.2ZM380.9 164.6C380.1 166.9 378.8 168.9 376.8 170.8C374.1 169.2 371.9 167.2 369.8 164.6ZM369.1 152.9L382.3 152.9L382.3 155.2C382.3 156.0 382.3 156.8 382.2 157.6L369.1 157.6ZM369.1 141.9L382.3 141.9L382.3 146.5L369.1 146.5ZM404.8 141.9L404.8 146.5L391.3 146.5L391.3 141.9ZM404.8 157.6L391.2 157.6C391.3 156.8 391.3 156.0 391.3 155.3L391.3 152.9L404.8 152.9ZM413.3 164.6L413.3 135.0L391.3 135.0L391.3 130.7L417.8 130.7L417.8 123.1L354.7 123.1L354.7 130.7L382.3 130.7L382.3 135.0L361.0 135.0L361.0 164.6L368.6 164.6L362.1 167.2C364.2 170.4 366.7 173.1 369.5 175.3C365.4 177.0 360.1 178.5 353.2 179.6C355.1 181.6 357.4 185.2 358.4 187.2C366.8 185.5 373.1 183.2 377.9 180.4C388.2 185.0 401.5 186.0 417.1 186.4C417.6 183.4 419.2 179.8 420.8 177.9C406.1 178.0 394.3 177.7 385.0 174.6C387.6 171.6 389.3 168.2 390.2 164.6ZM430.5 164.6C429.2 168.5 427.1 172.6 424.4 175.3C425.9 176.2 428.6 178.3 429.9 179.3C432.7 176.2 435.4 171.1 437.2 166.3ZM447.6 134.0C446.9 136.6 445.6 140.3 444.5 142.9L436.0 142.9L439.5 142.0C439.2 139.8 438.2 136.4 437.0 134.0ZM458.5 162.7L458.5 155.5L446.6 155.5L446.6 150.0L459.6 150.0L459.6 142.9L452.1 142.9C453.2 140.7 454.2 137.9 455.4 135.1L449.5 134.0L458.6 134.0L458.6 127.0L447.2 127.0C446.4 124.6 445.2 121.8 444.1 119.5L436.4 121.3C437.2 123.0 438.0 125.0 438.6 127.0L426.3 127.0L426.3 134.0L436.0 134.0L430.1 135.4C431.1 137.6 431.9 140.7 432.3 142.9L425.2 142.9L425.2 150.0L438.9 150.0L438.9 155.5L425.6 155.5L425.6 162.7L438.9 162.7L438.9 177.9C438.9 178.7 438.7 178.9 437.9 178.9C437.1 178.9 434.9 178.9 432.7 178.8C433.7 180.8 434.7 183.8 435.0 185.8C438.8 185.8 441.7 185.7 443.9 184.6C446.0 183.4 446.6 181.6 446.6 178.1L446.6 162.7ZM491.7 143.6L469.6 143.6L469.6 132.2C476.7 131.0 484.1 129.2 490.1 126.8L483.5 120.6C478.3 123.0 469.6 125.3 461.6 126.7L461.6 152.0C461.6 158.9 461.4 167.0 459.2 174.1C458.0 171.4 455.6 167.2 453.4 163.9L447.8 167.0C449.8 170.3 452.3 174.9 453.4 177.8L459.1 174.2C458.4 176.7 457.3 179.1 456.0 181.1C457.8 182.1 461.1 184.7 462.5 186.2C468.7 177.2 469.6 162.6 469.6 152.0L469.6 151.5L476.7 151.5L476.7 186.8L485.0 186.8L485.0 151.5L491.7 151.5ZM546.5 132.0L513.6 132.0L513.6 128.4L546.5 128.4ZM546.5 141.2L513.6 141.2L513.6 137.6L546.5 137.6ZM555.2 122.3L505.3 122.3L505.3 147.3L555.2 147.3ZM535.4 170.8L557.6 170.8L557.6 163.4L535.4 163.4L535.4 158.0L562.1 158.0L562.1 150.5L498.6 150.5L498.6 158.0L526.7 158.0L526.7 176.3C522.1 174.9 518.5 172.2 516.3 167.3C516.9 165.2 517.4 163.1 518.0 160.8L509.4 159.5C507.7 169.1 503.3 176.7 496.0 181.3C497.9 182.5 501.2 185.7 502.5 187.3C506.6 184.4 510.0 180.6 512.6 175.8C518.6 184.2 527.5 186.0 540.7 186.0L561.2 186.0C561.7 183.5 563.0 179.8 564.1 177.8C559.0 178.0 545.2 178.0 541.1 178.0C539.2 178.0 537.2 178.0 535.4 177.8ZM593.0 142.0C592.0 149.9 590.5 156.5 588.0 162.1C585.6 160.0 583.2 158.0 580.9 156.2C582.0 151.8 583.3 146.9 584.3 142.0ZM596.5 133.9L595.0 134.1L585.8 134.1C586.7 129.6 587.4 125.0 588.0 120.7L579.6 120.2C579.2 124.5 578.5 129.4 577.6 134.1L569.2 134.1L569.2 142.0L576.1 142.0C574.8 148.4 573.2 154.4 571.7 159.0C575.3 162.1 579.6 165.8 583.8 169.4C579.9 174.5 575.0 178.0 568.9 180.2C570.5 181.9 572.6 185.1 573.8 187.3C580.4 184.4 585.8 180.6 590.0 175.3C592.3 177.5 594.4 179.8 596 181.6L601.6 174.4C599.9 172.5 597.4 170.1 594.6 167.7C598.7 159.5 600.9 148.8 601.8 134.7ZM612.2 171.7L612.2 135.3L624.9 135.3L624.9 171.7ZM604.1 127.3L604.1 185.2L612.2 185.2L612.2 179.8L624.9 179.8L624.9 184.0L633.4 184.0L633.4 127.3ZM656.2 119.8C652.7 129.9 646.5 140.0 640.1 146.4C641.6 148.5 644.0 153.2 644.7 155.3C646.4 153.5 648.1 151.5 649.8 149.2L649.8 186.9L658.4 186.9L658.4 135.6C660.7 131.2 662.6 126.8 664.3 122.4ZM680.5 149.5L680.5 160.7L672.5 160.7L672.5 149.5ZM688.4 168.1L688.4 142.0L664.5 142.0L664.5 172.8L672.5 172.8L672.5 168.1ZM708.0 126.1L663.6 126.1L663.6 134.3L695 134.3L695 176.8C695 178.2 694.6 178.6 693.1 178.6C691.7 178.6 686.6 178.6 682.0 178.4C683.2 180.9 684.6 184.7 684.8 187.2C691.5 187.2 696.4 186.9 699.5 185.6C702.6 184.2 703.6 181.9 703.6 177.0L703.6 134.3L708.0 134.3ZM750.9 173.5L750.9 136.3L775.1 136.3L775.1 127.4L717.6 127.4L717.6 136.3L741.2 136.3L741.2 173.5L713.7 173.5L713.7 182.1L779.2 182.1L779.2 173.5ZM800.4 120.2C796.8 130.4 790.5 140.6 784.0 147.1C785.5 149.2 788.0 154.1 788.7 156.2C790.2 154.6 791.7 152.8 793.2 151.0L793.2 187.0L801.8 187.0L801.8 137.7C804.5 132.9 806.9 127.8 808.8 122.7ZM852.0 139.7L852.0 131.6L824.1 131.6C825.5 128.6 826.6 125.7 827.6 122.7L819.3 120.6C816.1 130.9 810.4 141.2 804.1 147.7C805.9 149.1 809.3 152.1 810.6 153.7C813.9 150.0 817.2 145.1 820.1 139.7L822.8 139.7L822.8 187.1L831.6 187.1L831.6 171.1L851.2 171.1L851.2 163.2L831.6 163.2L831.6 155.1L850.2 155.1L850.2 147.3L831.6 147.3L831.6 139.7ZM867.5 172.1L867.5 158.0L879.0 158.0L879.0 172.1ZM879.0 150.6L867.5 150.6L867.5 138.9L879.0 138.9ZM901.9 131.0C902.9 127.9 903.9 124.9 904.7 121.8L896.5 119.9C894.4 128.4 890.9 137.1 886.7 143.1L886.7 131.5L875.6 131.5C876.8 128.4 878.1 124.8 879.3 121.2L870.0 119.9C869.7 123.2 868.8 127.9 867.9 131.5L859.7 131.5L859.7 185.0L867.5 185.0L867.5 179.7L886.7 179.7L886.7 146.1C888.7 147.4 891.1 149.0 892.3 150.1C894.5 147.0 896.7 143.0 898.6 138.7L914.0 138.7C913.2 164.1 912.3 174.9 910.2 177.2C909.3 178.2 908.5 178.5 907.0 178.5C905.2 178.5 900.9 178.5 896.3 178.0C897.8 180.4 899.0 184.0 899.1 186.4C903.4 186.5 907.7 186.6 910.4 186.2C913.3 185.7 915.3 185.0 917.3 182.3C920.3 178.5 921.1 167.0 922.0 134.8C922.1 133.8 922.1 131.0 922.1 131.0ZM910.1 163.8C907.9 159.6 903.2 152.8 899.6 147.8L892.9 151.6C896.4 156.9 900.8 163.9 902.9 168.2ZM938.8 162.3L948.1 162.3C947 152.1 960.2 150.8 960.2 140.0C960.2 130.8 953.6 126.1 944.6 126.1C938 126.1 932.6 129.2 928.6 133.8L934.5 139.2C937.2 136.2 940.0 134.7 943.5 134.7C947.6 134.7 950.0 137.0 950.0 140.9C950.0 148.1 937.2 150.8 938.8 162.3ZM943.5 181.5C947.1 181.5 949.8 178.9 949.8 175.2C949.8 171.3 947.1 168.8 943.5 168.8C939.9 168.8 937.1 171.3 937.1 175.2C937.1 178.9 939.8 181.5 943.5 181.5Z " clip-path="url(#satori_cp-id-1-0-0)" mask="url(#satori_om-id-1-0-0)"/><path fill="black" d="M137.3 515.6C140.8 515.6 143.9 512.6 143.9 507.4C143.9 502.8 141.7 499.7 137.8 499.7C136.1 499.7 134.4 500.6 133.0 501.8L133.1 499.1L133.1 493.0L130.6 493.0L130.6 515.3L132.6 515.3L132.8 513.7L133.0 513.7C134.3 514.9 135.9 515.6 137.3 515.6ZM136.8 513.5C135.8 513.5 134.5 513.1 133.1 511.9L133.1 503.9C134.6 502.6 135.9 501.8 137.2 501.8C140.1 501.8 141.2 504.1 141.2 507.5C141.2 511.2 139.4 513.5 136.8 513.5ZM148.0 521.8C151.0 521.8 152.6 519.5 153.7 516.5L159.4 500.1L156.9 500.1L154.2 508.5C153.8 509.9 153.3 511.4 152.9 512.8L152.8 512.8C152.3 511.4 151.8 509.8 151.3 508.5L148.2 500.1L145.6 500.1L151.7 515.3L151.3 516.4C150.7 518.3 149.6 519.7 147.9 519.7C147.5 519.7 147.0 519.6 146.7 519.5L146.2 521.5C146.7 521.7 147.3 521.8 148.0 521.8Z "/><clipPath id="satori_cp-id-1-0-1-0-2"><rect x="173" y="485" width="57" height="40"/></clipPath><mask id="satori_om-id-1-0-1-0-2"><rect x="173" y="485" width="57" height="40" fill="#fff"/></mask><path fill="black" d="M181.7 515.7C186.5 515.7 189.4 512.8 189.4 509.4C189.4 506.4 187.7 504.8 185.2 503.8L182.5 502.6C180.7 501.9 179.2 501.4 179.2 499.9C179.2 498.5 180.4 497.7 182.2 497.7C183.9 497.7 185.3 498.3 186.6 499.4L188.7 496.8C187.0 495.1 184.6 494.2 182.2 494.2C178.0 494.2 175.0 496.8 175.0 500.2C175.0 503.2 177.1 504.9 179.2 505.7L182.0 506.9C183.9 507.7 185.1 508.2 185.1 509.7C185.1 511.2 184.0 512.1 181.8 512.1C180 512.1 178.0 511.2 176.6 509.8L174.2 512.6C176.2 514.6 179.0 515.7 181.7 515.7ZM193.0 515.3L196.7 515.3L196.7 506.6C196.7 504.7 196.4 501.8 196.2 499.8L196.3 499.8L198.0 504.7L201.2 513.4L203.6 513.4L206.8 504.7L208.4 499.8L208.6 499.8C208.4 501.8 208.1 504.7 208.1 506.6L208.1 515.3L211.8 515.3L211.8 494.5L207.2 494.5L203.8 504.2C203.4 505.5 203.0 506.9 202.5 508.2L202.4 508.2C202.0 506.9 201.6 505.5 201.1 504.2L197.6 494.5L193.0 494.5ZM221.4 515.7C225.9 515.7 227.9 512.5 227.9 508.6L227.9 494.5L223.7 494.5L223.7 508.2C223.7 511.1 222.8 512.1 220.9 512.1C219.8 512.1 218.7 511.4 217.9 509.9L215.0 512.0C216.4 514.4 218.4 515.7 221.4 515.7Z " clip-path="url(#satori_cp-id-1-0-1-0-2)" mask="url(#satori_om-id-1-0-1-0-2)"/><clipPath id="satori_cp-id-1-0-1-1"><rect x="959" y="485" width="112" height="40"/></clipPath><mask id="satori_om-id-1-0-1-1"><rect x="959" y="485" width="112" height="40" fill="#fff"/></mask><path fill="black" d="M985.5 499.3L985.5 496.0L974.0 496.0L976.0 495.2C975.5 494.1 974.7 492.5 974.0 491.2L970.7 492.4C971.2 493.5 971.9 494.9 972.4 496.0L960.5 496.0L960.5 499.3L967.6 499.3C967.3 505.2 966.8 511.5 960.1 515.1C961.0 515.8 962.0 516.9 962.5 517.8C967.5 514.9 969.6 510.6 970.6 505.9L979.4 505.9C979.0 510.9 978.5 513.3 977.8 513.9C977.4 514.2 977.0 514.3 976.4 514.3C975.5 514.3 973.6 514.3 971.7 514.1C972.3 515.0 972.8 516.4 972.9 517.4C974.8 517.5 976.6 517.5 977.7 517.3C979.0 517.2 979.9 517.0 980.7 516.0C981.8 514.8 982.4 511.7 982.9 504.1C983.0 503.7 983.1 502.7 983.1 502.7L971.0 502.7C971.2 501.5 971.2 500.4 971.3 499.3ZM991.1 504.1C992.9 506.2 995.0 509.1 995.8 511.0L998.9 509.1C998.0 507.2 995.8 504.4 993.9 502.5ZM1013.7 497.2L1007.4 497.2L1007.4 491.6L1003.8 491.6L1003.8 497.2L988.3 497.2L988.3 500.5L1003.8 500.5L1003.8 513.3C1003.8 513.9 1003.5 514.2 1002.8 514.2C1002.1 514.2 999.7 514.2 997.4 514.1C997.9 515.1 998.7 516.7 998.9 517.8C1001.8 517.8 1004.1 517.7 1005.5 517.1C1006.9 516.5 1007.4 515.6 1007.4 513.3L1007.4 500.5L1013.7 500.5ZM1037.7 496.6L1037.0 496.7L1030.5 496.7L1032.2 495.8C1031.5 494.6 1030.1 492.6 1029.0 491.2L1026.0 492.8C1026.8 494.0 1027.9 495.5 1028.6 496.7L1017.6 496.7L1017.6 500.0L1034.5 500.0C1031.5 503.8 1026.7 508.1 1022.1 510.9L1022.0 510.9C1020.4 510.9 1018.2 512.4 1016.2 514.5L1018.6 517.7C1019.8 515.9 1021.0 514.0 1021.9 514.0C1022.5 514.0 1023.4 514.9 1024.6 515.6C1026.5 516.8 1028.8 517.2 1032.2 517.2C1035.0 517.2 1039.2 517.0 1041.2 516.9C1041.2 516.0 1041.8 514.2 1042.1 513.3C1039.5 513.7 1035.2 514.0 1032.3 514.0C1029.4 514.0 1027.0 513.8 1025.3 512.7C1030.9 509.0 1036.7 503.5 1040.3 498.3ZM1045.0 517.7L1048.5 517.7L1048.5 498.3L1045.0 498.3ZM1045.5 493.4C1046.7 494.7 1048.2 496.5 1048.7 497.7L1051.5 496.0C1050.9 494.7 1049.4 493.0 1048.1 491.7ZM1054.3 507.4L1059.7 507.4L1059.7 510.0L1054.3 510.0ZM1054.3 502.1L1059.7 502.1L1059.7 504.7L1054.3 504.7ZM1051.3 512.7L1062.8 512.7L1062.8 499.4L1051.3 499.4ZM1069.2 492.9L1052.5 492.9L1052.5 496.0L1065.7 496.0L1065.7 514.1C1065.7 514.4 1065.7 514.6 1065.3 514.6C1065.0 514.6 1063.9 514.6 1063.0 514.5C1063.4 515.4 1063.9 516.6 1064 517.5C1065.7 517.5 1067.1 517.5 1068.0 517.0C1068.9 516.4 1069.2 515.7 1069.2 514.1Z " clip-path="url(#satori_cp-id-1-0-1-1)" mask="url(#satori_om-id-1-0-1-1)"/></svg>