<svg width="1200" height="630" viewBox="0 0 1200 630" xmlns="http://www.w3.org/2000/svg"><rect x="0" y="0" width="1200" height="630" fill="#fefbfb"/><defs><clipPath id="satori_bc-id-0"><path x="105" y="39" width="1056" height="504" d="M109,39 h1048 a4,4 0 0 1 4,4 v496 a4,4 0 0 1 -4,4 h-1048 a4,4 0 0 1 -4,-4 v-496 a4,4 0 0 1 4,-4"/></clipPath></defs><g opacity="0.9"><path x="105" y="39" width="1056" height="504" fill="#ecebeb" d="M109,39 h1048 a4,4 0 0 1 4,4 v496 a4,4 0 0 1 -4,4 h-1048 a4,4 0 0 1 -4,-4 v-496 a4,4 0 0 1 4,-4"/><path width="1056" height="504" clip-path="url(#satori_bc-id-0)" fill="none" stroke="#000" stroke-width="8" d="M106.172,40.172 A4,4 0 0 1 109,39 h1048 a4,4 0 0 1 4,4 v496 a4,4 0 0 1 -4,4 h-1048 a4,4 0 0 1 -4,-4 v-496 A4,4 0 0 1 106.172,40.172"/></g><defs><clipPath id="satori_bc-id-1"><path x="72" y="63" width="1056" height="504" d="M76,63 h1048 a4,4 0 0 1 4,4 v496 a4,4 0 0 1 -4,4 h-1048 a4,4 0 0 1 -4,-4 v-496 a4,4 0 0 1 4,-4"/></clipPath></defs><path x="72" y="63" width="1056" height="504" fill="#fefbfb" d="M76,63 h1048 a4,4 0 0 1 4,4 v496 a4,4 0 0 1 -4,4 h-1048 a4,4 0 0 1 -4,-4 v-496 a4,4 0 0 1 4,-4"/><path width="1056" height="504" clip-path="url(#satori_bc-id-1)" fill="none" stroke="#000" stroke-width="8" d="M73.172,64.172 A4,4 0 0 1 76,63 h1048 a4,4 0 0 1 4,4 v496 a4,4 0 0 1 -4,4 h-1048 a4,4 0 0 1 -4,-4 v-496 A4,4 0 0 1 73.172,64.172"/><clipPath id="satori_cp-id-1-0-0"><rect x="128" y="103" width="944" height="104"/></clipPath><mask id="satori_om-id-1-0-0"><rect x="128" y="103" width="944" height="104" fill="#fff"/></mask><path fill="black" d="M134.6 180.8L145.2 180.8L145.2 159.2L164.1 159.2L164.1 150.3L145.2 150.3L145.2 136.4L167.4 136.4L167.4 127.5L134.6 127.5ZM176.7 180.8L187.3 180.8L187.3 160.7L194.7 160.7L205.7 180.8L217.6 180.8L205.1 159.0C211.2 156.7 215.3 151.7 215.3 143.7C215.3 131.5 206.4 127.5 195.2 127.5L176.7 127.5ZM187.3 152.3L187.3 136.0L194.2 136.0C201.1 136.0 204.9 137.9 204.9 143.7C204.9 149.4 201.1 152.3 194.2 152.3ZM225.8 180.8L236.4 180.8L236.4 161.9L243.6 161.9C255.0 161.9 264.2 156.4 264.2 144.3C264.2 131.7 255.1 127.5 243.3 127.5L225.8 127.5ZM236.4 153.5L236.4 136.0L242.5 136.0C249.8 136.0 253.7 138.1 253.7 144.3C253.7 150.4 250.2 153.5 242.8 153.5ZM305.6 174.9L305.6 150.0L331.0 150.0L331.0 141.3L305.6 141.3L305.6 120.7L296.3 120.7L296.3 174.9L270.6 174.9L270.6 183.6L336.0 183.6L336.0 174.9ZM408.2 156.7L379.8 156.7L379.8 148.3L404.0 148.3L404.0 140.1L379.8 140.1L379.8 130.7C387.7 129.7 395.3 128.5 401.7 126.8L395.5 119.7C383.7 122.8 363.9 124.8 346.6 125.5C347.5 127.4 348.5 130.8 348.8 133.0C355.8 132.8 363.4 132.3 370.9 131.7L370.9 140.1L347.3 140.1L347.3 148.3L370.9 148.3L370.9 156.7L342.4 156.7L342.4 165.1L370.9 165.1L370.9 176.7C370.9 178.1 370.2 178.6 368.6 178.7C367.0 178.7 360.9 178.7 355.6 178.5C357.0 180.8 358.6 184.5 359.1 187.0C366.5 187.0 371.6 186.8 375.1 185.5C378.5 184.2 379.8 181.9 379.8 176.8L379.8 165.1L408.2 165.1ZM467.8 140.9C467.0 147.2 465.7 152.8 464.0 157.7C462.0 152.6 460.6 146.9 459.6 140.9ZM441.8 149.0L440.3 149.5L436.2 149.5C437.3 148.3 438.3 147.1 439.3 145.8L447.8 145.8C446.7 147.7 445.5 149.5 444.3 151.0ZM432.5 133.6L438.2 133.6C437.2 135.3 436.1 136.9 435.0 138.4L432.5 138.4ZM480.9 140.9L480.9 133.0L461.7 133.0C462.7 129.2 463.6 125.2 464.3 121.2L455.6 119.9C454.2 128.7 451.9 137.3 448.6 144.1L448.6 138.4L444.6 138.4C447.4 134.0 449.9 129.1 451.9 123.8L444.0 121.7C442.8 125.0 441.3 128.4 439.5 131.5L439.5 126.4L432.5 126.4L432.5 119.9L424.6 119.9L424.6 126.4L416.4 126.4L416.4 133.6L424.6 133.6L424.6 138.4L413.6 138.4L413.6 145.8L428.6 145.8C427.4 147.1 426.0 148.3 424.6 149.5L419.9 149.5L419.9 153.1C417.6 154.6 415.1 156.0 412.7 157.3C414.3 158.8 417.3 162.1 418.4 163.8C422.3 161.6 426.0 159.0 429.5 156.1L434.0 156.1C432.1 158.0 430.0 159.8 428.0 161.1L428.0 165.2C422.6 165.7 417.4 166.0 413.4 166.3L414.3 173.9C418.2 173.6 423.0 173.1 428.0 172.7L428.0 178.8C428.0 179.5 427.7 179.7 426.8 179.8C425.9 179.8 422.8 179.8 420.0 179.7C421.0 181.8 422.1 184.7 422.4 187.0C426.9 187.0 430.3 186.9 432.8 185.7C435.4 184.6 436.0 182.6 436.0 178.9L436.0 172.1C440.3 171.7 444.6 171.3 448.9 170.9L448.9 163.6C444.6 163.9 440.3 164.3 436.0 164.6L436.0 162.6C439.5 159.8 443.1 156.5 446.0 153.3C447.8 154.8 449.8 156.7 450.7 157.7C451.9 156.2 452.9 154.5 454.0 152.8C455.3 158.0 457.0 162.9 458.9 167.3C455.2 172.6 450.2 176.7 443.4 179.6C445.0 181.4 447.5 185.4 448.3 187.4C454.6 184.2 459.6 180.3 463.6 175.7C466.8 180.3 470.8 184.2 475.7 187.2C477.0 184.8 479.6 181.4 481.6 179.7C476.3 177.0 472.1 172.9 468.8 167.7C472.7 160.4 475.1 151.6 476.6 140.9ZM541.0 139.7L524.2 139.7L524.2 129.7L541.0 129.7ZM549.3 122.5L516.3 122.5L516.3 146.9L549.3 146.9ZM514.2 159.5C512.8 158.0 506.9 151.7 505.0 150.1L505.0 148.0L512.7 148.0L512.7 140.0L505.0 140.0L505.0 129.9C508.1 129.1 511.0 128.1 513.6 127.1L507.9 120.6C502.3 123.1 493.5 125.2 485.6 126.6C486.5 128.3 487.5 131.2 487.9 133.1C490.7 132.8 493.7 132.2 496.7 131.7L496.7 140.0L486.4 140.0L486.4 148.0L495.6 148.0C492.9 155.0 488.9 162.6 484.9 167.3C486.3 169.5 488.1 173.0 488.9 175.4C491.7 171.8 494.4 166.7 496.7 161.2L496.7 187.0L505.0 187.0L505.0 159.0C506.7 161.6 508.4 164.4 509.3 166.2ZM536.8 178.0L536.8 171.7L549.6 171.7L549.6 164.5L536.8 164.5L536.8 158.5L551.3 158.5L551.3 151.2L514.0 151.2L514.0 158.5L528.3 158.5L528.3 164.5L515.7 164.5L515.7 171.7L528.3 171.7L528.3 178.0L511.2 178.0L511.2 185.5L552.8 185.5L552.8 178.0Z " clip-path="url(#satori_cp-id-1-0-0)" mask="url(#satori_om-id-1-0-0)"/><path fill="black" d="M137.3 515.6C140.8 515.6 143.9 512.6 143.9 507.4C143.9 502.8 141.7 499.7 137.8 499.7C136.1 499.7 134.4 500.6 133.0 501.8L133.1 499.1L133.1 493.0L130.6 493.0L130.6 515.3L132.6 515.3L132.8 513.7L133.0 513.7C134.3 514.9 135.9 515.6 137.3 515.6ZM136.8 513.5C135.8 513.5 134.5 513.1 133.1 511.9L133.1 503.9C134.6 502.6 135.9 501.8 137.2 501.8C140.1 501.8 141.2 504.1 141.2 507.5C141.2 511.2 139.4 513.5 136.8 513.5ZM148.0 521.8C151.0 521.8 152.6 519.5 153.7 516.5L159.4 500.1L156.9 500.1L154.2 508.5C153.8 509.9 153.3 511.4 152.9 512.8L152.8 512.8C152.3 511.4 151.8 509.8 151.3 508.5L148.2 500.1L145.6 500.1L151.7 515.3L151.3 516.4C150.7 518.3 149.6 519.7 147.9 519.7C147.5 519.7 147.0 519.6 146.7 519.5L146.2 521.5C146.7 521.7 147.3 521.8 148.0 521.8Z "/><clipPath id="satori_cp-id-1-0-1-0-2"><rect x="173" y="485" width="57" height="40"/></clipPath><mask id="satori_om-id-1-0-1-0-2"><rect x="173" y="485" width="57" height="40" fill="#fff"/></mask><path fill="black" d="M181.7 515.7C186.5 515.7 189.4 512.8 189.4 509.4C189.4 506.4 187.7 504.8 185.2 503.8L182.5 502.6C180.7 501.9 179.2 501.4 179.2 499.9C179.2 498.5 180.4 497.7 182.2 497.7C183.9 497.7 185.3 498.3 186.6 499.4L188.7 496.8C187.0 495.1 184.6 494.2 182.2 494.2C178.0 494.2 175.0 496.8 175.0 500.2C175.0 503.2 177.1 504.9 179.2 505.7L182.0 506.9C183.9 507.7 185.1 508.2 185.1 509.7C185.1 511.2 184.0 512.1 181.8 512.1C180 512.1 178.0 511.2 176.6 509.8L174.2 512.6C176.2 514.6 179.0 515.7 181.7 515.7ZM193.0 515.3L196.7 515.3L196.7 506.6C196.7 504.7 196.4 501.8 196.2 499.8L196.3 499.8L198.0 504.7L201.2 513.4L203.6 513.4L206.8 504.7L208.4 499.8L208.6 499.8C208.4 501.8 208.1 504.7 208.1 506.6L208.1 515.3L211.8 515.3L211.8 494.5L207.2 494.5L203.8 504.2C203.4 505.5 203.0 506.9 202.5 508.2L202.4 508.2C202.0 506.9 201.6 505.5 201.1 504.2L197.6 494.5L193.0 494.5ZM221.4 515.7C225.9 515.7 227.9 512.5 227.9 508.6L227.9 494.5L223.7 494.5L223.7 508.2C223.7 511.1 222.8 512.1 220.9 512.1C219.8 512.1 218.7 511.4 217.9 509.9L215.0 512.0C216.4 514.4 218.4 515.7 221.4 515.7Z " clip-path="url(#satori_cp-id-1-0-1-0-2)" mask="url(#satori_om-id-1-0-1-0-2)"/><clipPath id="satori_cp-id-1-0-1-1"><rect x="959" y="485" width="112" height="40"/></clipPath><mask id="satori_om-id-1-0-1-1"><rect x="959" y="485" width="112" height="40" fill="#fff"/></mask><path fill="black" d="M985.5 499.3L985.5 496.0L974.0 496.0L976.0 495.2C975.5 494.1 974.7 492.5 974.0 491.2L970.7 492.4C971.2 493.5 971.9 494.9 972.4 496.0L960.5 496.0L960.5 499.3L967.6 499.3C967.3 505.2 966.8 511.5 960.1 515.1C961.0 515.8 962.0 516.9 962.5 517.8C967.5 514.9 969.6 510.6 970.6 505.9L979.4 505.9C979.0 510.9 978.5 513.3 977.8 513.9C977.4 514.2 977.0 514.3 976.4 514.3C975.5 514.3 973.6 514.3 971.7 514.1C972.3 515.0 972.8 516.4 972.9 517.4C974.8 517.5 976.6 517.5 977.7 517.3C979.0 517.2 979.9 517.0 980.7 516.0C981.8 514.8 982.4 511.7 982.9 504.1C983.0 503.7 983.1 502.7 983.1 502.7L971.0 502.7C971.2 501.5 971.2 500.4 971.3 499.3ZM991.1 504.1C992.9 506.2 995.0 509.1 995.8 511.0L998.9 509.1C998.0 507.2 995.8 504.4 993.9 502.5ZM1013.7 497.2L1007.4 497.2L1007.4 491.6L1003.8 491.6L1003.8 497.2L988.3 497.2L988.3 500.5L1003.8 500.5L1003.8 513.3C1003.8 513.9 1003.5 514.2 1002.8 514.2C1002.1 514.2 999.7 514.2 997.4 514.1C997.9 515.1 998.7 516.7 998.9 517.8C1001.8 517.8 1004.1 517.7 1005.5 517.1C1006.9 516.5 1007.4 515.6 1007.4 513.3L1007.4 500.5L1013.7 500.5ZM1037.7 496.6L1037.0 496.7L1030.5 496.7L1032.2 495.8C1031.5 494.6 1030.1 492.6 1029.0 491.2L1026.0 492.8C1026.8 494.0 1027.9 495.5 1028.6 496.7L1017.6 496.7L1017.6 500.0L1034.5 500.0C1031.5 503.8 1026.7 508.1 1022.1 510.9L1022.0 510.9C1020.4 510.9 1018.2 512.4 1016.2 514.5L1018.6 517.7C1019.8 515.9 1021.0 514.0 1021.9 514.0C1022.5 514.0 1023.4 514.9 1024.6 515.6C1026.5 516.8 1028.8 517.2 1032.2 517.2C1035.0 517.2 1039.2 517.0 1041.2 516.9C1041.2 516.0 1041.8 514.2 1042.1 513.3C1039.5 513.7 1035.2 514.0 1032.3 514.0C1029.4 514.0 1027.0 513.8 1025.3 512.7C1030.9 509.0 1036.7 503.5 1040.3 498.3ZM1045.0 517.7L1048.5 517.7L1048.5 498.3L1045.0 498.3ZM1045.5 493.4C1046.7 494.7 1048.2 496.5 1048.7 497.7L1051.5 496.0C1050.9 494.7 1049.4 493.0 1048.1 491.7ZM1054.3 507.4L1059.7 507.4L1059.7 510.0L1054.3 510.0ZM1054.3 502.1L1059.7 502.1L1059.7 504.7L1054.3 504.7ZM1051.3 512.7L1062.8 512.7L1062.8 499.4L1051.3 499.4ZM1069.2 492.9L1052.5 492.9L1052.5 496.0L1065.7 496.0L1065.7 514.1C1065.7 514.4 1065.7 514.6 1065.3 514.6C1065.0 514.6 1063.9 514.6 1063.0 514.5C1063.4 515.4 1063.9 516.6 1064 517.5C1065.7 517.5 1067.1 517.5 1068.0 517.0C1068.9 516.4 1069.2 515.7 1069.2 514.1Z " clip-path="url(#satori_cp-id-1-0-1-1)" mask="url(#satori_om-id-1-0-1-1)"/></svg>