<svg width="1200" height="630" viewBox="0 0 1200 630" xmlns="http://www.w3.org/2000/svg"><rect x="0" y="0" width="1200" height="630" fill="#fefbfb"/><defs><clipPath id="satori_bc-id-0"><path x="105" y="39" width="1056" height="504" d="M109,39 h1048 a4,4 0 0 1 4,4 v496 a4,4 0 0 1 -4,4 h-1048 a4,4 0 0 1 -4,-4 v-496 a4,4 0 0 1 4,-4"/></clipPath></defs><g opacity="0.9"><path x="105" y="39" width="1056" height="504" fill="#ecebeb" d="M109,39 h1048 a4,4 0 0 1 4,4 v496 a4,4 0 0 1 -4,4 h-1048 a4,4 0 0 1 -4,-4 v-496 a4,4 0 0 1 4,-4"/><path width="1056" height="504" clip-path="url(#satori_bc-id-0)" fill="none" stroke="#000" stroke-width="8" d="M106.172,40.172 A4,4 0 0 1 109,39 h1048 a4,4 0 0 1 4,4 v496 a4,4 0 0 1 -4,4 h-1048 a4,4 0 0 1 -4,-4 v-496 A4,4 0 0 1 106.172,40.172"/></g><defs><clipPath id="satori_bc-id-1"><path x="72" y="63" width="1056" height="504" d="M76,63 h1048 a4,4 0 0 1 4,4 v496 a4,4 0 0 1 -4,4 h-1048 a4,4 0 0 1 -4,-4 v-496 a4,4 0 0 1 4,-4"/></clipPath></defs><path x="72" y="63" width="1056" height="504" fill="#fefbfb" d="M76,63 h1048 a4,4 0 0 1 4,4 v496 a4,4 0 0 1 -4,4 h-1048 a4,4 0 0 1 -4,-4 v-496 a4,4 0 0 1 4,-4"/><path width="1056" height="504" clip-path="url(#satori_bc-id-1)" fill="none" stroke="#000" stroke-width="8" d="M73.172,64.172 A4,4 0 0 1 76,63 h1048 a4,4 0 0 1 4,4 v496 a4,4 0 0 1 -4,4 h-1048 a4,4 0 0 1 -4,-4 v-496 A4,4 0 0 1 73.172,64.172"/><clipPath id="satori_cp-id-1-0-0"><rect x="128" y="103" width="944" height="104"/></clipPath><mask id="satori_om-id-1-0-0"><rect x="128" y="103" width="944" height="104" fill="#fff"/></mask><path fill="black" d="M157.4 181.9C164.9 181.9 171.1 179.0 174.7 175.4L174.7 151.4L155.8 151.4L155.8 160.1L165.2 160.1L165.2 170.6C163.7 171.9 161.1 172.6 158.6 172.6C148.1 172.6 142.8 165.7 142.8 154.1C142.8 142.6 149.0 135.7 157.8 135.7C162.6 135.7 165.7 137.6 168.3 140.2L173.9 133.4C170.5 129.9 165.2 126.6 157.4 126.6C143.3 126.6 131.9 136.9 131.9 154.4C131.9 172.2 143.0 181.9 157.4 181.9ZM185.3 180.8L195.9 180.8L195.9 140.5L185.3 140.5ZM190.6 134.0C194.2 134.0 196.8 131.7 196.8 128.2C196.8 124.8 194.2 122.5 190.6 122.5C187.0 122.5 184.4 124.8 184.4 128.2C184.4 131.7 187.0 134.0 190.6 134.0ZM222.0 181.9C225.5 181.9 228.3 181.1 230.5 180.3L228.7 172.6C227.6 173.1 226.1 173.5 224.8 173.5C221.2 173.5 219.3 171.3 219.3 166.7L219.3 148.9L229.2 148.9L229.2 140.5L219.3 140.5L219.3 129.7L210.5 129.7L209.3 140.5L203.0 141.0L203.0 148.9L208.7 148.9L208.7 166.7C208.7 175.7 212.4 181.9 222.0 181.9ZM272.1 156.2L272.1 140.7L288.4 140.7L288.4 156.2ZM246.9 156.2L246.9 140.7L263.1 140.7L263.1 156.2ZM272.1 132.3L272.1 119.9L263.1 119.9L263.1 132.3L238.2 132.3L238.2 168.6L246.9 168.6L246.9 164.6L263.1 164.6L263.1 187.1L272.1 187.1L272.1 164.6L288.4 164.6L288.4 168.2L297.4 168.2L297.4 132.3ZM317.0 172.1L317.0 158.0L328.4 158.0L328.4 172.1ZM328.4 150.6L317.0 150.6L317.0 138.9L328.4 138.9ZM351.3 131.0C352.4 127.9 353.4 124.9 354.2 121.8L345.9 119.9C343.9 128.4 340.4 137.1 336.2 143.1L336.2 131.5L325.1 131.5C326.3 128.4 327.6 124.8 328.8 121.2L319.4 119.9C319.2 123.2 318.3 127.9 317.4 131.5L309.2 131.5L309.2 185.0L317.0 185.0L317.0 179.7L336.2 179.7L336.2 146.1C338.2 147.4 340.6 149.0 341.8 150.1C344.0 147.0 346.2 143.0 348.1 138.7L363.5 138.7C362.7 164.1 361.8 174.9 359.7 177.2C358.8 178.2 358.0 178.5 356.5 178.5C354.7 178.5 350.4 178.5 345.8 178.0C347.3 180.4 348.5 184.0 348.6 186.4C352.9 186.5 357.2 186.6 359.9 186.2C362.8 185.7 364.8 185.0 366.8 182.3C369.8 178.5 370.6 167.0 371.5 134.8C371.6 133.8 371.6 131.0 371.6 131.0ZM359.6 163.8C357.4 159.6 352.6 152.8 349.0 147.8L342.3 151.6C345.9 156.9 350.3 163.9 352.4 168.2ZM378.7 148.2L378.7 157.4L444.9 157.4L444.9 148.2ZM479.2 187.0L488.1 187.0L488.1 143.0L479.2 143.0ZM483.7 119.8C476.3 132.0 463.3 140.8 449.6 145.9C452.1 148.3 454.5 151.7 455.9 154.3C466.3 149.5 476.2 142.5 484.0 133.5C495.3 145.2 504.2 150.5 512.0 154.4C513.3 151.5 516.0 148.2 518.4 146.2C510.0 143.0 500.2 137.7 489.2 126.8C489.9 125.7 490.7 124.5 491.4 123.5ZM547.9 153.6L542.4 155.1L542.4 142.0L547.8 142.0L547.8 133.9L542.4 133.9L542.4 119.9L534.2 119.9L534.2 133.9L531.3 133.9C531.6 131.5 531.8 129.2 532.0 126.8L525.3 125.6C524.8 134.3 523.6 143.6 521.7 149.4C523.4 150.1 526.5 151.5 528.0 152.6C528.8 149.7 529.5 146.1 530.3 142.0L534.2 142.0L534.2 157.4C529.8 158.5 525.9 159.5 522.7 160.2L524.5 168.9L534.2 165.9L534.2 187.1L542.4 187.1L542.4 163.4L548.6 161.5ZM589.2 148.1L589.2 140.2L573.4 140.2L573.4 134.0L586.2 134.0L586.2 126.3L573.4 126.3L573.4 119.9L565.2 119.9L565.2 126.3L552.8 126.3L552.8 134.0L565.2 134.0L565.2 140.2L548.6 140.2L548.6 148.1L573.3 148.1L573.3 154.6L550.1 154.6L550.1 162.5L558.6 162.5L552.6 166.3C555.6 169.8 559.1 174.5 560.5 177.6L567.1 173.2C565.4 170.1 561.8 165.7 558.8 162.5L573.3 162.5L573.3 177.4C573.3 178.3 573.0 178.5 571.8 178.6C570.7 178.6 566.9 178.6 563.5 178.5C564.5 180.8 565.6 184.5 566.0 187.0C571.2 187.0 575.2 186.8 577.9 185.5C580.7 184.2 581.5 181.9 581.5 177.5L581.5 162.5L588.5 162.5L588.5 154.6L581.5 154.6L581.5 148.1ZM661.2 157.7L661.2 150.0L646.0 150.0L646.0 140.2L658.8 140.2L658.8 132.5L646.0 132.5L646.0 120.1L637.8 120.1L637.8 132.5L633.3 132.5C633.9 130.1 634.4 127.6 634.8 125.1L627.0 123.8C626.2 129.7 624.8 135.6 622.6 140.2L622.8 138.5L617.9 137.4L616.5 137.6L609.1 137.6C609.5 135.5 610.0 133.4 610.5 131.2L623.2 131.2L623.2 123.4L595.5 123.4L595.5 131.2L602.7 131.2C600.9 141.4 597.8 150.7 593.1 156.9C594.7 158.5 597.3 161.8 598.2 163.5C601.8 158.7 604.6 152.3 606.9 145.3L614.5 145.3C613.9 149.3 613.3 153.1 612.3 156.4C610.3 155.1 608.2 153.8 606.4 152.8L602.0 159.5C604.2 160.9 607.0 162.8 609.3 164.5C605.9 171.8 601.0 176.8 594.4 180.1C596.1 181.3 598.8 184.5 599.9 186.3C611.6 180.0 619.0 167.4 622.0 145.8C623.6 146.8 625.6 148.0 626.6 148.9C628.3 146.5 629.8 143.6 630.9 140.2L637.8 140.2L637.8 150.0L621.9 150.0L621.9 157.7L634.4 157.7C630.1 165.3 623.4 172.2 616.3 176.1C618.2 177.7 620.8 180.8 622.1 182.7C628.0 178.8 633.5 172.9 637.8 166.0L637.8 187.3L646.0 187.3L646.0 165.5C649.0 172.1 652.7 178.1 656.9 182.1C658.3 179.9 661.0 176.9 662.9 175.4C657.6 171.5 652.7 164.8 649.4 157.7ZM669.4 180.8L680.0 180.8L680.0 153.1C683.0 150.2 685.1 148.6 688.4 148.6C692.3 148.6 694.1 150.8 694.1 157.0L694.1 180.8L704.6 180.8L704.6 155.7C704.6 145.6 700.9 139.5 692.2 139.5C686.7 139.5 682.8 142.4 679.5 145.4L680.0 137.9L680.0 123.4L669.4 123.4ZM725.5 181.9C730.1 181.9 734.1 179.6 737.6 176.5L737.9 176.5L738.6 180.8L747.3 180.8L747.3 157.3C747.3 145.6 742.0 139.5 731.8 139.5C725.5 139.5 719.7 141.9 714.9 144.8L718.8 151.8C722.5 149.7 726.1 148.0 729.8 148.0C734.8 148.0 736.5 151.0 736.8 155.0C720.5 156.7 713.5 161.3 713.5 169.9C713.5 176.7 718.3 181.9 725.5 181.9ZM728.9 173.6C725.8 173.6 723.6 172.2 723.6 169.0C723.6 165.4 726.9 162.7 736.8 161.5L736.8 169.6C734.2 172.1 731.9 173.6 728.9 173.6ZM769.6 181.9C780.1 181.9 785.6 176.2 785.6 169.1C785.6 161.6 779.7 159.0 774.4 156.9C770.2 155.4 766.4 154.3 766.4 151.3C766.4 149.0 768.2 147.4 771.8 147.4C774.8 147.4 777.6 148.8 780.5 150.9L785.2 144.5C781.9 142.0 777.4 139.5 771.5 139.5C762.3 139.5 756.5 144.6 756.5 151.8C756.5 158.6 762.2 161.7 767.3 163.6C771.5 165.3 775.7 166.7 775.7 169.7C775.7 172.2 773.9 173.9 769.9 173.9C766.1 173.9 762.7 172.4 759.1 169.5L754.3 176.2C758.3 179.5 764.2 181.9 769.6 181.9ZM793.7 180.8L804.3 180.8L804.3 153.1C807.2 150.2 809.3 148.6 812.6 148.6C816.6 148.6 818.3 150.8 818.3 157.0L818.3 180.8L828.9 180.8L828.9 155.7C828.9 145.6 825.2 139.5 816.5 139.5C811.0 139.5 807.0 142.4 803.8 145.4L804.3 137.9L804.3 123.4L793.7 123.4Z " clip-path="url(#satori_cp-id-1-0-0)" mask="url(#satori_om-id-1-0-0)"/><path fill="black" d="M137.3 515.6C140.8 515.6 143.9 512.6 143.9 507.4C143.9 502.8 141.7 499.7 137.8 499.7C136.1 499.7 134.4 500.6 133.0 501.8L133.1 499.1L133.1 493.0L130.6 493.0L130.6 515.3L132.6 515.3L132.8 513.7L133.0 513.7C134.3 514.9 135.9 515.6 137.3 515.6ZM136.8 513.5C135.8 513.5 134.5 513.1 133.1 511.9L133.1 503.9C134.6 502.6 135.9 501.8 137.2 501.8C140.1 501.8 141.2 504.1 141.2 507.5C141.2 511.2 139.4 513.5 136.8 513.5ZM148.0 521.8C151.0 521.8 152.6 519.5 153.7 516.5L159.4 500.1L156.9 500.1L154.2 508.5C153.8 509.9 153.3 511.4 152.9 512.8L152.8 512.8C152.3 511.4 151.8 509.8 151.3 508.5L148.2 500.1L145.6 500.1L151.7 515.3L151.3 516.4C150.7 518.3 149.6 519.7 147.9 519.7C147.5 519.7 147.0 519.6 146.7 519.5L146.2 521.5C146.7 521.7 147.3 521.8 148.0 521.8Z "/><clipPath id="satori_cp-id-1-0-1-0-2"><rect x="173" y="485" width="57" height="40"/></clipPath><mask id="satori_om-id-1-0-1-0-2"><rect x="173" y="485" width="57" height="40" fill="#fff"/></mask><path fill="black" d="M181.7 515.7C186.5 515.7 189.4 512.8 189.4 509.4C189.4 506.4 187.7 504.8 185.2 503.8L182.5 502.6C180.7 501.9 179.2 501.4 179.2 499.9C179.2 498.5 180.4 497.7 182.2 497.7C183.9 497.7 185.3 498.3 186.6 499.4L188.7 496.8C187.0 495.1 184.6 494.2 182.2 494.2C178.0 494.2 175.0 496.8 175.0 500.2C175.0 503.2 177.1 504.9 179.2 505.7L182.0 506.9C183.9 507.7 185.1 508.2 185.1 509.7C185.1 511.2 184.0 512.1 181.8 512.1C180 512.1 178.0 511.2 176.6 509.8L174.2 512.6C176.2 514.6 179.0 515.7 181.7 515.7ZM193.0 515.3L196.7 515.3L196.7 506.6C196.7 504.7 196.4 501.8 196.2 499.8L196.3 499.8L198.0 504.7L201.2 513.4L203.6 513.4L206.8 504.7L208.4 499.8L208.6 499.8C208.4 501.8 208.1 504.7 208.1 506.6L208.1 515.3L211.8 515.3L211.8 494.5L207.2 494.5L203.8 504.2C203.4 505.5 203.0 506.9 202.5 508.2L202.4 508.2C202.0 506.9 201.6 505.5 201.1 504.2L197.6 494.5L193.0 494.5ZM221.4 515.7C225.9 515.7 227.9 512.5 227.9 508.6L227.9 494.5L223.7 494.5L223.7 508.2C223.7 511.1 222.8 512.1 220.9 512.1C219.8 512.1 218.7 511.4 217.9 509.9L215.0 512.0C216.4 514.4 218.4 515.7 221.4 515.7Z " clip-path="url(#satori_cp-id-1-0-1-0-2)" mask="url(#satori_om-id-1-0-1-0-2)"/><clipPath id="satori_cp-id-1-0-1-1"><rect x="959" y="485" width="112" height="40"/></clipPath><mask id="satori_om-id-1-0-1-1"><rect x="959" y="485" width="112" height="40" fill="#fff"/></mask><path fill="black" d="M985.5 499.3L985.5 496.0L974.0 496.0L976.0 495.2C975.5 494.1 974.7 492.5 974.0 491.2L970.7 492.4C971.2 493.5 971.9 494.9 972.4 496.0L960.5 496.0L960.5 499.3L967.6 499.3C967.3 505.2 966.8 511.5 960.1 515.1C961.0 515.8 962.0 516.9 962.5 517.8C967.5 514.9 969.6 510.6 970.6 505.9L979.4 505.9C979.0 510.9 978.5 513.3 977.8 513.9C977.4 514.2 977.0 514.3 976.4 514.3C975.5 514.3 973.6 514.3 971.7 514.1C972.3 515.0 972.8 516.4 972.9 517.4C974.8 517.5 976.6 517.5 977.7 517.3C979.0 517.2 979.9 517.0 980.7 516.0C981.8 514.8 982.4 511.7 982.9 504.1C983.0 503.7 983.1 502.7 983.1 502.7L971.0 502.7C971.2 501.5 971.2 500.4 971.3 499.3ZM991.1 504.1C992.9 506.2 995.0 509.1 995.8 511.0L998.9 509.1C998.0 507.2 995.8 504.4 993.9 502.5ZM1013.7 497.2L1007.4 497.2L1007.4 491.6L1003.8 491.6L1003.8 497.2L988.3 497.2L988.3 500.5L1003.8 500.5L1003.8 513.3C1003.8 513.9 1003.5 514.2 1002.8 514.2C1002.1 514.2 999.7 514.2 997.4 514.1C997.9 515.1 998.7 516.7 998.9 517.8C1001.8 517.8 1004.1 517.7 1005.5 517.1C1006.9 516.5 1007.4 515.6 1007.4 513.3L1007.4 500.5L1013.7 500.5ZM1037.7 496.6L1037.0 496.7L1030.5 496.7L1032.2 495.8C1031.5 494.6 1030.1 492.6 1029.0 491.2L1026.0 492.8C1026.8 494.0 1027.9 495.5 1028.6 496.7L1017.6 496.7L1017.6 500.0L1034.5 500.0C1031.5 503.8 1026.7 508.1 1022.1 510.9L1022.0 510.9C1020.4 510.9 1018.2 512.4 1016.2 514.5L1018.6 517.7C1019.8 515.9 1021.0 514.0 1021.9 514.0C1022.5 514.0 1023.4 514.9 1024.6 515.6C1026.5 516.8 1028.8 517.2 1032.2 517.2C1035.0 517.2 1039.2 517.0 1041.2 516.9C1041.2 516.0 1041.8 514.2 1042.1 513.3C1039.5 513.7 1035.2 514.0 1032.3 514.0C1029.4 514.0 1027.0 513.8 1025.3 512.7C1030.9 509.0 1036.7 503.5 1040.3 498.3ZM1045.0 517.7L1048.5 517.7L1048.5 498.3L1045.0 498.3ZM1045.5 493.4C1046.7 494.7 1048.2 496.5 1048.7 497.7L1051.5 496.0C1050.9 494.7 1049.4 493.0 1048.1 491.7ZM1054.3 507.4L1059.7 507.4L1059.7 510.0L1054.3 510.0ZM1054.3 502.1L1059.7 502.1L1059.7 504.7L1054.3 504.7ZM1051.3 512.7L1062.8 512.7L1062.8 499.4L1051.3 499.4ZM1069.2 492.9L1052.5 492.9L1052.5 496.0L1065.7 496.0L1065.7 514.1C1065.7 514.4 1065.7 514.6 1065.3 514.6C1065.0 514.6 1063.9 514.6 1063.0 514.5C1063.4 515.4 1063.9 516.6 1064 517.5C1065.7 517.5 1067.1 517.5 1068.0 517.0C1068.9 516.4 1069.2 515.7 1069.2 514.1Z " clip-path="url(#satori_cp-id-1-0-1-1)" mask="url(#satori_om-id-1-0-1-1)"/></svg>