<svg width="1200" height="630" viewBox="0 0 1200 630" xmlns="http://www.w3.org/2000/svg"><rect x="0" y="0" width="1200" height="630" fill="#fefbfb"/><defs><clipPath id="satori_bc-id-0"><path x="105" y="39" width="1056" height="504" d="M109,39 h1048 a4,4 0 0 1 4,4 v496 a4,4 0 0 1 -4,4 h-1048 a4,4 0 0 1 -4,-4 v-496 a4,4 0 0 1 4,-4"/></clipPath></defs><g opacity="0.9"><path x="105" y="39" width="1056" height="504" fill="#ecebeb" d="M109,39 h1048 a4,4 0 0 1 4,4 v496 a4,4 0 0 1 -4,4 h-1048 a4,4 0 0 1 -4,-4 v-496 a4,4 0 0 1 4,-4"/><path width="1056" height="504" clip-path="url(#satori_bc-id-0)" fill="none" stroke="#000" stroke-width="8" d="M106.172,40.172 A4,4 0 0 1 109,39 h1048 a4,4 0 0 1 4,4 v496 a4,4 0 0 1 -4,4 h-1048 a4,4 0 0 1 -4,-4 v-496 A4,4 0 0 1 106.172,40.172"/></g><defs><clipPath id="satori_bc-id-1"><path x="72" y="63" width="1056" height="504" d="M76,63 h1048 a4,4 0 0 1 4,4 v496 a4,4 0 0 1 -4,4 h-1048 a4,4 0 0 1 -4,-4 v-496 a4,4 0 0 1 4,-4"/></clipPath></defs><path x="72" y="63" width="1056" height="504" fill="#fefbfb" d="M76,63 h1048 a4,4 0 0 1 4,4 v496 a4,4 0 0 1 -4,4 h-1048 a4,4 0 0 1 -4,-4 v-496 a4,4 0 0 1 4,-4"/><path width="1056" height="504" clip-path="url(#satori_bc-id-1)" fill="none" stroke="#000" stroke-width="8" d="M73.172,64.172 A4,4 0 0 1 76,63 h1048 a4,4 0 0 1 4,4 v496 a4,4 0 0 1 -4,4 h-1048 a4,4 0 0 1 -4,-4 v-496 A4,4 0 0 1 73.172,64.172"/><clipPath id="satori_cp-id-1-0-0"><rect x="128" y="103" width="944" height="104"/></clipPath><mask id="satori_om-id-1-0-0"><rect x="128" y="103" width="944" height="104" fill="#fff"/></mask><path fill="black" d="M133.7 180.8L144.3 180.8L144.3 140.5L133.7 140.5ZM139.0 134.0C142.6 134.0 145.1 131.7 145.1 128.2C145.1 124.8 142.6 122.5 139.0 122.5C135.3 122.5 132.8 124.8 132.8 128.2C132.8 131.7 135.3 134.0 139.0 134.0ZM162.3 180.8L174.4 180.8L178.5 163.3C179.3 159.5 179.9 155.8 180.7 151.5L181.1 151.5C181.9 155.8 182.5 159.5 183.4 163.3L187.6 180.8L200.1 180.8L210.0 140.5L200.2 140.5L195.8 160.4C195.1 164.4 194.5 168.2 193.8 172.2L193.4 172.2C192.6 168.2 191.9 164.4 190.9 160.4L185.9 140.5L176.5 140.5L171.6 160.4C170.6 164.3 169.9 168.2 169.1 172.2L168.8 172.2C168.1 168.2 167.6 164.4 166.8 160.4L162.4 140.5L151.8 140.5ZM231.3 181.9C235.5 181.9 239.5 179.6 242.5 176.7L242.8 176.7L243.6 180.8L252.1 180.8L252.1 123.4L241.6 123.4L241.6 137.6L242.0 143.9C239.1 141.2 236.3 139.5 231.8 139.5C223.0 139.5 214.8 147.6 214.8 160.7C214.8 173.9 221.3 181.9 231.3 181.9ZM234.1 173.1C228.7 173.1 225.7 169.0 225.7 160.6C225.7 152.6 229.5 148.2 234.1 148.2C236.6 148.2 239.2 149.0 241.6 151.3L241.6 169.0C239.2 172.0 236.9 173.1 234.1 173.1ZM271.1 172.1L271.1 158.0L282.5 158.0L282.5 172.1ZM282.5 150.6L271.1 150.6L271.1 138.9L282.5 138.9ZM305.4 131.0C306.5 127.9 307.4 124.9 308.2 121.8L300.0 119.9C297.9 128.4 294.5 137.1 290.3 143.1L290.3 131.5L279.1 131.5C280.4 128.4 281.6 124.8 282.9 121.2L273.5 119.9C273.2 123.2 272.4 127.9 271.4 131.5L263.3 131.5L263.3 185.0L271.1 185.0L271.1 179.7L290.3 179.7L290.3 146.1C292.2 147.4 294.7 149.0 295.8 150.1C298.1 147.0 300.3 143.0 302.2 138.7L317.6 138.7C316.8 164.1 315.8 174.9 313.8 177.2C312.8 178.2 312.0 178.5 310.6 178.5C308.7 178.5 304.5 178.5 299.9 178.0C301.4 180.4 302.5 184.0 302.7 186.4C306.9 186.5 311.2 186.6 314.0 186.2C316.9 185.7 318.9 185.0 320.9 182.3C323.8 178.5 324.6 167.0 325.6 134.8C325.6 133.8 325.6 131.0 325.6 131.0ZM313.7 163.8C311.5 159.6 306.7 152.8 303.1 147.8L296.4 151.6C299.9 156.9 304.4 163.9 306.4 168.2ZM363.0 153.8L363.0 146.7L371.9 146.7L371.9 152.9L371.9 153.8ZM389.3 146.7L389.3 153.8L380.4 153.8L380.4 153.0L380.4 146.7ZM397.5 160.8L397.5 139.7L380.4 139.7L380.4 134.7L399.4 134.7L399.4 126.9L380.4 126.9L380.4 120.4L371.9 120.4L371.9 126.9L354.3 126.9C354.9 125.3 355.6 123.8 356.2 122.3L348.3 119.7C344.4 129.9 337.7 140.1 330.9 146.6C332.3 148.7 334.6 153.3 335.4 155.4C337.4 153.3 339.4 151.0 341.3 148.6L341.3 187.3L349.5 187.3L349.5 136.4C351.1 133.6 352.5 130.9 353.8 128.1L353.8 134.7L371.9 134.7L371.9 139.7L355.3 139.7L355.3 160.8L371.4 160.8C370.9 163.7 370.1 166.4 368.7 169.0C366.0 166.8 363.7 164.4 362.0 161.6L355.0 163.7C357.5 167.8 360.3 171.5 363.9 174.4C360.8 176.8 356.5 178.7 350.8 180.0C352.5 181.8 355.0 185.2 356.1 187.1C362.5 185.2 367.4 182.6 370.9 179.4C377.6 183.2 385.8 185.7 395.5 187.0C396.6 184.7 398.8 181.2 400.6 179.3C390.9 178.5 382.6 176.5 376.0 173.3C378.1 169.5 379.4 165.2 379.9 160.8ZM442.9 158.0L442.9 149.2L458.0 149.2L458.0 158.0ZM420.5 158.0C420.6 155.4 420.7 152.8 420.7 150.5L420.7 149.2L434.2 149.2L434.2 158.0ZM434.2 132.8L434.2 141.2L420.7 141.2L420.7 132.8ZM458.0 141.2L442.9 141.2L442.9 132.8L458.0 132.8ZM466.5 124.7L412.2 124.7L412.2 150.4C412.2 160.5 411.5 173.3 403.7 181.9C405.6 182.9 409.1 185.9 410.5 187.5C415.6 181.9 418.2 173.9 419.5 166.1L434.2 166.1L434.2 186.2L442.9 186.2L442.9 166.1L458.0 166.1L458.0 176.9C458.0 178.2 457.5 178.6 456.2 178.6C454.9 178.6 450.1 178.7 446.1 178.5C447.2 180.7 448.5 184.4 448.8 186.7C455.3 186.8 459.7 186.6 462.7 185.2C465.5 183.9 466.5 181.6 466.5 177.0ZM530.3 140.9C529.5 147.2 528.2 152.8 526.5 157.7C524.6 152.6 523.1 146.9 522.1 140.9ZM504.3 149.0L502.8 149.5L498.8 149.5C499.9 148.3 500.9 147.1 501.9 145.8L510.3 145.8C509.2 147.7 508.1 149.5 506.9 151.0ZM495.1 133.6L500.8 133.6C499.7 135.3 498.7 136.9 497.6 138.4L495.1 138.4ZM543.4 140.9L543.4 133.0L524.3 133.0C525.3 129.2 526.2 125.2 526.9 121.2L518.2 119.9C516.8 128.7 514.5 137.3 511.2 144.1L511.2 138.4L507.2 138.4C510.0 134.0 512.5 129.1 514.5 123.8L506.6 121.7C505.4 125.0 503.8 128.4 502.0 131.5L502.0 126.4L495.1 126.4L495.1 119.9L487.1 119.9L487.1 126.4L478.9 126.4L478.9 133.6L487.1 133.6L487.1 138.4L476.2 138.4L476.2 145.8L491.2 145.8C489.9 147.1 488.6 148.3 487.2 149.5L482.5 149.5L482.5 153.1C480.2 154.6 477.7 156.0 475.3 157.3C476.9 158.8 479.9 162.1 481.0 163.8C484.9 161.6 488.6 159.0 492.0 156.1L496.6 156.1C494.6 158.0 492.5 159.8 490.6 161.1L490.6 165.2C485.1 165.7 480.0 166.0 476.0 166.3L476.9 173.9C480.8 173.6 485.6 173.1 490.6 172.7L490.6 178.8C490.6 179.5 490.3 179.7 489.4 179.8C488.4 179.8 485.4 179.8 482.5 179.7C483.6 181.8 484.7 184.7 485.0 187.0C489.5 187.0 492.9 186.9 495.4 185.7C497.9 184.6 498.6 182.6 498.6 178.9L498.6 172.1C502.8 171.7 507.2 171.3 511.5 170.9L511.5 163.6C507.2 163.9 502.8 164.3 498.6 164.6L498.6 162.6C502.1 159.8 505.7 156.5 508.5 153.3C510.3 154.8 512.3 156.7 513.3 157.7C514.4 156.2 515.5 154.5 516.6 152.8C517.9 158.0 519.5 162.9 521.5 167.3C517.8 172.6 512.8 176.7 506.0 179.6C507.6 181.4 510.1 185.4 510.9 187.4C517.2 184.2 522.1 180.3 526.2 175.7C529.3 180.3 533.4 184.2 538.3 187.2C539.6 184.8 542.2 181.4 544.2 179.7C538.9 177.0 534.7 172.9 531.4 167.7C535.2 160.4 537.7 151.6 539.2 140.9ZM603.6 139.7L586.8 139.7L586.8 129.7L603.6 129.7ZM611.9 122.5L578.9 122.5L578.9 146.9L611.9 146.9ZM576.8 159.5C575.4 158.0 569.5 151.7 567.6 150.1L567.6 148.0L575.3 148.0L575.3 140.0L567.6 140.0L567.6 129.9C570.7 129.1 573.5 128.1 576.1 127.1L570.4 120.6C564.9 123.1 556.0 125.2 548.1 126.6C549.1 128.3 550.1 131.2 550.5 133.1C553.3 132.8 556.3 132.2 559.3 131.7L559.3 140.0L549.0 140.0L549.0 148.0L558.1 148.0C555.5 155.0 551.5 162.6 547.5 167.3C548.8 169.5 550.6 173.0 551.4 175.4C554.2 171.8 557.0 166.7 559.3 161.2L559.3 187.0L567.6 187.0L567.6 159.0C569.3 161.6 571.0 164.4 571.9 166.2ZM599.4 178.0L599.4 171.7L612.1 171.7L612.1 164.5L599.4 164.5L599.4 158.5L613.9 158.5L613.9 151.2L576.6 151.2L576.6 158.5L590.9 158.5L590.9 164.5L578.3 164.5L578.3 171.7L590.9 171.7L590.9 178.0L573.8 178.0L573.8 185.5L615.4 185.5L615.4 178.0Z " clip-path="url(#satori_cp-id-1-0-0)" mask="url(#satori_om-id-1-0-0)"/><path fill="black" d="M137.3 515.6C140.8 515.6 143.9 512.6 143.9 507.4C143.9 502.8 141.7 499.7 137.8 499.7C136.1 499.7 134.4 500.6 133.0 501.8L133.1 499.1L133.1 493.0L130.6 493.0L130.6 515.3L132.6 515.3L132.8 513.7L133.0 513.7C134.3 514.9 135.9 515.6 137.3 515.6ZM136.8 513.5C135.8 513.5 134.5 513.1 133.1 511.9L133.1 503.9C134.6 502.6 135.9 501.8 137.2 501.8C140.1 501.8 141.2 504.1 141.2 507.5C141.2 511.2 139.4 513.5 136.8 513.5ZM148.0 521.8C151.0 521.8 152.6 519.5 153.7 516.5L159.4 500.1L156.9 500.1L154.2 508.5C153.8 509.9 153.3 511.4 152.9 512.8L152.8 512.8C152.3 511.4 151.8 509.8 151.3 508.5L148.2 500.1L145.6 500.1L151.7 515.3L151.3 516.4C150.7 518.3 149.6 519.7 147.9 519.7C147.5 519.7 147.0 519.6 146.7 519.5L146.2 521.5C146.7 521.7 147.3 521.8 148.0 521.8Z "/><clipPath id="satori_cp-id-1-0-1-0-2"><rect x="173" y="485" width="57" height="40"/></clipPath><mask id="satori_om-id-1-0-1-0-2"><rect x="173" y="485" width="57" height="40" fill="#fff"/></mask><path fill="black" d="M181.7 515.7C186.5 515.7 189.4 512.8 189.4 509.4C189.4 506.4 187.7 504.8 185.2 503.8L182.5 502.6C180.7 501.9 179.2 501.4 179.2 499.9C179.2 498.5 180.4 497.7 182.2 497.7C183.9 497.7 185.3 498.3 186.6 499.4L188.7 496.8C187.0 495.1 184.6 494.2 182.2 494.2C178.0 494.2 175.0 496.8 175.0 500.2C175.0 503.2 177.1 504.9 179.2 505.7L182.0 506.9C183.9 507.7 185.1 508.2 185.1 509.7C185.1 511.2 184.0 512.1 181.8 512.1C180 512.1 178.0 511.2 176.6 509.8L174.2 512.6C176.2 514.6 179.0 515.7 181.7 515.7ZM193.0 515.3L196.7 515.3L196.7 506.6C196.7 504.7 196.4 501.8 196.2 499.8L196.3 499.8L198.0 504.7L201.2 513.4L203.6 513.4L206.8 504.7L208.4 499.8L208.6 499.8C208.4 501.8 208.1 504.7 208.1 506.6L208.1 515.3L211.8 515.3L211.8 494.5L207.2 494.5L203.8 504.2C203.4 505.5 203.0 506.9 202.5 508.2L202.4 508.2C202.0 506.9 201.6 505.5 201.1 504.2L197.6 494.5L193.0 494.5ZM221.4 515.7C225.9 515.7 227.9 512.5 227.9 508.6L227.9 494.5L223.7 494.5L223.7 508.2C223.7 511.1 222.8 512.1 220.9 512.1C219.8 512.1 218.7 511.4 217.9 509.9L215.0 512.0C216.4 514.4 218.4 515.7 221.4 515.7Z " clip-path="url(#satori_cp-id-1-0-1-0-2)" mask="url(#satori_om-id-1-0-1-0-2)"/><clipPath id="satori_cp-id-1-0-1-1"><rect x="959" y="485" width="112" height="40"/></clipPath><mask id="satori_om-id-1-0-1-1"><rect x="959" y="485" width="112" height="40" fill="#fff"/></mask><path fill="black" d="M985.5 499.3L985.5 496.0L974.0 496.0L976.0 495.2C975.5 494.1 974.7 492.5 974.0 491.2L970.7 492.4C971.2 493.5 971.9 494.9 972.4 496.0L960.5 496.0L960.5 499.3L967.6 499.3C967.3 505.2 966.8 511.5 960.1 515.1C961.0 515.8 962.0 516.9 962.5 517.8C967.5 514.9 969.6 510.6 970.6 505.9L979.4 505.9C979.0 510.9 978.5 513.3 977.8 513.9C977.4 514.2 977.0 514.3 976.4 514.3C975.5 514.3 973.6 514.3 971.7 514.1C972.3 515.0 972.8 516.4 972.9 517.4C974.8 517.5 976.6 517.5 977.7 517.3C979.0 517.2 979.9 517.0 980.7 516.0C981.8 514.8 982.4 511.7 982.9 504.1C983.0 503.7 983.1 502.7 983.1 502.7L971.0 502.7C971.2 501.5 971.2 500.4 971.3 499.3ZM991.1 504.1C992.9 506.2 995.0 509.1 995.8 511.0L998.9 509.1C998.0 507.2 995.8 504.4 993.9 502.5ZM1013.7 497.2L1007.4 497.2L1007.4 491.6L1003.8 491.6L1003.8 497.2L988.3 497.2L988.3 500.5L1003.8 500.5L1003.8 513.3C1003.8 513.9 1003.5 514.2 1002.8 514.2C1002.1 514.2 999.7 514.2 997.4 514.1C997.9 515.1 998.7 516.7 998.9 517.8C1001.8 517.8 1004.1 517.7 1005.5 517.1C1006.9 516.5 1007.4 515.6 1007.4 513.3L1007.4 500.5L1013.7 500.5ZM1037.7 496.6L1037.0 496.7L1030.5 496.7L1032.2 495.8C1031.5 494.6 1030.1 492.6 1029.0 491.2L1026.0 492.8C1026.8 494.0 1027.9 495.5 1028.6 496.7L1017.6 496.7L1017.6 500.0L1034.5 500.0C1031.5 503.8 1026.7 508.1 1022.1 510.9L1022.0 510.9C1020.4 510.9 1018.2 512.4 1016.2 514.5L1018.6 517.7C1019.8 515.9 1021.0 514.0 1021.9 514.0C1022.5 514.0 1023.4 514.9 1024.6 515.6C1026.5 516.8 1028.8 517.2 1032.2 517.2C1035.0 517.2 1039.2 517.0 1041.2 516.9C1041.2 516.0 1041.8 514.2 1042.1 513.3C1039.5 513.7 1035.2 514.0 1032.3 514.0C1029.4 514.0 1027.0 513.8 1025.3 512.7C1030.9 509.0 1036.7 503.5 1040.3 498.3ZM1045.0 517.7L1048.5 517.7L1048.5 498.3L1045.0 498.3ZM1045.5 493.4C1046.7 494.7 1048.2 496.5 1048.7 497.7L1051.5 496.0C1050.9 494.7 1049.4 493.0 1048.1 491.7ZM1054.3 507.4L1059.7 507.4L1059.7 510.0L1054.3 510.0ZM1054.3 502.1L1059.7 502.1L1059.7 504.7L1054.3 504.7ZM1051.3 512.7L1062.8 512.7L1062.8 499.4L1051.3 499.4ZM1069.2 492.9L1052.5 492.9L1052.5 496.0L1065.7 496.0L1065.7 514.1C1065.7 514.4 1065.7 514.6 1065.3 514.6C1065.0 514.6 1063.9 514.6 1063.0 514.5C1063.4 515.4 1063.9 516.6 1064 517.5C1065.7 517.5 1067.1 517.5 1068.0 517.0C1068.9 516.4 1069.2 515.7 1069.2 514.1Z " clip-path="url(#satori_cp-id-1-0-1-1)" mask="url(#satori_om-id-1-0-1-1)"/></svg>