<svg width="1200" height="630" viewBox="0 0 1200 630" xmlns="http://www.w3.org/2000/svg"><rect x="0" y="0" width="1200" height="630" fill="#fefbfb"/><defs><clipPath id="satori_bc-id-0"><path x="105" y="39" width="1056" height="504" d="M109,39 h1048 a4,4 0 0 1 4,4 v496 a4,4 0 0 1 -4,4 h-1048 a4,4 0 0 1 -4,-4 v-496 a4,4 0 0 1 4,-4"/></clipPath></defs><g opacity="0.9"><path x="105" y="39" width="1056" height="504" fill="#ecebeb" d="M109,39 h1048 a4,4 0 0 1 4,4 v496 a4,4 0 0 1 -4,4 h-1048 a4,4 0 0 1 -4,-4 v-496 a4,4 0 0 1 4,-4"/><path width="1056" height="504" clip-path="url(#satori_bc-id-0)" fill="none" stroke="#000" stroke-width="8" d="M106.172,40.172 A4,4 0 0 1 109,39 h1048 a4,4 0 0 1 4,4 v496 a4,4 0 0 1 -4,4 h-1048 a4,4 0 0 1 -4,-4 v-496 A4,4 0 0 1 106.172,40.172"/></g><defs><clipPath id="satori_bc-id-1"><path x="72" y="63" width="1056" height="504" d="M76,63 h1048 a4,4 0 0 1 4,4 v496 a4,4 0 0 1 -4,4 h-1048 a4,4 0 0 1 -4,-4 v-496 a4,4 0 0 1 4,-4"/></clipPath></defs><path x="72" y="63" width="1056" height="504" fill="#fefbfb" d="M76,63 h1048 a4,4 0 0 1 4,4 v496 a4,4 0 0 1 -4,4 h-1048 a4,4 0 0 1 -4,-4 v-496 a4,4 0 0 1 4,-4"/><path width="1056" height="504" clip-path="url(#satori_bc-id-1)" fill="none" stroke="#000" stroke-width="8" d="M73.172,64.172 A4,4 0 0 1 76,63 h1048 a4,4 0 0 1 4,4 v496 a4,4 0 0 1 -4,4 h-1048 a4,4 0 0 1 -4,-4 v-496 A4,4 0 0 1 73.172,64.172"/><clipPath id="satori_cp-id-1-0-0"><rect x="128" y="103" width="944" height="104"/></clipPath><mask id="satori_om-id-1-0-0"><rect x="128" y="103" width="944" height="104" fill="#fff"/></mask><path fill="black" d="M134.6 180.8L166.9 180.8L166.9 171.9L145.2 171.9L145.2 127.5L134.6 127.5ZM175.3 180.8L185.9 180.8L185.9 140.5L175.3 140.5ZM180.6 134.0C184.2 134.0 186.8 131.7 186.8 128.2C186.8 124.8 184.2 122.5 180.6 122.5C177.0 122.5 174.4 124.8 174.4 128.2C174.4 131.7 177.0 134.0 180.6 134.0ZM197.2 180.8L207.8 180.8L207.8 153.1C210.7 150.2 212.8 148.6 216.1 148.6C220.1 148.6 221.8 150.8 221.8 157.0L221.8 180.8L232.4 180.8L232.4 155.7C232.4 145.6 228.7 139.5 219.9 139.5C214.5 139.5 210.4 142.4 206.8 145.9L206.6 145.9L205.8 140.5L197.2 140.5ZM255.4 181.9C260.8 181.9 264.7 179.2 268.2 175.1L268.5 175.1L269.3 180.8L277.9 180.8L277.9 140.5L267.3 140.5L267.3 167.7C264.6 171.3 262.4 172.8 259.1 172.8C255.2 172.8 253.5 170.6 253.5 164.4L253.5 140.5L242.9 140.5L242.9 165.7C242.9 175.8 246.7 181.9 255.4 181.9ZM284.7 180.8L295.6 180.8L299.4 173.4C300.5 171.1 301.6 168.7 302.7 166.4L303.1 166.4C304.4 168.7 305.7 171.1 307.0 173.4L311.5 180.8L322.8 180.8L310.2 161.0L322.0 140.5L311.1 140.5L307.7 147.7C306.8 150.0 305.7 152.3 304.8 154.5L304.5 154.5C303.2 152.3 302.0 150.0 300.9 147.7L296.8 140.5L285.5 140.5L297.3 159.8ZM392.8 143.5L376.6 143.5L376.6 136.1L389.9 136.1L389.9 128.4L376.6 128.4L376.6 120.2L367.8 120.2L367.8 128.4L354.4 128.4L354.4 136.1L367.8 136.1L367.8 143.5L352.2 143.5L352.2 151.4L392.8 151.4ZM351.0 150.4L343.9 152.2L343.9 141.5L351.3 141.5L351.3 133.5L343.9 133.5L343.9 119.9L335.5 119.9L335.5 133.5L327.1 133.5L327.1 141.5L335.5 141.5L335.5 154.2C332.0 155.1 328.9 155.8 326.2 156.2L328.4 164.4L335.5 162.6L335.5 177.5C335.5 178.5 335.1 178.8 334.1 178.8C333.2 178.8 330.2 178.8 327.4 178.8C328.4 180.9 329.5 184.3 329.7 186.5C334.9 186.5 338.3 186.3 340.7 185.0C343.1 183.7 343.9 181.6 343.9 177.5L343.9 160.5C346.6 159.8 349.3 159.0 352.0 158.2ZM376.6 176.7L376.6 168.1L390.9 168.1L390.9 160.3L376.6 160.3L376.6 153.6L367.8 153.6L367.8 160.3L353.5 160.3L353.5 168.1L367.8 168.1L367.8 176.7L348.8 176.7L348.8 184.9L393.7 184.9L393.7 176.7ZM453.3 141.2L435.1 141.2L435.1 163.3C435.1 171.6 437.4 173.9 445.4 173.9L455.6 173.9C462.6 173.9 464.7 170.8 465.6 160.1C463.4 159.6 459.9 158.2 458.1 156.9C457.8 164.9 457.4 166.2 454.9 166.2L446.5 166.2C443.7 166.2 443.2 165.9 443.2 163.3L443.2 148.5L453.3 148.5L453.3 150.4L461.6 150.4L461.6 122.6L434.4 122.6L434.4 130.1L453.3 130.1ZM421.5 163.8L431.7 163.8L431.7 156.4L421.5 156.4L421.5 148.6L432.3 148.6L432.3 141.2L419.9 141.2L419.9 134.4L430.5 134.4L430.5 127.1L419.9 127.1L419.9 120.0L411.9 120.0L411.9 127.1L401.2 127.1L401.2 134.4L411.9 134.4L411.9 141.2L399.2 141.2L399.2 148.6L413.6 148.6L413.6 171.0C411.8 168.9 410.3 166.2 409.2 162.7C409.3 159.7 409.4 156.6 409.5 153.4L401.7 152.8C401.5 165.2 400.8 177.1 397.3 184.4C399.2 185.2 402.9 187.0 404.4 188.0C406.0 184.5 407.1 180.3 407.8 175.4C413.4 183.5 422.0 185.2 435.4 185.2L463.2 185.2C463.7 182.7 465.1 178.8 466.4 176.8C459.9 177.1 440.8 177.1 435.4 177.0C429.8 177.0 425.3 176.7 421.5 175.7ZM492.8 149.2L503.3 149.2L503.3 141.2L492.8 141.2L492.8 130.2C496.6 129.4 500.4 128.4 503.6 127.2L498.0 120.5C491.5 123.1 480.9 125.4 471.6 126.7C472.5 128.6 473.5 131.5 473.9 133.4C477.2 133.0 480.7 132.5 484.2 131.9L484.2 141.2L471.4 141.2L471.4 149.2L482.1 149.2C479.3 157.1 474.7 165.4 469.8 170.6C471.2 172.7 473.3 176.1 474.1 178.6C477.9 174.4 481.3 168.2 484.2 161.4L484.2 187.0L492.8 187.0L492.8 160.5C495.2 163.9 497.5 167.5 498.9 169.9L503.8 162.8C502.2 160.8 495.7 153.3 492.8 150.4ZM513.6 169.8L513.6 134.8L525.1 134.8L525.1 169.8ZM505.1 126.6L505.1 183.7L513.6 183.7L513.6 178.0L525.1 178.0L525.1 183.2L533.9 183.2L533.9 126.6ZM608.7 145.6L608.7 137.3L590.0 137.3L590.0 121.0L581.5 121.0L581.5 137.3L563.2 137.3L563.2 145.6L578.1 145.6C573.9 155.9 567.4 165.9 560.3 171.7L560.3 138.2C563.2 133.3 565.7 128.0 567.7 123.0L559.2 120.2C555.2 131.0 548.3 141.3 541.0 147.9C542.5 150.0 545.1 154.8 546.0 156.9C548.0 155.0 549.9 152.8 551.9 150.4L551.9 187.0L560.3 187.0L560.3 172.6C562.2 174.3 564.8 177.0 566.1 178.9C572.0 173.5 577.3 165.8 581.5 157.1L581.5 187.1L590.0 187.1L590.0 155.6C593.8 164.7 598.9 173.0 604.5 178.5C605.9 176.3 608.8 173.2 610.9 171.7C604.1 165.8 597.8 155.9 593.7 145.6ZM630.6 131.4L630.6 138.7L624.2 138.7L624.2 131.4ZM624.2 145.9L630.6 145.9L630.6 153.3L624.2 153.3ZM624.2 168.2L624.2 160.5L630.6 160.5L630.6 168.2ZM638.6 175.7L638.6 123.9L616.4 123.9L616.4 181.5L624.2 181.5L624.2 175.7ZM650.6 153.5L650.6 145.7L658.7 145.7C658.8 148.4 658.9 151.0 659.1 153.5ZM669.9 130.8L669.9 137.9L650.6 137.9L650.6 130.8ZM680.7 161.5L680.7 153.5L667.3 153.5C667.1 151.0 667.1 148.4 667.0 145.7L678.4 145.7L678.4 123.0L642.4 123.0L642.4 173.6C642.4 177.4 639.6 180.1 637.8 181.4C639.1 182.6 641.3 185.7 642.0 187.3C643.7 186.2 646.5 185.3 661.2 181.6C660.9 179.6 660.7 176.2 660.8 173.9L650.6 176.1L650.6 161.5L659.9 161.5C661.7 176.0 665.6 186.4 673.2 186.4C678.7 186.4 681.2 183.8 682.3 173.2C680.2 172.5 677.4 170.8 675.7 169.3C675.5 175.3 675.0 178.3 673.8 178.3C671.4 178.3 669.2 171.4 668 161.5ZM697.2 172.1L697.2 158.0L708.7 158.0L708.7 172.1ZM708.7 150.6L697.2 150.6L697.2 138.9L708.7 138.9ZM731.6 131.0C732.7 127.9 733.6 124.9 734.4 121.8L726.2 119.9C724.1 128.4 720.6 137.1 716.5 143.1L716.5 131.5L705.3 131.5C706.5 128.4 707.8 124.8 709.0 121.2L699.7 119.9C699.4 123.2 698.5 127.9 697.6 131.5L689.5 131.5L689.5 185.0L697.2 185.0L697.2 179.7L716.5 179.7L716.5 146.1C718.4 147.4 720.8 149.0 722 150.1C724.2 147.0 726.5 143.0 728.3 138.7L743.7 138.7C743.0 164.1 742.0 174.9 739.9 177.2C739.0 178.2 738.2 178.5 736.8 178.5C734.9 178.5 730.6 178.5 726.0 178.0C727.5 180.4 728.7 184.0 728.8 186.4C733.1 186.5 737.4 186.6 740.1 186.2C743.0 185.7 745.0 185.0 747.1 182.3C750.0 178.5 750.8 167.0 751.7 134.8C751.8 133.8 751.8 131.0 751.8 131.0ZM739.9 163.8C737.6 159.6 732.9 152.8 729.3 147.8L722.6 151.6C726.1 156.9 730.6 163.9 732.6 168.2ZM770.5 176.9L770.5 131.2L822.9 131.2L822.9 123.0L762.1 123.0L762.1 185.1L824.7 185.1L824.7 176.9ZM818.0 167.2C814.4 163.3 809.0 158.4 803 153.4C807.8 148.2 812.1 142.6 815.7 136.7L807.6 133.5C804.6 138.6 800.9 143.5 796.6 148.1C791.2 143.6 785.6 139.4 781.0 135.7L775.0 141.0C779.9 144.8 785.4 149.3 790.7 153.9C784.9 159.1 778.6 163.7 772.0 167.1C774.0 168.7 777.2 172.0 778.6 173.7C784.9 169.9 791.1 165.1 797.0 159.5C802.8 164.7 808.0 169.7 811.3 173.6ZM855.6 140.4L841.7 140.4L841.7 130.5L855.6 130.5ZM863.8 123.0L834.0 123.0L834.0 148.0L863.8 148.0ZM850.7 154.0C850.8 152.5 850.9 151.0 851.0 149.5L842.9 149.5C842.8 151.0 842.7 152.5 842.7 154.0L831.9 154.0L831.9 161.7L842.0 161.7C840.8 170.1 837.8 176.6 829.7 181.0C831.4 182.4 833.7 185.4 834.8 187.4C845.0 181.8 848.6 172.9 850.0 161.7L857.1 161.7C856.6 172.2 856.0 176.4 855.1 177.6C854.4 178.3 853.9 178.5 852.9 178.5C851.7 178.5 849.4 178.5 846.9 178.2C848.2 180.4 849.1 183.8 849.2 186.3C852.5 186.4 855.4 186.3 857.2 186.0C859.4 185.7 860.8 185.0 862.3 183.2C864.2 180.8 864.8 173.9 865.5 157.3C865.6 156.2 865.6 154.0 865.6 154.0ZM879.4 128.6L871.1 128.6L871.1 169.1L879.4 169.1ZM886.1 121.3L886.1 176.8C886.1 178.0 885.7 178.5 884.4 178.5C883.1 178.5 879.0 178.5 874.9 178.3C876.1 180.8 877.3 184.7 877.7 187.2C883.9 187.2 888.1 186.9 890.9 185.5C893.6 184.0 894.6 181.6 894.6 176.9L894.6 121.3Z " clip-path="url(#satori_cp-id-1-0-0)" mask="url(#satori_om-id-1-0-0)"/><path fill="black" d="M137.3 515.6C140.8 515.6 143.9 512.6 143.9 507.4C143.9 502.8 141.7 499.7 137.8 499.7C136.1 499.7 134.4 500.6 133.0 501.8L133.1 499.1L133.1 493.0L130.6 493.0L130.6 515.3L132.6 515.3L132.8 513.7L133.0 513.7C134.3 514.9 135.9 515.6 137.3 515.6ZM136.8 513.5C135.8 513.5 134.5 513.1 133.1 511.9L133.1 503.9C134.6 502.6 135.9 501.8 137.2 501.8C140.1 501.8 141.2 504.1 141.2 507.5C141.2 511.2 139.4 513.5 136.8 513.5ZM148.0 521.8C151.0 521.8 152.6 519.5 153.7 516.5L159.4 500.1L156.9 500.1L154.2 508.5C153.8 509.9 153.3 511.4 152.9 512.8L152.8 512.8C152.3 511.4 151.8 509.8 151.3 508.5L148.2 500.1L145.6 500.1L151.7 515.3L151.3 516.4C150.7 518.3 149.6 519.7 147.9 519.7C147.5 519.7 147.0 519.6 146.7 519.5L146.2 521.5C146.7 521.7 147.3 521.8 148.0 521.8Z "/><clipPath id="satori_cp-id-1-0-1-0-2"><rect x="173" y="485" width="57" height="40"/></clipPath><mask id="satori_om-id-1-0-1-0-2"><rect x="173" y="485" width="57" height="40" fill="#fff"/></mask><path fill="black" d="M181.7 515.7C186.5 515.7 189.4 512.8 189.4 509.4C189.4 506.4 187.7 504.8 185.2 503.8L182.5 502.6C180.7 501.9 179.2 501.4 179.2 499.9C179.2 498.5 180.4 497.7 182.2 497.7C183.9 497.7 185.3 498.3 186.6 499.4L188.7 496.8C187.0 495.1 184.6 494.2 182.2 494.2C178.0 494.2 175.0 496.8 175.0 500.2C175.0 503.2 177.1 504.9 179.2 505.7L182.0 506.9C183.9 507.7 185.1 508.2 185.1 509.7C185.1 511.2 184.0 512.1 181.8 512.1C180 512.1 178.0 511.2 176.6 509.8L174.2 512.6C176.2 514.6 179.0 515.7 181.7 515.7ZM193.0 515.3L196.7 515.3L196.7 506.6C196.7 504.7 196.4 501.8 196.2 499.8L196.3 499.8L198.0 504.7L201.2 513.4L203.6 513.4L206.8 504.7L208.4 499.8L208.6 499.8C208.4 501.8 208.1 504.7 208.1 506.6L208.1 515.3L211.8 515.3L211.8 494.5L207.2 494.5L203.8 504.2C203.4 505.5 203.0 506.9 202.5 508.2L202.4 508.2C202.0 506.9 201.6 505.5 201.1 504.2L197.6 494.5L193.0 494.5ZM221.4 515.7C225.9 515.7 227.9 512.5 227.9 508.6L227.9 494.5L223.7 494.5L223.7 508.2C223.7 511.1 222.8 512.1 220.9 512.1C219.8 512.1 218.7 511.4 217.9 509.9L215.0 512.0C216.4 514.4 218.4 515.7 221.4 515.7Z " clip-path="url(#satori_cp-id-1-0-1-0-2)" mask="url(#satori_om-id-1-0-1-0-2)"/><clipPath id="satori_cp-id-1-0-1-1"><rect x="959" y="485" width="112" height="40"/></clipPath><mask id="satori_om-id-1-0-1-1"><rect x="959" y="485" width="112" height="40" fill="#fff"/></mask><path fill="black" d="M985.5 499.3L985.5 496.0L974.0 496.0L976.0 495.2C975.5 494.1 974.7 492.5 974.0 491.2L970.7 492.4C971.2 493.5 971.9 494.9 972.4 496.0L960.5 496.0L960.5 499.3L967.6 499.3C967.3 505.2 966.8 511.5 960.1 515.1C961.0 515.8 962.0 516.9 962.5 517.8C967.5 514.9 969.6 510.6 970.6 505.9L979.4 505.9C979.0 510.9 978.5 513.3 977.8 513.9C977.4 514.2 977.0 514.3 976.4 514.3C975.5 514.3 973.6 514.3 971.7 514.1C972.3 515.0 972.8 516.4 972.9 517.4C974.8 517.5 976.6 517.5 977.7 517.3C979.0 517.2 979.9 517.0 980.7 516.0C981.8 514.8 982.4 511.7 982.9 504.1C983.0 503.7 983.1 502.7 983.1 502.7L971.0 502.7C971.2 501.5 971.2 500.4 971.3 499.3ZM991.1 504.1C992.9 506.2 995.0 509.1 995.8 511.0L998.9 509.1C998.0 507.2 995.8 504.4 993.9 502.5ZM1013.7 497.2L1007.4 497.2L1007.4 491.6L1003.8 491.6L1003.8 497.2L988.3 497.2L988.3 500.5L1003.8 500.5L1003.8 513.3C1003.8 513.9 1003.5 514.2 1002.8 514.2C1002.1 514.2 999.7 514.2 997.4 514.1C997.9 515.1 998.7 516.7 998.9 517.8C1001.8 517.8 1004.1 517.7 1005.5 517.1C1006.9 516.5 1007.4 515.6 1007.4 513.3L1007.4 500.5L1013.7 500.5ZM1037.7 496.6L1037.0 496.7L1030.5 496.7L1032.2 495.8C1031.5 494.6 1030.1 492.6 1029.0 491.2L1026.0 492.8C1026.8 494.0 1027.9 495.5 1028.6 496.7L1017.6 496.7L1017.6 500.0L1034.5 500.0C1031.5 503.8 1026.7 508.1 1022.1 510.9L1022.0 510.9C1020.4 510.9 1018.2 512.4 1016.2 514.5L1018.6 517.7C1019.8 515.9 1021.0 514.0 1021.9 514.0C1022.5 514.0 1023.4 514.9 1024.6 515.6C1026.5 516.8 1028.8 517.2 1032.2 517.2C1035.0 517.2 1039.2 517.0 1041.2 516.9C1041.2 516.0 1041.8 514.2 1042.1 513.3C1039.5 513.7 1035.2 514.0 1032.3 514.0C1029.4 514.0 1027.0 513.8 1025.3 512.7C1030.9 509.0 1036.7 503.5 1040.3 498.3ZM1045.0 517.7L1048.5 517.7L1048.5 498.3L1045.0 498.3ZM1045.5 493.4C1046.7 494.7 1048.2 496.5 1048.7 497.7L1051.5 496.0C1050.9 494.7 1049.4 493.0 1048.1 491.7ZM1054.3 507.4L1059.7 507.4L1059.7 510.0L1054.3 510.0ZM1054.3 502.1L1059.7 502.1L1059.7 504.7L1054.3 504.7ZM1051.3 512.7L1062.8 512.7L1062.8 499.4L1051.3 499.4ZM1069.2 492.9L1052.5 492.9L1052.5 496.0L1065.7 496.0L1065.7 514.1C1065.7 514.4 1065.7 514.6 1065.3 514.6C1065.0 514.6 1063.9 514.6 1063.0 514.5C1063.4 515.4 1063.9 516.6 1064 517.5C1065.7 517.5 1067.1 517.5 1068.0 517.0C1068.9 516.4 1069.2 515.7 1069.2 514.1Z " clip-path="url(#satori_cp-id-1-0-1-1)" mask="url(#satori_om-id-1-0-1-1)"/></svg>