<svg width="1200" height="630" viewBox="0 0 1200 630" xmlns="http://www.w3.org/2000/svg"><rect x="0" y="0" width="1200" height="630" fill="#fefbfb"/><defs><clipPath id="satori_bc-id-0"><path x="105" y="39" width="1056" height="504" d="M109,39 h1048 a4,4 0 0 1 4,4 v496 a4,4 0 0 1 -4,4 h-1048 a4,4 0 0 1 -4,-4 v-496 a4,4 0 0 1 4,-4"/></clipPath></defs><g opacity="0.9"><path x="105" y="39" width="1056" height="504" fill="#ecebeb" d="M109,39 h1048 a4,4 0 0 1 4,4 v496 a4,4 0 0 1 -4,4 h-1048 a4,4 0 0 1 -4,-4 v-496 a4,4 0 0 1 4,-4"/><path width="1056" height="504" clip-path="url(#satori_bc-id-0)" fill="none" stroke="#000" stroke-width="8" d="M106.172,40.172 A4,4 0 0 1 109,39 h1048 a4,4 0 0 1 4,4 v496 a4,4 0 0 1 -4,4 h-1048 a4,4 0 0 1 -4,-4 v-496 A4,4 0 0 1 106.172,40.172"/></g><defs><clipPath id="satori_bc-id-1"><path x="72" y="63" width="1056" height="504" d="M76,63 h1048 a4,4 0 0 1 4,4 v496 a4,4 0 0 1 -4,4 h-1048 a4,4 0 0 1 -4,-4 v-496 a4,4 0 0 1 4,-4"/></clipPath></defs><path x="72" y="63" width="1056" height="504" fill="#fefbfb" d="M76,63 h1048 a4,4 0 0 1 4,4 v496 a4,4 0 0 1 -4,4 h-1048 a4,4 0 0 1 -4,-4 v-496 a4,4 0 0 1 4,-4"/><path width="1056" height="504" clip-path="url(#satori_bc-id-1)" fill="none" stroke="#000" stroke-width="8" d="M73.172,64.172 A4,4 0 0 1 76,63 h1048 a4,4 0 0 1 4,4 v496 a4,4 0 0 1 -4,4 h-1048 a4,4 0 0 1 -4,-4 v-496 A4,4 0 0 1 73.172,64.172"/><clipPath id="satori_cp-id-1-0-0"><rect x="128" y="103" width="944" height="104"/></clipPath><mask id="satori_om-id-1-0-0"><rect x="128" y="103" width="944" height="104" fill="#fff"/></mask><path fill="black" d="M134.6 180.8L145.2 180.8L145.2 161.9L152.3 161.9C163.8 161.9 172.9 156.4 172.9 144.3C172.9 131.7 163.9 127.5 152.0 127.5L134.6 127.5ZM145.2 153.5L145.2 136.0L151.3 136.0C158.6 136.0 162.5 138.1 162.5 144.3C162.5 150.4 159.0 153.5 151.6 153.5ZM205.5 181.9C212.9 181.9 219.2 179.0 222.8 175.4L222.8 151.4L203.8 151.4L203.8 160.1L213.2 160.1L213.2 170.6C211.7 171.9 209.1 172.6 206.6 172.6C196.1 172.6 190.8 165.7 190.8 154.1C190.8 142.6 197.0 135.7 205.8 135.7C210.7 135.7 213.7 137.6 216.3 140.2L222.0 133.4C218.5 129.9 213.2 126.6 205.5 126.6C191.3 126.6 179.9 136.9 179.9 154.4C179.9 172.2 191 181.9 205.5 181.9ZM234.2 180.8L244.9 180.8L244.9 161.9L252.0 161.9C263.4 161.9 272.6 156.4 272.6 144.3C272.6 131.7 263.5 127.5 251.7 127.5L234.2 127.5ZM244.9 153.5L244.9 136.0L250.9 136.0C258.2 136.0 262.1 138.1 262.1 144.3C262.1 150.4 258.6 153.5 251.3 153.5ZM316.4 173.5L316.4 136.3L340.5 136.3L340.5 127.4L283.0 127.4L283.0 136.3L306.6 136.3L306.6 173.5L279.1 173.5L279.1 182.1L344.6 182.1L344.6 173.5ZM365.8 120.2C362.2 130.4 356.0 140.6 349.4 147.1C350.9 149.2 353.4 154.1 354.2 156.2C355.6 154.6 357.1 152.8 358.6 151.0L358.6 187.0L367.3 187.0L367.3 137.7C369.9 132.9 372.3 127.8 374.2 122.7ZM417.4 139.7L417.4 131.6L389.5 131.6C390.9 128.6 392.0 125.7 393.0 122.7L384.8 120.6C381.5 130.9 375.8 141.2 369.5 147.7C371.3 149.1 374.7 152.1 376.0 153.7C379.3 150.0 382.6 145.1 385.5 139.7L388.2 139.7L388.2 187.1L397.0 187.1L397.0 171.1L416.6 171.1L416.6 163.2L397.0 163.2L397.0 155.1L415.6 155.1L415.6 147.3L397.0 147.3L397.0 139.7ZM436.3 130.8L487.9 130.8L487.9 123.0L427.9 123.0L427.9 143.8C427.9 154.9 427.4 170.6 421.5 181.3C423.6 182.1 427.3 184.2 429.0 185.5C435.3 173.9 436.3 155.9 436.3 143.8ZM445.4 166.2C442.7 170.9 438.2 176.3 434.1 179.8C436.2 180.9 439.6 183.2 441.3 184.4C445.2 180.6 450.1 174.3 453.6 168.8ZM449.4 153.0L474.2 153.0L474.2 157.7L449.4 157.7ZM449.4 142.4L474.2 142.4L474.2 147.0L449.4 147.0ZM483.0 164.1L483.0 136.0L463.7 136.0C464.6 134.8 465.5 133.4 466.3 132.1L456.0 130.9C455.5 132.4 454.7 134.2 453.8 136.0L441.1 136.0L441.1 164.1L457.8 164.1L457.8 178.5C457.8 179.3 457.5 179.6 456.4 179.6C455.5 179.6 451.9 179.6 448.8 179.5C449.8 181.6 450.8 184.7 451.1 187.0C456.2 187.0 460.0 187.0 462.7 185.8C465.4 184.7 466.1 182.6 466.1 178.7L466.1 164.1ZM469.5 169.7C473.4 174.4 478.7 180.9 481.2 184.7L488.6 180.6C485.8 176.7 480.2 170.5 476.3 166.2ZM517.5 164.6C515.2 165.4 512.8 166.2 510.5 166.9L510.5 152.5L516.9 152.5L516.9 144.6L510.5 144.6L510.5 132.0L518.2 132.0L518.2 124.0L494.4 124.0L494.4 132.0L502.3 132.0L502.3 144.6L495.1 144.6L495.1 152.5L502.3 152.5L502.3 169.4C499.0 170.3 496.1 171.1 493.5 171.8L495.5 180.5C502.4 178.3 511.0 175.5 519.0 172.7ZM528.6 142.9L536.0 142.9L536.0 149.1L528.6 149.1ZM528.6 130.2L536.0 130.2L536.0 136.2L528.6 136.2ZM550.4 136.2L543.2 136.2L543.2 130.2L550.4 130.2ZM550.4 149.1L543.2 149.1L543.2 142.9L550.4 142.9ZM544.0 177.1L544.0 170.3L559.3 170.3L559.3 162.6L544.0 162.6L544.0 156.4L558.5 156.4L558.5 122.9L520.9 122.9L520.9 156.4L535.3 156.4L535.3 162.6L520.4 162.6L520.4 170.3L535.3 170.3L535.3 177.1L515.4 177.1L515.4 184.9L561.7 184.9L561.7 177.1ZM587.4 131.2C584.8 128.3 579.4 123.8 575.3 120.8L569.9 126.3C573.9 129.6 579.2 134.4 581.6 137.5ZM632.9 162.8L616.8 162.8L616.8 155.8L629.6 155.8L629.6 148.0L616.8 148.0L616.8 141.0L631.6 141.0L631.6 133.2L625.0 133.2C626.7 129.8 628.5 126.0 630.1 122.2L621.4 119.6C620.3 123.8 618.1 129.2 616.1 133.2L604.1 133.2L609.3 131.2C608.4 128.1 605.8 123.5 603.6 120.1L595.9 122.7C597.9 126.0 599.9 130.1 600.9 133.2L592.5 133.2L592.5 141.0L608.2 141.0L608.2 148.0L594.8 148.0L594.8 155.8L608.2 155.8L608.2 162.8L590.9 162.8L590.9 169.6C590.4 168.3 590.0 167.0 589.7 165.9L584.0 170.3L584.0 142.0L566.1 142.0L566.1 150.2L575.8 150.2L575.8 172.9C575.8 176.7 573.8 179.4 572.2 180.7C573.5 181.9 575.8 185.0 576.6 186.7C577.9 185.0 580.0 183.0 592.5 173.3C592.1 172.6 591.8 171.8 591.4 170.8L608.2 170.8L608.2 187.1L616.8 187.1L616.8 170.8L632.9 170.8ZM670.6 143.8C672.2 145.1 673.8 147.5 674.5 149.2C675.0 149.0 675.5 148.7 676.0 148.4C675.0 153.8 673.2 159.3 670.6 163.1ZM659.5 170.5L663.6 170.5L663.6 178.2C663.6 178.9 663.4 179.1 662.7 179.1C662.3 179.1 661.0 179.1 659.5 179.0ZM649.7 164.2C649.9 161.8 649.9 159.5 649.9 157.3L649.9 156.9L653.9 156.9L653.9 164.2ZM658.7 133.0C658.1 134.9 657.3 136.7 656.7 138.3L649.1 138.3C649.9 136.6 650.8 134.9 651.6 133.0ZM649.9 144.6L653.9 144.6L653.9 150.8L649.9 150.8ZM663.6 156.9L663.6 164.2L659.5 164.2L659.5 156.9ZM659.5 150.8L659.5 144.6L663.6 144.6L663.6 150.8ZM705.2 167.6L694.4 167.6L694.4 161.1L703.6 161.1L703.6 153.9L694.4 153.9L694.4 148.2L686.3 148.2L686.3 153.9L682.0 153.9C682.4 152.4 682.8 150.8 683.0 149.3L676.6 148.1C683.8 144.0 686.6 138.0 687.7 130.5L695.7 130.5C695.4 136.5 695.1 138.9 694.4 139.7C693.9 140.4 693.3 140.5 692.4 140.5C691.5 140.5 689.6 140.5 687.3 140.2C688.4 142.1 689.1 144.9 689.2 147.2C692.2 147.2 694.9 147.2 696.5 146.9C698.4 146.6 699.7 146.1 700.9 144.6C702.4 142.8 703.1 137.7 703.4 126.3C703.5 125.3 703.6 123.5 703.6 123.5L672.0 123.5L672.0 130.5L680.0 130.5C679.0 135.8 676.8 140.2 670.6 142.9L670.6 138.3L664.1 138.3C665.6 135.4 667.1 132.1 668.1 129.4L663.0 126.2L661.9 126.6L654.0 126.6C654.6 124.9 655.1 123.2 655.5 121.5L647.9 119.9C646.0 128.4 642.2 136.7 637.3 142.0C638.8 143.0 641.4 145.1 642.9 146.6L642.9 157.3C642.9 165.4 642.5 176.0 637.7 183.4C639.3 184.2 642.4 186.2 643.7 187.3C646.8 182.7 648.3 176.6 649.1 170.5L653.9 170.5L653.9 182.6L659.5 182.6L659.5 180.1C660.3 182.0 660.9 184.4 661.2 186.2C664.3 186.2 666.6 186.0 668.4 184.7C670.2 183.5 670.6 181.4 670.6 178.3L670.6 163.5C672.3 164.3 675.2 165.7 676.6 166.7C677.6 165.1 678.6 163.2 679.5 161.1L686.3 161.1L686.3 167.6L672.7 167.6L672.7 174.9L686.3 174.9L686.3 187.0L694.4 187.0L694.4 174.9L705.2 174.9Z " clip-path="url(#satori_cp-id-1-0-0)" mask="url(#satori_om-id-1-0-0)"/><path fill="black" d="M137.3 515.6C140.8 515.6 143.9 512.6 143.9 507.4C143.9 502.8 141.7 499.7 137.8 499.7C136.1 499.7 134.4 500.6 133.0 501.8L133.1 499.1L133.1 493.0L130.6 493.0L130.6 515.3L132.6 515.3L132.8 513.7L133.0 513.7C134.3 514.9 135.9 515.6 137.3 515.6ZM136.8 513.5C135.8 513.5 134.5 513.1 133.1 511.9L133.1 503.9C134.6 502.6 135.9 501.8 137.2 501.8C140.1 501.8 141.2 504.1 141.2 507.5C141.2 511.2 139.4 513.5 136.8 513.5ZM148.0 521.8C151.0 521.8 152.6 519.5 153.7 516.5L159.4 500.1L156.9 500.1L154.2 508.5C153.8 509.9 153.3 511.4 152.9 512.8L152.8 512.8C152.3 511.4 151.8 509.8 151.3 508.5L148.2 500.1L145.6 500.1L151.7 515.3L151.3 516.4C150.7 518.3 149.6 519.7 147.9 519.7C147.5 519.7 147.0 519.6 146.7 519.5L146.2 521.5C146.7 521.7 147.3 521.8 148.0 521.8Z "/><clipPath id="satori_cp-id-1-0-1-0-2"><rect x="173" y="485" width="57" height="40"/></clipPath><mask id="satori_om-id-1-0-1-0-2"><rect x="173" y="485" width="57" height="40" fill="#fff"/></mask><path fill="black" d="M181.7 515.7C186.5 515.7 189.4 512.8 189.4 509.4C189.4 506.4 187.7 504.8 185.2 503.8L182.5 502.6C180.7 501.9 179.2 501.4 179.2 499.9C179.2 498.5 180.4 497.7 182.2 497.7C183.9 497.7 185.3 498.3 186.6 499.4L188.7 496.8C187.0 495.1 184.6 494.2 182.2 494.2C178.0 494.2 175.0 496.8 175.0 500.2C175.0 503.2 177.1 504.9 179.2 505.7L182.0 506.9C183.9 507.7 185.1 508.2 185.1 509.7C185.1 511.2 184.0 512.1 181.8 512.1C180 512.1 178.0 511.2 176.6 509.8L174.2 512.6C176.2 514.6 179.0 515.7 181.7 515.7ZM193.0 515.3L196.7 515.3L196.7 506.6C196.7 504.7 196.4 501.8 196.2 499.8L196.3 499.8L198.0 504.7L201.2 513.4L203.6 513.4L206.8 504.7L208.4 499.8L208.6 499.8C208.4 501.8 208.1 504.7 208.1 506.6L208.1 515.3L211.8 515.3L211.8 494.5L207.2 494.5L203.8 504.2C203.4 505.5 203.0 506.9 202.5 508.2L202.4 508.2C202.0 506.9 201.6 505.5 201.1 504.2L197.6 494.5L193.0 494.5ZM221.4 515.7C225.9 515.7 227.9 512.5 227.9 508.6L227.9 494.5L223.7 494.5L223.7 508.2C223.7 511.1 222.8 512.1 220.9 512.1C219.8 512.1 218.7 511.4 217.9 509.9L215.0 512.0C216.4 514.4 218.4 515.7 221.4 515.7Z " clip-path="url(#satori_cp-id-1-0-1-0-2)" mask="url(#satori_om-id-1-0-1-0-2)"/><clipPath id="satori_cp-id-1-0-1-1"><rect x="959" y="485" width="112" height="40"/></clipPath><mask id="satori_om-id-1-0-1-1"><rect x="959" y="485" width="112" height="40" fill="#fff"/></mask><path fill="black" d="M985.5 499.3L985.5 496.0L974.0 496.0L976.0 495.2C975.5 494.1 974.7 492.5 974.0 491.2L970.7 492.4C971.2 493.5 971.9 494.9 972.4 496.0L960.5 496.0L960.5 499.3L967.6 499.3C967.3 505.2 966.8 511.5 960.1 515.1C961.0 515.8 962.0 516.9 962.5 517.8C967.5 514.9 969.6 510.6 970.6 505.9L979.4 505.9C979.0 510.9 978.5 513.3 977.8 513.9C977.4 514.2 977.0 514.3 976.4 514.3C975.5 514.3 973.6 514.3 971.7 514.1C972.3 515.0 972.8 516.4 972.9 517.4C974.8 517.5 976.6 517.5 977.7 517.3C979.0 517.2 979.9 517.0 980.7 516.0C981.8 514.8 982.4 511.7 982.9 504.1C983.0 503.7 983.1 502.7 983.1 502.7L971.0 502.7C971.2 501.5 971.2 500.4 971.3 499.3ZM991.1 504.1C992.9 506.2 995.0 509.1 995.8 511.0L998.9 509.1C998.0 507.2 995.8 504.4 993.9 502.5ZM1013.7 497.2L1007.4 497.2L1007.4 491.6L1003.8 491.6L1003.8 497.2L988.3 497.2L988.3 500.5L1003.8 500.5L1003.8 513.3C1003.8 513.9 1003.5 514.2 1002.8 514.2C1002.1 514.2 999.7 514.2 997.4 514.1C997.9 515.1 998.7 516.7 998.9 517.8C1001.8 517.8 1004.1 517.7 1005.5 517.1C1006.9 516.5 1007.4 515.6 1007.4 513.3L1007.4 500.5L1013.7 500.5ZM1037.7 496.6L1037.0 496.7L1030.5 496.7L1032.2 495.8C1031.5 494.6 1030.1 492.6 1029.0 491.2L1026.0 492.8C1026.8 494.0 1027.9 495.5 1028.6 496.7L1017.6 496.7L1017.6 500.0L1034.5 500.0C1031.5 503.8 1026.7 508.1 1022.1 510.9L1022.0 510.9C1020.4 510.9 1018.2 512.4 1016.2 514.5L1018.6 517.7C1019.8 515.9 1021.0 514.0 1021.9 514.0C1022.5 514.0 1023.4 514.9 1024.6 515.6C1026.5 516.8 1028.8 517.2 1032.2 517.2C1035.0 517.2 1039.2 517.0 1041.2 516.9C1041.2 516.0 1041.8 514.2 1042.1 513.3C1039.5 513.7 1035.2 514.0 1032.3 514.0C1029.4 514.0 1027.0 513.8 1025.3 512.7C1030.9 509.0 1036.7 503.5 1040.3 498.3ZM1045.0 517.7L1048.5 517.7L1048.5 498.3L1045.0 498.3ZM1045.5 493.4C1046.7 494.7 1048.2 496.5 1048.7 497.7L1051.5 496.0C1050.9 494.7 1049.4 493.0 1048.1 491.7ZM1054.3 507.4L1059.7 507.4L1059.7 510.0L1054.3 510.0ZM1054.3 502.1L1059.7 502.1L1059.7 504.7L1054.3 504.7ZM1051.3 512.7L1062.8 512.7L1062.8 499.4L1051.3 499.4ZM1069.2 492.9L1052.5 492.9L1052.5 496.0L1065.7 496.0L1065.7 514.1C1065.7 514.4 1065.7 514.6 1065.3 514.6C1065.0 514.6 1063.9 514.6 1063.0 514.5C1063.4 515.4 1063.9 516.6 1064 517.5C1065.7 517.5 1067.1 517.5 1068.0 517.0C1068.9 516.4 1069.2 515.7 1069.2 514.1Z " clip-path="url(#satori_cp-id-1-0-1-1)" mask="url(#satori_om-id-1-0-1-1)"/></svg>