<svg width="1200" height="630" viewBox="0 0 1200 630" xmlns="http://www.w3.org/2000/svg"><rect x="0" y="0" width="1200" height="630" fill="#fefbfb"/><defs><clipPath id="satori_bc-id-0"><path x="105" y="39" width="1056" height="504" d="M109,39 h1048 a4,4 0 0 1 4,4 v496 a4,4 0 0 1 -4,4 h-1048 a4,4 0 0 1 -4,-4 v-496 a4,4 0 0 1 4,-4"/></clipPath></defs><g opacity="0.9"><path x="105" y="39" width="1056" height="504" fill="#ecebeb" d="M109,39 h1048 a4,4 0 0 1 4,4 v496 a4,4 0 0 1 -4,4 h-1048 a4,4 0 0 1 -4,-4 v-496 a4,4 0 0 1 4,-4"/><path width="1056" height="504" clip-path="url(#satori_bc-id-0)" fill="none" stroke="#000" stroke-width="8" d="M106.172,40.172 A4,4 0 0 1 109,39 h1048 a4,4 0 0 1 4,4 v496 a4,4 0 0 1 -4,4 h-1048 a4,4 0 0 1 -4,-4 v-496 A4,4 0 0 1 106.172,40.172"/></g><defs><clipPath id="satori_bc-id-1"><path x="72" y="63" width="1056" height="504" d="M76,63 h1048 a4,4 0 0 1 4,4 v496 a4,4 0 0 1 -4,4 h-1048 a4,4 0 0 1 -4,-4 v-496 a4,4 0 0 1 4,-4"/></clipPath></defs><path x="72" y="63" width="1056" height="504" fill="#fefbfb" d="M76,63 h1048 a4,4 0 0 1 4,4 v496 a4,4 0 0 1 -4,4 h-1048 a4,4 0 0 1 -4,-4 v-496 a4,4 0 0 1 4,-4"/><path width="1056" height="504" clip-path="url(#satori_bc-id-1)" fill="none" stroke="#000" stroke-width="8" d="M73.172,64.172 A4,4 0 0 1 76,63 h1048 a4,4 0 0 1 4,4 v496 a4,4 0 0 1 -4,4 h-1048 a4,4 0 0 1 -4,-4 v-496 A4,4 0 0 1 73.172,64.172"/><clipPath id="satori_cp-id-1-0-0"><rect x="128" y="103" width="944" height="209"/></clipPath><mask id="satori_om-id-1-0-0"><rect x="128" y="103" width="944" height="209" fill="#fff"/></mask><path fill="black" d="M150.5 181.9C162.8 181.9 170.0 174.4 170.0 165.7C170.0 158.0 165.8 153.9 159.3 151.3L152.3 148.3C147.8 146.5 144.1 145.1 144.1 141.3C144.1 137.8 147.0 135.7 151.7 135.7C156.1 135.7 159.6 137.3 163.0 140.1L168.4 133.4C164.1 129.0 157.9 126.6 151.7 126.6C140.9 126.6 133.3 133.3 133.3 142.0C133.3 149.7 138.7 154.1 144.1 156.3L151.2 159.3C155.9 161.3 159.2 162.6 159.2 166.5C159.2 170.3 156.2 172.6 150.7 172.6C146 172.6 141.0 170.3 137.1 166.7L131.0 174.1C136.2 179.0 143.3 181.9 150.5 181.9ZM195.8 181.9C200.2 181.9 205.1 180.3 209 177.0L204.8 170.0C202.5 171.8 199.8 173.2 196.9 173.2C191.1 173.2 186.9 168.3 186.9 160.7C186.9 153.1 191.1 148.2 197.3 148.2C199.5 148.2 201.4 149.1 203.4 150.8L208.4 144.0C205.5 141.5 201.7 139.5 196.7 139.5C185.7 139.5 176.1 147.3 176.1 160.7C176.1 174.1 184.6 181.9 195.8 181.9ZM225.6 181.9C230.2 181.9 234.3 179.6 237.8 176.5L238.1 176.5L238.8 180.8L247.4 180.8L247.4 157.3C247.4 145.6 242.2 139.5 232.0 139.5C225.6 139.5 219.9 141.9 215.1 144.8L218.9 151.8C222.7 149.7 226.3 148.0 230.0 148.0C235.0 148.0 236.7 151.0 236.9 155.0C220.7 156.7 213.7 161.3 213.7 169.9C213.7 176.7 218.4 181.9 225.6 181.9ZM229.1 173.6C226.0 173.6 223.8 172.2 223.8 169.0C223.8 165.4 227.1 162.7 236.9 161.5L236.9 169.6C234.3 172.1 232.1 173.6 229.1 173.6ZM268.2 181.9C270.7 181.9 272.4 181.4 273.7 180.9L272.4 173.1C271.6 173.2 271.4 173.2 270.9 173.2C269.9 173.2 268.8 172.4 268.8 170.0L268.8 123.4L258.2 123.4L258.2 169.5C258.2 177.0 260.8 181.9 268.2 181.9ZM298.5 181.9C303.5 181.9 308.6 180.1 312.5 177.4L308.9 170.9C306.1 172.7 303.2 173.7 299.9 173.7C293.9 173.7 289.6 170.3 288.7 163.6L313.5 163.6C313.8 162.7 314.0 160.8 314.0 158.7C314.0 147.7 308.3 139.5 297.2 139.5C287.6 139.5 278.4 147.7 278.4 160.7C278.4 174.0 287.2 181.9 298.5 181.9ZM288.6 156.6C289.4 150.8 293.1 147.7 297.3 147.7C302.5 147.7 305.0 151.2 305.0 156.6ZM329.2 180.8L341.3 180.8L345.4 163.3C346.2 159.5 346.8 155.8 347.6 151.5L348.0 151.5C348.8 155.8 349.4 159.5 350.3 163.3L354.5 180.8L367.0 180.8L376.9 140.5L367.1 140.5L362.7 160.4C362 164.4 361.4 168.2 360.7 172.2L360.3 172.2C359.5 168.2 358.8 164.4 357.8 160.4L352.8 140.5L343.4 140.5L338.5 160.4C337.5 164.3 336.8 168.2 336.0 172.2L335.7 172.2C335 168.2 334.5 164.4 333.7 160.4L329.3 140.5L318.7 140.5ZM393.7 181.9C398.3 181.9 402.3 179.6 405.8 176.5L406.1 176.5L406.9 180.8L415.5 180.8L415.5 157.3C415.5 145.6 410.2 139.5 400.0 139.5C393.7 139.5 387.9 141.9 383.2 144.8L387.0 151.8C390.7 149.7 394.3 148.0 398.1 148.0C403.0 148.0 404.8 151.0 405.0 155.0C388.7 156.7 381.7 161.3 381.7 169.9C381.7 176.7 386.5 181.9 393.7 181.9ZM397.1 173.6C394.0 173.6 391.8 172.2 391.8 169.0C391.8 165.4 395.1 162.7 405.0 161.5L405.0 169.6C402.4 172.1 400.2 173.6 397.1 173.6ZM429.8 197.0C438.8 197.0 443.1 191.6 446.7 182.1L461.0 140.5L450.8 140.5L445.3 159.2C444.4 163.0 443.4 166.9 442.4 170.6L442.1 170.6C440.9 166.7 439.9 162.8 438.7 159.2L432.3 140.5L421.6 140.5L437.3 180.1L436.6 182.5C435.4 186.0 433.1 188.6 429.0 188.6C428.1 188.6 426.9 188.3 426.2 188.1L424.3 196.3C425.9 196.8 427.4 197.0 429.8 197.0Z M486.8 180.8L497.5 180.8L497.5 127.5L486.8 127.5ZM510.6 180.8L521.3 180.8L521.3 161.9L528.4 161.9C539.8 161.9 549.0 156.4 549.0 144.3C549.0 131.7 539.9 127.5 528.1 127.5L510.6 127.5ZM521.3 153.5L521.3 136.0L527.3 136.0C534.7 136.0 538.5 138.1 538.5 144.3C538.5 150.4 535.0 153.5 527.7 153.5ZM568.0 180.8L580.7 180.8L597.0 127.5L586.2 127.5L579.3 153.5C577.6 159.4 576.5 164.7 574.8 170.7L574.4 170.7C572.7 164.7 571.6 159.4 569.9 153.5L562.9 127.5L551.7 127.5ZM618.8 154.8C623.4 154.8 626.4 157.7 626.4 164.0C626.4 170.6 623.1 173.9 619.1 173.9C614.6 173.9 611.0 170.1 610.0 160.4C612.5 156.4 615.9 154.8 618.8 154.8ZM619.3 181.9C628.4 181.9 636.0 174.9 636.0 164.0C636.0 152.6 629.7 147.3 620.8 147.3C617.3 147.3 612.7 149.5 609.8 153.1C610.3 139.7 615.3 135.1 621.4 135.1C624.5 135.1 627.8 136.8 629.6 138.9L635.2 132.6C632 129.3 627.3 126.6 620.8 126.6C610.0 126.6 600.2 135.1 600.2 154.9C600.2 173.7 609.2 181.9 619.3 181.9Z M672.5 181.9C683.0 181.9 688.6 176.2 688.6 169.1C688.6 161.6 682.7 159.0 677.4 156.9C673.1 155.4 669.4 154.3 669.4 151.3C669.4 149.0 671.1 147.4 674.8 147.4C677.7 147.4 680.5 148.8 683.4 150.9L688.2 144.5C684.8 142.0 680.3 139.5 674.5 139.5C665.3 139.5 659.4 144.6 659.4 151.8C659.4 158.6 665.1 161.7 670.2 163.6C674.5 165.3 678.7 166.7 678.7 169.7C678.7 172.2 676.9 173.9 672.8 173.9C669.1 173.9 665.6 172.4 662.0 169.5L657.2 176.2C661.2 179.5 667.1 181.9 672.5 181.9ZM714.2 181.9C719.2 181.9 724.3 180.1 728.3 177.4L724.7 170.9C721.8 172.7 718.9 173.7 715.6 173.7C709.6 173.7 705.3 170.3 704.4 163.6L729.3 163.6C729.6 162.7 729.8 160.8 729.8 158.7C729.8 147.7 724.0 139.5 712.9 139.5C703.4 139.5 694.1 147.7 694.1 160.7C694.1 174.0 702.9 181.9 714.2 181.9ZM704.3 156.6C705.1 150.8 708.8 147.7 713.1 147.7C718.3 147.7 720.7 151.2 720.7 156.6ZM738.5 180.8L749.1 180.8L749.1 156.8C751.3 151.0 755.1 148.9 758.3 148.9C759.9 148.9 761.1 149.1 762.5 149.5L764.3 140.4C763.1 139.9 761.8 139.5 759.6 139.5C755.4 139.5 751.1 142.4 748.1 147.7L747.9 147.7L747.1 140.5L738.5 140.5ZM780.0 180.8L792.2 180.8L805.7 140.5L795.5 140.5L789.6 160.6C788.5 164.6 787.4 168.8 786.4 172.9L786.0 172.9C784.9 168.8 783.8 164.6 782.8 160.6L776.9 140.5L766.2 140.5ZM829.4 181.9C834.3 181.9 839.4 180.1 843.4 177.4L839.8 170.9C836.9 172.7 834.0 173.7 830.7 173.7C824.7 173.7 820.4 170.3 819.6 163.6L844.4 163.6C844.7 162.7 844.9 160.8 844.9 158.7C844.9 147.7 839.1 139.5 828.1 139.5C818.5 139.5 809.3 147.7 809.3 160.7C809.3 174.0 818.0 181.9 829.4 181.9ZM819.4 156.6C820.2 150.8 824.0 147.7 828.2 147.7C833.4 147.7 835.8 151.2 835.8 156.6ZM853.6 180.8L864.2 180.8L864.2 156.8C866.4 151.0 870.2 148.9 873.4 148.9C875.1 148.9 876.2 149.1 877.7 149.5L879.5 140.4C878.2 139.9 876.9 139.5 874.7 139.5C870.5 139.5 866.2 142.4 863.3 147.7L863.0 147.7L862.3 140.5L853.6 140.5Z M935.6 160.4L935.6 152.8L951.5 152.8L951.5 160.4ZM910.9 160.4L910.9 152.8L926.6 152.8L926.6 160.4ZM926.6 137.6L926.6 144.9L910.9 144.9L910.9 137.6ZM951.5 137.6L951.5 144.9L935.6 144.9L935.6 137.6ZM935.6 129.4L935.6 119.8L926.6 119.8L926.6 129.4L902.4 129.4L902.4 172.4L910.9 172.4L910.9 168.6L926.6 168.6L926.6 187.0L935.6 187.0L935.6 168.6L951.5 168.6L951.5 172.1L960.5 172.1L960.5 129.4ZM990.3 131.7C987.8 128.6 982.6 124.1 978.7 120.9L973.2 126.1C977.0 129.6 982.1 134.6 984.4 137.7ZM986.8 169.9L986.8 142.0L969.8 142.0L969.8 150.2L978.6 150.2L978.6 172.4C978.6 175.7 976.5 178.2 975.0 179.3C976.4 180.8 978.5 184.4 979.2 186.5C980.4 184.7 982.7 182.7 995.8 172.6C994.9 170.8 993.6 167.5 993.0 165.2ZM1005.0 171.0L1005.0 166.9L1023.7 166.9L1023.7 171.0ZM1023.7 157.7L1023.7 161.4L1005.0 161.4L1005.0 157.7ZM1031.8 151.5L997.1 151.5L997.1 187.2L1005.0 187.2L1005.0 176.7L1023.7 176.7L1023.7 178.8C1023.7 179.6 1023.3 179.9 1022.4 179.9C1021.4 179.9 1018.0 180.0 1015.0 179.8C1016.0 181.9 1017.1 185.0 1017.4 187.0C1022.4 187.0 1025.9 187.0 1028.4 185.8C1031.1 184.7 1031.8 182.6 1031.8 178.9ZM1018.5 142.6L1018.5 139.5L1032.3 139.5L1032.3 133.8L1018.5 133.8L1018.5 130.9L1034.6 130.9L1034.6 124.8L1018.5 124.8L1018.5 119.9L1010.0 119.9L1010.0 124.8L994.4 124.8L994.4 130.9L1010.0 130.9L1010.0 133.8L996.3 133.8L996.3 139.5L1010.0 139.5L1010.0 142.6L992.2 142.6L992.2 148.7L1036.7 148.7L1036.7 142.6Z M154.6 236.4L169.4 236.4C168.1 242.3 166.5 248.5 165.2 252.8L182.9 252.8C180.5 259.8 176.8 265.5 172.2 270.3C163.6 262.8 158.1 252.4 154.6 239.9ZM187.9 244.4L186.4 244.8L176.5 244.8C177.8 239.4 178.9 233.2 179.8 227.7L134.3 227.7L134.3 236.4L145.6 236.4L145.6 241.0C145.6 252.8 144.2 271.1 129.9 283.4C131.8 285.0 134.9 288.6 136.2 290.9C146.7 281.6 151.3 269.7 153.3 258.6C156.4 265.4 160.3 271.2 165.3 276.2C160.3 279.6 154.6 282.2 148.4 283.9C150.1 285.6 152.3 289.1 153.3 291.4C160.3 289.1 166.7 286.0 172.3 281.9C177.8 285.8 184.4 288.7 192.3 290.8C193.6 288.3 196.1 284.5 198.1 282.7C190.9 281.1 184.7 278.7 179.5 275.6C186.2 268.4 191.1 259.0 193.9 246.8ZM233.2 258.1L233.2 251.0L242.0 251.0L242.0 257.2L242.0 258.1ZM259.5 251.0L259.5 258.1L250.5 258.1L250.5 257.2L250.5 251.0ZM267.7 265.0L267.7 244.0L250.5 244.0L250.5 239.0L269.6 239.0L269.6 231.2L250.5 231.2L250.5 224.6L242.0 224.6L242.0 231.2L224.5 231.2C225.1 229.6 225.8 228.1 226.4 226.6L218.5 224.0C214.6 234.2 207.9 244.4 201.1 250.8C202.5 252.9 204.8 257.5 205.6 259.6C207.6 257.6 209.6 255.3 211.5 252.8L211.5 291.5L219.7 291.5L219.7 240.6C221.2 237.9 222.7 235.1 224.0 232.3L224.0 239.0L242.0 239.0L242.0 244.0L225.5 244.0L225.5 265.0L241.5 265.0C241.1 268.0 240.3 270.6 238.9 273.2C236.2 271.1 233.9 268.6 232.2 265.8L225.2 268.0C227.6 272.1 230.5 275.7 234.1 278.7C231.0 281.1 226.7 282.9 221.0 284.2C222.7 286.0 225.2 289.5 226.3 291.4C232.7 289.5 237.6 286.8 241.0 283.7C247.7 287.5 255.9 290.0 265.7 291.2C266.7 289.0 269.0 285.5 270.8 283.6C261.1 282.7 252.8 280.7 246.2 277.5C248.3 273.7 249.5 269.5 250.1 265.0ZM313.0 262.3L313.0 253.4L328.2 253.4L328.2 262.3ZM290.6 262.3C290.8 259.6 290.9 257.0 290.9 254.7L290.9 253.4L304.4 253.4L304.4 262.3ZM304.4 237.1L304.4 245.4L290.9 245.4L290.9 237.1ZM328.2 245.4L313.0 245.4L313.0 237.1L328.2 237.1ZM336.7 228.9L282.4 228.9L282.4 254.6C282.4 264.7 281.7 277.5 273.9 286.2C275.8 287.2 279.3 290.1 280.6 291.7C285.8 286.1 288.4 278.2 289.7 270.3L304.4 270.3L304.4 290.4L313.0 290.4L313.0 270.3L328.2 270.3L328.2 281.1C328.2 282.4 327.7 282.9 326.4 282.9C325.1 282.9 320.3 282.9 316.3 282.7C317.4 285.0 318.7 288.6 319.0 290.9C325.5 291.0 329.9 290.9 332.8 289.4C335.7 288.1 336.7 285.8 336.7 281.2ZM375.2 264.3L364.7 266.7L364.7 240.8L374.4 240.8L374.4 232.6L347.1 232.6L347.1 240.8L356.2 240.8L356.2 268.5C352.4 269.4 348.8 270.2 345.9 270.8L347.9 279.6C355.8 277.5 366.3 274.6 376.0 271.9ZM399.2 245.1C397.6 252.8 395.4 259.2 392.2 264.5C389 258.8 386.6 252.3 385.0 245.1ZM413.4 245.1L413.4 236.9L387.6 236.9C388.9 233.3 389.9 229.4 390.9 225.7L382.4 224.0C379.7 236.1 374.8 248.2 368.3 255.4C370.4 256.4 374.0 259.0 375.6 260.5C376.9 258.8 378.1 257.0 379.3 255.2C381.2 261.3 383.5 267.0 386.5 271.9C381.3 277.2 374.5 280.9 365.7 283.6C367.3 285.5 369.6 289.4 370.3 291.4C379.0 288.4 386.0 284.3 391.5 279.1C396.1 284.3 401.6 288.5 408.7 291.4C410.0 289.1 412.6 285.5 414.6 283.7C407.5 281.2 402.0 277.2 397.4 272.1C402.5 264.9 405.9 256.0 408.2 245.1ZM456.0 264.7C459.4 262.7 462.7 260.4 465.8 257.8C468.8 260.4 472.1 262.8 475.7 264.7ZM458.2 281.5L458.2 272.2L473.0 272.2L473.0 281.5ZM446.0 246.7C447.4 248.0 448.8 249.4 449.5 250.3C451.3 248.8 453.1 247.0 454.8 245.0C456.3 247.4 458.1 249.8 460.1 252.1C455.9 255.7 451.0 258.7 446.0 260.8ZM436.0 269.9L436.0 255.5L439.6 255.5L439.6 269.9ZM427.3 255.5L430.7 255.5L430.7 269.9L427.3 269.9ZM430.7 235.7L430.7 248.5L427.3 248.5L427.3 235.7ZM439.6 248.5L436.0 248.5L436.0 235.7L439.6 235.7ZM472.0 238.4C470.3 241.4 468.1 244.3 465.7 246.9C463.2 244.4 461.1 241.6 459.5 239.0L459.9 238.4ZM477.6 230.9L476.1 231.2L464.1 231.2C465.0 229.6 465.8 227.9 466.4 226.2L458.3 224.0C455.7 230.7 451.3 237.3 446.0 242.0L446.0 228.4L421.1 228.4L421.1 283.2L427.3 283.2L427.3 277.3L446.0 277.3L446.0 264.7C447.0 266.0 447.9 267.4 448.5 268.5L450.3 267.7L450.3 291.3L458.2 291.3L458.2 289.0L473.0 289.0L473.0 291.2L481.3 291.2L481.3 267.4L481.8 267.6C483.0 265.5 485.6 262.1 487.3 260.4C481.4 258.6 476.1 255.7 471.7 252.3C476.6 247.0 480.5 240.8 483.2 233.6Z " clip-path="url(#satori_cp-id-1-0-0)" mask="url(#satori_om-id-1-0-0)"/><path fill="black" d="M137.3 515.6C140.8 515.6 143.9 512.6 143.9 507.4C143.9 502.8 141.7 499.7 137.8 499.7C136.1 499.7 134.4 500.6 133.0 501.8L133.1 499.1L133.1 493.0L130.6 493.0L130.6 515.3L132.6 515.3L132.8 513.7L133.0 513.7C134.3 514.9 135.9 515.6 137.3 515.6ZM136.8 513.5C135.8 513.5 134.5 513.1 133.1 511.9L133.1 503.9C134.6 502.6 135.9 501.8 137.2 501.8C140.1 501.8 141.2 504.1 141.2 507.5C141.2 511.2 139.4 513.5 136.8 513.5ZM148.0 521.8C151.0 521.8 152.6 519.5 153.7 516.5L159.4 500.1L156.9 500.1L154.2 508.5C153.8 509.9 153.3 511.4 152.9 512.8L152.8 512.8C152.3 511.4 151.8 509.8 151.3 508.5L148.2 500.1L145.6 500.1L151.7 515.3L151.3 516.4C150.7 518.3 149.6 519.7 147.9 519.7C147.5 519.7 147.0 519.6 146.7 519.5L146.2 521.5C146.7 521.7 147.3 521.8 148.0 521.8Z "/><clipPath id="satori_cp-id-1-0-1-0-2"><rect x="173" y="485" width="57" height="40"/></clipPath><mask id="satori_om-id-1-0-1-0-2"><rect x="173" y="485" width="57" height="40" fill="#fff"/></mask><path fill="black" d="M181.7 515.7C186.5 515.7 189.4 512.8 189.4 509.4C189.4 506.4 187.7 504.8 185.2 503.8L182.5 502.6C180.7 501.9 179.2 501.4 179.2 499.9C179.2 498.5 180.4 497.7 182.2 497.7C183.9 497.7 185.3 498.3 186.6 499.4L188.7 496.8C187.0 495.1 184.6 494.2 182.2 494.2C178.0 494.2 175.0 496.8 175.0 500.2C175.0 503.2 177.1 504.9 179.2 505.7L182.0 506.9C183.9 507.7 185.1 508.2 185.1 509.7C185.1 511.2 184.0 512.1 181.8 512.1C180 512.1 178.0 511.2 176.6 509.8L174.2 512.6C176.2 514.6 179.0 515.7 181.7 515.7ZM193.0 515.3L196.7 515.3L196.7 506.6C196.7 504.7 196.4 501.8 196.2 499.8L196.3 499.8L198.0 504.7L201.2 513.4L203.6 513.4L206.8 504.7L208.4 499.8L208.6 499.8C208.4 501.8 208.1 504.7 208.1 506.6L208.1 515.3L211.8 515.3L211.8 494.5L207.2 494.5L203.8 504.2C203.4 505.5 203.0 506.9 202.5 508.2L202.4 508.2C202.0 506.9 201.6 505.5 201.1 504.2L197.6 494.5L193.0 494.5ZM221.4 515.7C225.9 515.7 227.9 512.5 227.9 508.6L227.9 494.5L223.7 494.5L223.7 508.2C223.7 511.1 222.8 512.1 220.9 512.1C219.8 512.1 218.7 511.4 217.9 509.9L215.0 512.0C216.4 514.4 218.4 515.7 221.4 515.7Z " clip-path="url(#satori_cp-id-1-0-1-0-2)" mask="url(#satori_om-id-1-0-1-0-2)"/><clipPath id="satori_cp-id-1-0-1-1"><rect x="959" y="485" width="112" height="40"/></clipPath><mask id="satori_om-id-1-0-1-1"><rect x="959" y="485" width="112" height="40" fill="#fff"/></mask><path fill="black" d="M985.5 499.3L985.5 496.0L974.0 496.0L976.0 495.2C975.5 494.1 974.7 492.5 974.0 491.2L970.7 492.4C971.2 493.5 971.9 494.9 972.4 496.0L960.5 496.0L960.5 499.3L967.6 499.3C967.3 505.2 966.8 511.5 960.1 515.1C961.0 515.8 962.0 516.9 962.5 517.8C967.5 514.9 969.6 510.6 970.6 505.9L979.4 505.9C979.0 510.9 978.5 513.3 977.8 513.9C977.4 514.2 977.0 514.3 976.4 514.3C975.5 514.3 973.6 514.3 971.7 514.1C972.3 515.0 972.8 516.4 972.9 517.4C974.8 517.5 976.6 517.5 977.7 517.3C979.0 517.2 979.9 517.0 980.7 516.0C981.8 514.8 982.4 511.7 982.9 504.1C983.0 503.7 983.1 502.7 983.1 502.7L971.0 502.7C971.2 501.5 971.2 500.4 971.3 499.3ZM991.1 504.1C992.9 506.2 995.0 509.1 995.8 511.0L998.9 509.1C998.0 507.2 995.8 504.4 993.9 502.5ZM1013.7 497.2L1007.4 497.2L1007.4 491.6L1003.8 491.6L1003.8 497.2L988.3 497.2L988.3 500.5L1003.8 500.5L1003.8 513.3C1003.8 513.9 1003.5 514.2 1002.8 514.2C1002.1 514.2 999.7 514.2 997.4 514.1C997.9 515.1 998.7 516.7 998.9 517.8C1001.8 517.8 1004.1 517.7 1005.5 517.1C1006.9 516.5 1007.4 515.6 1007.4 513.3L1007.4 500.5L1013.7 500.5ZM1037.7 496.6L1037.0 496.7L1030.5 496.7L1032.2 495.8C1031.5 494.6 1030.1 492.6 1029.0 491.2L1026.0 492.8C1026.8 494.0 1027.9 495.5 1028.6 496.7L1017.6 496.7L1017.6 500.0L1034.5 500.0C1031.5 503.8 1026.7 508.1 1022.1 510.9L1022.0 510.9C1020.4 510.9 1018.2 512.4 1016.2 514.5L1018.6 517.7C1019.8 515.9 1021.0 514.0 1021.9 514.0C1022.5 514.0 1023.4 514.9 1024.6 515.6C1026.5 516.8 1028.8 517.2 1032.2 517.2C1035.0 517.2 1039.2 517.0 1041.2 516.9C1041.2 516.0 1041.8 514.2 1042.1 513.3C1039.5 513.7 1035.2 514.0 1032.3 514.0C1029.4 514.0 1027.0 513.8 1025.3 512.7C1030.9 509.0 1036.7 503.5 1040.3 498.3ZM1045.0 517.7L1048.5 517.7L1048.5 498.3L1045.0 498.3ZM1045.5 493.4C1046.7 494.7 1048.2 496.5 1048.7 497.7L1051.5 496.0C1050.9 494.7 1049.4 493.0 1048.1 491.7ZM1054.3 507.4L1059.7 507.4L1059.7 510.0L1054.3 510.0ZM1054.3 502.1L1059.7 502.1L1059.7 504.7L1054.3 504.7ZM1051.3 512.7L1062.8 512.7L1062.8 499.4L1051.3 499.4ZM1069.2 492.9L1052.5 492.9L1052.5 496.0L1065.7 496.0L1065.7 514.1C1065.7 514.4 1065.7 514.6 1065.3 514.6C1065.0 514.6 1063.9 514.6 1063.0 514.5C1063.4 515.4 1063.9 516.6 1064 517.5C1065.7 517.5 1067.1 517.5 1068.0 517.0C1068.9 516.4 1069.2 515.7 1069.2 514.1Z " clip-path="url(#satori_cp-id-1-0-1-1)" mask="url(#satori_om-id-1-0-1-1)"/></svg>