<svg width="1200" height="630" viewBox="0 0 1200 630" xmlns="http://www.w3.org/2000/svg"><rect x="0" y="0" width="1200" height="630" fill="#fefbfb"/><defs><clipPath id="satori_bc-id-0"><path x="105" y="39" width="1056" height="504" d="M109,39 h1048 a4,4 0 0 1 4,4 v496 a4,4 0 0 1 -4,4 h-1048 a4,4 0 0 1 -4,-4 v-496 a4,4 0 0 1 4,-4"/></clipPath></defs><g opacity="0.9"><path x="105" y="39" width="1056" height="504" fill="#ecebeb" d="M109,39 h1048 a4,4 0 0 1 4,4 v496 a4,4 0 0 1 -4,4 h-1048 a4,4 0 0 1 -4,-4 v-496 a4,4 0 0 1 4,-4"/><path width="1056" height="504" clip-path="url(#satori_bc-id-0)" fill="none" stroke="#000" stroke-width="8" d="M106.172,40.172 A4,4 0 0 1 109,39 h1048 a4,4 0 0 1 4,4 v496 a4,4 0 0 1 -4,4 h-1048 a4,4 0 0 1 -4,-4 v-496 A4,4 0 0 1 106.172,40.172"/></g><defs><clipPath id="satori_bc-id-1"><path x="72" y="63" width="1056" height="504" d="M76,63 h1048 a4,4 0 0 1 4,4 v496 a4,4 0 0 1 -4,4 h-1048 a4,4 0 0 1 -4,-4 v-496 a4,4 0 0 1 4,-4"/></clipPath></defs><path x="72" y="63" width="1056" height="504" fill="#fefbfb" d="M76,63 h1048 a4,4 0 0 1 4,4 v496 a4,4 0 0 1 -4,4 h-1048 a4,4 0 0 1 -4,-4 v-496 a4,4 0 0 1 4,-4"/><path width="1056" height="504" clip-path="url(#satori_bc-id-1)" fill="none" stroke="#000" stroke-width="8" d="M73.172,64.172 A4,4 0 0 1 76,63 h1048 a4,4 0 0 1 4,4 v496 a4,4 0 0 1 -4,4 h-1048 a4,4 0 0 1 -4,-4 v-496 A4,4 0 0 1 73.172,64.172"/><clipPath id="satori_cp-id-1-0-0"><rect x="128" y="103" width="944" height="104"/></clipPath><mask id="satori_om-id-1-0-0"><rect x="128" y="103" width="944" height="104" fill="#fff"/></mask><path fill="black" d="M161.2 153.8L161.2 146.7L170.0 146.7L170.0 152.9L170.0 153.8ZM187.5 146.7L187.5 153.8L178.5 153.8L178.5 153.0L178.5 146.7ZM195.7 160.8L195.7 139.7L178.5 139.7L178.5 134.7L197.6 134.7L197.6 126.9L178.5 126.9L178.5 120.4L170.0 120.4L170.0 126.9L152.5 126.9C153.1 125.3 153.8 123.8 154.4 122.3L146.5 119.7C142.6 129.9 135.9 140.1 129.1 146.6C130.5 148.7 132.8 153.3 133.6 155.4C135.6 153.3 137.6 151.0 139.5 148.6L139.5 187.3L147.7 187.3L147.7 136.4C149.2 133.6 150.7 130.9 152.0 128.1L152.0 134.7L170.0 134.7L170.0 139.7L153.5 139.7L153.5 160.8L169.5 160.8C169.1 163.7 168.3 166.4 166.9 169.0C164.2 166.8 161.9 164.4 160.2 161.6L153.2 163.7C155.6 167.8 158.5 171.5 162.1 174.4C159.0 176.8 154.7 178.7 149.0 180.0C150.7 181.8 153.2 185.2 154.3 187.1C160.7 185.2 165.6 182.6 169.0 179.4C175.7 183.2 183.9 185.7 193.7 187.0C194.7 184.7 197.0 181.2 198.8 179.3C189.1 178.5 180.8 176.5 174.2 173.3C176.3 169.5 177.5 165.2 178.1 160.8ZM241.0 158.0L241.0 149.2L256.2 149.2L256.2 158.0ZM218.6 158.0C218.8 155.4 218.9 152.8 218.9 150.5L218.9 149.2L232.4 149.2L232.4 158.0ZM232.4 132.8L232.4 141.2L218.9 141.2L218.9 132.8ZM256.2 141.2L241.0 141.2L241.0 132.8L256.2 132.8ZM264.7 124.7L210.4 124.7L210.4 150.4C210.4 160.5 209.7 173.3 201.9 181.9C203.8 182.9 207.3 185.9 208.6 187.5C213.8 181.9 216.4 173.9 217.7 166.1L232.4 166.1L232.4 186.2L241.0 186.2L241.0 166.1L256.2 166.1L256.2 176.9C256.2 178.2 255.7 178.6 254.4 178.6C253.1 178.6 248.3 178.7 244.3 178.5C245.4 180.7 246.7 184.4 247.0 186.7C253.5 186.8 257.9 186.6 260.8 185.2C263.7 183.9 264.7 181.6 264.7 177.0ZM299 181.9C312.0 181.9 319.6 174.6 319.6 156.9L319.6 127.5L309.4 127.5L309.4 157.8C309.4 168.9 305.3 172.6 299 172.6C292.8 172.6 288.9 168.9 288.9 157.8L288.9 127.5L278.3 127.5L278.3 156.9C278.3 174.6 286.0 181.9 299 181.9ZM332.4 180.8L343.1 180.8L343.1 159.2L362 159.2L362 150.3L343.1 150.3L343.1 136.4L365.2 136.4L365.2 127.5L332.4 127.5ZM379.3 180.8L392.3 180.8L398.1 154.5C399.0 150.3 399.7 146.2 400.4 142.1L400.7 142.1C401.4 146.2 402.2 150.3 403.0 154.5L409.0 180.8L422.3 180.8L432.1 127.5L422.0 127.5L417.8 153.6C417.0 159.1 416.2 164.8 415.4 170.6L415.1 170.6C413.9 164.8 412.8 159.0 411.7 153.6L405.6 127.5L396.4 127.5L390.2 153.6C389.1 159.1 387.9 164.8 386.8 170.6L386.6 170.6C385.8 164.8 384.9 159.2 384.1 153.6L379.9 127.5L369.1 127.5ZM455.0 135.8L452 135.8L452 130.0L455.0 130.0ZM461.4 155.6C461.2 155.6 461.1 155.4 461 155.4C460.9 155.6 460.7 155.6 460.1 155.6L458.8 155.6C458.3 155.6 458.2 155.5 458.2 154.6L458.2 142.9L461.4 142.9ZM444.7 175.5L444.7 170.6L461.4 170.6L461.4 175.5ZM447.8 142.9L447.8 148.5C447.8 151.8 447.5 155.7 444.7 158.8L444.7 142.9ZM460.7 159.8L461.4 159.8L461.4 164.7L444.7 164.7L444.7 159.0C445.6 159.6 447.0 161.0 447.7 161.7C451.0 158.0 451.8 152.6 451.8 148.6L451.8 142.9L454.2 142.9L454.2 154.6C454.2 158.8 455.2 159.8 458.3 159.8ZM436.7 130.0L446.5 130.0L446.5 135.8L438.1 135.8L438.1 186.7L444.7 186.7L444.7 182.1L461.4 182.1L461.4 185.7L468.2 185.7L468.2 135.8L460.6 135.8L460.6 130.0L469.5 130.0L469.5 122.5L436.8 122.5ZM484.2 178.1C481.4 178.1 480.9 177.8 480.9 174.7L480.9 153.1L492.5 153.1L492.5 157.5L500.8 157.5L500.8 123.1L472.2 123.1L472.2 131.4L492.5 131.4L492.5 144.9L472.4 144.9L472.4 174.8C472.4 183.7 475.0 186.1 483.0 186.1L493.0 186.1C500.4 186.1 502.7 182.4 503.6 170.3C501.3 169.8 497.7 168.2 495.8 166.9C495.4 176.4 495.0 178.1 492.2 178.1ZM525.9 176.5L556.8 176.5L556.8 179.1L525.9 179.1ZM556.8 155.3L556.8 158.0L525.9 158.0L525.9 155.3ZM525.9 169.2L556.8 169.2L556.8 172.1L525.9 172.1ZM556.8 165.0L525.9 165.0L525.9 162.2L556.8 162.2ZM529.5 132.3L521.6 132.3L521.6 128.1L529.5 128.1ZM537.3 128.1L545.5 128.1L545.5 132.3L537.3 132.3ZM553.3 128.1L561.7 128.1L561.7 132.3L553.3 132.3ZM565.3 179.1L565.3 150.1L543.6 150.1L544.1 147.3L571.9 147.3L571.9 141.0L545.1 141.0C545.2 140.0 545.4 139.0 545.5 138.1L570.3 138.1L570.3 122.5L513.3 122.5L513.3 138.1L536.8 138.1C536.7 139.0 536.7 140.0 536.5 141.0L510.4 141.0L510.4 147.3L535.9 147.3C535.7 148.3 535.6 149.2 535.4 150.1L517.7 150.1L517.7 179.1L509.4 179.1L509.4 185.2L574.0 185.2L574.0 179.1ZM584.1 180.8L616.4 180.8L616.4 171.9L594.8 171.9L594.8 127.5L584.1 127.5ZM624.9 180.8L635.5 180.8L635.5 140.5L624.9 140.5ZM630.2 134.0C633.8 134.0 636.3 131.7 636.3 128.2C636.3 124.8 633.8 122.5 630.2 122.5C626.5 122.5 624.0 124.8 624.0 128.2C624.0 131.7 626.5 134.0 630.2 134.0ZM646.8 180.8L657.3 180.8L657.3 153.1C660.3 150.2 662.4 148.6 665.7 148.6C669.7 148.6 671.4 150.8 671.4 157.0L671.4 180.8L682.0 180.8L682.0 155.7C682.0 145.6 678.2 139.5 669.5 139.5C664.0 139.5 659.9 142.4 656.4 145.9L656.2 145.9L655.4 140.5L646.8 140.5ZM704.9 181.9C710.4 181.9 714.3 179.2 717.8 175.1L718.0 175.1L718.8 180.8L727.5 180.8L727.5 140.5L716.9 140.5L716.9 167.7C714.2 171.3 712.0 172.8 708.7 172.8C704.8 172.8 703.1 170.6 703.1 164.4L703.1 140.5L692.5 140.5L692.5 165.7C692.5 175.8 696.2 181.9 704.9 181.9ZM734.2 180.8L745.2 180.8L748.9 173.4C750.1 171.1 751.2 168.7 752.3 166.4L752.7 166.4C754.0 168.7 755.3 171.1 756.6 173.4L761.0 180.8L772.4 180.8L759.8 161.0L771.6 140.5L760.7 140.5L757.3 147.7C756.3 150.0 755.3 152.3 754.3 154.5L754.0 154.5C752.8 152.3 751.6 150.0 750.4 147.7L746.4 140.5L735.0 140.5L746.8 159.8ZM797.2 122.6L796.0 123.0L779.0 123.0L779.0 187.1L786.9 187.1L786.9 130.6L793.3 130.6C792.1 135.6 790.5 142.3 789.0 146.9C793.1 151.8 794.1 156.4 794.1 159.7C794.1 161.8 793.8 163.2 792.9 163.9C792.3 164.3 791.6 164.4 790.8 164.4C790.0 164.5 788.9 164.5 787.6 164.4C788.8 166.5 789.5 169.8 789.5 172.1C791.2 172.1 793.0 172.1 794.4 171.8C796.0 171.6 797.5 171.1 798.5 170.3C800.9 168.5 801.9 165.6 801.9 160.8C801.9 156.7 801.1 151.7 796.4 146.0C798.6 140.3 801.1 132.3 803.1 126.0ZM842.5 139.3L842.5 131.4L821.4 131.4L827.3 129.7C826.8 127.1 825.2 122.7 824.0 119.5L816.1 121.4C817.2 124.5 818.4 128.6 819.0 131.4L801.5 131.4L801.5 139.3L810.7 139.3C810.3 158.0 809.2 172.1 793.7 180.3C795.7 181.9 798.1 184.8 799.2 186.9C811.8 179.9 816.2 169.2 818.0 155.6L829.8 155.6C829.4 170.4 828.6 176.3 827.3 177.8C826.8 178.5 826.0 178.8 824.9 178.8C823.4 178.8 820.6 178.8 817.3 178.4C818.8 180.8 819.8 184.4 819.9 186.9C823.6 187.0 827.1 187.0 829.2 186.7C831.6 186.3 833.2 185.6 834.9 183.4C837.1 180.7 837.8 172.4 838.5 151.5C838.5 150.4 838.6 147.9 838.6 147.9L818.8 147.9C819.0 145.1 819.1 142.3 819.2 139.3ZM902.9 134.0C901.2 140.5 897.8 149.0 894.9 154.4L902.4 157.7C905.5 152.6 909.3 144.6 912.4 137.6ZM859.2 134.0C857.7 141.2 854.7 148.7 850.8 153.8L859.3 157.8C863.3 152.6 865.9 144.2 867.7 136.7ZM876.6 120.4C876.4 145.5 878.0 168.5 848.3 179.9C850.7 181.8 853.2 185.0 854.3 187.2C869.0 181.2 876.9 172.1 881.2 161.5C886.7 174.1 895.2 182.4 909.8 186.5C911.0 184.0 913.5 180.3 915.5 178.5C897.7 174.5 888.9 163.6 884.8 147.4C886.1 138.9 886.2 129.7 886.2 120.4ZM934.8 144.3L940.7 144.3L940.7 136.4L934.8 136.4L934.8 120.8L927.1 120.8L927.1 136.4L920.4 136.4L920.4 144.3L927.1 144.3L927.1 164.4C924.2 165.4 921.7 166.4 919.5 167.2L922.8 175.4C928.7 172.7 936.1 169.1 942.8 165.7L941.0 158.5C938.9 159.4 936.9 160.3 934.8 161.1ZM967.3 171.5L960.3 171.5L960.3 167.4L967.3 167.4ZM973.2 163.5L954.6 163.5L954.6 175.4L973.2 175.4ZM976.2 161.0L976.2 177.8L951.5 177.8L951.5 161.0ZM944.0 187.0L951.5 187.0L951.5 184.4L976.2 184.4L976.2 186.9L984.2 186.9L984.2 154.5L944.0 154.5ZM976.1 144.0C978.1 141.6 980.5 138.5 982.6 135.2L975.9 132.2C974.4 135.1 971.8 139.0 969.8 141.4L975.1 144.0L968.1 144.0L968.1 132.0L983.9 132.0L983.9 124.9L968.1 124.9L968.1 119.9L960.0 119.9L960.0 124.9L943.8 124.9L943.8 132.0L960.0 132.0L960.0 144.0L953.8 144.0L958.6 141.0C957.2 138.4 954.2 134.8 951.5 132.1L945.7 135.5C948.0 138.0 950.6 141.4 952.0 144.0L941.2 144.0L941.2 151.2L987.2 151.2L987.2 144.0Z " clip-path="url(#satori_cp-id-1-0-0)" mask="url(#satori_om-id-1-0-0)"/><path fill="black" d="M137.3 515.6C140.8 515.6 143.9 512.6 143.9 507.4C143.9 502.8 141.7 499.7 137.8 499.7C136.1 499.7 134.4 500.6 133.0 501.8L133.1 499.1L133.1 493.0L130.6 493.0L130.6 515.3L132.6 515.3L132.8 513.7L133.0 513.7C134.3 514.9 135.9 515.6 137.3 515.6ZM136.8 513.5C135.8 513.5 134.5 513.1 133.1 511.9L133.1 503.9C134.6 502.6 135.9 501.8 137.2 501.8C140.1 501.8 141.2 504.1 141.2 507.5C141.2 511.2 139.4 513.5 136.8 513.5ZM148.0 521.8C151.0 521.8 152.6 519.5 153.7 516.5L159.4 500.1L156.9 500.1L154.2 508.5C153.8 509.9 153.3 511.4 152.9 512.8L152.8 512.8C152.3 511.4 151.8 509.8 151.3 508.5L148.2 500.1L145.6 500.1L151.7 515.3L151.3 516.4C150.7 518.3 149.6 519.7 147.9 519.7C147.5 519.7 147.0 519.6 146.7 519.5L146.2 521.5C146.7 521.7 147.3 521.8 148.0 521.8Z "/><clipPath id="satori_cp-id-1-0-1-0-2"><rect x="173" y="485" width="57" height="40"/></clipPath><mask id="satori_om-id-1-0-1-0-2"><rect x="173" y="485" width="57" height="40" fill="#fff"/></mask><path fill="black" d="M181.7 515.7C186.5 515.7 189.4 512.8 189.4 509.4C189.4 506.4 187.7 504.8 185.2 503.8L182.5 502.6C180.7 501.9 179.2 501.4 179.2 499.9C179.2 498.5 180.4 497.7 182.2 497.7C183.9 497.7 185.3 498.3 186.6 499.4L188.7 496.8C187.0 495.1 184.6 494.2 182.2 494.2C178.0 494.2 175.0 496.8 175.0 500.2C175.0 503.2 177.1 504.9 179.2 505.7L182.0 506.9C183.9 507.7 185.1 508.2 185.1 509.7C185.1 511.2 184.0 512.1 181.8 512.1C180 512.1 178.0 511.2 176.6 509.8L174.2 512.6C176.2 514.6 179.0 515.7 181.7 515.7ZM193.0 515.3L196.7 515.3L196.7 506.6C196.7 504.7 196.4 501.8 196.2 499.8L196.3 499.8L198.0 504.7L201.2 513.4L203.6 513.4L206.8 504.7L208.4 499.8L208.6 499.8C208.4 501.8 208.1 504.7 208.1 506.6L208.1 515.3L211.8 515.3L211.8 494.5L207.2 494.5L203.8 504.2C203.4 505.5 203.0 506.9 202.5 508.2L202.4 508.2C202.0 506.9 201.6 505.5 201.1 504.2L197.6 494.5L193.0 494.5ZM221.4 515.7C225.9 515.7 227.9 512.5 227.9 508.6L227.9 494.5L223.7 494.5L223.7 508.2C223.7 511.1 222.8 512.1 220.9 512.1C219.8 512.1 218.7 511.4 217.9 509.9L215.0 512.0C216.4 514.4 218.4 515.7 221.4 515.7Z " clip-path="url(#satori_cp-id-1-0-1-0-2)" mask="url(#satori_om-id-1-0-1-0-2)"/><clipPath id="satori_cp-id-1-0-1-1"><rect x="959" y="485" width="112" height="40"/></clipPath><mask id="satori_om-id-1-0-1-1"><rect x="959" y="485" width="112" height="40" fill="#fff"/></mask><path fill="black" d="M985.5 499.3L985.5 496.0L974.0 496.0L976.0 495.2C975.5 494.1 974.7 492.5 974.0 491.2L970.7 492.4C971.2 493.5 971.9 494.9 972.4 496.0L960.5 496.0L960.5 499.3L967.6 499.3C967.3 505.2 966.8 511.5 960.1 515.1C961.0 515.8 962.0 516.9 962.5 517.8C967.5 514.9 969.6 510.6 970.6 505.9L979.4 505.9C979.0 510.9 978.5 513.3 977.8 513.9C977.4 514.2 977.0 514.3 976.4 514.3C975.5 514.3 973.6 514.3 971.7 514.1C972.3 515.0 972.8 516.4 972.9 517.4C974.8 517.5 976.6 517.5 977.7 517.3C979.0 517.2 979.9 517.0 980.7 516.0C981.8 514.8 982.4 511.7 982.9 504.1C983.0 503.7 983.1 502.7 983.1 502.7L971.0 502.7C971.2 501.5 971.2 500.4 971.3 499.3ZM991.1 504.1C992.9 506.2 995.0 509.1 995.8 511.0L998.9 509.1C998.0 507.2 995.8 504.4 993.9 502.5ZM1013.7 497.2L1007.4 497.2L1007.4 491.6L1003.8 491.6L1003.8 497.2L988.3 497.2L988.3 500.5L1003.8 500.5L1003.8 513.3C1003.8 513.9 1003.5 514.2 1002.8 514.2C1002.1 514.2 999.7 514.2 997.4 514.1C997.9 515.1 998.7 516.7 998.9 517.8C1001.8 517.8 1004.1 517.7 1005.5 517.1C1006.9 516.5 1007.4 515.6 1007.4 513.3L1007.4 500.5L1013.7 500.5ZM1037.7 496.6L1037.0 496.7L1030.5 496.7L1032.2 495.8C1031.5 494.6 1030.1 492.6 1029.0 491.2L1026.0 492.8C1026.8 494.0 1027.9 495.5 1028.6 496.7L1017.6 496.7L1017.6 500.0L1034.5 500.0C1031.5 503.8 1026.7 508.1 1022.1 510.9L1022.0 510.9C1020.4 510.9 1018.2 512.4 1016.2 514.5L1018.6 517.7C1019.8 515.9 1021.0 514.0 1021.9 514.0C1022.5 514.0 1023.4 514.9 1024.6 515.6C1026.5 516.8 1028.8 517.2 1032.2 517.2C1035.0 517.2 1039.2 517.0 1041.2 516.9C1041.2 516.0 1041.8 514.2 1042.1 513.3C1039.5 513.7 1035.2 514.0 1032.3 514.0C1029.4 514.0 1027.0 513.8 1025.3 512.7C1030.9 509.0 1036.7 503.5 1040.3 498.3ZM1045.0 517.7L1048.5 517.7L1048.5 498.3L1045.0 498.3ZM1045.5 493.4C1046.7 494.7 1048.2 496.5 1048.7 497.7L1051.5 496.0C1050.9 494.7 1049.4 493.0 1048.1 491.7ZM1054.3 507.4L1059.7 507.4L1059.7 510.0L1054.3 510.0ZM1054.3 502.1L1059.7 502.1L1059.7 504.7L1054.3 504.7ZM1051.3 512.7L1062.8 512.7L1062.8 499.4L1051.3 499.4ZM1069.2 492.9L1052.5 492.9L1052.5 496.0L1065.7 496.0L1065.7 514.1C1065.7 514.4 1065.7 514.6 1065.3 514.6C1065.0 514.6 1063.9 514.6 1063.0 514.5C1063.4 515.4 1063.9 516.6 1064 517.5C1065.7 517.5 1067.1 517.5 1068.0 517.0C1068.9 516.4 1069.2 515.7 1069.2 514.1Z " clip-path="url(#satori_cp-id-1-0-1-1)" mask="url(#satori_om-id-1-0-1-1)"/></svg>