<svg width="1200" height="630" viewBox="0 0 1200 630" xmlns="http://www.w3.org/2000/svg"><rect x="0" y="0" width="1200" height="630" fill="#fefbfb"/><defs><clipPath id="satori_bc-id-0"><path x="105" y="39" width="1056" height="504" d="M109,39 h1048 a4,4 0 0 1 4,4 v496 a4,4 0 0 1 -4,4 h-1048 a4,4 0 0 1 -4,-4 v-496 a4,4 0 0 1 4,-4"/></clipPath></defs><g opacity="0.9"><path x="105" y="39" width="1056" height="504" fill="#ecebeb" d="M109,39 h1048 a4,4 0 0 1 4,4 v496 a4,4 0 0 1 -4,4 h-1048 a4,4 0 0 1 -4,-4 v-496 a4,4 0 0 1 4,-4"/><path width="1056" height="504" clip-path="url(#satori_bc-id-0)" fill="none" stroke="#000" stroke-width="8" d="M106.172,40.172 A4,4 0 0 1 109,39 h1048 a4,4 0 0 1 4,4 v496 a4,4 0 0 1 -4,4 h-1048 a4,4 0 0 1 -4,-4 v-496 A4,4 0 0 1 106.172,40.172"/></g><defs><clipPath id="satori_bc-id-1"><path x="72" y="63" width="1056" height="504" d="M76,63 h1048 a4,4 0 0 1 4,4 v496 a4,4 0 0 1 -4,4 h-1048 a4,4 0 0 1 -4,-4 v-496 a4,4 0 0 1 4,-4"/></clipPath></defs><path x="72" y="63" width="1056" height="504" fill="#fefbfb" d="M76,63 h1048 a4,4 0 0 1 4,4 v496 a4,4 0 0 1 -4,4 h-1048 a4,4 0 0 1 -4,-4 v-496 a4,4 0 0 1 4,-4"/><path width="1056" height="504" clip-path="url(#satori_bc-id-1)" fill="none" stroke="#000" stroke-width="8" d="M73.172,64.172 A4,4 0 0 1 76,63 h1048 a4,4 0 0 1 4,4 v496 a4,4 0 0 1 -4,4 h-1048 a4,4 0 0 1 -4,-4 v-496 A4,4 0 0 1 73.172,64.172"/><clipPath id="satori_cp-id-1-0-0"><rect x="128" y="103" width="944" height="209"/></clipPath><mask id="satori_om-id-1-0-0"><rect x="128" y="103" width="944" height="209" fill="#fff"/></mask><path fill="black" d="M143.5 120.2C140.4 130.6 135.1 141.1 129.3 147.9C130.6 150.2 132.8 155.1 133.5 157.2C134.8 155.5 136.2 153.6 137.6 151.7L137.6 187.1L145.7 187.1L145.7 137.0C147.9 132.2 149.8 127.3 151.4 122.5ZM184.4 134.0C182.6 136.6 180.2 138.9 177.5 141.0C174.6 138.8 172.1 136.4 170.3 134.0ZM190.4 126.8L189.1 127.1L173.4 127.1C174.3 125.3 175.0 123.5 175.7 121.7L168.0 119.9C165.4 127.1 160.6 134.1 155 138.5C156.9 139.6 160.0 142.1 161.4 143.5C162.9 142.1 164.4 140.5 165.9 138.8C167.4 140.8 169.2 142.9 171.3 144.7C166.9 147.0 161.9 148.8 156.7 150.0L156.7 140.3L149.7 140.3L149.7 175.0L156.7 175.0L156.7 152.0C157.8 153.6 158.8 155.4 159.4 156.7C165.9 155.0 172.0 152.6 177.5 149.5C182 152.3 187.5 154.7 193.8 156.2C194.9 154.1 196.9 151.0 198.5 149.4C193.0 148.4 188.2 146.9 184.0 144.8C188.8 140.7 192.8 135.6 195.3 129.2ZM184.7 159.8C180.0 164.7 170.6 168.2 161.6 170.0C163.1 171.5 164.9 173.8 165.8 175.4C175.6 172.9 185.2 168.6 190.9 162.4ZM177.7 152.9C174.2 156.2 167.2 159.1 161.1 160.7C162.8 162.0 164.6 164.1 165.7 165.7C172.4 163.5 179.5 160.0 183.9 155.5ZM189.9 167.8C183.7 174.7 171.3 178.5 158.0 180.3C159.7 182.1 161.4 185.0 162.3 187.1C177.0 184.4 189.8 179.6 197.3 170.8ZM247.3 167.8C244.2 170.1 240.5 171.9 236.1 173.5C232.1 171.9 228.5 170.1 225.7 167.8ZM223.0 150.0L252.4 150.0L252.4 153.0L223.0 153.0ZM223.0 141.8L252.4 141.8L252.4 144.7L223.0 144.7ZM255.6 161.3L254.2 161.6L229.1 161.6C229.8 160.8 230.5 159.9 231.2 159.0L230.0 158.6L261.4 158.6L261.4 136.1L216.2 136.1C217.1 135.1 218 134.0 218.7 133.0L266.2 133.0L266.2 126.1L223.5 126.1C224.3 124.8 224.9 123.5 225.6 122.2L217.8 119.9C214.7 126.6 208.9 132.9 203.0 136.9C204.5 138.4 207.3 141.8 208.4 143.3C210.4 141.8 212.4 140.0 214.3 138.1L214.3 158.6L222.0 158.6C218 163.1 211.9 167.3 206.0 170.0C207.7 171.2 210.7 173.9 211.9 175.4C214.4 173.9 217.1 172.2 219.6 170.3C221.7 172.6 224.3 174.5 227 176.2C219.2 178.0 210.7 179.1 201.9 179.6C203.2 181.6 204.5 185.0 205.0 187.1C216.2 186.1 227.1 184.2 236.8 180.9C245 183.9 254.7 185.7 265.4 186.4C266.4 184.2 268.3 180.8 270.0 179.0C261.6 178.8 253.8 177.9 246.9 176.5C252.6 173.4 257.4 169.5 260.8 164.6ZM290.1 153.1C291.7 147.5 293.3 141.5 294.7 135.6L295.0 135.6C296.6 141.4 298.0 147.5 299.6 153.1L301.2 158.9L288.6 158.9ZM271.7 180.8L282.5 180.8L286.3 167.2L303.5 167.2L307.3 180.8L318.4 180.8L301.3 127.5L288.8 127.5ZM323.8 180.8L334.4 180.8L334.4 156.8C336.7 151.0 340.5 148.9 343.6 148.9C345.3 148.9 346.4 149.1 347.9 149.5L349.7 140.4C348.5 139.9 347.2 139.5 344.9 139.5C340.8 139.5 336.4 142.4 333.5 147.7L333.3 147.7L332.5 140.5L323.8 140.5ZM371.5 181.9C376.0 181.9 380.9 180.3 384.8 177.0L380.5 170.0C378.3 171.8 375.5 173.2 372.7 173.2C366.9 173.2 362.6 168.3 362.6 160.7C362.6 153.1 366.8 148.2 373.0 148.2C375.2 148.2 377.1 149.1 379.1 150.8L384.2 144.0C381.2 141.5 377.4 139.5 372.4 139.5C361.5 139.5 351.8 147.3 351.8 160.7C351.8 174.1 360.3 181.9 371.5 181.9ZM392.3 180.8L402.9 180.8L402.9 153.1C405.8 150.2 407.9 148.6 411.2 148.6C415.2 148.6 416.9 150.8 416.9 157.0L416.9 180.8L427.5 180.8L427.5 155.7C427.5 145.6 423.8 139.5 415.1 139.5C409.6 139.5 405.6 142.4 402.4 145.4L402.9 137.9L402.9 123.4L392.3 123.4Z M456.5 180.8L488.8 180.8L488.8 171.9L467.1 171.9L467.1 127.5L456.5 127.5ZM497.2 180.8L507.8 180.8L507.8 140.5L497.2 140.5ZM502.5 134.0C506.1 134.0 508.7 131.7 508.7 128.2C508.7 124.8 506.1 122.5 502.5 122.5C498.9 122.5 496.4 124.8 496.4 128.2C496.4 131.7 498.9 134.0 502.5 134.0ZM519.1 180.8L529.7 180.8L529.7 153.1C532.6 150.2 534.7 148.6 538.0 148.6C542 148.6 543.7 150.8 543.7 157.0L543.7 180.8L554.3 180.8L554.3 155.7C554.3 145.6 550.6 139.5 541.9 139.5C536.4 139.5 532.3 142.4 528.8 145.9L528.5 145.9L527.7 140.5L519.1 140.5ZM577.3 181.9C582.8 181.9 586.6 179.2 590.1 175.1L590.4 175.1L591.2 180.8L599.8 180.8L599.8 140.5L589.2 140.5L589.2 167.7C586.5 171.3 584.3 172.8 581.0 172.8C577.1 172.8 575.4 170.6 575.4 164.4L575.4 140.5L564.8 140.5L564.8 165.7C564.8 175.8 568.6 181.9 577.3 181.9ZM606.6 180.8L617.5 180.8L621.3 173.4C622.4 171.1 623.5 168.7 624.7 166.4L625.0 166.4C626.3 168.7 627.6 171.1 628.9 173.4L633.4 180.8L644.7 180.8L632.1 161.0L644.0 140.5L633.0 140.5L629.6 147.7C628.7 150.0 627.6 152.3 626.7 154.5L626.4 154.5C625.2 152.3 623.9 150.0 622.8 147.7L618.8 140.5L607.4 140.5L619.2 159.8ZM659.1 172.1L659.1 158.0L670.6 158.0L670.6 172.1ZM670.6 150.6L659.1 150.6L659.1 138.9L670.6 138.9ZM693.5 131.0C694.6 127.9 695.5 124.9 696.3 121.8L688.1 119.9C686.0 128.4 682.5 137.1 678.4 143.1L678.4 131.5L667.2 131.5C668.4 128.4 669.7 124.8 671.0 121.2L661.6 119.9C661.3 123.2 660.4 127.9 659.5 131.5L651.4 131.5L651.4 185.0L659.1 185.0L659.1 179.7L678.4 179.7L678.4 146.1C680.3 147.4 682.8 149.0 683.9 150.1C686.1 147.0 688.4 143.0 690.2 138.7L705.7 138.7C704.9 164.1 703.9 174.9 701.8 177.2C700.9 178.2 700.1 178.5 698.7 178.5C696.8 178.5 692.6 178.5 687.9 178.0C689.5 180.4 690.6 184.0 690.8 186.4C695.0 186.5 699.3 186.6 702.1 186.2C704.9 185.7 707.0 185.0 709.0 182.3C711.9 178.5 712.7 167.0 713.6 134.8C713.7 133.8 713.7 131.0 713.7 131.0ZM701.8 163.8C699.5 159.6 694.8 152.8 691.2 147.8L684.5 151.6C688.0 156.9 692.5 163.9 694.5 168.2ZM775.1 140.2L775.1 166.2C771.1 161.2 763.4 153.8 757.3 148.3C757.9 145.5 758.1 142.8 758.3 140.2ZM733.0 140.2L749.4 140.2C749.1 149.0 746.6 159.7 733.0 166.7ZM783.6 131.8L758.4 131.8L758.4 119.9L749.5 119.9L749.5 131.8L724.4 131.8L724.4 187.3L733.0 187.3L733.0 167.0C735.1 168.5 737.8 171.6 739.0 173.3C746.8 168.7 751.7 162.8 754.5 156.7C759.7 162.0 765.1 167.8 768.0 171.8L775.1 166.3L775.1 177.1C775.1 178.4 774.6 178.8 773.3 178.8C771.9 178.8 767.1 178.9 762.8 178.7C764.0 180.9 765.3 184.7 765.6 187.2C772.0 187.2 776.6 187.0 779.6 185.7C782.6 184.3 783.6 181.9 783.6 177.3ZM845.9 140.2C844.8 142.3 843.5 144.3 842.1 146.4L832.5 146.8C834.8 143.5 837.1 139.6 839.2 136.1L859.2 136.1L859.2 128.4L844.5 128.4C843.8 125.6 842.2 122.0 840.7 119.1L832.7 121.6C833.7 123.7 834.6 126.1 835.2 128.4L818.3 128.4L818.3 136.1L830.3 136.1C828.1 139.7 825.3 144.1 824.2 145.4C822.8 146.8 820.3 147.4 818.5 147.7C819.2 149.5 820.3 153.5 820.6 155.5C822.1 154.9 824.5 154.4 835.3 153.6C830.2 158.1 824.2 162.0 817.5 164.6C819.1 166.2 821.2 169.3 822.3 171.2C835.9 165.1 847.3 154.6 854.0 143.0ZM818.4 156.3C817.2 154.3 812.1 146.1 810.1 143.5L810.1 141.2L817.3 141.2L817.3 133.3L810.1 133.3L810.1 119.9L801.8 119.9L801.8 133.3L793.1 133.3L793.1 141.2L801.8 141.2C799.7 149.8 795.9 159.9 791.5 165.5C792.9 167.8 794.8 171.7 795.6 174.2C797.9 170.8 800.0 165.9 801.8 160.5L801.8 187.0L810.1 187.0L810.1 154.4C811.4 157.2 812.7 160.0 813.4 162.1ZM850.2 154.0C844.3 165.4 830.8 175.3 813.9 179.9C815.5 181.8 817.8 185.2 818.9 187.2C827.7 184.5 835.4 180.5 842.1 175.6C846.4 179.2 851.1 183.5 853.5 186.5L860.1 180.9C857.4 178.0 852.5 173.9 848.2 170.5C852.5 166.4 856.1 162.0 859.0 157.2ZM914.3 139.4L919.4 139.4L919.4 151.8L914.2 151.8C914.3 150.0 914.3 148.3 914.3 146.5ZM930.6 159.8L930.6 151.8L927.4 151.8L927.4 131.5L914.3 131.5L914.3 119.9L906.1 119.9L906.1 131.5L897.2 131.5L897.2 139.4L906.1 139.4L906.1 146.5C906.1 148.3 906.1 150.0 906.0 151.8L895.9 151.8L895.9 159.8L905.2 159.8C903.9 167.6 900.9 174.9 893.7 180.7L893.7 156.4L887.2 156.4L887.2 172.6L883.8 173.0L883.8 152.6L894.4 152.6L894.4 145.1L883.8 145.1L883.8 135.0L893.2 135.0L893.2 127.5L876.0 127.5C876.6 125.4 877.0 123.4 877.4 121.3L870.2 119.9C869.0 127.4 866.6 135.1 863.5 140.1C865.2 140.9 868.4 142.7 869.7 143.8C871.1 141.4 872.5 138.3 873.7 135.0L876.2 135.0L876.2 145.1L864.7 145.1L864.7 152.6L876.2 152.6L876.2 173.8L872.9 174.2L872.9 156.4L866.4 156.4L866.4 181.8C872.3 180.8 879.7 179.8 887.2 178.6L887.2 182.2L893.7 182.2L893.7 181.4C895.7 182.8 898.4 185.5 899.8 187.1C906.7 181.6 910.3 174.7 912.2 167.3C915.5 175.6 920.1 182.6 926.3 187.0C927.7 184.7 930.5 181.4 932.5 179.6C925.8 175.6 920.8 168.2 917.8 159.8ZM1002.3 160.0L1002.3 151.3L973.6 151.3C974.0 148.4 974.1 145.5 974.1 142.7L974.1 140.0L996.2 140.0L996.2 131.2L974.1 131.2L974.1 119.9L965.1 119.9L965.1 131.2L955.1 131.2C956.1 128.4 957.0 125.6 957.8 122.6L948.7 120.7C946.5 129.9 942.3 139.2 937.1 144.7C939.4 145.7 943.5 147.9 945.4 149.3C947.4 146.8 949.4 143.6 951.2 140.0L965.1 140.0L965.1 142.7C965.1 145.5 964.9 148.4 964.5 151.3L937.6 151.3L937.6 160.0L962.0 160.0C958.6 167.9 951.3 175.0 936.2 179.4C938.1 181.2 940.7 185.0 941.7 187.0C957.9 182.0 966.2 173.9 970.2 164.7C976.0 176.0 984.7 183.4 998.8 187.1C999.9 184.7 1002.5 180.8 1004.5 179.0C991.1 176.2 982.3 169.7 977.2 160.0Z M133.5 291.3L142.0 291.3L142.0 241.4L133.5 241.4ZM134.0 228.7C137.6 232.6 142.5 238.1 144.7 241.3L151.3 236.6C148.8 233.4 143.8 228.2 140.2 224.6ZM168.9 253.9L168.9 265.9L158.0 265.9L158.0 253.9ZM177.2 273.5L177.2 246.2L150.2 246.2L150.2 277.5L158.0 277.5L158.0 273.5ZM194.5 227.6L153.0 227.6L153.0 235.6L186.0 235.6L186.0 280.9C186.0 282.2 185.5 282.7 184.2 282.7C183.0 282.7 178.6 282.8 174.9 282.5C176.0 284.7 177.3 288.5 177.6 290.9C183.7 291.0 187.9 290.8 190.7 289.5C193.5 288.1 194.5 285.8 194.5 281.0ZM269.6 277.8C266.7 275.2 261.2 271.0 257.2 268.3L252.5 272.9C256.5 275.9 262.1 280.3 264.6 283.0ZM248.8 248.0C248.5 264.9 247.6 272.9 232.8 277.2C234.2 278.5 235.9 281.1 236.6 282.8C253.6 277.5 255.4 267.4 255.9 248.0ZM237.9 239.0L237.9 269.0L244.9 269.0L244.9 245.1L259.3 245.1L259.3 268.6L266.6 268.6L266.6 239.0L253.7 239.0C254.5 237.4 255.4 235.6 256.2 233.8L269.3 233.8L269.3 227.0L235.6 227.0L235.6 233.8L247.9 233.8C247.3 235.6 246.7 237.4 246.0 239.0ZM224.8 236.0L214.3 236.0L214.3 232.6L224.8 232.6ZM224.8 244.9L214.3 244.9L214.3 241.4L224.8 241.4ZM232.8 226.9L206.6 226.9L206.6 250.7L232.8 250.7ZM224.0 273.1L234.4 273.1L234.4 266.9L224.0 266.9L224.0 261.0L235.9 261.0L235.9 254.8L203.3 254.8L203.3 261.0L216.8 261.0L216.8 277.5C215.4 276.0 214.3 274.4 213.3 272.3C213.6 269.6 213.8 266.9 213.9 264.0L206.9 263.6C206.8 273.3 205.8 281.9 201.7 287.3C203.3 288.2 206.3 290.2 207.6 291.4C209.6 288.5 210.9 285.0 211.9 280.9C217.6 288.6 226.5 289.9 239.8 289.9L267.2 289.9C267.7 287.8 268.9 284.5 270.1 282.9C264.2 283.2 244.6 283.2 239.9 283.2C233.6 283.2 228.2 282.9 224.0 281.6Z " clip-path="url(#satori_cp-id-1-0-0)" mask="url(#satori_om-id-1-0-0)"/><path fill="black" d="M137.3 515.6C140.8 515.6 143.9 512.6 143.9 507.4C143.9 502.8 141.7 499.7 137.8 499.7C136.1 499.7 134.4 500.6 133.0 501.8L133.1 499.1L133.1 493.0L130.6 493.0L130.6 515.3L132.6 515.3L132.8 513.7L133.0 513.7C134.3 514.9 135.9 515.6 137.3 515.6ZM136.8 513.5C135.8 513.5 134.5 513.1 133.1 511.9L133.1 503.9C134.6 502.6 135.9 501.8 137.2 501.8C140.1 501.8 141.2 504.1 141.2 507.5C141.2 511.2 139.4 513.5 136.8 513.5ZM148.0 521.8C151.0 521.8 152.6 519.5 153.7 516.5L159.4 500.1L156.9 500.1L154.2 508.5C153.8 509.9 153.3 511.4 152.9 512.8L152.8 512.8C152.3 511.4 151.8 509.8 151.3 508.5L148.2 500.1L145.6 500.1L151.7 515.3L151.3 516.4C150.7 518.3 149.6 519.7 147.9 519.7C147.5 519.7 147.0 519.6 146.7 519.5L146.2 521.5C146.7 521.7 147.3 521.8 148.0 521.8Z "/><clipPath id="satori_cp-id-1-0-1-0-2"><rect x="173" y="485" width="57" height="40"/></clipPath><mask id="satori_om-id-1-0-1-0-2"><rect x="173" y="485" width="57" height="40" fill="#fff"/></mask><path fill="black" d="M181.7 515.7C186.5 515.7 189.4 512.8 189.4 509.4C189.4 506.4 187.7 504.8 185.2 503.8L182.5 502.6C180.7 501.9 179.2 501.4 179.2 499.9C179.2 498.5 180.4 497.7 182.2 497.7C183.9 497.7 185.3 498.3 186.6 499.4L188.7 496.8C187.0 495.1 184.6 494.2 182.2 494.2C178.0 494.2 175.0 496.8 175.0 500.2C175.0 503.2 177.1 504.9 179.2 505.7L182.0 506.9C183.9 507.7 185.1 508.2 185.1 509.7C185.1 511.2 184.0 512.1 181.8 512.1C180 512.1 178.0 511.2 176.6 509.8L174.2 512.6C176.2 514.6 179.0 515.7 181.7 515.7ZM193.0 515.3L196.7 515.3L196.7 506.6C196.7 504.7 196.4 501.8 196.2 499.8L196.3 499.8L198.0 504.7L201.2 513.4L203.6 513.4L206.8 504.7L208.4 499.8L208.6 499.8C208.4 501.8 208.1 504.7 208.1 506.6L208.1 515.3L211.8 515.3L211.8 494.5L207.2 494.5L203.8 504.2C203.4 505.5 203.0 506.9 202.5 508.2L202.4 508.2C202.0 506.9 201.6 505.5 201.1 504.2L197.6 494.5L193.0 494.5ZM221.4 515.7C225.9 515.7 227.9 512.5 227.9 508.6L227.9 494.5L223.7 494.5L223.7 508.2C223.7 511.1 222.8 512.1 220.9 512.1C219.8 512.1 218.7 511.4 217.9 509.9L215.0 512.0C216.4 514.4 218.4 515.7 221.4 515.7Z " clip-path="url(#satori_cp-id-1-0-1-0-2)" mask="url(#satori_om-id-1-0-1-0-2)"/><clipPath id="satori_cp-id-1-0-1-1"><rect x="959" y="485" width="112" height="40"/></clipPath><mask id="satori_om-id-1-0-1-1"><rect x="959" y="485" width="112" height="40" fill="#fff"/></mask><path fill="black" d="M985.5 499.3L985.5 496.0L974.0 496.0L976.0 495.2C975.5 494.1 974.7 492.5 974.0 491.2L970.7 492.4C971.2 493.5 971.9 494.9 972.4 496.0L960.5 496.0L960.5 499.3L967.6 499.3C967.3 505.2 966.8 511.5 960.1 515.1C961.0 515.8 962.0 516.9 962.5 517.8C967.5 514.9 969.6 510.6 970.6 505.9L979.4 505.9C979.0 510.9 978.5 513.3 977.8 513.9C977.4 514.2 977.0 514.3 976.4 514.3C975.5 514.3 973.6 514.3 971.7 514.1C972.3 515.0 972.8 516.4 972.9 517.4C974.8 517.5 976.6 517.5 977.7 517.3C979.0 517.2 979.9 517.0 980.7 516.0C981.8 514.8 982.4 511.7 982.9 504.1C983.0 503.7 983.1 502.7 983.1 502.7L971.0 502.7C971.2 501.5 971.2 500.4 971.3 499.3ZM991.1 504.1C992.9 506.2 995.0 509.1 995.8 511.0L998.9 509.1C998.0 507.2 995.8 504.4 993.9 502.5ZM1013.7 497.2L1007.4 497.2L1007.4 491.6L1003.8 491.6L1003.8 497.2L988.3 497.2L988.3 500.5L1003.8 500.5L1003.8 513.3C1003.8 513.9 1003.5 514.2 1002.8 514.2C1002.1 514.2 999.7 514.2 997.4 514.1C997.9 515.1 998.7 516.7 998.9 517.8C1001.8 517.8 1004.1 517.7 1005.5 517.1C1006.9 516.5 1007.4 515.6 1007.4 513.3L1007.4 500.5L1013.7 500.5ZM1037.7 496.6L1037.0 496.7L1030.5 496.7L1032.2 495.8C1031.5 494.6 1030.1 492.6 1029.0 491.2L1026.0 492.8C1026.8 494.0 1027.9 495.5 1028.6 496.7L1017.6 496.7L1017.6 500.0L1034.5 500.0C1031.5 503.8 1026.7 508.1 1022.1 510.9L1022.0 510.9C1020.4 510.9 1018.2 512.4 1016.2 514.5L1018.6 517.7C1019.8 515.9 1021.0 514.0 1021.9 514.0C1022.5 514.0 1023.4 514.9 1024.6 515.6C1026.5 516.8 1028.8 517.2 1032.2 517.2C1035.0 517.2 1039.2 517.0 1041.2 516.9C1041.2 516.0 1041.8 514.2 1042.1 513.3C1039.5 513.7 1035.2 514.0 1032.3 514.0C1029.4 514.0 1027.0 513.8 1025.3 512.7C1030.9 509.0 1036.7 503.5 1040.3 498.3ZM1045.0 517.7L1048.5 517.7L1048.5 498.3L1045.0 498.3ZM1045.5 493.4C1046.7 494.7 1048.2 496.5 1048.7 497.7L1051.5 496.0C1050.9 494.7 1049.4 493.0 1048.1 491.7ZM1054.3 507.4L1059.7 507.4L1059.7 510.0L1054.3 510.0ZM1054.3 502.1L1059.7 502.1L1059.7 504.7L1054.3 504.7ZM1051.3 512.7L1062.8 512.7L1062.8 499.4L1051.3 499.4ZM1069.2 492.9L1052.5 492.9L1052.5 496.0L1065.7 496.0L1065.7 514.1C1065.7 514.4 1065.7 514.6 1065.3 514.6C1065.0 514.6 1063.9 514.6 1063.0 514.5C1063.4 515.4 1063.9 516.6 1064 517.5C1065.7 517.5 1067.1 517.5 1068.0 517.0C1068.9 516.4 1069.2 515.7 1069.2 514.1Z " clip-path="url(#satori_cp-id-1-0-1-1)" mask="url(#satori_om-id-1-0-1-1)"/></svg>