<svg width="1200" height="630" viewBox="0 0 1200 630" xmlns="http://www.w3.org/2000/svg"><rect x="0" y="0" width="1200" height="630" fill="#fefbfb"/><defs><clipPath id="satori_bc-id-0"><path x="105" y="39" width="1056" height="504" d="M109,39 h1048 a4,4 0 0 1 4,4 v496 a4,4 0 0 1 -4,4 h-1048 a4,4 0 0 1 -4,-4 v-496 a4,4 0 0 1 4,-4"/></clipPath></defs><g opacity="0.9"><path x="105" y="39" width="1056" height="504" fill="#ecebeb" d="M109,39 h1048 a4,4 0 0 1 4,4 v496 a4,4 0 0 1 -4,4 h-1048 a4,4 0 0 1 -4,-4 v-496 a4,4 0 0 1 4,-4"/><path width="1056" height="504" clip-path="url(#satori_bc-id-0)" fill="none" stroke="#000" stroke-width="8" d="M106.172,40.172 A4,4 0 0 1 109,39 h1048 a4,4 0 0 1 4,4 v496 a4,4 0 0 1 -4,4 h-1048 a4,4 0 0 1 -4,-4 v-496 A4,4 0 0 1 106.172,40.172"/></g><defs><clipPath id="satori_bc-id-1"><path x="72" y="63" width="1056" height="504" d="M76,63 h1048 a4,4 0 0 1 4,4 v496 a4,4 0 0 1 -4,4 h-1048 a4,4 0 0 1 -4,-4 v-496 a4,4 0 0 1 4,-4"/></clipPath></defs><path x="72" y="63" width="1056" height="504" fill="#fefbfb" d="M76,63 h1048 a4,4 0 0 1 4,4 v496 a4,4 0 0 1 -4,4 h-1048 a4,4 0 0 1 -4,-4 v-496 a4,4 0 0 1 4,-4"/><path width="1056" height="504" clip-path="url(#satori_bc-id-1)" fill="none" stroke="#000" stroke-width="8" d="M73.172,64.172 A4,4 0 0 1 76,63 h1048 a4,4 0 0 1 4,4 v496 a4,4 0 0 1 -4,4 h-1048 a4,4 0 0 1 -4,-4 v-496 A4,4 0 0 1 73.172,64.172"/><clipPath id="satori_cp-id-1-0-0"><rect x="128" y="103" width="944" height="209"/></clipPath><mask id="satori_om-id-1-0-0"><rect x="128" y="103" width="944" height="209" fill="#fff"/></mask><path fill="black" d="M154.7 142.0C153.8 149.9 152.2 156.5 149.7 162.1C147.3 160.0 144.9 158.0 142.6 156.2C143.8 151.8 145.0 146.9 146 142.0ZM158.2 133.9L156.7 134.1L147.6 134.1C148.4 129.6 149.2 125.0 149.7 120.7L141.3 120.2C141.0 124.5 140.2 129.4 139.4 134.1L131.0 134.1L131.0 142.0L137.9 142.0C136.6 148.4 135.0 154.4 133.4 159.0C137.1 162.1 141.3 165.8 145.5 169.4C141.6 174.5 136.7 178.0 130.6 180.2C132.2 181.9 134.3 185.1 135.6 187.3C142.2 184.4 147.5 180.6 151.7 175.3C154.1 177.5 156.2 179.8 157.7 181.6L163.4 174.4C161.6 172.5 159.2 170.1 156.4 167.7C160.4 159.5 162.6 148.8 163.5 134.7ZM173.9 171.7L173.9 135.3L186.6 135.3L186.6 171.7ZM165.8 127.3L165.8 185.2L173.9 185.2L173.9 179.8L186.6 179.8L186.6 184.0L195.1 184.0L195.1 127.3ZM217.9 119.8C214.4 129.9 208.2 140.0 201.9 146.4C203.4 148.5 205.7 153.2 206.5 155.3C208.1 153.5 209.9 151.5 211.5 149.2L211.5 186.9L220.1 186.9L220.1 135.6C222.4 131.2 224.3 126.8 226.0 122.4ZM242.2 149.5L242.2 160.7L234.2 160.7L234.2 149.5ZM250.2 168.1L250.2 142.0L226.2 142.0L226.2 172.8L234.2 172.8L234.2 168.1ZM269.7 126.1L225.3 126.1L225.3 134.3L256.7 134.3L256.7 176.8C256.7 178.2 256.3 178.6 254.9 178.6C253.4 178.6 248.4 178.6 243.7 178.4C244.9 180.9 246.3 184.7 246.6 187.2C253.3 187.2 258.2 186.9 261.2 185.6C264.3 184.2 265.4 181.9 265.4 177.0L265.4 134.3L269.7 134.3ZM279.8 155.1C281.4 149.5 282.7 141.1 283.0 134.8L276.9 134.0C276.4 140.0 275.1 148.0 273.4 152.8ZM301.1 145.4C300.2 141.8 297.7 136.1 295.5 131.7L291.6 133.4L291.6 119.9L283.1 119.9L283.1 187.0L291.6 187.0L291.6 138.6C293.0 142.0 294.2 145.7 294.8 148.3ZM321.0 138.7L328.2 138.7L328.2 151.8L320.7 151.8C320.9 149.6 321.0 147.4 321.0 145.3ZM341.1 160.0L341.1 151.8L336.6 151.8L336.6 130.7L321.0 130.7L321.0 119.9L312.3 119.9L312.3 130.7L299.9 130.7L299.9 138.7L312.3 138.7L312.3 145.2C312.3 147.4 312.3 149.5 312.1 151.8L296.6 151.8L296.6 160.0L311.0 160.0C309.0 167.9 304.4 175.5 293.5 180.8C295.3 182.4 298.4 185.6 299.5 187.5C309.4 181.8 314.9 174.2 317.8 166.2C321.8 175.8 327.5 183.1 336.5 187.3C337.8 184.8 340.5 181.1 342.6 179.3C333.6 175.9 327.7 168.8 324.1 160.0ZM401.3 143.7L401.3 150.0L393.2 150.0L393.2 143.7ZM377.0 143.7L384.9 143.7L384.9 150.0L377.0 150.0ZM384.9 137.1L369.1 137.1L369.1 156.5L381.2 156.5C377.3 161.3 371.3 165.7 365.4 168.0C367.1 169.5 369.6 172.5 370.8 174.5C376.0 171.9 380.9 167.5 384.9 162.6L384.9 175.6L393.2 175.6L393.2 163.0C398.5 166.4 403.8 170.3 406.6 173.4L411.9 167.5C408.4 164.3 402.0 160.0 396.2 156.5L409.7 156.5L409.7 137.1L393.2 137.1L393.2 133.3L412.0 133.3L412.0 126.1L393.2 126.1L393.2 120.0L384.9 120.0L384.9 126.1L367.1 126.1L367.1 133.3L384.9 133.3ZM365.4 133.9C363.0 130.5 357.9 125.6 353.9 122.2L347.5 126.9C351.4 130.5 356.4 135.7 358.5 139.2ZM364.2 145.6L346.9 145.6L346.9 153.5L356.0 153.5L356.0 172.6C352.7 174.0 349.3 176.5 345.9 179.6L351.2 187.0C354.4 182.9 358.1 178.7 360.6 178.7C362.4 178.7 364.8 180.7 368.2 182.3C373.5 185.0 379.8 185.8 388.4 185.8C395.4 185.8 406.8 185.4 411.6 185.0C411.8 182.7 413.0 178.9 413.8 176.7C406.9 177.6 396.0 178.3 388.7 178.3C380.9 178.3 374.4 177.8 369.6 175.3C367.2 174.2 365.6 173.2 364.2 172.4ZM420.5 185.1L483.5 185.1L483.5 177.6L420.5 177.6ZM432.7 150.3C438.3 146.8 443.4 142.3 447.5 137.4L447.5 148.2L456.0 148.2L456.0 137.4C460.3 142.4 465.7 146.9 471.6 150.3ZM463.6 159.5L439.4 159.5L439.4 155.9L463.6 155.9ZM463.6 168.6L439.4 168.6L439.4 164.9L463.6 164.9ZM484.1 135.3L484.1 127.9L456.0 127.9L456.0 119.9L447.5 119.9L447.5 127.9L420.0 127.9L420.0 135.3L439.3 135.3C433.7 140.8 425.9 145.6 417.9 148.2C419.7 149.8 422.2 153.0 423.4 155.0C426.0 154.0 428.5 152.8 430.9 151.4L430.9 174.2L472.6 174.2L472.6 150.9C475.1 152.3 477.7 153.4 480.4 154.4C481.5 152.3 484.0 149.1 485.9 147.4C477.8 145.1 469.8 140.6 464.1 135.3ZM540.6 161.1L514.5 161.1L514.5 158.0L540.6 158.0ZM514.5 178.3L514.5 174.9L540.6 174.9L540.6 178.3ZM540.6 169.6L514.5 169.6L514.5 166.4L540.6 166.4ZM556.0 148.6L556.0 141.8L520.3 141.8C520.8 140.8 521.2 139.7 521.6 138.7L552.1 138.7L552.1 132.2L523.9 132.2C524.2 131.1 524.6 129.9 524.9 128.8C534.7 128.3 544.2 127.5 551.8 126.2L546.8 120.1C534.7 122.1 513.8 123.0 496.3 123.0C497 124.7 497.8 127.5 497.9 129.4C503.5 129.4 509.5 129.4 515.4 129.2C515.2 130.2 514.9 131.2 514.6 132.2L497.1 132.2L497.1 138.7L512.3 138.7C511.9 139.7 511.5 140.8 511.0 141.8L492.0 141.8L492.0 148.6L507.4 148.6C503.0 155.4 497.3 161.3 489.8 165.4C491.5 167.1 494.0 170.3 495.2 172.3C499.4 169.8 503.0 166.9 506.3 163.6L506.3 187.3L514.5 187.3L514.5 184.7L540.6 184.7L540.6 187.3L549.2 187.3L549.2 151.5L515.5 151.5C516.1 150.5 516.7 149.6 517.2 148.6ZM579.9 198.3C593.3 198.3 601.8 192.2 601.8 184.0C601.8 177.0 596.5 173.9 586.8 173.9L579.9 173.9C575.2 173.9 573.6 172.8 573.6 170.6C573.6 169.0 574.3 168.1 575.3 167.2C577.1 167.7 578.9 168.1 580.5 168.1C589.2 168.1 596.1 163.5 596.1 154.4C596.1 151.9 595.3 149.7 594.3 148.3L601.1 148.3L601.1 140.5L586.6 140.5C584.9 140.0 582.8 139.5 580.5 139.5C572.0 139.5 564.2 144.6 564.2 154.1C564.2 158.8 566.8 162.6 569.6 164.6L569.6 164.9C567.2 166.7 565.1 169.5 565.1 172.5C565.1 175.8 566.7 177.9 568.8 179.3L568.8 179.6C565.1 181.7 563.0 184.6 563.0 188.0C563.0 195.1 570.4 198.3 579.9 198.3ZM580.5 161.6C577.0 161.6 574.2 158.9 574.2 154.1C574.2 149.4 576.9 146.7 580.5 146.7C584.1 146.7 586.9 149.4 586.9 154.1C586.9 158.9 584.0 161.6 580.5 161.6ZM581.5 191.6C575.6 191.6 571.9 189.7 571.9 186.3C571.9 184.7 572.7 183.1 574.5 181.6C575.9 182.0 577.6 182.2 580.1 182.2L585.0 182.2C589.3 182.2 591.7 182.9 591.7 185.8C591.7 189.0 587.5 191.6 581.5 191.6ZM608.7 180.8L619.3 180.8L619.3 140.5L608.7 140.5ZM614 134.0C617.6 134.0 620.1 131.7 620.1 128.2C620.1 124.8 617.6 122.5 614 122.5C610.3 122.5 607.8 124.8 607.8 128.2C607.8 131.7 610.3 134.0 614 134.0ZM645.3 181.9C648.8 181.9 651.7 181.1 653.8 180.3L652.1 172.6C651.0 173.1 649.4 173.5 648.1 173.5C644.5 173.5 642.7 171.3 642.7 166.7L642.7 148.9L652.6 148.9L652.6 140.5L642.7 140.5L642.7 129.7L633.9 129.7L632.6 140.5L626.4 141.0L626.4 148.9L632.1 148.9L632.1 166.7C632.1 175.7 635.7 181.9 645.3 181.9ZM660.8 180.8L671.4 180.8L671.4 153.1C674.3 150.2 676.4 148.6 679.7 148.6C683.7 148.6 685.4 150.8 685.4 157.0L685.4 180.8L696.0 180.8L696.0 155.7C696.0 145.6 692.3 139.5 683.6 139.5C678.1 139.5 674.1 142.4 670.9 145.4L671.4 137.9L671.4 123.4L660.8 123.4ZM718.9 181.9C724.4 181.9 728.3 179.2 731.7 175.1L732.0 175.1L732.8 180.8L741.4 180.8L741.4 140.5L730.9 140.5L730.9 167.7C728.1 171.3 726.0 172.8 722.6 172.8C718.8 172.8 717.0 170.6 717.0 164.4L717.0 140.5L706.4 140.5L706.4 165.7C706.4 175.8 710.2 181.9 718.9 181.9ZM773.0 181.9C781.8 181.9 790.1 173.9 790.1 160.0C790.1 147.7 784.1 139.5 774.2 139.5C770.2 139.5 766.2 141.5 763.0 144.3L763.3 137.9L763.3 123.4L752.7 123.4L752.7 180.8L761.0 180.8L762.0 176.6L762.2 176.6C765.5 180.0 769.4 181.9 773.0 181.9ZM770.6 173.1C768.4 173.1 765.8 172.4 763.3 170.1L763.3 152.4C766.1 149.6 768.5 148.2 771.2 148.2C776.8 148.2 779.2 152.5 779.2 160.2C779.2 169.0 775.5 173.1 770.6 173.1ZM861.7 132.0C859.6 128.6 855.1 123.8 851.3 120.4L844.9 124.3C848.6 128.0 853.0 133.0 854.8 136.4ZM813.9 120.4C809.6 131.3 802.1 141.9 794.3 148.5C795.8 150.6 798.2 155.2 799.0 157.2C801.6 154.9 804.1 152.2 806.5 149.2L806.5 187.0L815.5 187.0L815.5 136.4C818.0 132.0 820.3 127.5 822.2 123.1ZM862.8 146.3L861.5 138.2L841.0 140.9C840.5 134.8 840.2 128.0 840.1 120.9L831.4 120.9C831.6 128.5 832.0 135.6 832.5 142.0L818.0 144.0L819.2 152.3L833.4 150.3C836.0 172.3 841.7 185.8 853.8 187.0C857.9 187.2 861.8 183.9 863.6 170.0C862.0 169.1 858.2 167.0 856.6 165.1C856.0 173.1 855.1 176.7 853.5 176.5C847.7 175.8 843.9 165.2 841.9 149.2ZM885.6 170.9L880.3 170.9L880.3 152.8L885.6 152.8ZM868.7 130.8L876.4 130.8C874.6 140.3 871.6 149.1 867.2 155.1C868.3 157.5 869.8 163.0 870.1 165.3C871.1 164.1 872.1 162.7 873.1 161.3L873.1 183.7L880.3 183.7L880.3 178.4L892.9 178.4L892.9 145.4L880.5 145.4C882.1 140.7 883.4 135.7 884.4 130.8L894.5 130.8L894.5 123.0L868.7 123.0ZM921.2 165.1L895.7 165.1L895.7 172.7L921.2 172.7ZM925.8 150.9C926.8 141.9 927.8 131.8 928.4 123.8L922.3 123.2L920.9 123.5L897.0 123.5L897.0 131.2L919.6 131.2C919.1 137.1 918.3 144.4 917.6 150.9L906.8 150.9C907.5 145.6 908.0 139.7 908.5 134.5L900.5 134.0C900.0 141.8 898.9 151.8 897.9 158.2L925.0 158.2C923.9 171.3 922.4 176.9 920.9 178.5C920.2 179.3 919.5 179.4 918.3 179.4C917.0 179.4 914.2 179.4 911.3 179.1C912.5 181.2 913.3 184.4 913.4 186.8C917.0 186.9 920.2 186.8 922.1 186.6C924.5 186.3 926.2 185.6 927.9 183.7C930.4 181.0 932.0 173.2 933.4 154.4C933.5 153.3 933.6 150.9 933.6 150.9ZM1006.3 126.6L982.4 126.6C981.7 124.3 980.5 121.7 979.3 119.6L970.6 121.4C971.4 123.0 972.2 124.8 972.8 126.6L945.6 126.6L945.6 146.8C945.6 157.4 945.1 172.4 939.2 182.5C941.2 183.4 944.9 186.0 946.4 187.4C953.0 176.3 954.1 158.5 954.1 146.8L954.1 134.6L970.5 134.6C969.9 136.7 969.2 138.8 968.4 140.8L956.8 140.8L956.8 148.4L964.9 148.4C963.7 150.7 962.8 152.4 962.2 153.2C960.8 155.5 959.5 156.9 957.9 157.3C959.0 159.7 960.4 163.8 960.8 165.5C961.5 164.9 964.6 164.4 968.0 164.4L978.8 164.4L978.8 170.2L955.0 170.2L955.0 178.0L978.8 178.0L978.8 187.1L987.2 187.1L987.2 178.0L1006.2 178.0L1006.2 170.2L987.2 170.2L987.2 164.4L1001.4 164.4L1001.4 156.8L987.2 156.8L987.2 150.8L978.8 150.8L978.8 156.8L969.1 156.8C970.8 154.2 972.5 151.5 974.1 148.4L1003.9 148.4L1003.9 140.8L978.0 140.8C978.5 139.5 979.1 138.3 979.6 137.1L971.8 134.6L1006.3 134.6Z M168.4 260.5L168.4 245.0L184.7 245.0L184.7 260.5ZM143.1 260.5L143.1 245.0L159.3 245.0L159.3 260.5ZM168.4 236.6L168.4 224.1L159.3 224.1L159.3 236.6L134.5 236.6L134.5 272.9L143.1 272.9L143.1 268.9L159.3 268.9L159.3 291.4L168.4 291.4L168.4 268.9L184.7 268.9L184.7 272.5L193.7 272.5L193.7 236.6ZM218.8 246.9L252.7 246.9L252.7 252.1L218.8 252.1ZM218.8 234.6L252.7 234.6L252.7 239.9L218.8 239.9ZM269.0 267.8L240.2 267.8L240.2 259.6L261.6 259.6L261.6 227.1L210.4 227.1L210.4 259.6L231.3 259.6L231.3 267.8L203.2 267.8L203.2 276.0L231.3 276.0L231.3 291.3L240.2 291.3L240.2 276.0L269.0 276.0ZM288.6 261.9L297.5 261.9L297.5 266.8L288.6 266.8ZM297.5 240.1L297.5 244.3L288.6 244.3L288.6 240.1ZM288.6 250.8L297.5 250.8L297.5 255.4L288.6 255.4ZM309.7 266.8L305.3 266.8L305.3 240.1L310.2 240.1L310.2 232.6L305.3 232.6L305.3 225.0L297.5 225.0L297.5 232.6L288.6 232.6L288.6 225.0L280.9 225.0L280.9 232.6L275.2 232.6L275.2 240.1L280.9 240.1L280.9 266.8L274.4 266.8L274.4 274.3L309.7 274.3ZM283.3 274.8C281.3 279.1 277.5 283.7 273.8 286.5C275.7 287.6 279.1 290.1 280.6 291.6C284.5 288.1 288.8 282.4 291.3 277.2ZM320.6 259.9C320.7 257.7 320.7 255.6 320.7 253.7L320.7 251.0L331.0 251.0L331.0 259.9ZM331.0 235.1L331.0 243.5L320.7 243.5L320.7 235.1ZM339.3 227.3L312.7 227.3L312.7 253.7C312.7 263.1 312.3 275.2 308.1 284.2C306.3 281.3 303.0 277.3 300.4 274.4L293.9 278.0C296.7 281.3 300.2 286.0 301.6 288.8L307.6 285.5C307.4 285.9 307.1 286.3 306.8 286.7C308.7 287.4 312.2 290.0 313.6 291.5C317.5 285.0 319.3 276.0 320.1 267.5L331.0 267.5L331.0 281.7C331.0 282.9 330.7 283.2 329.6 283.2C328.6 283.2 325.1 283.3 322.0 283.1C323.1 285.2 324.2 289.0 324.5 291.2C329.8 291.3 333.5 291.1 336.0 289.7C338.5 288.3 339.3 286.1 339.3 281.9ZM366.8 286.1C371.3 286.1 376.2 284.6 380.1 281.2L375.8 274.2C373.6 276.1 370.9 277.5 368.0 277.5C362.2 277.5 358.0 272.6 358.0 264.9C358.0 257.4 362.1 252.4 368.3 252.4C370.6 252.4 372.4 253.4 374.5 255.1L379.5 248.2C376.5 245.7 372.7 243.8 367.8 243.8C356.8 243.8 347.2 251.6 347.2 264.9C347.2 278.3 355.7 286.1 366.8 286.1ZM402.3 286.1C412.4 286.1 421.7 278.3 421.7 264.9C421.7 251.6 412.4 243.8 402.3 243.8C392.2 243.8 383.0 251.6 383.0 264.9C383.0 278.3 392.2 286.1 402.3 286.1ZM402.3 277.5C396.8 277.5 393.8 272.6 393.8 264.9C393.8 257.4 396.8 252.4 402.3 252.4C407.8 252.4 410.9 257.4 410.9 264.9C410.9 272.6 407.8 277.5 402.3 277.5ZM430.5 285.1L441.1 285.1L441.1 257.4C443.9 254.4 446.5 252.8 448.8 252.8C452.6 252.8 454.5 255.0 454.5 261.3L454.5 285.1L465.0 285.1L465.0 257.4C467.9 254.4 470.5 252.8 472.8 252.8C476.6 252.8 478.4 255.0 478.4 261.3L478.4 285.1L489.0 285.1L489.0 260.0C489.0 249.8 485.0 243.8 476.5 243.8C471.2 243.8 467.3 246.9 463.7 250.8C461.7 246.4 458.3 243.8 452.6 243.8C447.3 243.8 443.6 246.7 440.2 250.2L440.0 250.2L439.2 244.8L430.5 244.8ZM500.0 285.1L510.5 285.1L510.5 257.4C513.3 254.4 515.9 252.8 518.2 252.8C522.1 252.8 523.9 255.0 523.9 261.3L523.9 285.1L534.4 285.1L534.4 257.4C537.3 254.4 539.9 252.8 542.2 252.8C546.0 252.8 547.8 255.0 547.8 261.3L547.8 285.1L558.4 285.1L558.4 260.0C558.4 249.8 554.5 243.8 545.9 243.8C540.6 243.8 536.7 246.9 533.1 250.8C531.1 246.4 527.7 243.8 522.0 243.8C516.7 243.8 513.0 246.7 509.6 250.2L509.4 250.2L508.6 244.8L500.0 244.8ZM569.4 285.1L579.9 285.1L579.9 244.8L569.4 244.8ZM574.7 238.3C578.3 238.3 580.8 236.0 580.8 232.5C580.8 229.0 578.3 226.7 574.7 226.7C571.0 226.7 568.5 229.0 568.5 232.5C568.5 236.0 571.0 238.3 574.7 238.3ZM606.0 286.1C609.5 286.1 612.3 285.3 614.5 284.6L612.8 276.9C611.7 277.3 610.1 277.8 608.8 277.8C605.2 277.8 603.3 275.6 603.3 271.0L603.3 253.1L613.3 253.1L613.3 244.8L603.3 244.8L603.3 233.9L594.6 233.9L593.3 244.8L587.1 245.3L587.1 253.1L592.8 253.1L592.8 271.0C592.8 280.0 596.4 286.1 606.0 286.1ZM632.1 286.1C642.7 286.1 648.2 280.4 648.2 273.4C648.2 265.9 642.3 263.2 637.0 261.2C632.7 259.6 629.0 258.5 629.0 255.6C629.0 253.3 630.7 251.7 634.4 251.7C637.3 251.7 640.1 253.1 643.0 255.2L647.8 248.7C644.5 246.2 639.9 243.8 634.1 243.8C624.9 243.8 619.0 248.9 619.0 256.1C619.0 262.9 624.7 266.0 629.8 267.9C634.1 269.6 638.3 270.9 638.3 273.9C638.3 276.5 636.5 278.2 632.4 278.2C628.7 278.2 625.2 276.6 621.6 273.8L616.8 280.4C620.8 283.7 626.7 286.1 632.1 286.1Z " clip-path="url(#satori_cp-id-1-0-0)" mask="url(#satori_om-id-1-0-0)"/><path fill="black" d="M137.3 515.6C140.8 515.6 143.9 512.6 143.9 507.4C143.9 502.8 141.7 499.7 137.8 499.7C136.1 499.7 134.4 500.6 133.0 501.8L133.1 499.1L133.1 493.0L130.6 493.0L130.6 515.3L132.6 515.3L132.8 513.7L133.0 513.7C134.3 514.9 135.9 515.6 137.3 515.6ZM136.8 513.5C135.8 513.5 134.5 513.1 133.1 511.9L133.1 503.9C134.6 502.6 135.9 501.8 137.2 501.8C140.1 501.8 141.2 504.1 141.2 507.5C141.2 511.2 139.4 513.5 136.8 513.5ZM148.0 521.8C151.0 521.8 152.6 519.5 153.7 516.5L159.4 500.1L156.9 500.1L154.2 508.5C153.8 509.9 153.3 511.4 152.9 512.8L152.8 512.8C152.3 511.4 151.8 509.8 151.3 508.5L148.2 500.1L145.6 500.1L151.7 515.3L151.3 516.4C150.7 518.3 149.6 519.7 147.9 519.7C147.5 519.7 147.0 519.6 146.7 519.5L146.2 521.5C146.7 521.7 147.3 521.8 148.0 521.8Z "/><clipPath id="satori_cp-id-1-0-1-0-2"><rect x="173" y="485" width="57" height="40"/></clipPath><mask id="satori_om-id-1-0-1-0-2"><rect x="173" y="485" width="57" height="40" fill="#fff"/></mask><path fill="black" d="M181.7 515.7C186.5 515.7 189.4 512.8 189.4 509.4C189.4 506.4 187.7 504.8 185.2 503.8L182.5 502.6C180.7 501.9 179.2 501.4 179.2 499.9C179.2 498.5 180.4 497.7 182.2 497.7C183.9 497.7 185.3 498.3 186.6 499.4L188.7 496.8C187.0 495.1 184.6 494.2 182.2 494.2C178.0 494.2 175.0 496.8 175.0 500.2C175.0 503.2 177.1 504.9 179.2 505.7L182.0 506.9C183.9 507.7 185.1 508.2 185.1 509.7C185.1 511.2 184.0 512.1 181.8 512.1C180 512.1 178.0 511.2 176.6 509.8L174.2 512.6C176.2 514.6 179.0 515.7 181.7 515.7ZM193.0 515.3L196.7 515.3L196.7 506.6C196.7 504.7 196.4 501.8 196.2 499.8L196.3 499.8L198.0 504.7L201.2 513.4L203.6 513.4L206.8 504.7L208.4 499.8L208.6 499.8C208.4 501.8 208.1 504.7 208.1 506.6L208.1 515.3L211.8 515.3L211.8 494.5L207.2 494.5L203.8 504.2C203.4 505.5 203.0 506.9 202.5 508.2L202.4 508.2C202.0 506.9 201.6 505.5 201.1 504.2L197.6 494.5L193.0 494.5ZM221.4 515.7C225.9 515.7 227.9 512.5 227.9 508.6L227.9 494.5L223.7 494.5L223.7 508.2C223.7 511.1 222.8 512.1 220.9 512.1C219.8 512.1 218.7 511.4 217.9 509.9L215.0 512.0C216.4 514.4 218.4 515.7 221.4 515.7Z " clip-path="url(#satori_cp-id-1-0-1-0-2)" mask="url(#satori_om-id-1-0-1-0-2)"/><clipPath id="satori_cp-id-1-0-1-1"><rect x="959" y="485" width="112" height="40"/></clipPath><mask id="satori_om-id-1-0-1-1"><rect x="959" y="485" width="112" height="40" fill="#fff"/></mask><path fill="black" d="M985.5 499.3L985.5 496.0L974.0 496.0L976.0 495.2C975.5 494.1 974.7 492.5 974.0 491.2L970.7 492.4C971.2 493.5 971.9 494.9 972.4 496.0L960.5 496.0L960.5 499.3L967.6 499.3C967.3 505.2 966.8 511.5 960.1 515.1C961.0 515.8 962.0 516.9 962.5 517.8C967.5 514.9 969.6 510.6 970.6 505.9L979.4 505.9C979.0 510.9 978.5 513.3 977.8 513.9C977.4 514.2 977.0 514.3 976.4 514.3C975.5 514.3 973.6 514.3 971.7 514.1C972.3 515.0 972.8 516.4 972.9 517.4C974.8 517.5 976.6 517.5 977.7 517.3C979.0 517.2 979.9 517.0 980.7 516.0C981.8 514.8 982.4 511.7 982.9 504.1C983.0 503.7 983.1 502.7 983.1 502.7L971.0 502.7C971.2 501.5 971.2 500.4 971.3 499.3ZM991.1 504.1C992.9 506.2 995.0 509.1 995.8 511.0L998.9 509.1C998.0 507.2 995.8 504.4 993.9 502.5ZM1013.7 497.2L1007.4 497.2L1007.4 491.6L1003.8 491.6L1003.8 497.2L988.3 497.2L988.3 500.5L1003.8 500.5L1003.8 513.3C1003.8 513.9 1003.5 514.2 1002.8 514.2C1002.1 514.2 999.7 514.2 997.4 514.1C997.9 515.1 998.7 516.7 998.9 517.8C1001.8 517.8 1004.1 517.7 1005.5 517.1C1006.9 516.5 1007.4 515.6 1007.4 513.3L1007.4 500.5L1013.7 500.5ZM1037.7 496.6L1037.0 496.7L1030.5 496.7L1032.2 495.8C1031.5 494.6 1030.1 492.6 1029.0 491.2L1026.0 492.8C1026.8 494.0 1027.9 495.5 1028.6 496.7L1017.6 496.7L1017.6 500.0L1034.5 500.0C1031.5 503.8 1026.7 508.1 1022.1 510.9L1022.0 510.9C1020.4 510.9 1018.2 512.4 1016.2 514.5L1018.6 517.7C1019.8 515.9 1021.0 514.0 1021.9 514.0C1022.5 514.0 1023.4 514.9 1024.6 515.6C1026.5 516.8 1028.8 517.2 1032.2 517.2C1035.0 517.2 1039.2 517.0 1041.2 516.9C1041.2 516.0 1041.8 514.2 1042.1 513.3C1039.5 513.7 1035.2 514.0 1032.3 514.0C1029.4 514.0 1027.0 513.8 1025.3 512.7C1030.9 509.0 1036.7 503.5 1040.3 498.3ZM1045.0 517.7L1048.5 517.7L1048.5 498.3L1045.0 498.3ZM1045.5 493.4C1046.7 494.7 1048.2 496.5 1048.7 497.7L1051.5 496.0C1050.9 494.7 1049.4 493.0 1048.1 491.7ZM1054.3 507.4L1059.7 507.4L1059.7 510.0L1054.3 510.0ZM1054.3 502.1L1059.7 502.1L1059.7 504.7L1054.3 504.7ZM1051.3 512.7L1062.8 512.7L1062.8 499.4L1051.3 499.4ZM1069.2 492.9L1052.5 492.9L1052.5 496.0L1065.7 496.0L1065.7 514.1C1065.7 514.4 1065.7 514.6 1065.3 514.6C1065.0 514.6 1063.9 514.6 1063.0 514.5C1063.4 515.4 1063.9 516.6 1064 517.5C1065.7 517.5 1067.1 517.5 1068.0 517.0C1068.9 516.4 1069.2 515.7 1069.2 514.1Z " clip-path="url(#satori_cp-id-1-0-1-1)" mask="url(#satori_om-id-1-0-1-1)"/></svg>