<svg width="1200" height="630" viewBox="0 0 1200 630" xmlns="http://www.w3.org/2000/svg"><rect x="0" y="0" width="1200" height="630" fill="#fefbfb"/><defs><clipPath id="satori_bc-id-0"><path x="105" y="39" width="1056" height="504" d="M109,39 h1048 a4,4 0 0 1 4,4 v496 a4,4 0 0 1 -4,4 h-1048 a4,4 0 0 1 -4,-4 v-496 a4,4 0 0 1 4,-4"/></clipPath></defs><g opacity="0.9"><path x="105" y="39" width="1056" height="504" fill="#ecebeb" d="M109,39 h1048 a4,4 0 0 1 4,4 v496 a4,4 0 0 1 -4,4 h-1048 a4,4 0 0 1 -4,-4 v-496 a4,4 0 0 1 4,-4"/><path width="1056" height="504" clip-path="url(#satori_bc-id-0)" fill="none" stroke="#000" stroke-width="8" d="M106.172,40.172 A4,4 0 0 1 109,39 h1048 a4,4 0 0 1 4,4 v496 a4,4 0 0 1 -4,4 h-1048 a4,4 0 0 1 -4,-4 v-496 A4,4 0 0 1 106.172,40.172"/></g><defs><clipPath id="satori_bc-id-1"><path x="72" y="63" width="1056" height="504" d="M76,63 h1048 a4,4 0 0 1 4,4 v496 a4,4 0 0 1 -4,4 h-1048 a4,4 0 0 1 -4,-4 v-496 a4,4 0 0 1 4,-4"/></clipPath></defs><path x="72" y="63" width="1056" height="504" fill="#fefbfb" d="M76,63 h1048 a4,4 0 0 1 4,4 v496 a4,4 0 0 1 -4,4 h-1048 a4,4 0 0 1 -4,-4 v-496 a4,4 0 0 1 4,-4"/><path width="1056" height="504" clip-path="url(#satori_bc-id-1)" fill="none" stroke="#000" stroke-width="8" d="M73.172,64.172 A4,4 0 0 1 76,63 h1048 a4,4 0 0 1 4,4 v496 a4,4 0 0 1 -4,4 h-1048 a4,4 0 0 1 -4,-4 v-496 A4,4 0 0 1 73.172,64.172"/><clipPath id="satori_cp-id-1-0-0"><rect x="128" y="103" width="944" height="209"/></clipPath><mask id="satori_om-id-1-0-0"><rect x="128" y="103" width="944" height="209" fill="#fff"/></mask><path fill="black" d="M154.7 142.0C153.8 149.9 152.2 156.5 149.7 162.1C147.3 160.0 144.9 158.0 142.6 156.2C143.8 151.8 145.0 146.9 146 142.0ZM158.2 133.9L156.7 134.1L147.6 134.1C148.4 129.6 149.2 125.0 149.7 120.7L141.3 120.2C141.0 124.5 140.2 129.4 139.4 134.1L131.0 134.1L131.0 142.0L137.9 142.0C136.6 148.4 135.0 154.4 133.4 159.0C137.1 162.1 141.3 165.8 145.5 169.4C141.6 174.5 136.7 178.0 130.6 180.2C132.2 181.9 134.3 185.1 135.6 187.3C142.2 184.4 147.5 180.6 151.7 175.3C154.1 177.5 156.2 179.8 157.7 181.6L163.4 174.4C161.6 172.5 159.2 170.1 156.4 167.7C160.4 159.5 162.6 148.8 163.5 134.7ZM173.9 171.7L173.9 135.3L186.6 135.3L186.6 171.7ZM165.8 127.3L165.8 185.2L173.9 185.2L173.9 179.8L186.6 179.8L186.6 184.0L195.1 184.0L195.1 127.3ZM217.9 119.8C214.4 129.9 208.2 140.0 201.9 146.4C203.4 148.5 205.7 153.2 206.5 155.3C208.1 153.5 209.9 151.5 211.5 149.2L211.5 186.9L220.1 186.9L220.1 135.6C222.4 131.2 224.3 126.8 226.0 122.4ZM242.2 149.5L242.2 160.7L234.2 160.7L234.2 149.5ZM250.2 168.1L250.2 142.0L226.2 142.0L226.2 172.8L234.2 172.8L234.2 168.1ZM269.7 126.1L225.3 126.1L225.3 134.3L256.7 134.3L256.7 176.8C256.7 178.2 256.3 178.6 254.9 178.6C253.4 178.6 248.4 178.6 243.7 178.4C244.9 180.9 246.3 184.7 246.6 187.2C253.3 187.2 258.2 186.9 261.2 185.6C264.3 184.2 265.4 181.9 265.4 177.0L265.4 134.3L269.7 134.3ZM340.3 137.4L340.3 129.9L313.6 129.9C314.0 126.8 314.3 123.6 314.6 120.4L306.7 119.7C306.4 123.2 306.1 126.6 305.7 129.9L297.6 129.9L297.6 137.1C297.0 135.3 296.2 133.5 295.4 131.7L291.1 133.3L291.1 119.8L283.2 119.8L283.2 134.8L277.2 134.0C276.9 140.1 275.8 148.1 274.0 152.8L280.2 155.1C281.8 150.5 282.8 143.8 283.2 138.1L283.2 187.0L291.1 187.0L291.1 137.4C292.4 141.3 293.5 145.6 293.8 148.4L300.0 146.1C299.7 143.7 298.9 140.6 297.7 137.4L304.6 137.4C302.5 151.2 298.6 162.8 291.9 170.8C293.7 172.1 296.9 175.2 298.1 176.7C305.6 167.1 309.9 153.5 312.5 137.4ZM333.4 145.1C332.4 151.2 330.6 158.0 328.5 162.4C330.2 163.1 333.1 164.3 334.6 165.2C336.5 160.5 338.7 153.1 339.9 146.5ZM313.5 145.5C312.8 151.5 311.5 157.7 309.2 162.0C310.7 162.6 313.2 164.2 314.4 165.2C316.9 160.6 318.7 153.6 319.7 146.6ZM322.2 139.6C321.2 161.3 318.2 175.3 302.1 180.5C303.7 182.1 305.7 185.2 306.6 187.3C315.1 184.0 320.4 179.0 323.7 171.7C326.8 178.2 331.1 183.5 336.8 186.8C338.0 184.7 340.3 181.9 342.0 180.4C334.7 177.0 329.5 170.1 326.7 162.2C328.1 155.8 328.8 148.4 329.2 139.8ZM391.3 167.8C388.2 170.1 384.5 171.9 380.1 173.5C376.1 171.9 372.5 170.1 369.7 167.8ZM367.0 150.0L396.4 150.0L396.4 153.0L367.0 153.0ZM367.0 141.8L396.4 141.8L396.4 144.7L367.0 144.7ZM399.6 161.3L398.2 161.6L373.1 161.6C373.8 160.8 374.5 159.9 375.2 159.0L374.0 158.6L405.4 158.6L405.4 136.1L360.2 136.1C361.1 135.1 362 134.0 362.7 133.0L410.2 133.0L410.2 126.1L367.5 126.1C368.3 124.8 368.9 123.5 369.6 122.2L361.8 119.9C358.7 126.6 352.9 132.9 347.0 136.9C348.5 138.4 351.3 141.8 352.4 143.3C354.4 141.8 356.4 140.0 358.3 138.1L358.3 158.6L366.0 158.6C362 163.1 355.9 167.3 350.0 170.0C351.7 171.2 354.7 173.9 355.9 175.4C358.4 173.9 361.1 172.2 363.6 170.3C365.7 172.6 368.3 174.5 371 176.2C363.2 178.0 354.7 179.1 345.9 179.6C347.2 181.6 348.5 185.0 349.0 187.1C360.2 186.1 371.1 184.2 380.8 180.9C389 183.9 398.7 185.7 409.4 186.4C410.4 184.2 412.3 180.8 414.0 179.0C405.6 178.8 397.8 177.9 390.9 176.5C396.6 173.4 401.4 169.5 404.8 164.6ZM427.6 180.8L440.6 180.8L446.5 154.5C447.3 150.3 448.0 146.2 448.8 142.1L449.0 142.1C449.7 146.2 450.5 150.3 451.4 154.5L457.3 180.8L470.6 180.8L480.4 127.5L470.4 127.5L466.1 153.6C465.3 159.1 464.5 164.8 463.7 170.6L463.4 170.6C462.2 164.8 461.1 159.0 460.0 153.6L453.9 127.5L444.7 127.5L438.5 153.6C437.4 159.1 436.2 164.8 435.2 170.6L434.9 170.6C434.1 164.8 433.2 159.2 432.4 153.6L428.2 127.5L417.4 127.5ZM487.6 180.8L498.2 180.8L498.2 140.5L487.6 140.5ZM492.9 134.0C496.5 134.0 499.0 131.7 499.0 128.2C499.0 124.8 496.5 122.5 492.9 122.5C489.2 122.5 486.7 124.8 486.7 128.2C486.7 131.7 489.2 134.0 492.9 134.0ZM509.5 180.8L520.0 180.8L520.0 153.1C523.0 150.2 525.1 148.6 528.4 148.6C532.4 148.6 534.1 150.8 534.1 157.0L534.1 180.8L544.7 180.8L544.7 155.7C544.7 145.6 540.9 139.5 532.2 139.5C526.7 139.5 522.6 142.4 519.1 145.9L518.9 145.9L518.1 140.5L509.5 140.5ZM569.8 181.9C574.0 181.9 578 179.6 581.0 176.7L581.2 176.7L582.0 180.8L590.6 180.8L590.6 123.4L580.1 123.4L580.1 137.6L580.4 143.9C577.6 141.2 574.8 139.5 570.2 139.5C561.5 139.5 553.3 147.6 553.3 160.7C553.3 173.9 559.8 181.9 569.8 181.9ZM572.5 173.1C567.2 173.1 564.2 169.0 564.2 160.6C564.2 152.6 568.0 148.2 572.5 148.2C575.0 148.2 577.6 149.0 580.1 151.3L580.1 169.0C577.7 172.0 575.3 173.1 572.5 173.1ZM618.8 181.9C628.9 181.9 638.2 174.1 638.2 160.7C638.2 147.3 628.9 139.5 618.8 139.5C608.7 139.5 599.5 147.3 599.5 160.7C599.5 174.1 608.7 181.9 618.8 181.9ZM618.8 173.2C613.4 173.2 610.3 168.3 610.3 160.7C610.3 153.1 613.4 148.2 618.8 148.2C624.3 148.2 627.4 153.1 627.4 160.7C627.4 168.3 624.3 173.2 618.8 173.2ZM653.2 180.8L665.3 180.8L669.4 163.3C670.2 159.5 670.8 155.8 671.6 151.5L672.0 151.5C672.8 155.8 673.4 159.5 674.3 163.3L678.5 180.8L691.0 180.8L700.9 140.5L691.1 140.5L686.7 160.4C686 164.4 685.4 168.2 684.7 172.2L684.3 172.2C683.5 168.2 682.8 164.4 681.8 160.4L676.8 140.5L667.4 140.5L662.5 160.4C661.5 164.3 660.8 168.2 660.0 172.2L659.7 172.2C659 168.2 658.5 164.4 657.7 160.4L653.3 140.5L642.7 140.5ZM720.1 181.9C730.6 181.9 736.2 176.2 736.2 169.1C736.2 161.6 730.3 159.0 725.0 156.9C720.7 155.4 717.0 154.3 717.0 151.3C717.0 149.0 718.7 147.4 722.4 147.4C725.3 147.4 728.1 148.8 731 150.9L735.8 144.5C732.4 142.0 727.9 139.5 722.1 139.5C712.9 139.5 707.0 144.6 707.0 151.8C707.0 158.6 712.7 161.7 717.8 163.6C722.1 165.3 726.2 166.7 726.2 169.7C726.2 172.2 724.4 173.9 720.4 173.9C716.7 173.9 713.2 172.4 709.6 169.5L704.8 176.2C708.8 179.5 714.7 181.9 720.1 181.9Z M762.0 180.8L795.5 180.8L795.5 171.9L772.7 171.9L772.7 157.7L791.4 157.7L791.4 148.7L772.7 148.7L772.7 136.4L794.7 136.4L794.7 127.5L762.0 127.5ZM806.3 180.8L817.0 180.8L817.0 159.2L835.9 159.2L835.9 150.3L817.0 150.3L817.0 136.4L839.1 136.4L839.1 127.5L806.3 127.5ZM848.4 180.8L859.1 180.8L859.1 127.5L848.4 127.5ZM907.1 123.8C910.8 131.5 916.2 139.4 921.6 146.1L883.6 146.1C889.0 139.7 893.8 131.7 897.0 123.4L887.8 120.9C883.8 131.6 876.5 141.7 868.1 147.7C870.2 149.2 873.8 152.7 875.4 154.4C876.9 153.3 878.3 151.9 879.7 150.4L879.7 154.6L891.3 154.6C889.8 165.0 885.9 174.5 869.9 179.7C871.8 181.6 874.3 185.0 875.3 187.3C893.8 180.5 898.5 168.2 900.4 154.6L915.5 154.6C914.8 169.3 914.1 175.4 912.6 177.0C911.8 177.8 911 178.0 909.7 178.0C908.0 178.0 904.2 178.0 900.3 177.6C901.8 180.1 902.9 183.7 903.0 186.2C907.3 186.4 911.4 186.4 914.0 186.0C916.7 185.7 918.6 185.0 920.4 182.6C923.0 179.7 923.8 171.2 924.5 150.0L924.5 149.7C925.9 151.3 927.3 152.6 928.6 153.8C930.2 151.6 933.3 148.2 935.5 146.6C928.1 140.5 919.4 129.8 915.1 120.7ZM952.1 176.9L952.1 131.2L1004.5 131.2L1004.5 123.0L943.8 123.0L943.8 185.1L1006.4 185.1L1006.4 176.9ZM999.7 167.2C996.1 163.3 990.7 158.4 984.7 153.4C989.5 148.2 993.8 142.6 997.4 136.7L989.3 133.5C986.2 138.6 982.6 143.5 978.2 148.1C972.8 143.6 967.3 139.4 962.6 135.7L956.6 141.0C961.5 144.8 967.0 149.3 972.3 153.9C966.6 159.1 960.2 163.7 953.7 167.1C955.6 168.7 958.8 172.0 960.2 173.7C966.5 169.9 972.8 165.1 978.7 159.5C984.4 164.7 989.6 169.7 992.9 173.6Z M144.8 299.6L151.5 296.8C145.4 286.3 142.7 274.2 142.7 262.4C142.7 250.6 145.4 238.4 151.5 227.9L144.8 225.1C138.1 236.2 134.1 248.0 134.1 262.4C134.1 276.8 138.1 288.5 144.8 299.6ZM182.2 286.1C195.2 286.1 202.8 278.8 202.8 261.1L202.8 231.8L192.6 231.8L192.6 262.1C192.6 273.2 188.6 276.9 182.2 276.9C176.0 276.9 172.1 273.2 172.1 262.1L172.1 231.8L161.5 231.8L161.5 261.1C161.5 278.8 169.3 286.1 182.2 286.1ZM215.6 285.1L226.3 285.1L226.3 266.2L233.4 266.2C244.9 266.2 254 260.7 254 248.5C254 235.9 244.9 231.8 233.1 231.8L215.6 231.8ZM226.3 257.7L226.3 240.2L232.3 240.2C239.7 240.2 243.6 242.3 243.6 248.5C243.6 254.6 240.0 257.7 232.7 257.7ZM263.6 285.1L278.8 285.1C294.5 285.1 304.6 276.2 304.6 258.2C304.6 240.2 294.5 231.8 278.3 231.8L263.6 231.8ZM274.3 276.5L274.3 240.3L277.6 240.3C287.6 240.3 293.7 245.2 293.7 258.2C293.7 271.2 287.6 276.5 277.6 276.5ZM325.8 257.3C327.4 251.8 329.0 245.7 330.3 239.9L330.7 239.9C332.2 245.6 333.6 251.8 335.3 257.3L336.9 263.1L324.2 263.1ZM307.4 285.1L318.2 285.1L321.9 271.4L339.2 271.4L342.9 285.1L354.1 285.1L336.9 231.8L324.4 231.8ZM365.4 285.1L376.0 285.1L376.0 240.7L391.2 240.7L391.2 231.8L350.4 231.8L350.4 240.7L365.4 240.7ZM399.8 285.1L433.3 285.1L433.3 276.2L410.5 276.2L410.5 261.9L429.2 261.9L429.2 253.0L410.5 253.0L410.5 240.7L432.5 240.7L432.5 231.8L399.8 231.8ZM444.1 285.1L459.3 285.1C475.0 285.1 485.0 276.2 485.0 258.2C485.0 240.2 475.0 231.8 458.7 231.8L444.1 231.8ZM454.7 276.5L454.7 240.3L458.0 240.3C468.0 240.3 474.2 245.2 474.2 258.2C474.2 271.2 468.0 276.5 458.0 276.5ZM499.2 299.6C506.1 288.5 510.0 276.8 510.0 262.4C510.0 248.0 506.1 236.2 499.2 225.1L492.7 227.9C498.7 238.4 501.5 250.6 501.5 262.4C501.5 274.2 498.7 286.3 492.7 296.8Z " clip-path="url(#satori_cp-id-1-0-0)" mask="url(#satori_om-id-1-0-0)"/><path fill="black" d="M137.3 515.6C140.8 515.6 143.9 512.6 143.9 507.4C143.9 502.8 141.7 499.7 137.8 499.7C136.1 499.7 134.4 500.6 133.0 501.8L133.1 499.1L133.1 493.0L130.6 493.0L130.6 515.3L132.6 515.3L132.8 513.7L133.0 513.7C134.3 514.9 135.9 515.6 137.3 515.6ZM136.8 513.5C135.8 513.5 134.5 513.1 133.1 511.9L133.1 503.9C134.6 502.6 135.9 501.8 137.2 501.8C140.1 501.8 141.2 504.1 141.2 507.5C141.2 511.2 139.4 513.5 136.8 513.5ZM148.0 521.8C151.0 521.8 152.6 519.5 153.7 516.5L159.4 500.1L156.9 500.1L154.2 508.5C153.8 509.9 153.3 511.4 152.9 512.8L152.8 512.8C152.3 511.4 151.8 509.8 151.3 508.5L148.2 500.1L145.6 500.1L151.7 515.3L151.3 516.4C150.7 518.3 149.6 519.7 147.9 519.7C147.5 519.7 147.0 519.6 146.7 519.5L146.2 521.5C146.7 521.7 147.3 521.8 148.0 521.8Z "/><clipPath id="satori_cp-id-1-0-1-0-2"><rect x="173" y="485" width="57" height="40"/></clipPath><mask id="satori_om-id-1-0-1-0-2"><rect x="173" y="485" width="57" height="40" fill="#fff"/></mask><path fill="black" d="M181.7 515.7C186.5 515.7 189.4 512.8 189.4 509.4C189.4 506.4 187.7 504.8 185.2 503.8L182.5 502.6C180.7 501.9 179.2 501.4 179.2 499.9C179.2 498.5 180.4 497.7 182.2 497.7C183.9 497.7 185.3 498.3 186.6 499.4L188.7 496.8C187.0 495.1 184.6 494.2 182.2 494.2C178.0 494.2 175.0 496.8 175.0 500.2C175.0 503.2 177.1 504.9 179.2 505.7L182.0 506.9C183.9 507.7 185.1 508.2 185.1 509.7C185.1 511.2 184.0 512.1 181.8 512.1C180 512.1 178.0 511.2 176.6 509.8L174.2 512.6C176.2 514.6 179.0 515.7 181.7 515.7ZM193.0 515.3L196.7 515.3L196.7 506.6C196.7 504.7 196.4 501.8 196.2 499.8L196.3 499.8L198.0 504.7L201.2 513.4L203.6 513.4L206.8 504.7L208.4 499.8L208.6 499.8C208.4 501.8 208.1 504.7 208.1 506.6L208.1 515.3L211.8 515.3L211.8 494.5L207.2 494.5L203.8 504.2C203.4 505.5 203.0 506.9 202.5 508.2L202.4 508.2C202.0 506.9 201.6 505.5 201.1 504.2L197.6 494.5L193.0 494.5ZM221.4 515.7C225.9 515.7 227.9 512.5 227.9 508.6L227.9 494.5L223.7 494.5L223.7 508.2C223.7 511.1 222.8 512.1 220.9 512.1C219.8 512.1 218.7 511.4 217.9 509.9L215.0 512.0C216.4 514.4 218.4 515.7 221.4 515.7Z " clip-path="url(#satori_cp-id-1-0-1-0-2)" mask="url(#satori_om-id-1-0-1-0-2)"/><clipPath id="satori_cp-id-1-0-1-1"><rect x="959" y="485" width="112" height="40"/></clipPath><mask id="satori_om-id-1-0-1-1"><rect x="959" y="485" width="112" height="40" fill="#fff"/></mask><path fill="black" d="M985.5 499.3L985.5 496.0L974.0 496.0L976.0 495.2C975.5 494.1 974.7 492.5 974.0 491.2L970.7 492.4C971.2 493.5 971.9 494.9 972.4 496.0L960.5 496.0L960.5 499.3L967.6 499.3C967.3 505.2 966.8 511.5 960.1 515.1C961.0 515.8 962.0 516.9 962.5 517.8C967.5 514.9 969.6 510.6 970.6 505.9L979.4 505.9C979.0 510.9 978.5 513.3 977.8 513.9C977.4 514.2 977.0 514.3 976.4 514.3C975.5 514.3 973.6 514.3 971.7 514.1C972.3 515.0 972.8 516.4 972.9 517.4C974.8 517.5 976.6 517.5 977.7 517.3C979.0 517.2 979.9 517.0 980.7 516.0C981.8 514.8 982.4 511.7 982.9 504.1C983.0 503.7 983.1 502.7 983.1 502.7L971.0 502.7C971.2 501.5 971.2 500.4 971.3 499.3ZM991.1 504.1C992.9 506.2 995.0 509.1 995.8 511.0L998.9 509.1C998.0 507.2 995.8 504.4 993.9 502.5ZM1013.7 497.2L1007.4 497.2L1007.4 491.6L1003.8 491.6L1003.8 497.2L988.3 497.2L988.3 500.5L1003.8 500.5L1003.8 513.3C1003.8 513.9 1003.5 514.2 1002.8 514.2C1002.1 514.2 999.7 514.2 997.4 514.1C997.9 515.1 998.7 516.7 998.9 517.8C1001.8 517.8 1004.1 517.7 1005.5 517.1C1006.9 516.5 1007.4 515.6 1007.4 513.3L1007.4 500.5L1013.7 500.5ZM1037.7 496.6L1037.0 496.7L1030.5 496.7L1032.2 495.8C1031.5 494.6 1030.1 492.6 1029.0 491.2L1026.0 492.8C1026.8 494.0 1027.9 495.5 1028.6 496.7L1017.6 496.7L1017.6 500.0L1034.5 500.0C1031.5 503.8 1026.7 508.1 1022.1 510.9L1022.0 510.9C1020.4 510.9 1018.2 512.4 1016.2 514.5L1018.6 517.7C1019.8 515.9 1021.0 514.0 1021.9 514.0C1022.5 514.0 1023.4 514.9 1024.6 515.6C1026.5 516.8 1028.8 517.2 1032.2 517.2C1035.0 517.2 1039.2 517.0 1041.2 516.9C1041.2 516.0 1041.8 514.2 1042.1 513.3C1039.5 513.7 1035.2 514.0 1032.3 514.0C1029.4 514.0 1027.0 513.8 1025.3 512.7C1030.9 509.0 1036.7 503.5 1040.3 498.3ZM1045.0 517.7L1048.5 517.7L1048.5 498.3L1045.0 498.3ZM1045.5 493.4C1046.7 494.7 1048.2 496.5 1048.7 497.7L1051.5 496.0C1050.9 494.7 1049.4 493.0 1048.1 491.7ZM1054.3 507.4L1059.7 507.4L1059.7 510.0L1054.3 510.0ZM1054.3 502.1L1059.7 502.1L1059.7 504.7L1054.3 504.7ZM1051.3 512.7L1062.8 512.7L1062.8 499.4L1051.3 499.4ZM1069.2 492.9L1052.5 492.9L1052.5 496.0L1065.7 496.0L1065.7 514.1C1065.7 514.4 1065.7 514.6 1065.3 514.6C1065.0 514.6 1063.9 514.6 1063.0 514.5C1063.4 515.4 1063.9 516.6 1064 517.5C1065.7 517.5 1067.1 517.5 1068.0 517.0C1068.9 516.4 1069.2 515.7 1069.2 514.1Z " clip-path="url(#satori_cp-id-1-0-1-1)" mask="url(#satori_om-id-1-0-1-1)"/></svg>