<svg width="1200" height="630" viewBox="0 0 1200 630" xmlns="http://www.w3.org/2000/svg"><rect x="0" y="0" width="1200" height="630" fill="#fefbfb"/><defs><clipPath id="satori_bc-id-0"><path x="105" y="39" width="1056" height="504" d="M109,39 h1048 a4,4 0 0 1 4,4 v496 a4,4 0 0 1 -4,4 h-1048 a4,4 0 0 1 -4,-4 v-496 a4,4 0 0 1 4,-4"/></clipPath></defs><g opacity="0.9"><path x="105" y="39" width="1056" height="504" fill="#ecebeb" d="M109,39 h1048 a4,4 0 0 1 4,4 v496 a4,4 0 0 1 -4,4 h-1048 a4,4 0 0 1 -4,-4 v-496 a4,4 0 0 1 4,-4"/><path width="1056" height="504" clip-path="url(#satori_bc-id-0)" fill="none" stroke="#000" stroke-width="8" d="M106.172,40.172 A4,4 0 0 1 109,39 h1048 a4,4 0 0 1 4,4 v496 a4,4 0 0 1 -4,4 h-1048 a4,4 0 0 1 -4,-4 v-496 A4,4 0 0 1 106.172,40.172"/></g><defs><clipPath id="satori_bc-id-1"><path x="72" y="63" width="1056" height="504" d="M76,63 h1048 a4,4 0 0 1 4,4 v496 a4,4 0 0 1 -4,4 h-1048 a4,4 0 0 1 -4,-4 v-496 a4,4 0 0 1 4,-4"/></clipPath></defs><path x="72" y="63" width="1056" height="504" fill="#fefbfb" d="M76,63 h1048 a4,4 0 0 1 4,4 v496 a4,4 0 0 1 -4,4 h-1048 a4,4 0 0 1 -4,-4 v-496 a4,4 0 0 1 4,-4"/><path width="1056" height="504" clip-path="url(#satori_bc-id-1)" fill="none" stroke="#000" stroke-width="8" d="M73.172,64.172 A4,4 0 0 1 76,63 h1048 a4,4 0 0 1 4,4 v496 a4,4 0 0 1 -4,4 h-1048 a4,4 0 0 1 -4,-4 v-496 A4,4 0 0 1 73.172,64.172"/><clipPath id="satori_cp-id-1-0-0"><rect x="128" y="103" width="944" height="209"/></clipPath><mask id="satori_om-id-1-0-0"><rect x="128" y="103" width="944" height="209" fill="#fff"/></mask><path fill="black" d="M154.7 142.0C153.8 149.9 152.2 156.5 149.7 162.1C147.3 160.0 144.9 158.0 142.6 156.2C143.8 151.8 145.0 146.9 146 142.0ZM158.2 133.9L156.7 134.1L147.6 134.1C148.4 129.6 149.2 125.0 149.7 120.7L141.3 120.2C141.0 124.5 140.2 129.4 139.4 134.1L131.0 134.1L131.0 142.0L137.9 142.0C136.6 148.4 135.0 154.4 133.4 159.0C137.1 162.1 141.3 165.8 145.5 169.4C141.6 174.5 136.7 178.0 130.6 180.2C132.2 181.9 134.3 185.1 135.6 187.3C142.2 184.4 147.5 180.6 151.7 175.3C154.1 177.5 156.2 179.8 157.7 181.6L163.4 174.4C161.6 172.5 159.2 170.1 156.4 167.7C160.4 159.5 162.6 148.8 163.5 134.7ZM173.9 171.7L173.9 135.3L186.6 135.3L186.6 171.7ZM165.8 127.3L165.8 185.2L173.9 185.2L173.9 179.8L186.6 179.8L186.6 184.0L195.1 184.0L195.1 127.3ZM217.9 119.8C214.4 129.9 208.2 140.0 201.9 146.4C203.4 148.5 205.7 153.2 206.5 155.3C208.1 153.5 209.9 151.5 211.5 149.2L211.5 186.9L220.1 186.9L220.1 135.6C222.4 131.2 224.3 126.8 226.0 122.4ZM242.2 149.5L242.2 160.7L234.2 160.7L234.2 149.5ZM250.2 168.1L250.2 142.0L226.2 142.0L226.2 172.8L234.2 172.8L234.2 168.1ZM269.7 126.1L225.3 126.1L225.3 134.3L256.7 134.3L256.7 176.8C256.7 178.2 256.3 178.6 254.9 178.6C253.4 178.6 248.4 178.6 243.7 178.4C244.9 180.9 246.3 184.7 246.6 187.2C253.3 187.2 258.2 186.9 261.2 185.6C264.3 184.2 265.4 181.9 265.4 177.0L265.4 134.3L269.7 134.3ZM286.8 137.2C284.8 134.7 282.2 131.9 280.1 129.7L274.2 134.3C277.4 137.9 281.4 142.8 283.1 145.9L286.8 142.8L286.8 154.4C282.2 158.2 277.5 161.7 274.3 163.9L278.5 171.3C281.1 169.2 284.0 166.7 286.8 164.3L286.8 187.0L295.1 187.0L295.1 119.9L286.8 119.9ZM341.0 154.6L333.2 154.6L333.2 147.7L324.7 147.7L324.7 154.6L302.7 154.6C319.2 150.8 333.9 143.0 340.8 128.1L335.1 125.2L333.7 125.5L321.4 125.5C322.5 124.4 323.4 123.2 324.3 122.1L315.4 119.9C311.6 125.3 304.5 131.0 296.6 134.0C298.3 135.4 301.0 138.0 302.3 139.7C306.3 137.7 310.4 135.2 314.1 132.2L328.7 132.2C326.1 135.3 323.0 137.9 319.3 140.2C317.9 138.3 315.6 136.2 313.7 134.7L307.4 138.3C309.2 139.8 311.1 141.9 312.5 143.7C307.7 145.7 302.5 147.2 297.3 148.2C298.7 149.8 300.4 152.6 301.3 154.6L297.4 154.6L297.4 162.5L308 162.5L301.3 165.9C304.6 169.8 308.2 175.2 309.7 178.7L317.1 174.6C315.5 171.1 311.7 166.1 308.4 162.5L324.7 162.5L324.7 177.8C324.7 178.8 324.3 179.0 323.2 179.0C322.0 179.0 317.9 179.0 314.2 178.9C315.3 181.2 316.6 184.6 316.9 186.9C322.4 186.9 326.6 186.8 329.5 185.5C332.4 184.3 333.2 182.1 333.2 178.0L333.2 162.5L341.0 162.5ZM362.1 181.9C373.6 181.9 378.6 173.6 378.6 163.6L378.6 127.5L368.0 127.5L368.0 162.8C368.0 170.1 365.5 172.6 360.8 172.6C357.8 172.6 355.0 171.0 352.9 167.1L345.7 172.5C349.2 178.7 354.4 181.9 362.1 181.9ZM402.6 181.9C408.1 181.9 412.0 179.2 415.4 175.1L415.7 175.1L416.5 180.8L425.1 180.8L425.1 140.5L414.6 140.5L414.6 167.7C411.8 171.3 409.7 172.8 406.4 172.8C402.5 172.8 400.7 170.6 400.7 164.4L400.7 140.5L390.2 140.5L390.2 165.7C390.2 175.8 393.9 181.9 402.6 181.9ZM446.4 181.9C448.9 181.9 450.6 181.4 451.9 180.9L450.6 173.1C449.8 173.2 449.6 173.2 449.1 173.2C448.1 173.2 447.0 172.4 447.0 170.0L447.0 123.4L436.4 123.4L436.4 169.5C436.4 177.0 439.0 181.9 446.4 181.9ZM459.1 180.8L469.7 180.8L469.7 140.5L459.1 140.5ZM464.5 134.0C468.1 134.0 470.6 131.7 470.6 128.2C470.6 124.8 468.1 122.5 464.5 122.5C460.8 122.5 458.3 124.8 458.3 128.2C458.3 131.7 460.8 134.0 464.5 134.0ZM491.0 181.9C495.6 181.9 499.6 179.6 503.1 176.5L503.4 176.5L504.1 180.8L512.8 180.8L512.8 157.3C512.8 145.6 507.5 139.5 497.3 139.5C491.0 139.5 485.2 141.9 480.4 144.8L484.3 151.8C488 149.7 491.6 148.0 495.3 148.0C500.3 148.0 502.0 151.0 502.3 155.0C486.0 156.7 479 161.3 479 169.9C479 176.7 483.8 181.9 491.0 181.9ZM494.4 173.6C491.3 173.6 489.1 172.2 489.1 169.0C489.1 165.4 492.4 162.7 502.3 161.5L502.3 169.6C499.7 172.1 497.4 173.6 494.4 173.6ZM540.1 127.2C537.5 124.9 532.3 122.0 528.3 120.2L523.4 126.6C527.6 128.4 532.6 131.7 535.0 134.1ZM536.7 146.2C534.2 143.9 529.0 141.2 524.8 139.7L520.1 145.9C524.1 147.7 529.3 150.8 531.7 153.1ZM531.6 158.9C528.5 167.2 524.4 176.1 521.6 181.6L529.3 186.3C532.5 179.3 535.8 171.2 538.5 163.6ZM563.3 163.8L563.3 152.8L555.5 152.8L555.5 178.4C555.5 179.2 555.2 179.4 554.3 179.4C553.4 179.4 550.6 179.5 548.0 179.3C548.9 181.6 549.8 184.7 550.1 187.0C554.7 187.0 557.8 186.9 560.3 185.7C562.7 184.4 563.3 182.3 563.3 178.5L563.3 163.9C565.3 168.7 567.3 174.9 568.0 178.9L574.7 176.3C573.8 172.2 571.7 166.2 569.5 161.5ZM587.1 145.9L587.1 137.9L563.0 137.9C563.7 135.8 564.5 133.6 565.0 131.4L584.6 131.4L584.6 123.5L542.2 123.5L542.2 131.4L556.0 131.4C555.5 133.6 554.8 135.8 554.0 137.9L538.8 137.9L538.8 145.9L549.6 145.9C546.4 150.5 542 154.4 536.2 157.0C537.8 158.5 540.3 161.7 541.5 163.5C543.2 162.6 544.8 161.7 546.3 160.7C544.7 165.9 541.7 171.5 537.7 174.9L543.9 179.5C548.3 175.2 551.1 168.8 552.9 162.9L546.5 160.5C552.1 156.7 556.3 151.6 559.4 145.9L565.9 145.9C568.9 151.0 573.1 155.6 577.9 159.0L572.2 161.7C575.9 167.2 579.7 174.8 581.1 179.7L588.2 176.2C586.7 171.8 583.5 165.6 580.2 160.4C581.1 161.0 582.0 161.5 583.0 161.9C584.3 159.8 586.7 156.7 588.5 155.3C583.3 153.3 578.5 149.9 575.0 145.9ZM610.5 132.8C610.6 128.9 610.6 124.9 610.6 120.9L602.2 120.9C602.2 125.0 602.2 128.9 602.1 132.8L593.7 132.8L593.7 141.1L602.0 141.1C601.5 158.0 599.6 171.7 591.5 180.8C593.7 182.1 596.5 185.0 597.8 187.1C607.1 176.5 609.6 160.3 610.3 141.1L617.6 141.1C617.2 165.2 616.6 174.1 615.2 176.0C614.5 177.0 613.9 177.3 612.8 177.3C611.4 177.3 608.8 177.2 605.9 177.0C607.4 179.5 608.2 183.2 608.4 185.6C611.8 185.7 615.0 185.7 617.1 185.3C619.5 184.8 621.0 184.1 622.6 181.6C624.9 178.3 625.4 167.3 626.0 136.6C626.1 135.6 626.1 132.8 626.1 132.8ZM638.3 172.4L638.3 136.3L647.6 136.3L647.6 172.4ZM630.1 128.1L630.1 185.6L638.3 185.6L638.3 180.6L647.6 180.6L647.6 185.1L656.2 185.1L656.2 128.1ZM689.4 164.4L702.3 164.4L702.3 156.9L689.4 156.9L689.4 150.5L681.2 150.5L681.2 156.9L668.1 156.9L668.1 164.4L681.2 164.4L681.2 174.2C675.4 175.1 670.0 176.0 665.7 176.5L667.6 184.4C677.4 182.7 691.0 180.3 703.6 177.8L703.1 170.5C698.6 171.2 693.9 172.0 689.4 172.8ZM678.6 141.6C680.8 138.5 683.0 134.9 684.8 131.5L693.5 131.5L687.4 135.0C688.8 136.8 690.2 138.8 691.6 140.9ZM666.4 131.5L675.6 131.5C673.8 135.2 671.9 138.4 671.1 139.5C670.0 141.1 668.9 142.3 667.8 142.5C668.6 144.8 670.0 148.6 670.5 150.3C672.6 149.5 675.7 149.1 695.6 147.4C696.2 148.7 696.8 150.0 697.2 151.0L703.7 146.8C701.9 142.5 697.4 136.1 693.7 131.5L703.9 131.5L703.9 124.1L666.4 124.1ZM714.6 126.6L706.7 126.6L706.7 170.0L714.6 170.0ZM720.4 120.7L720.4 176.3C720.4 177.5 720.0 178.0 718.8 178.0C717.5 178.0 713.6 178.0 709.8 177.8C711.0 180.1 712.4 183.8 712.7 186.0C718.3 186.0 722.4 185.7 725.2 184.4C727.9 183.1 728.8 180.9 728.8 176.4L728.8 120.7ZM752.0 181.9C763.5 181.9 768.5 173.6 768.5 163.6L768.5 127.5L757.9 127.5L757.9 162.8C757.9 170.1 755.4 172.6 750.7 172.6C747.7 172.6 744.9 171.0 742.8 167.1L735.5 172.5C739.1 178.7 744.2 181.9 752.0 181.9ZM792.5 181.9C798.0 181.9 801.8 179.2 805.3 175.1L805.6 175.1L806.4 180.8L815.0 180.8L815.0 140.5L804.4 140.5L804.4 167.7C801.7 171.3 799.5 172.8 796.2 172.8C792.3 172.8 790.6 170.6 790.6 164.4L790.6 140.5L780.0 140.5L780.0 165.7C780.0 175.8 783.8 181.9 792.5 181.9ZM826.3 196.3L836.9 196.3L836.9 184.1L836.6 177.5C839.6 180.3 843.0 181.9 846.6 181.9C855.4 181.9 863.7 173.9 863.7 160.0C863.7 147.7 857.8 139.5 847.9 139.5C843.5 139.5 839.4 141.8 836.0 144.7L835.8 144.7L835.0 140.5L826.3 140.5ZM844.2 173.1C842.0 173.1 839.4 172.4 836.9 170.1L836.9 152.4C839.6 149.6 842.1 148.2 844.8 148.2C850.4 148.2 852.8 152.5 852.8 160.2C852.8 169.0 849.1 173.1 844.2 173.1ZM875.6 197.0C884.6 197.0 889.0 191.6 892.5 182.1L906.8 140.5L896.7 140.5L891.1 159.2C890.2 163.0 889.2 166.9 888.2 170.6L887.9 170.6C886.7 166.7 885.7 162.8 884.5 159.2L878.1 140.5L867.4 140.5L883.1 180.1L882.4 182.5C881.3 186.0 879.0 188.6 874.9 188.6C873.9 188.6 872.8 188.3 872.0 188.1L870.1 196.3C871.7 196.8 873.3 197.0 875.6 197.0ZM928.2 181.9C931.7 181.9 934.5 181.1 936.7 180.3L935.0 172.6C933.9 173.1 932.3 173.5 931.0 173.5C927.4 173.5 925.5 171.3 925.5 166.7L925.5 148.9L935.5 148.9L935.5 140.5L925.5 140.5L925.5 129.7L916.8 129.7L915.5 140.5L909.3 141.0L909.3 148.9L915.0 148.9L915.0 166.7C915.0 175.7 918.6 181.9 928.2 181.9ZM959.9 181.9C964.9 181.9 970.0 180.1 973.9 177.4L970.3 170.9C967.4 172.7 964.6 173.7 961.3 173.7C955.3 173.7 951.0 170.3 950.1 163.6L974.9 163.6C975.2 162.7 975.4 160.8 975.4 158.7C975.4 147.7 969.7 139.5 958.6 139.5C949.0 139.5 939.8 147.7 939.8 160.7C939.8 174.0 948.6 181.9 959.9 181.9ZM950.0 156.6C950.7 150.8 954.5 147.7 958.7 147.7C963.9 147.7 966.4 151.2 966.4 156.6ZM984.2 180.8L994.7 180.8L994.7 156.8C997.0 151.0 1000.8 148.9 1004.0 148.9C1005.6 148.9 1006.8 149.1 1008.2 149.5L1010 140.4C1008.8 139.9 1007.5 139.5 1005.2 139.5C1001.1 139.5 996.8 142.4 993.8 147.7L993.6 147.7L992.8 140.5L984.2 140.5Z M134.6 285.1L144.6 285.1L144.6 263.7C144.6 257.6 143.8 250.9 143.3 245.1L143.7 245.1L149.1 256.6L164.5 285.1L175.3 285.1L175.3 231.8L165.2 231.8L165.2 253.1C165.2 259.1 166.1 266.2 166.6 271.7L166.2 271.7L160.9 260.2L145.4 231.8L134.6 231.8ZM204.5 286.1C214.5 286.1 223.8 278.3 223.8 264.9C223.8 251.6 214.5 243.8 204.5 243.8C194.4 243.8 185.1 251.6 185.1 264.9C185.1 278.3 194.4 286.1 204.5 286.1ZM204.5 277.5C199.0 277.5 195.9 272.6 195.9 264.9C195.9 257.4 199.0 252.4 204.5 252.4C209.9 252.4 213.0 257.4 213.0 264.9C213.0 272.6 209.9 277.5 204.5 277.5ZM245.4 286.1C249.0 286.1 251.8 285.3 253.9 284.6L252.2 276.9C251.1 277.3 249.5 277.8 248.2 277.8C244.6 277.8 242.8 275.6 242.8 271.0L242.8 253.1L252.7 253.1L252.7 244.8L242.8 244.8L242.8 233.9L234.0 233.9L232.8 244.8L226.5 245.3L226.5 253.1L232.2 253.1L232.2 271.0C232.2 280.0 235.9 286.1 245.4 286.1ZM277.1 286.1C282.1 286.1 287.2 284.4 291.2 281.6L287.6 275.2C284.7 277.0 281.8 278.0 278.5 278.0C272.5 278.0 268.2 274.5 267.3 267.9L292.2 267.9C292.4 267.0 292.7 265.0 292.7 263.0C292.7 251.9 286.9 243.8 275.8 243.8C266.2 243.8 257.0 251.9 257.0 264.9C257.0 278.3 265.8 286.1 277.1 286.1ZM267.2 260.8C268.0 255.0 271.7 252.0 276.0 252.0C281.1 252.0 283.6 255.4 283.6 260.8ZM321.6 286.1C330.5 286.1 338.7 278.1 338.7 264.2C338.7 251.9 332.8 243.8 322.8 243.8C318.9 243.8 314.8 245.7 311.7 248.6L312.0 242.1L312.0 227.6L301.4 227.6L301.4 285.1L309.7 285.1L310.6 280.9L310.9 280.9C314.1 284.2 318.0 286.1 321.6 286.1ZM319.2 277.4C317.1 277.4 314.5 276.6 312.0 274.4L312.0 256.7C314.7 253.9 317.1 252.5 319.9 252.5C325.4 252.5 327.9 256.7 327.9 264.4C327.9 273.2 324.1 277.4 319.2 277.4ZM364.6 286.1C374.7 286.1 384.0 278.3 384.0 264.9C384.0 251.6 374.7 243.8 364.6 243.8C354.5 243.8 345.2 251.6 345.2 264.9C345.2 278.3 354.5 286.1 364.6 286.1ZM364.6 277.5C359.1 277.5 356.0 272.6 356.0 264.9C356.0 257.4 359.1 252.4 364.6 252.4C370.1 252.4 373.2 257.4 373.2 264.9C373.2 272.6 370.1 277.5 364.6 277.5ZM409.7 286.1C419.7 286.1 429.0 278.3 429.0 264.9C429.0 251.6 419.7 243.8 409.7 243.8C399.6 243.8 390.3 251.6 390.3 264.9C390.3 278.3 399.6 286.1 409.7 286.1ZM409.7 277.5C404.2 277.5 401.1 272.6 401.1 264.9C401.1 257.4 404.2 252.4 409.7 252.4C415.1 252.4 418.2 257.4 418.2 264.9C418.2 272.6 415.1 277.5 409.7 277.5ZM437.9 285.1L448.3 285.1L448.3 274.9L454.0 268.4L463.8 285.1L475.3 285.1L460.1 261.4L474.0 244.8L462.4 244.8L448.6 262.1L448.3 262.1L448.3 227.6L437.9 227.6Z " clip-path="url(#satori_cp-id-1-0-0)" mask="url(#satori_om-id-1-0-0)"/><path fill="black" d="M137.3 515.6C140.8 515.6 143.9 512.6 143.9 507.4C143.9 502.8 141.7 499.7 137.8 499.7C136.1 499.7 134.4 500.6 133.0 501.8L133.1 499.1L133.1 493.0L130.6 493.0L130.6 515.3L132.6 515.3L132.8 513.7L133.0 513.7C134.3 514.9 135.9 515.6 137.3 515.6ZM136.8 513.5C135.8 513.5 134.5 513.1 133.1 511.9L133.1 503.9C134.6 502.6 135.9 501.8 137.2 501.8C140.1 501.8 141.2 504.1 141.2 507.5C141.2 511.2 139.4 513.5 136.8 513.5ZM148.0 521.8C151.0 521.8 152.6 519.5 153.7 516.5L159.4 500.1L156.9 500.1L154.2 508.5C153.8 509.9 153.3 511.4 152.9 512.8L152.8 512.8C152.3 511.4 151.8 509.8 151.3 508.5L148.2 500.1L145.6 500.1L151.7 515.3L151.3 516.4C150.7 518.3 149.6 519.7 147.9 519.7C147.5 519.7 147.0 519.6 146.7 519.5L146.2 521.5C146.7 521.7 147.3 521.8 148.0 521.8Z "/><clipPath id="satori_cp-id-1-0-1-0-2"><rect x="173" y="485" width="57" height="40"/></clipPath><mask id="satori_om-id-1-0-1-0-2"><rect x="173" y="485" width="57" height="40" fill="#fff"/></mask><path fill="black" d="M181.7 515.7C186.5 515.7 189.4 512.8 189.4 509.4C189.4 506.4 187.7 504.8 185.2 503.8L182.5 502.6C180.7 501.9 179.2 501.4 179.2 499.9C179.2 498.5 180.4 497.7 182.2 497.7C183.9 497.7 185.3 498.3 186.6 499.4L188.7 496.8C187.0 495.1 184.6 494.2 182.2 494.2C178.0 494.2 175.0 496.8 175.0 500.2C175.0 503.2 177.1 504.9 179.2 505.7L182.0 506.9C183.9 507.7 185.1 508.2 185.1 509.7C185.1 511.2 184.0 512.1 181.8 512.1C180 512.1 178.0 511.2 176.6 509.8L174.2 512.6C176.2 514.6 179.0 515.7 181.7 515.7ZM193.0 515.3L196.7 515.3L196.7 506.6C196.7 504.7 196.4 501.8 196.2 499.8L196.3 499.8L198.0 504.7L201.2 513.4L203.6 513.4L206.8 504.7L208.4 499.8L208.6 499.8C208.4 501.8 208.1 504.7 208.1 506.6L208.1 515.3L211.8 515.3L211.8 494.5L207.2 494.5L203.8 504.2C203.4 505.5 203.0 506.9 202.5 508.2L202.4 508.2C202.0 506.9 201.6 505.5 201.1 504.2L197.6 494.5L193.0 494.5ZM221.4 515.7C225.9 515.7 227.9 512.5 227.9 508.6L227.9 494.5L223.7 494.5L223.7 508.2C223.7 511.1 222.8 512.1 220.9 512.1C219.8 512.1 218.7 511.4 217.9 509.9L215.0 512.0C216.4 514.4 218.4 515.7 221.4 515.7Z " clip-path="url(#satori_cp-id-1-0-1-0-2)" mask="url(#satori_om-id-1-0-1-0-2)"/><clipPath id="satori_cp-id-1-0-1-1"><rect x="959" y="485" width="112" height="40"/></clipPath><mask id="satori_om-id-1-0-1-1"><rect x="959" y="485" width="112" height="40" fill="#fff"/></mask><path fill="black" d="M985.5 499.3L985.5 496.0L974.0 496.0L976.0 495.2C975.5 494.1 974.7 492.5 974.0 491.2L970.7 492.4C971.2 493.5 971.9 494.9 972.4 496.0L960.5 496.0L960.5 499.3L967.6 499.3C967.3 505.2 966.8 511.5 960.1 515.1C961.0 515.8 962.0 516.9 962.5 517.8C967.5 514.9 969.6 510.6 970.6 505.9L979.4 505.9C979.0 510.9 978.5 513.3 977.8 513.9C977.4 514.2 977.0 514.3 976.4 514.3C975.5 514.3 973.6 514.3 971.7 514.1C972.3 515.0 972.8 516.4 972.9 517.4C974.8 517.5 976.6 517.5 977.7 517.3C979.0 517.2 979.9 517.0 980.7 516.0C981.8 514.8 982.4 511.7 982.9 504.1C983.0 503.7 983.1 502.7 983.1 502.7L971.0 502.7C971.2 501.5 971.2 500.4 971.3 499.3ZM991.1 504.1C992.9 506.2 995.0 509.1 995.8 511.0L998.9 509.1C998.0 507.2 995.8 504.4 993.9 502.5ZM1013.7 497.2L1007.4 497.2L1007.4 491.6L1003.8 491.6L1003.8 497.2L988.3 497.2L988.3 500.5L1003.8 500.5L1003.8 513.3C1003.8 513.9 1003.5 514.2 1002.8 514.2C1002.1 514.2 999.7 514.2 997.4 514.1C997.9 515.1 998.7 516.7 998.9 517.8C1001.8 517.8 1004.1 517.7 1005.5 517.1C1006.9 516.5 1007.4 515.6 1007.4 513.3L1007.4 500.5L1013.7 500.5ZM1037.7 496.6L1037.0 496.7L1030.5 496.7L1032.2 495.8C1031.5 494.6 1030.1 492.6 1029.0 491.2L1026.0 492.8C1026.8 494.0 1027.9 495.5 1028.6 496.7L1017.6 496.7L1017.6 500.0L1034.5 500.0C1031.5 503.8 1026.7 508.1 1022.1 510.9L1022.0 510.9C1020.4 510.9 1018.2 512.4 1016.2 514.5L1018.6 517.7C1019.8 515.9 1021.0 514.0 1021.9 514.0C1022.5 514.0 1023.4 514.9 1024.6 515.6C1026.5 516.8 1028.8 517.2 1032.2 517.2C1035.0 517.2 1039.2 517.0 1041.2 516.9C1041.2 516.0 1041.8 514.2 1042.1 513.3C1039.5 513.7 1035.2 514.0 1032.3 514.0C1029.4 514.0 1027.0 513.8 1025.3 512.7C1030.9 509.0 1036.7 503.5 1040.3 498.3ZM1045.0 517.7L1048.5 517.7L1048.5 498.3L1045.0 498.3ZM1045.5 493.4C1046.7 494.7 1048.2 496.5 1048.7 497.7L1051.5 496.0C1050.9 494.7 1049.4 493.0 1048.1 491.7ZM1054.3 507.4L1059.7 507.4L1059.7 510.0L1054.3 510.0ZM1054.3 502.1L1059.7 502.1L1059.7 504.7L1054.3 504.7ZM1051.3 512.7L1062.8 512.7L1062.8 499.4L1051.3 499.4ZM1069.2 492.9L1052.5 492.9L1052.5 496.0L1065.7 496.0L1065.7 514.1C1065.7 514.4 1065.7 514.6 1065.3 514.6C1065.0 514.6 1063.9 514.6 1063.0 514.5C1063.4 515.4 1063.9 516.6 1064 517.5C1065.7 517.5 1067.1 517.5 1068.0 517.0C1068.9 516.4 1069.2 515.7 1069.2 514.1Z " clip-path="url(#satori_cp-id-1-0-1-1)" mask="url(#satori_om-id-1-0-1-1)"/></svg>