<svg width="1200" height="630" viewBox="0 0 1200 630" xmlns="http://www.w3.org/2000/svg"><rect x="0" y="0" width="1200" height="630" fill="#fefbfb"/><defs><clipPath id="satori_bc-id-0"><path x="105" y="39" width="1056" height="504" d="M109,39 h1048 a4,4 0 0 1 4,4 v496 a4,4 0 0 1 -4,4 h-1048 a4,4 0 0 1 -4,-4 v-496 a4,4 0 0 1 4,-4"/></clipPath></defs><g opacity="0.9"><path x="105" y="39" width="1056" height="504" fill="#ecebeb" d="M109,39 h1048 a4,4 0 0 1 4,4 v496 a4,4 0 0 1 -4,4 h-1048 a4,4 0 0 1 -4,-4 v-496 a4,4 0 0 1 4,-4"/><path width="1056" height="504" clip-path="url(#satori_bc-id-0)" fill="none" stroke="#000" stroke-width="8" d="M106.172,40.172 A4,4 0 0 1 109,39 h1048 a4,4 0 0 1 4,4 v496 a4,4 0 0 1 -4,4 h-1048 a4,4 0 0 1 -4,-4 v-496 A4,4 0 0 1 106.172,40.172"/></g><defs><clipPath id="satori_bc-id-1"><path x="72" y="63" width="1056" height="504" d="M76,63 h1048 a4,4 0 0 1 4,4 v496 a4,4 0 0 1 -4,4 h-1048 a4,4 0 0 1 -4,-4 v-496 a4,4 0 0 1 4,-4"/></clipPath></defs><path x="72" y="63" width="1056" height="504" fill="#fefbfb" d="M76,63 h1048 a4,4 0 0 1 4,4 v496 a4,4 0 0 1 -4,4 h-1048 a4,4 0 0 1 -4,-4 v-496 a4,4 0 0 1 4,-4"/><path width="1056" height="504" clip-path="url(#satori_bc-id-1)" fill="none" stroke="#000" stroke-width="8" d="M73.172,64.172 A4,4 0 0 1 76,63 h1048 a4,4 0 0 1 4,4 v496 a4,4 0 0 1 -4,4 h-1048 a4,4 0 0 1 -4,-4 v-496 A4,4 0 0 1 73.172,64.172"/><clipPath id="satori_cp-id-1-0-0"><rect x="128" y="103" width="944" height="104"/></clipPath><mask id="satori_om-id-1-0-0"><rect x="128" y="103" width="944" height="104" fill="#fff"/></mask><path fill="black" d="M142.5 135.6L185.3 135.6L185.3 143.7L194.5 143.7L194.5 127.6L169.0 127.6C168.0 125.2 166.4 122.1 165.1 119.6L156.1 121.7C156.9 123.5 158.0 125.6 158.7 127.6L133.8 127.6L133.8 143.7L142.5 143.7ZM173.1 155.8C171.3 159.9 168.8 163.4 165.8 166.3C161.8 164.8 157.9 163.3 154.0 162.0C155.3 160.1 156.6 158.0 158.0 155.8ZM195.8 155.8L195.8 147.7L162.3 147.7C163.9 144.8 165.2 141.9 166.4 139.1L156.8 137.1C155.5 140.5 153.8 144.1 151.9 147.7L132.4 147.7L132.4 155.8L147.3 155.8C145.1 159.4 142.8 162.8 140.6 165.6L140.5 165.7C145.9 167.5 151.8 169.7 157.6 172.1C150.9 175.6 142.5 177.8 132.6 179.2C134.3 181.1 136.8 185.0 137.7 187.1C149.4 184.9 159.3 181.5 167.1 176.1C175.6 180.0 183.4 183.9 188.5 187.3L195.5 180.1C190.2 176.8 182.6 173.2 174.4 169.8C177.9 165.9 180.8 161.3 183.0 155.8ZM243.8 144.1L230.3 144.1L230.3 151.4L266.5 151.4L266.5 144.1L252.4 144.1L252.4 135.6L268.0 135.6L268.0 128.2L252.4 128.2L252.4 119.9L243.8 119.9L243.8 128.2L228.4 128.2L228.4 135.6L243.8 135.6ZM217.6 130.4C215.6 128.2 211.6 125.2 208.5 123.2L203.6 128.0C206.8 130.2 210.7 133.5 212.5 135.8ZM217.9 154.4L225.8 154.4L225.8 119.9L217.9 119.9L217.9 138.2C212.1 140.7 206.4 143.0 202.2 144.5L205.0 151.4C208.9 149.7 213.5 147.7 217.9 145.8ZM259.0 164.2C256.2 166.3 252.3 168.8 248.9 170.6C246.9 168.8 245.1 166.7 243.6 164.2ZM260.5 164.2L268.7 164.2L268.7 157.4L241.2 157.4C240.5 155.6 239.5 153.6 238.5 151.9L230.2 154.3C230.6 155.2 231.0 156.3 231.5 157.4L203.4 157.4L203.4 164.2L224.8 164.2C218.7 167.8 210.4 170.6 202.0 171.9C203.6 173.5 205.7 176.2 206.7 178.0C210.4 177.2 214.0 176.2 217.6 174.9L217.6 176.0C217.6 179.3 215.0 180.6 213.4 181.1C214.3 182.5 215.5 185.7 215.9 187.6C217.6 186.5 220.7 185.9 240.9 181.6C240.9 180.1 241.1 176.8 241.5 174.9L225.9 177.9L225.9 171.2C229.6 169.2 232.8 167.0 235.6 164.4C241.1 176.3 250.2 183.5 265.1 186.7C266.1 184.5 268.3 181.4 269.9 179.7C263.9 178.7 258.8 177.0 254.6 174.7C258.2 172.9 262.4 170.6 265.8 168.2ZM285.7 135.6L330.0 135.6L330.0 145.5L338.8 145.5L338.8 127.5L313.8 127.5C313.0 124.9 311.5 121.7 310.1 119.1L301.4 121.5C302.4 123.4 303.2 125.5 304.0 127.5L277.3 127.5L277.3 145.5L285.7 145.5ZM312.5 166.7L332.2 166.7L332.2 158.6L312.5 158.6L312.5 150.1L327.8 150.1L327.8 141.9L288.2 141.9L288.2 150.1L303.5 150.1L303.5 174.5C299.4 172.4 296.0 168.9 293.9 163.0C294.5 160.3 295.0 157.3 295.4 154.3L286.7 153.5C285.4 165.7 281.8 175.7 274.0 181.6C276.0 182.7 279.6 185.7 281 187.3C285.1 183.7 288.3 179.0 290.6 173.4C297.2 183.9 307.1 186.1 320.5 186.1L338.5 186.1C338.9 183.5 340.3 179.4 341.6 177.4C336.7 177.5 324.8 177.5 321.0 177.5C317.9 177.5 315.1 177.4 312.5 177.0ZM353.4 142.5C354.2 141.0 355.1 139.2 355.9 137.1L363.2 137.1L363.2 142.5ZM371.3 137.1L384.2 137.1L384.2 129.4L371.3 129.4L371.3 120.3L363.2 120.3L363.2 129.4L358.5 129.4C359.2 127.2 359.8 125.0 360.2 122.8L352.4 121.2C351.1 128.0 348.7 135.3 345.7 139.8C347.4 140.4 350.3 141.6 352.2 142.5L346.8 142.5L346.8 150.2L363.2 150.2L363.2 155.5L349.6 155.5L349.6 181.4L357.2 181.4L357.2 163.1L363.2 163.1L363.2 187.0L371.3 187.0L371.3 163.1L377.6 163.1L377.6 173.6C377.6 174.4 377.4 174.5 376.8 174.5C376.1 174.6 374.3 174.6 372.3 174.4C373.2 176.5 374.2 179.6 374.4 181.7C378.0 181.8 380.7 181.6 382.7 180.4C384.8 179.2 385.3 177.2 385.3 173.9L385.3 155.5L371.3 155.5L371.3 150.2L387.1 150.2L387.1 142.5L371.3 142.5ZM398.3 125.8L390.3 125.8L390.3 166.3L398.3 166.3ZM403.2 121.1L403.2 176.9C403.2 178.1 402.8 178.4 401.6 178.5C400.4 178.5 396.6 178.5 393.0 178.3C394.0 180.8 395.2 184.6 395.5 187.0C401.0 187.0 405.2 186.7 407.9 185.3C410.5 183.9 411.4 181.6 411.4 177.0L411.4 121.1ZM464.7 177.3C461.8 177.3 461.4 176.7 461.4 172.5L461.4 158.7C469.9 152.2 478.2 144.1 484.9 134.8L476.7 129.2C472.4 135.8 467.1 141.8 461.4 146.9L461.4 120.9L452.1 120.9L452.1 154.4C447.5 157.7 442.7 160.4 438.2 162.6L438.2 136.3C440.9 131.7 443.3 127.1 445.2 122.5L436.5 119.6C432.6 129.9 425.5 140.1 418.3 146.5C419.9 148.5 422.7 153.1 423.8 155.2C425.6 153.4 427.4 151.5 429.2 149.3L429.2 187.1L438.2 187.1L438.2 163.5C440.3 165.2 442.7 167.7 443.9 169.4C446.6 168.1 449.3 166.7 452.1 164.9L452.1 172.4C452.1 182.7 454.6 185.9 463.4 185.9L474.0 185.9C482.5 185.9 484.8 180.6 485.7 166.7C483.2 166.1 479.4 164.3 477.3 162.6C476.7 174.4 476.2 177.3 473.1 177.3ZM503.9 180.8L516.7 180.8L532.9 127.5L522.1 127.5L515.2 153.5C513.6 159.4 512.4 164.7 510.7 170.7L510.3 170.7C508.7 164.7 507.5 159.4 505.9 153.5L498.8 127.5L487.6 127.5ZM538.2 180.8L548.8 180.8L548.8 140.5L538.2 140.5ZM543.5 134.0C547.1 134.0 549.6 131.7 549.6 128.2C549.6 124.8 547.1 122.5 543.5 122.5C539.8 122.5 537.3 124.8 537.3 128.2C537.3 131.7 539.8 134.0 543.5 134.0ZM560.1 180.8L570.7 180.8L570.7 153.1C573.5 150.1 576.1 148.6 578.4 148.6C582.2 148.6 584.0 150.8 584.0 157.0L584.0 180.8L594.6 180.8L594.6 153.1C597.4 150.1 600.0 148.6 602.3 148.6C606.2 148.6 608.0 150.8 608.0 157.0L608.0 180.8L618.5 180.8L618.5 155.7C618.5 145.6 614.6 139.5 606.0 139.5C600.8 139.5 596.9 142.7 593.2 146.6C591.2 142.1 587.9 139.5 582.1 139.5C576.8 139.5 573.1 142.4 569.7 145.9L569.5 145.9L568.7 140.5L560.1 140.5Z " clip-path="url(#satori_cp-id-1-0-0)" mask="url(#satori_om-id-1-0-0)"/><path fill="black" d="M137.3 515.6C140.8 515.6 143.9 512.6 143.9 507.4C143.9 502.8 141.7 499.7 137.8 499.7C136.1 499.7 134.4 500.6 133.0 501.8L133.1 499.1L133.1 493.0L130.6 493.0L130.6 515.3L132.6 515.3L132.8 513.7L133.0 513.7C134.3 514.9 135.9 515.6 137.3 515.6ZM136.8 513.5C135.8 513.5 134.5 513.1 133.1 511.9L133.1 503.9C134.6 502.6 135.9 501.8 137.2 501.8C140.1 501.8 141.2 504.1 141.2 507.5C141.2 511.2 139.4 513.5 136.8 513.5ZM148.0 521.8C151.0 521.8 152.6 519.5 153.7 516.5L159.4 500.1L156.9 500.1L154.2 508.5C153.8 509.9 153.3 511.4 152.9 512.8L152.8 512.8C152.3 511.4 151.8 509.8 151.3 508.5L148.2 500.1L145.6 500.1L151.7 515.3L151.3 516.4C150.7 518.3 149.6 519.7 147.9 519.7C147.5 519.7 147.0 519.6 146.7 519.5L146.2 521.5C146.7 521.7 147.3 521.8 148.0 521.8Z "/><clipPath id="satori_cp-id-1-0-1-0-2"><rect x="173" y="485" width="57" height="40"/></clipPath><mask id="satori_om-id-1-0-1-0-2"><rect x="173" y="485" width="57" height="40" fill="#fff"/></mask><path fill="black" d="M181.7 515.7C186.5 515.7 189.4 512.8 189.4 509.4C189.4 506.4 187.7 504.8 185.2 503.8L182.5 502.6C180.7 501.9 179.2 501.4 179.2 499.9C179.2 498.5 180.4 497.7 182.2 497.7C183.9 497.7 185.3 498.3 186.6 499.4L188.7 496.8C187.0 495.1 184.6 494.2 182.2 494.2C178.0 494.2 175.0 496.8 175.0 500.2C175.0 503.2 177.1 504.9 179.2 505.7L182.0 506.9C183.9 507.7 185.1 508.2 185.1 509.7C185.1 511.2 184.0 512.1 181.8 512.1C180 512.1 178.0 511.2 176.6 509.8L174.2 512.6C176.2 514.6 179.0 515.7 181.7 515.7ZM193.0 515.3L196.7 515.3L196.7 506.6C196.7 504.7 196.4 501.8 196.2 499.8L196.3 499.8L198.0 504.7L201.2 513.4L203.6 513.4L206.8 504.7L208.4 499.8L208.6 499.8C208.4 501.8 208.1 504.7 208.1 506.6L208.1 515.3L211.8 515.3L211.8 494.5L207.2 494.5L203.8 504.2C203.4 505.5 203.0 506.9 202.5 508.2L202.4 508.2C202.0 506.9 201.6 505.5 201.1 504.2L197.6 494.5L193.0 494.5ZM221.4 515.7C225.9 515.7 227.9 512.5 227.9 508.6L227.9 494.5L223.7 494.5L223.7 508.2C223.7 511.1 222.8 512.1 220.9 512.1C219.8 512.1 218.7 511.4 217.9 509.9L215.0 512.0C216.4 514.4 218.4 515.7 221.4 515.7Z " clip-path="url(#satori_cp-id-1-0-1-0-2)" mask="url(#satori_om-id-1-0-1-0-2)"/><clipPath id="satori_cp-id-1-0-1-1"><rect x="959" y="485" width="112" height="40"/></clipPath><mask id="satori_om-id-1-0-1-1"><rect x="959" y="485" width="112" height="40" fill="#fff"/></mask><path fill="black" d="M985.5 499.3L985.5 496.0L974.0 496.0L976.0 495.2C975.5 494.1 974.7 492.5 974.0 491.2L970.7 492.4C971.2 493.5 971.9 494.9 972.4 496.0L960.5 496.0L960.5 499.3L967.6 499.3C967.3 505.2 966.8 511.5 960.1 515.1C961.0 515.8 962.0 516.9 962.5 517.8C967.5 514.9 969.6 510.6 970.6 505.9L979.4 505.9C979.0 510.9 978.5 513.3 977.8 513.9C977.4 514.2 977.0 514.3 976.4 514.3C975.5 514.3 973.6 514.3 971.7 514.1C972.3 515.0 972.8 516.4 972.9 517.4C974.8 517.5 976.6 517.5 977.7 517.3C979.0 517.2 979.9 517.0 980.7 516.0C981.8 514.8 982.4 511.7 982.9 504.1C983.0 503.7 983.1 502.7 983.1 502.7L971.0 502.7C971.2 501.5 971.2 500.4 971.3 499.3ZM991.1 504.1C992.9 506.2 995.0 509.1 995.8 511.0L998.9 509.1C998.0 507.2 995.8 504.4 993.9 502.5ZM1013.7 497.2L1007.4 497.2L1007.4 491.6L1003.8 491.6L1003.8 497.2L988.3 497.2L988.3 500.5L1003.8 500.5L1003.8 513.3C1003.8 513.9 1003.5 514.2 1002.8 514.2C1002.1 514.2 999.7 514.2 997.4 514.1C997.9 515.1 998.7 516.7 998.9 517.8C1001.8 517.8 1004.1 517.7 1005.5 517.1C1006.9 516.5 1007.4 515.6 1007.4 513.3L1007.4 500.5L1013.7 500.5ZM1037.7 496.6L1037.0 496.7L1030.5 496.7L1032.2 495.8C1031.5 494.6 1030.1 492.6 1029.0 491.2L1026.0 492.8C1026.8 494.0 1027.9 495.5 1028.6 496.7L1017.6 496.7L1017.6 500.0L1034.5 500.0C1031.5 503.8 1026.7 508.1 1022.1 510.9L1022.0 510.9C1020.4 510.9 1018.2 512.4 1016.2 514.5L1018.6 517.7C1019.8 515.9 1021.0 514.0 1021.9 514.0C1022.5 514.0 1023.4 514.9 1024.6 515.6C1026.5 516.8 1028.8 517.2 1032.2 517.2C1035.0 517.2 1039.2 517.0 1041.2 516.9C1041.2 516.0 1041.8 514.2 1042.1 513.3C1039.5 513.7 1035.2 514.0 1032.3 514.0C1029.4 514.0 1027.0 513.8 1025.3 512.7C1030.9 509.0 1036.7 503.5 1040.3 498.3ZM1045.0 517.7L1048.5 517.7L1048.5 498.3L1045.0 498.3ZM1045.5 493.4C1046.7 494.7 1048.2 496.5 1048.7 497.7L1051.5 496.0C1050.9 494.7 1049.4 493.0 1048.1 491.7ZM1054.3 507.4L1059.7 507.4L1059.7 510.0L1054.3 510.0ZM1054.3 502.1L1059.7 502.1L1059.7 504.7L1054.3 504.7ZM1051.3 512.7L1062.8 512.7L1062.8 499.4L1051.3 499.4ZM1069.2 492.9L1052.5 492.9L1052.5 496.0L1065.7 496.0L1065.7 514.1C1065.7 514.4 1065.7 514.6 1065.3 514.6C1065.0 514.6 1063.9 514.6 1063.0 514.5C1063.4 515.4 1063.9 516.6 1064 517.5C1065.7 517.5 1067.1 517.5 1068.0 517.0C1068.9 516.4 1069.2 515.7 1069.2 514.1Z " clip-path="url(#satori_cp-id-1-0-1-1)" mask="url(#satori_om-id-1-0-1-1)"/></svg>