<svg width="1200" height="630" viewBox="0 0 1200 630" xmlns="http://www.w3.org/2000/svg"><rect x="0" y="0" width="1200" height="630" fill="#fefbfb"/><defs><clipPath id="satori_bc-id-0"><path x="105" y="39" width="1056" height="504" d="M109,39 h1048 a4,4 0 0 1 4,4 v496 a4,4 0 0 1 -4,4 h-1048 a4,4 0 0 1 -4,-4 v-496 a4,4 0 0 1 4,-4"/></clipPath></defs><g opacity="0.9"><path x="105" y="39" width="1056" height="504" fill="#ecebeb" d="M109,39 h1048 a4,4 0 0 1 4,4 v496 a4,4 0 0 1 -4,4 h-1048 a4,4 0 0 1 -4,-4 v-496 a4,4 0 0 1 4,-4"/><path width="1056" height="504" clip-path="url(#satori_bc-id-0)" fill="none" stroke="#000" stroke-width="8" d="M106.172,40.172 A4,4 0 0 1 109,39 h1048 a4,4 0 0 1 4,4 v496 a4,4 0 0 1 -4,4 h-1048 a4,4 0 0 1 -4,-4 v-496 A4,4 0 0 1 106.172,40.172"/></g><defs><clipPath id="satori_bc-id-1"><path x="72" y="63" width="1056" height="504" d="M76,63 h1048 a4,4 0 0 1 4,4 v496 a4,4 0 0 1 -4,4 h-1048 a4,4 0 0 1 -4,-4 v-496 a4,4 0 0 1 4,-4"/></clipPath></defs><path x="72" y="63" width="1056" height="504" fill="#fefbfb" d="M76,63 h1048 a4,4 0 0 1 4,4 v496 a4,4 0 0 1 -4,4 h-1048 a4,4 0 0 1 -4,-4 v-496 a4,4 0 0 1 4,-4"/><path width="1056" height="504" clip-path="url(#satori_bc-id-1)" fill="none" stroke="#000" stroke-width="8" d="M73.172,64.172 A4,4 0 0 1 76,63 h1048 a4,4 0 0 1 4,4 v496 a4,4 0 0 1 -4,4 h-1048 a4,4 0 0 1 -4,-4 v-496 A4,4 0 0 1 73.172,64.172"/><clipPath id="satori_cp-id-1-0-0"><rect x="128" y="103" width="944" height="104"/></clipPath><mask id="satori_om-id-1-0-0"><rect x="128" y="103" width="944" height="104" fill="#fff"/></mask><path fill="black" d="M153.1 157.2C152.0 155.2 147.0 145.7 145.4 143.2L145.4 142.1L151.0 142.1L151.0 134.3L145.4 134.3L145.4 119.9L137.9 119.9L137.9 134.3L131.2 134.3L131.2 142.1L137.9 142.1L137.9 142.4C136.4 151.0 133.1 161.2 129.5 167.2C130.7 169.3 132.6 172.4 133.4 174.7C135.0 171.8 136.6 168.2 137.9 164.1L137.9 187.0L145.4 187.0L145.4 155.3C146.8 158.5 148.1 161.9 148.7 164.2ZM167.1 128.4L165.7 128.6L153.1 128.6L153.1 135.9L163.9 135.9C163.4 140.2 162.6 144.4 161.8 148.4C160.0 145.5 158.0 142.7 156.3 140.0L151.0 144.5C153.6 148.7 156.5 153.4 159.2 158.1C156.6 166.4 153.1 173.4 148.9 177.8C150.7 179.1 153.2 181.9 154.6 183.6C158.4 179.3 161.6 173.6 164.1 167.0C165.9 170.4 167.5 173.6 168.5 176.2L174.5 170.8C172.9 167.2 170.3 162.4 167.3 157.4C169.5 149.2 171.1 140.0 171.9 129.8ZM197.4 134.8L192.7 134.8L192.7 120.2L185.0 120.2L185.0 134.8L172.4 134.8L172.4 142.4L185.0 142.4L185.0 162.1C183.4 157.7 180.8 151.8 178.1 147.2L172.0 149.5C174.7 154.7 177.8 161.7 178.9 166.2L185.0 163.6L185.0 177.2C185.0 178.3 184.5 178.6 183.5 178.6C182.4 178.7 179.2 178.7 175.7 178.5C176.8 180.9 177.8 184.4 178.1 186.7C183.4 186.7 187.1 186.4 189.4 185.0C191.9 183.7 192.7 181.5 192.7 177.2L192.7 142.4L197.4 142.4ZM241.5 172.2L244.3 169.3C242.8 168.0 240.7 166.7 238.4 165.4L252.0 165.4C251.8 168.1 251.6 170.3 251.4 172.2ZM231.8 165.4L229.4 167.6C232.1 168.8 235.1 170.5 237.5 172.2L221.0 172.2C221.2 170.0 221.5 167.7 221.7 165.4ZM232.8 152.3L230.4 154.6C232.6 155.5 235.1 157.1 237.2 158.6L222.3 158.6C222.5 156.5 222.7 154.4 222.8 152.3ZM242.4 158.6L244.6 156.3C243.3 155.1 241.2 153.6 238.9 152.3L252.6 152.3C252.6 154.6 252.5 156.7 252.3 158.6ZM268.7 165.4L268.7 158.6L260.5 158.6C260.6 155.9 260.7 152.9 260.8 149.5C260.9 148.6 260.9 146.2 260.9 146.2L216.2 146.2C216.9 145.3 217.6 144.3 218.2 143.3L267.2 143.3L267.2 136.6L222.2 136.6C222.5 136.0 222.8 135.3 223.1 134.7L227.3 134.7L227.3 131.4L245.1 131.4L245.1 134.7L253.5 134.7L253.5 131.4L268.6 131.4L268.6 124.3L253.5 124.3L253.5 119.9L245.1 119.9L245.1 124.3L227.3 124.3L227.3 119.9L218.9 119.9L218.9 124.3L203.7 124.3L203.7 131.4L218.9 131.4L218.9 133.4L215.0 132.8C212.7 138.1 208.6 144.3 202.4 149.0C204.2 150.1 207.1 152.6 208.5 154.4C210.9 152.3 213.0 150.1 214.9 147.8C214.8 151.2 214.5 154.9 214.2 158.6L203.5 158.6L203.5 165.4L213.5 165.4C213.0 170.2 212.5 174.7 211.9 178.3L250.3 178.3C250.0 178.8 249.9 179.2 249.7 179.4C249.1 180.3 248.5 180.5 247.3 180.5C245.9 180.5 243.1 180.5 239.9 180.1C240.9 181.9 241.8 184.6 241.8 186.5C245.5 186.6 249.1 186.6 251.2 186.3C253.6 186.0 255.4 185.4 256.9 183.3C257.6 182.4 258.2 180.8 258.7 178.3L266.5 178.3L266.5 172.2L259.5 172.2C259.8 170.2 259.9 168.0 260.1 165.4ZM294.5 128.6C291.6 126.2 285.8 122.9 281.8 120.8L277.7 127.1C281.7 129.4 287.4 133.1 290.1 135.6ZM290.7 147.2C287.8 145.0 282.0 141.8 278.0 140.0L274.2 146.4C278.3 148.6 283.9 152.0 286.6 154.4ZM287.2 157.7C283.6 165.9 278.8 174.9 275.5 180.2L281.9 186.1C285.7 179.1 289.5 171.0 292.8 163.5ZM332.0 119.9C323.6 123.0 309.9 125.6 297.6 127.1L297.6 145.4C297.6 156.4 297.1 172.4 289.9 183.4C291.8 184.0 295.2 186.1 296.6 187.5C304.2 175.7 305.5 157.4 305.5 145.4L305.5 133.6C316.9 132.2 329.3 129.9 338.9 126.9ZM336.2 149.3C334.7 151.2 332.4 153.6 330.2 155.6C329.2 151.8 328.5 147.7 328.1 143.4C331.5 142.7 335 141.8 338.0 140.7L331.4 134.0C326.2 136.1 317.9 138.0 310.2 139.1L310.3 139.2L310.2 139.2L310.2 174.3C310.2 177.2 308.8 178.7 307.4 179.4C308.6 181.1 310.1 184.4 310.6 186.4C312.0 185.1 314.3 183.7 327.5 178.2C326.9 176.6 326.1 173.6 325.8 171.5L317.7 174.7L317.7 145.4C318.8 145.1 320.0 145.0 321.0 144.8C323.2 162.5 327.0 177.5 336.6 185.7C338.0 183.4 340.8 180.0 342.7 178.4C338.0 175.0 334.6 169.5 332.3 162.8C335.3 160.8 338.7 158.1 342.2 155.6ZM365.4 135.8L362.4 135.8L362.4 130.0L365.4 130.0ZM371.8 155.6C371.6 155.6 371.5 155.4 371.4 155.4C371.3 155.6 371.1 155.6 370.5 155.6L369.2 155.6C368.7 155.6 368.6 155.5 368.6 154.6L368.6 142.9L371.8 142.9ZM355.1 175.5L355.1 170.6L371.8 170.6L371.8 175.5ZM358.3 142.9L358.3 148.5C358.3 151.8 357.9 155.7 355.1 158.8L355.1 142.9ZM371.1 159.8L371.8 159.8L371.8 164.7L355.1 164.7L355.1 159.0C356.0 159.6 357.5 161.0 358.1 161.7C361.4 158.0 362.2 152.6 362.2 148.6L362.2 142.9L364.7 142.9L364.7 154.6C364.7 158.8 365.6 159.8 368.7 159.8ZM347.2 130.0L356.9 130.0L356.9 135.8L348.5 135.8L348.5 186.7L355.1 186.7L355.1 182.1L371.8 182.1L371.8 185.7L378.6 185.7L378.6 135.8L371.1 135.8L371.1 130.0L379.9 130.0L379.9 122.5L347.2 122.5ZM394.6 178.1C391.8 178.1 391.4 177.8 391.4 174.7L391.4 153.1L403.0 153.1L403.0 157.5L411.2 157.5L411.2 123.1L382.6 123.1L382.6 131.4L403.0 131.4L403.0 144.9L382.9 144.9L382.9 174.8C382.9 183.7 385.4 186.1 393.4 186.1L403.4 186.1C410.8 186.1 413.1 182.4 414.0 170.3C411.8 169.8 408.2 168.2 406.3 166.9C405.8 176.4 405.4 178.1 402.7 178.1ZM436.3 176.5L467.2 176.5L467.2 179.1L436.3 179.1ZM467.2 155.3L467.2 158.0L436.3 158.0L436.3 155.3ZM436.3 169.2L467.2 169.2L467.2 172.1L436.3 172.1ZM467.2 165.0L436.3 165.0L436.3 162.2L467.2 162.2ZM440.0 132.3L432.0 132.3L432.0 128.1L440.0 128.1ZM447.8 128.1L455.9 128.1L455.9 132.3L447.8 132.3ZM463.7 128.1L472.1 128.1L472.1 132.3L463.7 132.3ZM475.7 179.1L475.7 150.1L454.0 150.1L454.5 147.3L482.3 147.3L482.3 141.0L455.5 141.0C455.7 140.0 455.8 139.0 456.0 138.1L480.7 138.1L480.7 122.5L423.8 122.5L423.8 138.1L447.2 138.1C447.2 139.0 447.1 140.0 447.0 141.0L420.8 141.0L420.8 147.3L446.3 147.3C446.2 148.3 446.0 149.2 445.9 150.1L428.2 150.1L428.2 179.1L419.8 179.1L419.8 185.2L484.4 185.2L484.4 179.1ZM516.2 139.2L518.4 138.1C517.7 136.6 516.2 134.7 514.6 133.0L533.8 133.0C533 135.0 531.8 137.2 530.6 139.2ZM505.6 134.6C506.8 135.9 508.1 137.6 509.2 139.2L493.4 139.2L493.4 152.0L501.5 152.0L501.5 146.4L546.1 146.4L546.1 152.0L554.5 152.0L554.5 139.2L539.8 139.2C540.9 137.8 542.1 136.4 543.2 134.9L537.3 133.0L554.5 133.0L554.5 125.8L530.1 125.8C529.2 123.5 527.7 120.9 526.4 118.9L517.7 121.3C518.5 122.6 519.3 124.2 520.0 125.8L493.3 125.8L493.3 133.0L509.2 133.0ZM556.5 161.2L556.5 153.8L530.2 153.8C529.5 151.8 528.5 149.2 527.5 147.3L518.0 149.0C518.7 150.4 519.3 152.1 519.9 153.8L491.5 153.8L491.5 161.2L510.4 161.2C509.0 169.8 505.5 176.1 489.6 179.6C491.4 181.4 493.6 184.8 494.4 187.0C506.8 183.8 513.0 178.8 516.3 172.3L539.6 172.3C539.0 176.1 538.3 178.1 537.4 178.8C536.6 179.4 535.8 179.5 534.4 179.5C532.6 179.5 528.4 179.4 524.3 179.0C525.7 181.1 526.7 184.1 526.9 186.3C531.3 186.5 535.6 186.5 538.0 186.3C540.9 186.2 543.1 185.7 544.9 183.9C547.0 182.1 548.2 177.7 549.1 168.5C549.3 167.5 549.3 165.3 549.3 165.3L518.7 165.3C519.0 163.9 519.2 162.6 519.5 161.2ZM601.6 160.4C604.8 158.5 607.7 156.4 610.5 153.8C613.2 156.3 616.2 158.5 619.5 160.4ZM603.6 177.2L603.6 167.6L617.1 167.6L617.1 177.2ZM591.3 154.8L583.4 154.8L583.4 146.4L590.6 146.4L590.6 141.8C592.5 143.0 595.1 145.4 596.4 146.6C597.8 145.1 599.2 143.5 600.6 141.7C601.9 143.8 603.3 145.9 605.1 148.0C601.0 151.8 596.3 154.9 591.3 157.0ZM573.2 129.9L582.8 129.9L582.8 139.0L573.2 139.0ZM615.4 134.0C613.9 137.0 612.2 139.8 610.1 142.5C608.1 140.0 606.3 137.5 604.9 135.1L605.4 134.0ZM620.5 126.4L619.0 126.7L608.9 126.7C609.5 125.1 610.1 123.5 610.7 121.9L602.6 119.9C600.2 127.7 595.9 135.3 590.6 140.4L590.6 122.5L565.8 122.5L565.8 146.4L575.8 146.4L575.8 173.4L572.2 174.2L572.2 151.4L565.3 151.4L565.3 175.6L562.0 176.2L563.5 184.4C571.7 182.5 582.6 180.0 592.7 177.5L591.9 169.9L583.4 171.8L583.4 162.3L591.3 162.3L591.3 160.2C592.3 161.6 593.4 163.1 594.0 164.3L595.6 163.6L595.6 187.0L603.6 187.0L603.6 184.5L617.1 184.5L617.1 186.8L625.3 186.8L625.3 163.2L625.4 163.3C626.6 161.0 629.0 157.7 630.8 156.1C625.0 154.3 620.0 151.4 615.9 148.1C620.3 142.8 623.6 136.3 625.9 128.7ZM672.1 174.8L672.1 162.6L687.9 162.6L687.9 174.8ZM648.0 162.6L663.2 162.6L663.2 174.8L648.0 174.8ZM663.2 142.2L663.2 154.2L648.0 154.2L648.0 142.2ZM687.9 142.2L687.9 154.2L672.1 154.2L672.1 142.2ZM672.1 133.5L672.1 119.9L663.2 119.9L663.2 133.5L639.4 133.5L639.4 187.1L648.0 187.1L648.0 183.3L687.9 183.3L687.9 187.0L696.9 187.0L696.9 133.5ZM754.8 163.8C754.8 165.0 754.3 165.4 752.8 165.5C751.4 165.5 746.2 165.5 741.6 165.3C742.8 167.7 744.1 171.5 744.5 174.0C751.2 174.0 756.1 173.8 759.2 172.4C762.5 171.1 763.5 168.8 763.5 163.9L763.5 140.2L772.4 140.2L772.4 132.2L763.5 132.2L763.5 120.4L754.8 120.4L754.8 132.2L728.1 132.2L728.1 140.2L754.8 140.2ZM730.1 147.2C733.7 151.7 738.1 157.8 739.9 161.7L747.3 157.2C745.2 153.3 740.6 147.5 737.0 143.3ZM725.7 134.3C723.7 130.7 718.8 125.7 714.9 122.1L708.2 126.6C712.1 130.3 716.7 135.7 718.6 139.2ZM724.0 146.4L707.2 146.4L707.2 154.4L715.6 154.4L715.6 170.3C712.5 171.7 709.0 174.4 705.6 178.0L711.6 186.7C714.2 182.4 717.3 177.6 719.4 177.6C721.0 177.6 723.5 179.9 726.9 181.6C732.2 184.5 738.3 185.4 747.4 185.4C754.8 185.4 766.5 185.0 771.5 184.6C771.6 182.1 773.0 177.6 774.1 175.1C766.9 176.2 755.2 176.9 747.7 176.9C739.8 176.9 733.1 176.5 728.2 173.6C726.5 172.7 725.2 171.8 724.0 171.1ZM833.7 139.7L817.0 139.7L817.0 129.7L833.7 129.7ZM842.1 122.5L809.0 122.5L809.0 146.9L842.1 146.9ZM807.0 159.5C805.6 158.0 799.7 151.7 797.7 150.1L797.7 148.0L805.4 148.0L805.4 140.0L797.7 140.0L797.7 129.9C800.8 129.1 803.7 128.1 806.3 127.1L800.6 120.6C795.1 123.1 786.2 125.2 778.3 126.6C779.2 128.3 780.2 131.2 780.7 133.1C783.5 132.8 786.4 132.2 789.5 131.7L789.5 140.0L779.2 140.0L779.2 148.0L788.3 148.0C785.6 155.0 781.7 162.6 777.7 167.3C779.0 169.5 780.8 173.0 781.6 175.4C784.4 171.8 787.2 166.7 789.5 161.2L789.5 187.0L797.7 187.0L797.7 159.0C799.5 161.6 801.2 164.4 802.1 166.2ZM829.6 178.0L829.6 171.7L842.3 171.7L842.3 164.5L829.6 164.5L829.6 158.5L844.0 158.5L844.0 151.2L806.7 151.2L806.7 158.5L821.1 158.5L821.1 164.5L808.5 164.5L808.5 171.7L821.1 171.7L821.1 178.0L803.9 178.0L803.9 185.5L845.6 185.5L845.6 178.0ZM873.5 132.5C870.8 129.2 865.3 124.4 861.2 120.9L855.5 126.3C859.5 129.9 865.0 135.3 867.3 138.6ZM869.9 170.3L869.9 141.8L850.9 141.8L850.9 150.0L861.3 150.0L861.3 172.2C861.3 176.0 859.2 178.8 857.7 180.1C859.1 181.4 861.4 184.5 862.2 186.3C863.5 184.7 865.7 182.8 878.1 173.9C877.2 172.2 875.9 168.7 875.5 166.4ZM892.8 177.8C888.8 177.8 888.2 177.2 888.2 174.2L888.2 155.7L904.8 155.7L904.8 159.2L913.4 159.2L913.4 124.5L877.8 124.5L877.8 133.0L904.8 133.0L904.8 147.7L879.3 147.7L879.3 174.2C879.3 183.4 882.3 186.0 891.8 186.0L905.4 186.0C914.2 186.0 916.8 182.4 917.8 170.0C915.4 169.4 911.6 168.0 909.7 166.6C909.2 176.1 908.6 177.8 904.8 177.8ZM960.2 154.0L976.8 154.0C973.9 157.0 969.5 160.6 965.7 163.4C963.5 161.0 961.7 158.3 960.2 155.5ZM977.3 154.0L987.8 154.0L987.8 146.6L979.0 146.6C979.7 139.2 980.2 130.9 980.3 123.4L973.4 123.0L971.8 123.4L928.9 123.4L928.9 131.2L970.7 131.2L970.5 135.1L931.3 135.1L931.3 142.7L970.1 142.7L969.9 146.6L924.6 146.6L924.6 154.0L951.4 154.0L951.4 165.3C941.3 169.3 930.7 173.2 924.0 175.5L928.6 183.2C935.2 180.5 943.4 177.0 951.4 173.5L951.4 178.8C951.4 179.8 951.0 180.1 949.8 180.1C948.7 180.2 944.6 180.2 941.2 180.0C942.3 182.1 943.5 185.1 944.0 187.4C949.4 187.4 953.4 187.3 956.3 186.2C959.2 185.0 960.2 183.2 960.2 179.0L960.2 168.8C965.9 176.0 973.5 181.4 982.9 184.4C984.2 182.2 986.7 178.7 988.7 176.9C982.0 175.2 976.1 172.3 971.3 168.5C975.4 165.9 980.3 162.5 984.4 159.1ZM947.6 163.0C944.6 160.2 938.6 156.7 934.3 154.4L928.6 159.5C933.1 162.1 938.9 166.0 941.5 168.8Z " clip-path="url(#satori_cp-id-1-0-0)" mask="url(#satori_om-id-1-0-0)"/><path fill="black" d="M137.3 515.6C140.8 515.6 143.9 512.6 143.9 507.4C143.9 502.8 141.7 499.7 137.8 499.7C136.1 499.7 134.4 500.6 133.0 501.8L133.1 499.1L133.1 493.0L130.6 493.0L130.6 515.3L132.6 515.3L132.8 513.7L133.0 513.7C134.3 514.9 135.9 515.6 137.3 515.6ZM136.8 513.5C135.8 513.5 134.5 513.1 133.1 511.9L133.1 503.9C134.6 502.6 135.9 501.8 137.2 501.8C140.1 501.8 141.2 504.1 141.2 507.5C141.2 511.2 139.4 513.5 136.8 513.5ZM148.0 521.8C151.0 521.8 152.6 519.5 153.7 516.5L159.4 500.1L156.9 500.1L154.2 508.5C153.8 509.9 153.3 511.4 152.9 512.8L152.8 512.8C152.3 511.4 151.8 509.8 151.3 508.5L148.2 500.1L145.6 500.1L151.7 515.3L151.3 516.4C150.7 518.3 149.6 519.7 147.9 519.7C147.5 519.7 147.0 519.6 146.7 519.5L146.2 521.5C146.7 521.7 147.3 521.8 148.0 521.8Z "/><clipPath id="satori_cp-id-1-0-1-0-2"><rect x="173" y="485" width="57" height="40"/></clipPath><mask id="satori_om-id-1-0-1-0-2"><rect x="173" y="485" width="57" height="40" fill="#fff"/></mask><path fill="black" d="M181.7 515.7C186.5 515.7 189.4 512.8 189.4 509.4C189.4 506.4 187.7 504.8 185.2 503.8L182.5 502.6C180.7 501.9 179.2 501.4 179.2 499.9C179.2 498.5 180.4 497.7 182.2 497.7C183.9 497.7 185.3 498.3 186.6 499.4L188.7 496.8C187.0 495.1 184.6 494.2 182.2 494.2C178.0 494.2 175.0 496.8 175.0 500.2C175.0 503.2 177.1 504.9 179.2 505.7L182.0 506.9C183.9 507.7 185.1 508.2 185.1 509.7C185.1 511.2 184.0 512.1 181.8 512.1C180 512.1 178.0 511.2 176.6 509.8L174.2 512.6C176.2 514.6 179.0 515.7 181.7 515.7ZM193.0 515.3L196.7 515.3L196.7 506.6C196.7 504.7 196.4 501.8 196.2 499.8L196.3 499.8L198.0 504.7L201.2 513.4L203.6 513.4L206.8 504.7L208.4 499.8L208.6 499.8C208.4 501.8 208.1 504.7 208.1 506.6L208.1 515.3L211.8 515.3L211.8 494.5L207.2 494.5L203.8 504.2C203.4 505.5 203.0 506.9 202.5 508.2L202.4 508.2C202.0 506.9 201.6 505.5 201.1 504.2L197.6 494.5L193.0 494.5ZM221.4 515.7C225.9 515.7 227.9 512.5 227.9 508.6L227.9 494.5L223.7 494.5L223.7 508.2C223.7 511.1 222.8 512.1 220.9 512.1C219.8 512.1 218.7 511.4 217.9 509.9L215.0 512.0C216.4 514.4 218.4 515.7 221.4 515.7Z " clip-path="url(#satori_cp-id-1-0-1-0-2)" mask="url(#satori_om-id-1-0-1-0-2)"/><clipPath id="satori_cp-id-1-0-1-1"><rect x="959" y="485" width="112" height="40"/></clipPath><mask id="satori_om-id-1-0-1-1"><rect x="959" y="485" width="112" height="40" fill="#fff"/></mask><path fill="black" d="M985.5 499.3L985.5 496.0L974.0 496.0L976.0 495.2C975.5 494.1 974.7 492.5 974.0 491.2L970.7 492.4C971.2 493.5 971.9 494.9 972.4 496.0L960.5 496.0L960.5 499.3L967.6 499.3C967.3 505.2 966.8 511.5 960.1 515.1C961.0 515.8 962.0 516.9 962.5 517.8C967.5 514.9 969.6 510.6 970.6 505.9L979.4 505.9C979.0 510.9 978.5 513.3 977.8 513.9C977.4 514.2 977.0 514.3 976.4 514.3C975.5 514.3 973.6 514.3 971.7 514.1C972.3 515.0 972.8 516.4 972.9 517.4C974.8 517.5 976.6 517.5 977.7 517.3C979.0 517.2 979.9 517.0 980.7 516.0C981.8 514.8 982.4 511.7 982.9 504.1C983.0 503.7 983.1 502.7 983.1 502.7L971.0 502.7C971.2 501.5 971.2 500.4 971.3 499.3ZM991.1 504.1C992.9 506.2 995.0 509.1 995.8 511.0L998.9 509.1C998.0 507.2 995.8 504.4 993.9 502.5ZM1013.7 497.2L1007.4 497.2L1007.4 491.6L1003.8 491.6L1003.8 497.2L988.3 497.2L988.3 500.5L1003.8 500.5L1003.8 513.3C1003.8 513.9 1003.5 514.2 1002.8 514.2C1002.1 514.2 999.7 514.2 997.4 514.1C997.9 515.1 998.7 516.7 998.9 517.8C1001.8 517.8 1004.1 517.7 1005.5 517.1C1006.9 516.5 1007.4 515.6 1007.4 513.3L1007.4 500.5L1013.7 500.5ZM1037.7 496.6L1037.0 496.7L1030.5 496.7L1032.2 495.8C1031.5 494.6 1030.1 492.6 1029.0 491.2L1026.0 492.8C1026.8 494.0 1027.9 495.5 1028.6 496.7L1017.6 496.7L1017.6 500.0L1034.5 500.0C1031.5 503.8 1026.7 508.1 1022.1 510.9L1022.0 510.9C1020.4 510.9 1018.2 512.4 1016.2 514.5L1018.6 517.7C1019.8 515.9 1021.0 514.0 1021.9 514.0C1022.5 514.0 1023.4 514.9 1024.6 515.6C1026.5 516.8 1028.8 517.2 1032.2 517.2C1035.0 517.2 1039.2 517.0 1041.2 516.9C1041.2 516.0 1041.8 514.2 1042.1 513.3C1039.5 513.7 1035.2 514.0 1032.3 514.0C1029.4 514.0 1027.0 513.8 1025.3 512.7C1030.9 509.0 1036.7 503.5 1040.3 498.3ZM1045.0 517.7L1048.5 517.7L1048.5 498.3L1045.0 498.3ZM1045.5 493.4C1046.7 494.7 1048.2 496.5 1048.7 497.7L1051.5 496.0C1050.9 494.7 1049.4 493.0 1048.1 491.7ZM1054.3 507.4L1059.7 507.4L1059.7 510.0L1054.3 510.0ZM1054.3 502.1L1059.7 502.1L1059.7 504.7L1054.3 504.7ZM1051.3 512.7L1062.8 512.7L1062.8 499.4L1051.3 499.4ZM1069.2 492.9L1052.5 492.9L1052.5 496.0L1065.7 496.0L1065.7 514.1C1065.7 514.4 1065.7 514.6 1065.3 514.6C1065.0 514.6 1063.9 514.6 1063.0 514.5C1063.4 515.4 1063.9 516.6 1064 517.5C1065.7 517.5 1067.1 517.5 1068.0 517.0C1068.9 516.4 1069.2 515.7 1069.2 514.1Z " clip-path="url(#satori_cp-id-1-0-1-1)" mask="url(#satori_om-id-1-0-1-1)"/></svg>