<svg width="1200" height="630" viewBox="0 0 1200 630" xmlns="http://www.w3.org/2000/svg"><rect x="0" y="0" width="1200" height="630" fill="#fefbfb"/><defs><clipPath id="satori_bc-id-0"><path x="105" y="39" width="1056" height="504" d="M109,39 h1048 a4,4 0 0 1 4,4 v496 a4,4 0 0 1 -4,4 h-1048 a4,4 0 0 1 -4,-4 v-496 a4,4 0 0 1 4,-4"/></clipPath></defs><g opacity="0.9"><path x="105" y="39" width="1056" height="504" fill="#ecebeb" d="M109,39 h1048 a4,4 0 0 1 4,4 v496 a4,4 0 0 1 -4,4 h-1048 a4,4 0 0 1 -4,-4 v-496 a4,4 0 0 1 4,-4"/><path width="1056" height="504" clip-path="url(#satori_bc-id-0)" fill="none" stroke="#000" stroke-width="8" d="M106.172,40.172 A4,4 0 0 1 109,39 h1048 a4,4 0 0 1 4,4 v496 a4,4 0 0 1 -4,4 h-1048 a4,4 0 0 1 -4,-4 v-496 A4,4 0 0 1 106.172,40.172"/></g><defs><clipPath id="satori_bc-id-1"><path x="72" y="63" width="1056" height="504" d="M76,63 h1048 a4,4 0 0 1 4,4 v496 a4,4 0 0 1 -4,4 h-1048 a4,4 0 0 1 -4,-4 v-496 a4,4 0 0 1 4,-4"/></clipPath></defs><path x="72" y="63" width="1056" height="504" fill="#fefbfb" d="M76,63 h1048 a4,4 0 0 1 4,4 v496 a4,4 0 0 1 -4,4 h-1048 a4,4 0 0 1 -4,-4 v-496 a4,4 0 0 1 4,-4"/><path width="1056" height="504" clip-path="url(#satori_bc-id-1)" fill="none" stroke="#000" stroke-width="8" d="M73.172,64.172 A4,4 0 0 1 76,63 h1048 a4,4 0 0 1 4,4 v496 a4,4 0 0 1 -4,4 h-1048 a4,4 0 0 1 -4,-4 v-496 A4,4 0 0 1 73.172,64.172"/><clipPath id="satori_cp-id-1-0-0"><rect x="128" y="103" width="944" height="104"/></clipPath><mask id="satori_om-id-1-0-0"><rect x="128" y="103" width="944" height="104" fill="#fff"/></mask><path fill="black" d="M151.6 128.2C148.9 125.7 143.3 122.4 139.2 120.3L134.4 126.0C138.6 128.4 144.1 132.0 146.4 134.6ZM147.6 147.4C144.8 145.1 139.1 141.8 135.0 139.8L130.2 145.6C134.4 147.9 140.0 151.5 142.5 153.9ZM143.0 157.5C139.5 166.2 135.0 175.4 131.7 181.3L139.3 186.0C143.0 178.8 146.6 170.3 149.7 162.4ZM189.5 155.0C186.3 159.3 182.2 163.1 177.4 166.4C176.5 163.6 175.6 160.5 174.9 157.1ZM189.5 155.0L196.5 154.0L195.2 146.4L173.4 149.3C173.1 147.0 172.8 144.8 172.6 142.3L193.5 139.7L192.4 132.0L184.6 133.0L189.6 127.5C187.3 125.3 182.4 122.1 178.9 119.9L174.0 125.0C177.5 127.3 182.1 130.7 184.3 133.0L171.9 134.6C171.6 129.9 171.6 125.0 171.6 120.0L162.6 120.0C162.6 125.3 162.8 130.5 163.1 135.6L151.0 137.1L152.0 145.0L163.9 143.5C164.1 145.9 164.4 148.2 164.7 150.5L149.7 152.6L151.0 160.5L166.1 158.4C167.1 162.9 168.2 167.2 169.6 170.8C163.4 174.1 156.4 176.5 149.2 178.3C151.3 180.4 153.3 183.5 154.4 185.7C160.9 183.7 167.2 181.3 173.1 178.2C176.6 183.8 181.1 187.2 186.8 187.2C193.5 187.2 196.4 184.1 197.8 171.6C195.6 170.8 192.6 168.8 190.6 167.0C190.1 175.4 189.3 178.5 187.3 178.5C184.9 178.5 182.7 176.7 180.8 173.6C187.0 169.5 192.4 164.6 196.7 158.8ZM231.0 158.2C229.7 156.3 224.2 148.7 221.5 145.5L221.5 142.8L231.3 142.8L231.3 134.7L221.5 134.7L221.5 119.9L213.3 119.9L213.3 134.7L203.6 134.7L203.6 142.8L212.4 142.8C210.2 151.3 206.2 161.0 201.7 166.7C203.0 168.9 204.9 172.3 205.7 174.7C208.6 170.8 211.2 165.2 213.3 159.1L213.3 187.0L221.5 187.0L221.5 156.2C223.3 159.4 225.1 162.7 226.1 164.9ZM269.6 144.1L242.4 144.1L242.4 133.9C250.5 132.4 259.0 130.2 265.7 127.4L258.5 120.6C252.7 123.5 243.1 126.1 234.3 127.8L234.3 149.0C234.3 159.2 233.7 173.1 227.1 182.6C229.2 183.4 232.7 185.6 234.3 186.9C240.6 177.5 242.1 163.1 242.4 152.1L251.8 152.1L251.8 187.0L260.3 187.0L260.3 152.1L269.6 152.1ZM278.6 180.8L310.9 180.8L310.9 171.9L289.2 171.9L289.2 127.5L278.6 127.5ZM319.3 180.8L329.9 180.8L329.9 140.5L319.3 140.5ZM324.6 134.0C328.2 134.0 330.8 131.7 330.8 128.2C330.8 124.8 328.2 122.5 324.6 122.5C321.0 122.5 318.4 124.8 318.4 128.2C318.4 131.7 321.0 134.0 324.6 134.0ZM341.2 180.8L351.8 180.8L351.8 153.1C354.7 150.2 356.8 148.6 360.1 148.6C364.1 148.6 365.8 150.8 365.8 157.0L365.8 180.8L376.4 180.8L376.4 155.7C376.4 145.6 372.7 139.5 363.9 139.5C358.5 139.5 354.4 142.4 350.8 145.9L350.6 145.9L349.8 140.5L341.2 140.5ZM399.4 181.9C404.8 181.9 408.7 179.2 412.2 175.1L412.5 175.1L413.3 180.8L421.9 180.8L421.9 140.5L411.3 140.5L411.3 167.7C408.6 171.3 406.4 172.8 403.1 172.8C399.2 172.8 397.5 170.6 397.5 164.4L397.5 140.5L386.9 140.5L386.9 165.7C386.9 175.8 390.7 181.9 399.4 181.9ZM428.7 180.8L439.6 180.8L443.4 173.4C444.5 171.1 445.6 168.7 446.7 166.4L447.1 166.4C448.4 168.7 449.7 171.1 451.0 173.4L455.5 180.8L466.8 180.8L454.2 161.0L466.0 140.5L455.1 140.5L451.7 147.7C450.8 150.0 449.7 152.3 448.8 154.5L448.5 154.5C447.2 152.3 446.0 150.0 444.9 147.7L440.8 140.5L429.5 140.5L441.3 159.8ZM481.2 172.1L481.2 158.0L492.7 158.0L492.7 172.1ZM492.7 150.6L481.2 150.6L481.2 138.9L492.7 138.9ZM515.6 131.0C516.7 127.9 517.6 124.9 518.4 121.8L510.2 119.9C508.1 128.4 504.6 137.1 500.5 143.1L500.5 131.5L489.3 131.5C490.5 128.4 491.8 124.8 493.0 121.2L483.7 119.9C483.4 123.2 482.5 127.9 481.6 131.5L473.5 131.5L473.5 185.0L481.2 185.0L481.2 179.7L500.5 179.7L500.5 146.1C502.4 147.4 504.8 149.0 506 150.1C508.2 147.0 510.5 143.0 512.3 138.7L527.7 138.7C527.0 164.1 526.0 174.9 523.9 177.2C523.0 178.2 522.2 178.5 520.8 178.5C518.9 178.5 514.6 178.5 510.0 178.0C511.5 180.4 512.7 184.0 512.8 186.4C517.1 186.5 521.4 186.6 524.1 186.2C527.0 185.7 529.0 185.0 531.1 182.3C534.0 178.5 534.8 167.0 535.7 134.8C535.8 133.8 535.8 131.0 535.8 131.0ZM523.9 163.8C521.6 159.6 516.9 152.8 513.3 147.8L506.6 151.6C510.1 156.9 514.6 163.9 516.6 168.2ZM562.8 181.9C567.3 181.9 572.2 180.3 576.1 177.0L571.8 170.0C569.6 171.8 566.8 173.2 564.0 173.2C558.2 173.2 554.0 168.3 554.0 160.7C554.0 153.1 558.1 148.2 564.3 148.2C566.6 148.2 568.4 149.1 570.4 150.8L575.5 144.0C572.5 141.5 568.7 139.5 563.7 139.5C552.8 139.5 543.2 147.3 543.2 160.7C543.2 174.1 551.6 181.9 562.8 181.9ZM583.6 180.8L594.2 180.8L594.2 156.8C596.4 151.0 600.2 148.9 603.4 148.9C605.1 148.9 606.2 149.1 607.7 149.5L609.5 140.4C608.2 139.9 606.9 139.5 604.7 139.5C600.5 139.5 596.2 142.4 593.3 147.7L593.0 147.7L592.3 140.5L583.6 140.5ZM631.0 181.9C641.1 181.9 650.4 174.1 650.4 160.7C650.4 147.3 641.1 139.5 631.0 139.5C620.9 139.5 611.6 147.3 611.6 160.7C611.6 174.1 620.9 181.9 631.0 181.9ZM631.0 173.2C625.5 173.2 622.4 168.3 622.4 160.7C622.4 153.1 625.5 148.2 631.0 148.2C636.5 148.2 639.6 153.1 639.6 160.7C639.6 168.3 636.5 173.2 631.0 173.2ZM659.2 180.8L669.8 180.8L669.8 153.1C672.8 150.2 674.8 148.6 678.2 148.6C682.1 148.6 683.8 150.8 683.8 157.0L683.8 180.8L694.4 180.8L694.4 155.7C694.4 145.6 690.7 139.5 682.0 139.5C676.5 139.5 672.4 142.4 668.9 145.9L668.6 145.9L667.9 140.5L659.2 140.5ZM723.7 157.7L723.7 168.8L715.7 168.8L715.7 157.7ZM731.7 150.3L707.9 150.3L707.9 182.0L715.7 182.0L715.7 176.2L731.7 176.2ZM763.8 150.4L737.3 150.4L737.3 187.3L745.7 187.3L745.7 158.0L755.6 158.0L755.6 169.9C755.6 170.7 755.3 171.0 754.4 171.0C753.5 171.0 750.6 171.0 747.9 170.9C748.8 173.1 749.9 176.3 750.1 178.6C754.8 178.6 758.2 178.6 760.7 177.3C763.3 176.0 763.8 173.9 763.8 170.0ZM725.2 138.5C729.1 136.1 732.9 133.5 736.1 130.7C738.9 133.5 742.0 136.1 745.5 138.5ZM736.1 118.7C729.2 127.7 714.9 135.8 701.3 139.0C703.2 141.3 705.2 144.8 706.2 147.3C710.8 145.8 715.5 143.8 720.0 141.5L720.0 146.1L750.8 146.1L750.8 141.7C754.9 143.9 759.4 145.6 763.9 146.9C765.3 144.4 767.9 140.7 770.0 138.8C758.8 136.5 748.0 131.5 741.5 125.3C742.0 124.8 742.5 124.2 743.0 123.6ZM828.8 152.1L827.3 152.6L810.6 152.6L816.3 147.6C814.1 144.7 809.4 140.5 805.9 137.6L799.8 142.5C803.1 145.5 807.2 149.6 809.4 152.6L783.3 152.6L783.3 160.8L818.8 160.8C815.7 164.1 812.1 167.5 808.8 170.8C805.0 168.8 801.3 166.7 798.2 165.1L792.2 171.6C800.3 176.1 811.8 183.2 817.1 187.6L823.7 180.2C821.7 178.7 819.1 177.0 816.2 175.2C822.9 168.8 829.9 161.7 835.3 155.9ZM808.1 119.2C800.4 129.2 786.4 137.9 773.6 142.8C776.0 145.0 778.4 148.2 779.7 150.4C789.8 145.8 800.0 139.3 808.4 131.5C816.4 138.9 826.9 145.9 836.0 150.0C837.6 147.7 840.4 144.1 842.5 142.3C832.7 138.8 821.2 132.3 813.9 125.9C814.6 125.1 815.3 124.3 816.0 123.4Z " clip-path="url(#satori_cp-id-1-0-0)" mask="url(#satori_om-id-1-0-0)"/><path fill="black" d="M137.3 515.6C140.8 515.6 143.9 512.6 143.9 507.4C143.9 502.8 141.7 499.7 137.8 499.7C136.1 499.7 134.4 500.6 133.0 501.8L133.1 499.1L133.1 493.0L130.6 493.0L130.6 515.3L132.6 515.3L132.8 513.7L133.0 513.7C134.3 514.9 135.9 515.6 137.3 515.6ZM136.8 513.5C135.8 513.5 134.5 513.1 133.1 511.9L133.1 503.9C134.6 502.6 135.9 501.8 137.2 501.8C140.1 501.8 141.2 504.1 141.2 507.5C141.2 511.2 139.4 513.5 136.8 513.5ZM148.0 521.8C151.0 521.8 152.6 519.5 153.7 516.5L159.4 500.1L156.9 500.1L154.2 508.5C153.8 509.9 153.3 511.4 152.9 512.8L152.8 512.8C152.3 511.4 151.8 509.8 151.3 508.5L148.2 500.1L145.6 500.1L151.7 515.3L151.3 516.4C150.7 518.3 149.6 519.7 147.9 519.7C147.5 519.7 147.0 519.6 146.7 519.5L146.2 521.5C146.7 521.7 147.3 521.8 148.0 521.8Z "/><clipPath id="satori_cp-id-1-0-1-0-2"><rect x="173" y="485" width="57" height="40"/></clipPath><mask id="satori_om-id-1-0-1-0-2"><rect x="173" y="485" width="57" height="40" fill="#fff"/></mask><path fill="black" d="M181.7 515.7C186.5 515.7 189.4 512.8 189.4 509.4C189.4 506.4 187.7 504.8 185.2 503.8L182.5 502.6C180.7 501.9 179.2 501.4 179.2 499.9C179.2 498.5 180.4 497.7 182.2 497.7C183.9 497.7 185.3 498.3 186.6 499.4L188.7 496.8C187.0 495.1 184.6 494.2 182.2 494.2C178.0 494.2 175.0 496.8 175.0 500.2C175.0 503.2 177.1 504.9 179.2 505.7L182.0 506.9C183.9 507.7 185.1 508.2 185.1 509.7C185.1 511.2 184.0 512.1 181.8 512.1C180 512.1 178.0 511.2 176.6 509.8L174.2 512.6C176.2 514.6 179.0 515.7 181.7 515.7ZM193.0 515.3L196.7 515.3L196.7 506.6C196.7 504.7 196.4 501.8 196.2 499.8L196.3 499.8L198.0 504.7L201.2 513.4L203.6 513.4L206.8 504.7L208.4 499.8L208.6 499.8C208.4 501.8 208.1 504.7 208.1 506.6L208.1 515.3L211.8 515.3L211.8 494.5L207.2 494.5L203.8 504.2C203.4 505.5 203.0 506.9 202.5 508.2L202.4 508.2C202.0 506.9 201.6 505.5 201.1 504.2L197.6 494.5L193.0 494.5ZM221.4 515.7C225.9 515.7 227.9 512.5 227.9 508.6L227.9 494.5L223.7 494.5L223.7 508.2C223.7 511.1 222.8 512.1 220.9 512.1C219.8 512.1 218.7 511.4 217.9 509.9L215.0 512.0C216.4 514.4 218.4 515.7 221.4 515.7Z " clip-path="url(#satori_cp-id-1-0-1-0-2)" mask="url(#satori_om-id-1-0-1-0-2)"/><clipPath id="satori_cp-id-1-0-1-1"><rect x="959" y="485" width="112" height="40"/></clipPath><mask id="satori_om-id-1-0-1-1"><rect x="959" y="485" width="112" height="40" fill="#fff"/></mask><path fill="black" d="M985.5 499.3L985.5 496.0L974.0 496.0L976.0 495.2C975.5 494.1 974.7 492.5 974.0 491.2L970.7 492.4C971.2 493.5 971.9 494.9 972.4 496.0L960.5 496.0L960.5 499.3L967.6 499.3C967.3 505.2 966.8 511.5 960.1 515.1C961.0 515.8 962.0 516.9 962.5 517.8C967.5 514.9 969.6 510.6 970.6 505.9L979.4 505.9C979.0 510.9 978.5 513.3 977.8 513.9C977.4 514.2 977.0 514.3 976.4 514.3C975.5 514.3 973.6 514.3 971.7 514.1C972.3 515.0 972.8 516.4 972.9 517.4C974.8 517.5 976.6 517.5 977.7 517.3C979.0 517.2 979.9 517.0 980.7 516.0C981.8 514.8 982.4 511.7 982.9 504.1C983.0 503.7 983.1 502.7 983.1 502.7L971.0 502.7C971.2 501.5 971.2 500.4 971.3 499.3ZM991.1 504.1C992.9 506.2 995.0 509.1 995.8 511.0L998.9 509.1C998.0 507.2 995.8 504.4 993.9 502.5ZM1013.7 497.2L1007.4 497.2L1007.4 491.6L1003.8 491.6L1003.8 497.2L988.3 497.2L988.3 500.5L1003.8 500.5L1003.8 513.3C1003.8 513.9 1003.5 514.2 1002.8 514.2C1002.1 514.2 999.7 514.2 997.4 514.1C997.9 515.1 998.7 516.7 998.9 517.8C1001.8 517.8 1004.1 517.7 1005.5 517.1C1006.9 516.5 1007.4 515.6 1007.4 513.3L1007.4 500.5L1013.7 500.5ZM1037.7 496.6L1037.0 496.7L1030.5 496.7L1032.2 495.8C1031.5 494.6 1030.1 492.6 1029.0 491.2L1026.0 492.8C1026.8 494.0 1027.9 495.5 1028.6 496.7L1017.6 496.7L1017.6 500.0L1034.5 500.0C1031.5 503.8 1026.7 508.1 1022.1 510.9L1022.0 510.9C1020.4 510.9 1018.2 512.4 1016.2 514.5L1018.6 517.7C1019.8 515.9 1021.0 514.0 1021.9 514.0C1022.5 514.0 1023.4 514.9 1024.6 515.6C1026.5 516.8 1028.8 517.2 1032.2 517.2C1035.0 517.2 1039.2 517.0 1041.2 516.9C1041.2 516.0 1041.8 514.2 1042.1 513.3C1039.5 513.7 1035.2 514.0 1032.3 514.0C1029.4 514.0 1027.0 513.8 1025.3 512.7C1030.9 509.0 1036.7 503.5 1040.3 498.3ZM1045.0 517.7L1048.5 517.7L1048.5 498.3L1045.0 498.3ZM1045.5 493.4C1046.7 494.7 1048.2 496.5 1048.7 497.7L1051.5 496.0C1050.9 494.7 1049.4 493.0 1048.1 491.7ZM1054.3 507.4L1059.7 507.4L1059.7 510.0L1054.3 510.0ZM1054.3 502.1L1059.7 502.1L1059.7 504.7L1054.3 504.7ZM1051.3 512.7L1062.8 512.7L1062.8 499.4L1051.3 499.4ZM1069.2 492.9L1052.5 492.9L1052.5 496.0L1065.7 496.0L1065.7 514.1C1065.7 514.4 1065.7 514.6 1065.3 514.6C1065.0 514.6 1063.9 514.6 1063.0 514.5C1063.4 515.4 1063.9 516.6 1064 517.5C1065.7 517.5 1067.1 517.5 1068.0 517.0C1068.9 516.4 1069.2 515.7 1069.2 514.1Z " clip-path="url(#satori_cp-id-1-0-1-1)" mask="url(#satori_om-id-1-0-1-1)"/></svg>