<svg width="1200" height="630" viewBox="0 0 1200 630" xmlns="http://www.w3.org/2000/svg"><rect x="0" y="0" width="1200" height="630" fill="#fefbfb"/><defs><clipPath id="satori_bc-id-0"><path x="105" y="39" width="1056" height="504" d="M109,39 h1048 a4,4 0 0 1 4,4 v496 a4,4 0 0 1 -4,4 h-1048 a4,4 0 0 1 -4,-4 v-496 a4,4 0 0 1 4,-4"/></clipPath></defs><g opacity="0.9"><path x="105" y="39" width="1056" height="504" fill="#ecebeb" d="M109,39 h1048 a4,4 0 0 1 4,4 v496 a4,4 0 0 1 -4,4 h-1048 a4,4 0 0 1 -4,-4 v-496 a4,4 0 0 1 4,-4"/><path width="1056" height="504" clip-path="url(#satori_bc-id-0)" fill="none" stroke="#000" stroke-width="8" d="M106.172,40.172 A4,4 0 0 1 109,39 h1048 a4,4 0 0 1 4,4 v496 a4,4 0 0 1 -4,4 h-1048 a4,4 0 0 1 -4,-4 v-496 A4,4 0 0 1 106.172,40.172"/></g><defs><clipPath id="satori_bc-id-1"><path x="72" y="63" width="1056" height="504" d="M76,63 h1048 a4,4 0 0 1 4,4 v496 a4,4 0 0 1 -4,4 h-1048 a4,4 0 0 1 -4,-4 v-496 a4,4 0 0 1 4,-4"/></clipPath></defs><path x="72" y="63" width="1056" height="504" fill="#fefbfb" d="M76,63 h1048 a4,4 0 0 1 4,4 v496 a4,4 0 0 1 -4,4 h-1048 a4,4 0 0 1 -4,-4 v-496 a4,4 0 0 1 4,-4"/><path width="1056" height="504" clip-path="url(#satori_bc-id-1)" fill="none" stroke="#000" stroke-width="8" d="M73.172,64.172 A4,4 0 0 1 76,63 h1048 a4,4 0 0 1 4,4 v496 a4,4 0 0 1 -4,4 h-1048 a4,4 0 0 1 -4,-4 v-496 A4,4 0 0 1 73.172,64.172"/><clipPath id="satori_cp-id-1-0-0"><rect x="128" y="103" width="944" height="104"/></clipPath><mask id="satori_om-id-1-0-0"><rect x="128" y="103" width="944" height="104" fill="#fff"/></mask><path fill="black" d="M158.8 130.4L187.3 130.4L187.3 137.4L195.2 137.4L195.2 123.2L151.3 123.2L151.3 137.9L158.8 137.9ZM174.8 136.9C179.6 141.5 185.5 148.1 188.0 152.3L194.5 147.8C191.7 143.5 185.7 137.3 180.8 133.0ZM163.1 133.5C160.3 138.5 155.2 143.4 150.2 146.5C151.9 147.9 154.8 150.8 156.1 152.3C161.5 148.5 167.3 142.2 170.8 136.0ZM149.4 127.1C146.6 125.1 141.0 122.2 137.3 120.5L133.0 127.1C136.9 129.1 142.3 132.2 144.8 134.3ZM146.9 147.4C143.9 145.1 138.1 141.9 134.1 140.1L130.2 146.4C134.3 148.7 140.0 152.2 142.8 154.6ZM143.0 157.7C139.2 165.9 134.6 174.9 131.3 180.2L137.8 186.2C141.4 179.3 145.3 171.1 148.5 163.6ZM195.2 162.3L195.2 154.6L177.4 154.6L177.4 147.5L168.8 147.5L168.8 154.6L151.1 154.6L151.1 162.3L164.2 162.3C160.0 168.7 153.7 174.3 146.7 177.5C148.6 179.0 151.0 181.9 152.3 183.9C158.7 180.4 164.4 174.8 168.8 168.2L168.8 186.5L177.4 186.5L177.4 168.4C181.3 174.5 186.4 180.1 191.6 183.5C193.0 181.4 195.6 178.4 197.6 176.9C191.7 173.7 185.9 168.2 181.9 162.3ZM219.7 127.7C224.1 130.7 227.8 134.5 230.8 138.7C226.6 157.9 217.8 171.8 202.4 179.3C204.8 181.0 208.7 184.5 210.3 186.3C223.3 178.7 232.2 166.5 237.8 150.0C245.1 163.5 251.3 178.3 266.1 186.5C266.5 183.9 268.8 179.0 270.2 176.7C247.1 162.1 247.8 137.1 224.9 120.3ZM297.8 164.6C295.5 165.4 293.2 166.2 290.8 166.9L290.8 152.5L297.3 152.5L297.3 144.6L290.8 144.6L290.8 132.0L298.5 132.0L298.5 124.0L274.7 124.0L274.7 132.0L282.7 132.0L282.7 144.6L275.4 144.6L275.4 152.5L282.7 152.5L282.7 169.4C279.3 170.3 276.4 171.1 273.9 171.8L275.8 180.5C282.7 178.3 291.4 175.5 299.3 172.7ZM308.9 142.9L316.4 142.9L316.4 149.1L308.9 149.1ZM308.9 130.2L316.4 130.2L316.4 136.2L308.9 136.2ZM330.7 136.2L323.6 136.2L323.6 130.2L330.7 130.2ZM330.7 149.1L323.6 149.1L323.6 142.9L330.7 142.9ZM324.3 177.1L324.3 170.3L339.6 170.3L339.6 162.6L324.3 162.6L324.3 156.4L338.8 156.4L338.8 122.9L301.2 122.9L301.2 156.4L315.6 156.4L315.6 162.6L300.7 162.6L300.7 170.3L315.6 170.3L315.6 177.1L295.8 177.1L295.8 184.9L342.1 184.9L342.1 177.1ZM378.9 143.8C380.5 145.1 382.1 147.5 382.8 149.2C383.3 149.0 383.8 148.7 384.3 148.4C383.3 153.8 381.5 159.3 378.9 163.1ZM367.8 170.5L371.9 170.5L371.9 178.2C371.9 178.9 371.7 179.1 371.1 179.1C370.6 179.1 369.3 179.1 367.8 179.0ZM358.0 164.2C358.2 161.8 358.3 159.5 358.3 157.3L358.3 156.9L362.2 156.9L362.2 164.2ZM367.0 133.0C366.4 134.9 365.7 136.7 365.0 138.3L357.4 138.3C358.3 136.6 359.1 134.9 359.9 133.0ZM358.3 144.6L362.2 144.6L362.2 150.8L358.3 150.8ZM371.9 156.9L371.9 164.2L367.8 164.2L367.8 156.9ZM367.8 150.8L367.8 144.6L371.9 144.6L371.9 150.8ZM413.5 167.6L402.8 167.6L402.8 161.1L412.0 161.1L412.0 153.9L402.8 153.9L402.8 148.2L394.6 148.2L394.6 153.9L390.3 153.9C390.7 152.4 391.1 150.8 391.3 149.3L385.0 148.1C392.2 144.0 394.9 138.0 396.1 130.5L404.0 130.5C403.8 136.5 403.4 138.9 402.8 139.7C402.2 140.4 401.7 140.5 400.7 140.5C399.9 140.5 397.9 140.5 395.6 140.2C396.7 142.1 397.4 144.9 397.6 147.2C400.5 147.2 403.3 147.2 404.8 146.9C406.7 146.6 408.0 146.1 409.2 144.6C410.7 142.8 411.4 137.7 411.8 126.3C411.8 125.3 411.9 123.5 411.9 123.5L380.3 123.5L380.3 130.5L388.4 130.5C387.3 135.8 385.1 140.2 378.9 142.9L378.9 138.3L372.4 138.3C374.0 135.4 375.4 132.1 376.4 129.4L371.4 126.2L370.2 126.6L362.4 126.6C362.9 124.9 363.4 123.2 363.9 121.5L356.2 119.9C354.3 128.4 350.5 136.7 345.6 142.0C347.1 143.0 349.7 145.1 351.2 146.6L351.2 157.3C351.2 165.4 350.8 176.0 346.0 183.4C347.6 184.2 350.8 186.2 352.1 187.3C355.1 182.7 356.7 176.6 357.5 170.5L362.2 170.5L362.2 182.6L367.8 182.6L367.8 180.1C368.6 182.0 369.3 184.4 369.5 186.2C372.7 186.2 374.9 186.0 376.7 184.7C378.5 183.5 378.9 181.4 378.9 178.3L378.9 163.5C380.6 164.3 383.5 165.7 384.9 166.7C385.9 165.1 386.9 163.2 387.8 161.1L394.6 161.1L394.6 167.6L381.0 167.6L381.0 174.9L394.6 174.9L394.6 187.0L402.8 187.0L402.8 174.9L413.5 174.9ZM446.6 120.8C445.4 123.5 443.5 127.4 441.8 129.9L447.3 132.3C449.2 130.1 451.4 126.8 453.8 123.6ZM432.9 152.2L440.8 152.2L440.8 144.3C443.6 146.5 446.4 148.9 448.0 150.4L452.4 144.4C451.2 143.6 447.2 141.2 443.9 139.3L454.4 139.3L454.4 132.5L440.8 132.5L440.8 119.9L432.9 119.9L432.9 132.5L425.6 132.5L431.5 129.9C430.9 127.5 429.1 123.8 427.2 121.1L421.1 123.6C422.7 126.4 424.4 130.1 424.9 132.5L419.3 132.5L419.3 139.3L430.0 139.3C426.6 142.8 422.0 146.0 417.8 147.7C419.4 149.3 421.3 152.1 422.2 154.0C425.8 152.0 429.6 149.0 432.9 145.7ZM443.1 163.6C441.8 166.2 440.0 168.4 438.0 170.4C436.2 169.4 434.1 168.4 432.2 167.5C432.9 166.3 433.6 165.0 434.4 163.6ZM449.6 177.1C448.1 176.1 446.4 175.0 444.4 173.9C448.1 169.8 451.0 164.6 452.7 158.2L448.1 156.5L446.8 156.7L437.7 156.7C438.1 155.8 438.5 154.9 438.9 153.9L431.3 152.6C430.8 153.9 430.3 155.3 429.6 156.7L420.6 156.7L420.6 163.6L426.1 163.6C424.6 166.1 423.3 168.3 422.0 170.2C425.2 171.6 428.8 173.2 432.2 175.0C428.1 177.5 423.3 179.4 418.1 180.6C419.5 182.0 421.2 185.0 422.0 187.0C428.5 185.2 434.2 182.6 439.0 178.9C441.2 180.2 443.1 181.5 444.5 182.6ZM472.4 141.0C471.7 147.2 470.5 152.6 468.8 157.4C467.0 152.3 465.5 146.8 464.5 141.0ZM484.8 141.0L484.8 133.1L465.7 133.1C466.5 129.3 467.3 125.3 467.8 121.2L460.1 120.1C458.4 132.9 455.2 145.1 449.5 152.6C451.2 153.8 454.4 156.7 455.6 158.1C457.0 156.2 458.3 154.0 459.4 151.7C460.9 157.2 462.4 162.2 464.5 166.7C460.9 172.7 455.5 177.2 448.3 180.5C449.8 182.1 452 185.7 452.8 187.5C459.5 184.1 464.7 179.8 468.8 174.3C472.0 179.3 476.0 183.4 480.9 186.5C482.1 184.4 484.6 181.3 486.5 179.8C481.1 176.8 476.7 172.3 473.4 166.6C476.8 159.5 478.9 151.1 480.3 141.0ZM512.6 150.3L506.2 152.0L506.2 141.4L513.4 141.4L513.4 133.5L506.2 133.5L506.2 119.9L498.4 119.9L498.4 133.5L490.9 133.5L490.9 141.4L498.4 141.4L498.4 154.1C495.1 154.9 492.2 155.6 489.7 156.2L491.7 164.5L498.4 162.6L498.4 177.1C498.4 178.0 498.1 178.3 497.2 178.3C496.4 178.4 493.9 178.4 491.3 178.3C492.3 180.6 493.3 184.1 493.5 186.2C498.1 186.2 501.2 186.0 503.4 184.5C505.6 183.2 506.2 181.1 506.2 177.2L506.2 160.3C508.7 159.5 511.2 158.7 513.6 158.0ZM523.8 149.9C523.9 148.0 523.9 146.4 523.9 144.7L523.9 143.6L534.4 143.6L534.4 149.9ZM547.0 130.0L547.0 136.2L523.9 136.2L523.9 130.0ZM547.7 178.3L530.3 178.3L530.3 171.1L547.7 171.1ZM557.0 157.1L557.0 149.9L542.4 149.9L542.4 143.6L555.0 143.6L555.0 122.7L515.5 122.7L515.5 144.7C515.5 155.9 514.9 171.7 507.9 182.3C509.7 183.2 513.3 185.8 514.8 187.3C520.3 179.2 522.6 167.6 523.4 157.1L534.4 157.1L534.4 164.0L522.9 164.0L522.9 187.1L530.3 187.1L530.3 185.0L547.7 185.0L547.7 187.0L555.4 187.0L555.4 164.0L542.4 164.0L542.4 157.1ZM628.9 126.6L605 126.6C604.3 124.3 603.1 121.7 601.8 119.6L593.2 121.4C594.0 123.0 594.8 124.8 595.4 126.6L568.1 126.6L568.1 146.8C568.1 157.4 567.7 172.4 561.7 182.5C563.7 183.4 567.5 186.0 569 187.4C575.6 176.3 576.7 158.5 576.7 146.8L576.7 134.6L593.1 134.6C592.5 136.7 591.8 138.8 591.0 140.8L579.4 140.8L579.4 148.4L587.4 148.4C586.3 150.7 585.3 152.4 584.8 153.2C583.3 155.5 582.0 156.9 580.5 157.3C581.5 159.7 583.0 163.8 583.4 165.5C584.1 164.9 587.2 164.4 590.6 164.4L601.3 164.4L601.3 170.2L577.6 170.2L577.6 178.0L601.3 178.0L601.3 187.1L609.8 187.1L609.8 178.0L628.8 178.0L628.8 170.2L609.8 170.2L609.8 164.4L623.9 164.4L624.0 156.8L609.8 156.8L609.8 150.8L601.3 150.8L601.3 156.8L591.7 156.8C593.3 154.2 595.1 151.5 596.7 148.4L626.5 148.4L626.5 140.8L600.5 140.8C601.1 139.5 601.7 138.3 602.2 137.1L594.4 134.6L628.9 134.6ZM685.1 170.5L672.1 170.5L672.1 167.1L685.1 167.1ZM672.1 157.4L685.1 157.4L685.1 160.5L672.1 160.5ZM652.1 143.1L652.1 139.7L663.4 139.7L663.4 143.1ZM683.8 139.7L683.8 143.1L672.1 143.1L672.1 139.7ZM701.3 160.5L693.8 160.5L693.8 151.7L672.1 151.7L672.1 148.5L692.6 148.5L692.6 134.3L672.1 134.3L672.1 131.3L699.6 131.3L699.6 124.5L672.1 124.5L672.1 119.9L663.4 119.9L663.4 124.5L636.5 124.5L636.5 131.3L663.4 131.3L663.4 134.3L643.9 134.3L643.9 148.5L663.4 148.5L663.4 151.7L642.1 151.7L642.1 157.4L663.4 157.4L663.4 160.5L634.9 160.5L634.9 167.1L663.4 167.1L663.4 170.5L641.5 170.5L641.5 176.7L663.4 176.7L663.4 178.9C663.4 180.2 663.0 180.6 661.6 180.7C660.4 180.7 656.2 180.7 652.7 180.6C653.8 182.4 655.1 185.3 655.5 187.3C661.7 187.3 665.6 187.2 668.3 186.1C671.1 184.9 672.1 183.2 672.1 178.9L672.1 176.7L685.1 176.7L685.1 179.6L693.8 179.6L693.8 167.1L701.3 167.1ZM741.7 159.8C742.2 158.0 742.6 156.3 743.0 154.4L734.1 153.6C733.8 155.9 733.4 157.8 732.9 159.8L712.6 159.8L712.6 167.0L729.8 167.0C725.6 173.9 718.3 177.8 707.8 179.9C709.4 181.6 711.9 185.2 712.8 187.0C725.8 183.4 734.3 177.5 739.2 167.0L758.4 167.0C757.4 173.8 756.0 177.3 754.5 178.5C753.6 179.2 752.6 179.3 751.1 179.3C748.9 179.3 743.7 179.2 739.1 178.8C740.5 180.8 741.6 183.9 741.7 186.1C746.5 186.3 751.1 186.3 753.8 186.2C757.0 186.0 759.3 185.5 761.4 183.5C764.0 181.2 765.8 175.4 767.4 163.2C767.6 162.1 767.9 159.8 767.9 159.8ZM728.6 133.8L754.8 133.8C750.8 137.0 745.8 139.5 740 141.7C735.0 139.7 731.1 137.3 728.1 134.3ZM763.3 126.3L762.1 126.7L735.2 126.7C736.5 125.0 737.6 123.3 738.7 121.6L730.0 119.8C726.3 125.9 719.6 132.4 709.5 137.0C711.1 138.4 713.4 141.6 714.4 143.6C717.5 142.1 720.1 140.4 722.6 138.7C724.9 141.0 727.3 143.0 730.1 144.6C722.9 146.5 715.1 147.7 707.2 148.4C708.5 150.3 710.0 153.7 710.6 155.9C720.7 154.6 730.9 152.6 740.1 149.5C748.2 152.5 758 154.2 769.0 155.0C770.1 152.8 772.0 149.4 773.8 147.5C765.4 147.2 757.6 146.3 750.8 144.8C758.2 141.0 764.4 136.1 768.7 129.8Z " clip-path="url(#satori_cp-id-1-0-0)" mask="url(#satori_om-id-1-0-0)"/><path fill="black" d="M137.3 515.6C140.8 515.6 143.9 512.6 143.9 507.4C143.9 502.8 141.7 499.7 137.8 499.7C136.1 499.7 134.4 500.6 133.0 501.8L133.1 499.1L133.1 493.0L130.6 493.0L130.6 515.3L132.6 515.3L132.8 513.7L133.0 513.7C134.3 514.9 135.9 515.6 137.3 515.6ZM136.8 513.5C135.8 513.5 134.5 513.1 133.1 511.9L133.1 503.9C134.6 502.6 135.9 501.8 137.2 501.8C140.1 501.8 141.2 504.1 141.2 507.5C141.2 511.2 139.4 513.5 136.8 513.5ZM148.0 521.8C151.0 521.8 152.6 519.5 153.7 516.5L159.4 500.1L156.9 500.1L154.2 508.5C153.8 509.9 153.3 511.4 152.9 512.8L152.8 512.8C152.3 511.4 151.8 509.8 151.3 508.5L148.2 500.1L145.6 500.1L151.7 515.3L151.3 516.4C150.7 518.3 149.6 519.7 147.9 519.7C147.5 519.7 147.0 519.6 146.7 519.5L146.2 521.5C146.7 521.7 147.3 521.8 148.0 521.8Z "/><clipPath id="satori_cp-id-1-0-1-0-2"><rect x="173" y="485" width="57" height="40"/></clipPath><mask id="satori_om-id-1-0-1-0-2"><rect x="173" y="485" width="57" height="40" fill="#fff"/></mask><path fill="black" d="M181.7 515.7C186.5 515.7 189.4 512.8 189.4 509.4C189.4 506.4 187.7 504.8 185.2 503.8L182.5 502.6C180.7 501.9 179.2 501.4 179.2 499.9C179.2 498.5 180.4 497.7 182.2 497.7C183.9 497.7 185.3 498.3 186.6 499.4L188.7 496.8C187.0 495.1 184.6 494.2 182.2 494.2C178.0 494.2 175.0 496.8 175.0 500.2C175.0 503.2 177.1 504.9 179.2 505.7L182.0 506.9C183.9 507.7 185.1 508.2 185.1 509.7C185.1 511.2 184.0 512.1 181.8 512.1C180 512.1 178.0 511.2 176.6 509.8L174.2 512.6C176.2 514.6 179.0 515.7 181.7 515.7ZM193.0 515.3L196.7 515.3L196.7 506.6C196.7 504.7 196.4 501.8 196.2 499.8L196.3 499.8L198.0 504.7L201.2 513.4L203.6 513.4L206.8 504.7L208.4 499.8L208.6 499.8C208.4 501.8 208.1 504.7 208.1 506.6L208.1 515.3L211.8 515.3L211.8 494.5L207.2 494.5L203.8 504.2C203.4 505.5 203.0 506.9 202.5 508.2L202.4 508.2C202.0 506.9 201.6 505.5 201.1 504.2L197.6 494.5L193.0 494.5ZM221.4 515.7C225.9 515.7 227.9 512.5 227.9 508.6L227.9 494.5L223.7 494.5L223.7 508.2C223.7 511.1 222.8 512.1 220.9 512.1C219.8 512.1 218.7 511.4 217.9 509.9L215.0 512.0C216.4 514.4 218.4 515.7 221.4 515.7Z " clip-path="url(#satori_cp-id-1-0-1-0-2)" mask="url(#satori_om-id-1-0-1-0-2)"/><clipPath id="satori_cp-id-1-0-1-1"><rect x="959" y="485" width="112" height="40"/></clipPath><mask id="satori_om-id-1-0-1-1"><rect x="959" y="485" width="112" height="40" fill="#fff"/></mask><path fill="black" d="M985.5 499.3L985.5 496.0L974.0 496.0L976.0 495.2C975.5 494.1 974.7 492.5 974.0 491.2L970.7 492.4C971.2 493.5 971.9 494.9 972.4 496.0L960.5 496.0L960.5 499.3L967.6 499.3C967.3 505.2 966.8 511.5 960.1 515.1C961.0 515.8 962.0 516.9 962.5 517.8C967.5 514.9 969.6 510.6 970.6 505.9L979.4 505.9C979.0 510.9 978.5 513.3 977.8 513.9C977.4 514.2 977.0 514.3 976.4 514.3C975.5 514.3 973.6 514.3 971.7 514.1C972.3 515.0 972.8 516.4 972.9 517.4C974.8 517.5 976.6 517.5 977.7 517.3C979.0 517.2 979.9 517.0 980.7 516.0C981.8 514.8 982.4 511.7 982.9 504.1C983.0 503.7 983.1 502.7 983.1 502.7L971.0 502.7C971.2 501.5 971.2 500.4 971.3 499.3ZM991.1 504.1C992.9 506.2 995.0 509.1 995.8 511.0L998.9 509.1C998.0 507.2 995.8 504.4 993.9 502.5ZM1013.7 497.2L1007.4 497.2L1007.4 491.6L1003.8 491.6L1003.8 497.2L988.3 497.2L988.3 500.5L1003.8 500.5L1003.8 513.3C1003.8 513.9 1003.5 514.2 1002.8 514.2C1002.1 514.2 999.7 514.2 997.4 514.1C997.9 515.1 998.7 516.7 998.9 517.8C1001.8 517.8 1004.1 517.7 1005.5 517.1C1006.9 516.5 1007.4 515.6 1007.4 513.3L1007.4 500.5L1013.7 500.5ZM1037.7 496.6L1037.0 496.7L1030.5 496.7L1032.2 495.8C1031.5 494.6 1030.1 492.6 1029.0 491.2L1026.0 492.8C1026.8 494.0 1027.9 495.5 1028.6 496.7L1017.6 496.7L1017.6 500.0L1034.5 500.0C1031.5 503.8 1026.7 508.1 1022.1 510.9L1022.0 510.9C1020.4 510.9 1018.2 512.4 1016.2 514.5L1018.6 517.7C1019.8 515.9 1021.0 514.0 1021.9 514.0C1022.5 514.0 1023.4 514.9 1024.6 515.6C1026.5 516.8 1028.8 517.2 1032.2 517.2C1035.0 517.2 1039.2 517.0 1041.2 516.9C1041.2 516.0 1041.8 514.2 1042.1 513.3C1039.5 513.7 1035.2 514.0 1032.3 514.0C1029.4 514.0 1027.0 513.8 1025.3 512.7C1030.9 509.0 1036.7 503.5 1040.3 498.3ZM1045.0 517.7L1048.5 517.7L1048.5 498.3L1045.0 498.3ZM1045.5 493.4C1046.7 494.7 1048.2 496.5 1048.7 497.7L1051.5 496.0C1050.9 494.7 1049.4 493.0 1048.1 491.7ZM1054.3 507.4L1059.7 507.4L1059.7 510.0L1054.3 510.0ZM1054.3 502.1L1059.7 502.1L1059.7 504.7L1054.3 504.7ZM1051.3 512.7L1062.8 512.7L1062.8 499.4L1051.3 499.4ZM1069.2 492.9L1052.5 492.9L1052.5 496.0L1065.7 496.0L1065.7 514.1C1065.7 514.4 1065.7 514.6 1065.3 514.6C1065.0 514.6 1063.9 514.6 1063.0 514.5C1063.4 515.4 1063.9 516.6 1064 517.5C1065.7 517.5 1067.1 517.5 1068.0 517.0C1068.9 516.4 1069.2 515.7 1069.2 514.1Z " clip-path="url(#satori_cp-id-1-0-1-1)" mask="url(#satori_om-id-1-0-1-1)"/></svg>