<svg width="1200" height="630" viewBox="0 0 1200 630" xmlns="http://www.w3.org/2000/svg"><rect x="0" y="0" width="1200" height="630" fill="#fefbfb"/><defs><clipPath id="satori_bc-id-0"><path x="105" y="39" width="1056" height="504" d="M109,39 h1048 a4,4 0 0 1 4,4 v496 a4,4 0 0 1 -4,4 h-1048 a4,4 0 0 1 -4,-4 v-496 a4,4 0 0 1 4,-4"/></clipPath></defs><g opacity="0.9"><path x="105" y="39" width="1056" height="504" fill="#ecebeb" d="M109,39 h1048 a4,4 0 0 1 4,4 v496 a4,4 0 0 1 -4,4 h-1048 a4,4 0 0 1 -4,-4 v-496 a4,4 0 0 1 4,-4"/><path width="1056" height="504" clip-path="url(#satori_bc-id-0)" fill="none" stroke="#000" stroke-width="8" d="M106.172,40.172 A4,4 0 0 1 109,39 h1048 a4,4 0 0 1 4,4 v496 a4,4 0 0 1 -4,4 h-1048 a4,4 0 0 1 -4,-4 v-496 A4,4 0 0 1 106.172,40.172"/></g><defs><clipPath id="satori_bc-id-1"><path x="72" y="63" width="1056" height="504" d="M76,63 h1048 a4,4 0 0 1 4,4 v496 a4,4 0 0 1 -4,4 h-1048 a4,4 0 0 1 -4,-4 v-496 a4,4 0 0 1 4,-4"/></clipPath></defs><path x="72" y="63" width="1056" height="504" fill="#fefbfb" d="M76,63 h1048 a4,4 0 0 1 4,4 v496 a4,4 0 0 1 -4,4 h-1048 a4,4 0 0 1 -4,-4 v-496 a4,4 0 0 1 4,-4"/><path width="1056" height="504" clip-path="url(#satori_bc-id-1)" fill="none" stroke="#000" stroke-width="8" d="M73.172,64.172 A4,4 0 0 1 76,63 h1048 a4,4 0 0 1 4,4 v496 a4,4 0 0 1 -4,4 h-1048 a4,4 0 0 1 -4,-4 v-496 A4,4 0 0 1 73.172,64.172"/><clipPath id="satori_cp-id-1-0-0"><rect x="128" y="103" width="944" height="104"/></clipPath><mask id="satori_om-id-1-0-0"><rect x="128" y="103" width="944" height="104" fill="#fff"/></mask><path fill="black" d="M158.8 130.4L187.3 130.4L187.3 137.4L195.2 137.4L195.2 123.2L151.3 123.2L151.3 137.9L158.8 137.9ZM174.8 136.9C179.6 141.5 185.5 148.1 188.0 152.3L194.5 147.8C191.7 143.5 185.7 137.3 180.8 133.0ZM163.1 133.5C160.3 138.5 155.2 143.4 150.2 146.5C151.9 147.9 154.8 150.8 156.1 152.3C161.5 148.5 167.3 142.2 170.8 136.0ZM149.4 127.1C146.6 125.1 141.0 122.2 137.3 120.5L133.0 127.1C136.9 129.1 142.3 132.2 144.8 134.3ZM146.9 147.4C143.9 145.1 138.1 141.9 134.1 140.1L130.2 146.4C134.3 148.7 140.0 152.2 142.8 154.6ZM143.0 157.7C139.2 165.9 134.6 174.9 131.3 180.2L137.8 186.2C141.4 179.3 145.3 171.1 148.5 163.6ZM195.2 162.3L195.2 154.6L177.4 154.6L177.4 147.5L168.8 147.5L168.8 154.6L151.1 154.6L151.1 162.3L164.2 162.3C160.0 168.7 153.7 174.3 146.7 177.5C148.6 179.0 151.0 181.9 152.3 183.9C158.7 180.4 164.4 174.8 168.8 168.2L168.8 186.5L177.4 186.5L177.4 168.4C181.3 174.5 186.4 180.1 191.6 183.5C193.0 181.4 195.6 178.4 197.6 176.9C191.7 173.7 185.9 168.2 181.9 162.3ZM219.7 127.7C224.1 130.7 227.8 134.5 230.8 138.7C226.6 157.9 217.8 171.8 202.4 179.3C204.8 181.0 208.7 184.5 210.3 186.3C223.3 178.7 232.2 166.5 237.8 150.0C245.1 163.5 251.3 178.3 266.1 186.5C266.5 183.9 268.8 179.0 270.2 176.7C247.1 162.1 247.8 137.1 224.9 120.3ZM297.8 164.6C295.5 165.4 293.2 166.2 290.8 166.9L290.8 152.5L297.3 152.5L297.3 144.6L290.8 144.6L290.8 132.0L298.5 132.0L298.5 124.0L274.7 124.0L274.7 132.0L282.7 132.0L282.7 144.6L275.4 144.6L275.4 152.5L282.7 152.5L282.7 169.4C279.3 170.3 276.4 171.1 273.9 171.8L275.8 180.5C282.7 178.3 291.4 175.5 299.3 172.7ZM308.9 142.9L316.4 142.9L316.4 149.1L308.9 149.1ZM308.9 130.2L316.4 130.2L316.4 136.2L308.9 136.2ZM330.7 136.2L323.6 136.2L323.6 130.2L330.7 130.2ZM330.7 149.1L323.6 149.1L323.6 142.9L330.7 142.9ZM324.3 177.1L324.3 170.3L339.6 170.3L339.6 162.6L324.3 162.6L324.3 156.4L338.8 156.4L338.8 122.9L301.2 122.9L301.2 156.4L315.6 156.4L315.6 162.6L300.7 162.6L300.7 170.3L315.6 170.3L315.6 177.1L295.8 177.1L295.8 184.9L342.1 184.9L342.1 177.1ZM378.9 143.8C380.5 145.1 382.1 147.5 382.8 149.2C383.3 149.0 383.8 148.7 384.3 148.4C383.3 153.8 381.5 159.3 378.9 163.1ZM367.8 170.5L371.9 170.5L371.9 178.2C371.9 178.9 371.7 179.1 371.1 179.1C370.6 179.1 369.3 179.1 367.8 179.0ZM358.0 164.2C358.2 161.8 358.3 159.5 358.3 157.3L358.3 156.9L362.2 156.9L362.2 164.2ZM367.0 133.0C366.4 134.9 365.7 136.7 365.0 138.3L357.4 138.3C358.3 136.6 359.1 134.9 359.9 133.0ZM358.3 144.6L362.2 144.6L362.2 150.8L358.3 150.8ZM371.9 156.9L371.9 164.2L367.8 164.2L367.8 156.9ZM367.8 150.8L367.8 144.6L371.9 144.6L371.9 150.8ZM413.5 167.6L402.8 167.6L402.8 161.1L412.0 161.1L412.0 153.9L402.8 153.9L402.8 148.2L394.6 148.2L394.6 153.9L390.3 153.9C390.7 152.4 391.1 150.8 391.3 149.3L385.0 148.1C392.2 144.0 394.9 138.0 396.1 130.5L404.0 130.5C403.8 136.5 403.4 138.9 402.8 139.7C402.2 140.4 401.7 140.5 400.7 140.5C399.9 140.5 397.9 140.5 395.6 140.2C396.7 142.1 397.4 144.9 397.6 147.2C400.5 147.2 403.3 147.2 404.8 146.9C406.7 146.6 408.0 146.1 409.2 144.6C410.7 142.8 411.4 137.7 411.8 126.3C411.8 125.3 411.9 123.5 411.9 123.5L380.3 123.5L380.3 130.5L388.4 130.5C387.3 135.8 385.1 140.2 378.9 142.9L378.9 138.3L372.4 138.3C374.0 135.4 375.4 132.1 376.4 129.4L371.4 126.2L370.2 126.6L362.4 126.6C362.9 124.9 363.4 123.2 363.9 121.5L356.2 119.9C354.3 128.4 350.5 136.7 345.6 142.0C347.1 143.0 349.7 145.1 351.2 146.6L351.2 157.3C351.2 165.4 350.8 176.0 346.0 183.4C347.6 184.2 350.8 186.2 352.1 187.3C355.1 182.7 356.7 176.6 357.5 170.5L362.2 170.5L362.2 182.6L367.8 182.6L367.8 180.1C368.6 182.0 369.3 184.4 369.5 186.2C372.7 186.2 374.9 186.0 376.7 184.7C378.5 183.5 378.9 181.4 378.9 178.3L378.9 163.5C380.6 164.3 383.5 165.7 384.9 166.7C385.9 165.1 386.9 163.2 387.8 161.1L394.6 161.1L394.6 167.6L381.0 167.6L381.0 174.9L394.6 174.9L394.6 187.0L402.8 187.0L402.8 174.9L413.5 174.9ZM422.6 180.8L454.9 180.8L454.9 171.9L433.2 171.9L433.2 127.5L422.6 127.5ZM463.3 180.8L473.9 180.8L473.9 140.5L463.3 140.5ZM468.6 134.0C472.2 134.0 474.8 131.7 474.8 128.2C474.8 124.8 472.2 122.5 468.6 122.5C465.0 122.5 462.4 124.8 462.4 128.2C462.4 131.7 465.0 134.0 468.6 134.0ZM485.2 180.8L495.8 180.8L495.8 153.1C498.7 150.2 500.8 148.6 504.1 148.6C508.1 148.6 509.8 150.8 509.8 157.0L509.8 180.8L520.4 180.8L520.4 155.7C520.4 145.6 516.7 139.5 507.9 139.5C502.5 139.5 498.4 142.4 494.8 145.9L494.6 145.9L493.8 140.5L485.2 140.5ZM543.4 181.9C548.8 181.9 552.7 179.2 556.2 175.1L556.5 175.1L557.3 180.8L565.9 180.8L565.9 140.5L555.3 140.5L555.3 167.7C552.6 171.3 550.4 172.8 547.1 172.8C543.2 172.8 541.5 170.6 541.5 164.4L541.5 140.5L530.9 140.5L530.9 165.7C530.9 175.8 534.7 181.9 543.4 181.9ZM572.7 180.8L583.6 180.8L587.4 173.4C588.5 171.1 589.6 168.7 590.7 166.4L591.1 166.4C592.4 168.7 593.7 171.1 595.0 173.4L599.5 180.8L610.8 180.8L598.2 161.0L610.0 140.5L599.1 140.5L595.7 147.7C594.8 150.0 593.7 152.3 592.8 154.5L592.5 154.5C591.2 152.3 590.0 150.0 588.9 147.7L584.8 140.5L573.5 140.5L585.3 159.8Z M634.0 180.8L644.6 180.8L644.6 153.1C647.6 150.2 649.6 148.6 653.0 148.6C656.9 148.6 658.6 150.8 658.6 157.0L658.6 180.8L669.2 180.8L669.2 155.7C669.2 145.6 665.5 139.5 656.8 139.5C651.3 139.5 647.2 142.4 643.7 145.9L643.4 145.9L642.7 140.5L634.0 140.5ZM697.0 181.9C707.1 181.9 716.4 174.1 716.4 160.7C716.4 147.3 707.1 139.5 697.0 139.5C686.9 139.5 677.6 147.3 677.6 160.7C677.6 174.1 686.9 181.9 697.0 181.9ZM697.0 173.2C691.5 173.2 688.4 168.3 688.4 160.7C688.4 153.1 691.5 148.2 697.0 148.2C702.5 148.2 705.6 153.1 705.6 160.7C705.6 168.3 702.5 173.2 697.0 173.2ZM725.2 180.8L735.8 180.8L735.8 153.1C738.8 150.2 740.9 148.6 744.2 148.6C748.1 148.6 749.9 150.8 749.9 157.0L749.9 180.8L760.4 180.8L760.4 155.7C760.4 145.6 756.7 139.5 748.0 139.5C742.5 139.5 738.6 142.4 735.3 145.4L735.8 137.9L735.8 123.4L725.2 123.4ZM783.3 181.9C788.8 181.9 792.7 179.2 796.2 175.1L796.4 175.1L797.2 180.8L805.9 180.8L805.9 140.5L795.3 140.5L795.3 167.7C792.6 171.3 790.4 172.8 787.1 172.8C783.2 172.8 781.5 170.6 781.5 164.4L781.5 140.5L770.9 140.5L770.9 165.7C770.9 175.8 774.6 181.9 783.3 181.9ZM817.2 196.3L827.8 196.3L827.8 184.1L827.4 177.5C830.5 180.3 833.9 181.9 837.4 181.9C846.3 181.9 854.6 173.9 854.6 160.0C854.6 147.7 848.6 139.5 838.7 139.5C834.4 139.5 830.2 141.8 826.8 144.7L826.6 144.7L825.8 140.5L817.2 140.5ZM835.0 173.1C832.9 173.1 830.3 172.4 827.8 170.1L827.8 152.4C830.5 149.6 833.0 148.2 835.7 148.2C841.2 148.2 843.7 152.5 843.7 160.2C843.7 169.0 839.9 173.1 835.0 173.1ZM881.9 157.7L881.9 168.8L873.8 168.8L873.8 157.7ZM889.9 150.3L866.1 150.3L866.1 182.0L873.8 182.0L873.8 176.2L889.9 176.2ZM922.0 150.4L895.4 150.4L895.4 187.3L903.9 187.3L903.9 158.0L913.8 158.0L913.8 169.9C913.8 170.7 913.5 171.0 912.6 171.0C911.7 171.0 908.8 171.0 906.1 170.9C907.0 173.1 908.0 176.3 908.3 178.6C912.9 178.6 916.4 178.6 918.8 177.3C921.4 176.0 922.0 173.9 922.0 170.0ZM883.4 138.5C887.3 136.1 891.1 133.5 894.3 130.7C897.1 133.5 900.2 136.1 903.7 138.5ZM894.3 118.7C887.4 127.7 873.1 135.8 859.4 139.0C861.4 141.3 863.3 144.8 864.4 147.3C869.0 145.8 873.7 143.8 878.2 141.5L878.2 146.1L909.0 146.1L909.0 141.7C913.1 143.9 917.6 145.6 922.1 146.9C923.5 144.4 926.0 140.7 928.2 138.8C917.0 136.5 906.2 131.5 899.7 125.3C900.2 124.8 900.7 124.2 901.1 123.6ZM987.0 152.1L985.5 152.6L968.7 152.6L974.5 147.6C972.3 144.7 967.6 140.5 964.1 137.6L958.0 142.5C961.3 145.5 965.4 149.6 967.6 152.6L941.5 152.6L941.5 160.8L977.0 160.8C973.9 164.1 970.3 167.5 966.9 170.8C963.2 168.8 959.5 166.7 956.4 165.1L950.4 171.6C958.5 176.1 970.0 183.2 975.3 187.6L981.8 180.2C979.9 178.7 977.3 177.0 974.4 175.2C981.1 168.8 988.1 161.7 993.5 155.9ZM966.3 119.2C958.6 129.2 944.6 137.9 931.8 142.8C934.2 145.0 936.6 148.2 937.9 150.4C947.9 145.8 958.2 139.3 966.6 131.5C974.6 138.9 985.1 145.9 994.2 150.0C995.7 147.7 998.6 144.1 1000.7 142.3C990.8 138.8 979.4 132.3 972.1 125.9C972.8 125.1 973.5 124.3 974.2 123.4Z " clip-path="url(#satori_cp-id-1-0-0)" mask="url(#satori_om-id-1-0-0)"/><path fill="black" d="M137.3 515.6C140.8 515.6 143.9 512.6 143.9 507.4C143.9 502.8 141.7 499.7 137.8 499.7C136.1 499.7 134.4 500.6 133.0 501.8L133.1 499.1L133.1 493.0L130.6 493.0L130.6 515.3L132.6 515.3L132.8 513.7L133.0 513.7C134.3 514.9 135.9 515.6 137.3 515.6ZM136.8 513.5C135.8 513.5 134.5 513.1 133.1 511.9L133.1 503.9C134.6 502.6 135.9 501.8 137.2 501.8C140.1 501.8 141.2 504.1 141.2 507.5C141.2 511.2 139.4 513.5 136.8 513.5ZM148.0 521.8C151.0 521.8 152.6 519.5 153.7 516.5L159.4 500.1L156.9 500.1L154.2 508.5C153.8 509.9 153.3 511.4 152.9 512.8L152.8 512.8C152.3 511.4 151.8 509.8 151.3 508.5L148.2 500.1L145.6 500.1L151.7 515.3L151.3 516.4C150.7 518.3 149.6 519.7 147.9 519.7C147.5 519.7 147.0 519.6 146.7 519.5L146.2 521.5C146.7 521.7 147.3 521.8 148.0 521.8Z "/><clipPath id="satori_cp-id-1-0-1-0-2"><rect x="173" y="485" width="57" height="40"/></clipPath><mask id="satori_om-id-1-0-1-0-2"><rect x="173" y="485" width="57" height="40" fill="#fff"/></mask><path fill="black" d="M181.7 515.7C186.5 515.7 189.4 512.8 189.4 509.4C189.4 506.4 187.7 504.8 185.2 503.8L182.5 502.6C180.7 501.9 179.2 501.4 179.2 499.9C179.2 498.5 180.4 497.7 182.2 497.7C183.9 497.7 185.3 498.3 186.6 499.4L188.7 496.8C187.0 495.1 184.6 494.2 182.2 494.2C178.0 494.2 175.0 496.8 175.0 500.2C175.0 503.2 177.1 504.9 179.2 505.7L182.0 506.9C183.9 507.7 185.1 508.2 185.1 509.7C185.1 511.2 184.0 512.1 181.8 512.1C180 512.1 178.0 511.2 176.6 509.8L174.2 512.6C176.2 514.6 179.0 515.7 181.7 515.7ZM193.0 515.3L196.7 515.3L196.7 506.6C196.7 504.7 196.4 501.8 196.2 499.8L196.3 499.8L198.0 504.7L201.2 513.4L203.6 513.4L206.8 504.7L208.4 499.8L208.6 499.8C208.4 501.8 208.1 504.7 208.1 506.6L208.1 515.3L211.8 515.3L211.8 494.5L207.2 494.5L203.8 504.2C203.4 505.5 203.0 506.9 202.5 508.2L202.4 508.2C202.0 506.9 201.6 505.5 201.1 504.2L197.6 494.5L193.0 494.5ZM221.4 515.7C225.9 515.7 227.9 512.5 227.9 508.6L227.9 494.5L223.7 494.5L223.7 508.2C223.7 511.1 222.8 512.1 220.9 512.1C219.8 512.1 218.7 511.4 217.9 509.9L215.0 512.0C216.4 514.4 218.4 515.7 221.4 515.7Z " clip-path="url(#satori_cp-id-1-0-1-0-2)" mask="url(#satori_om-id-1-0-1-0-2)"/><clipPath id="satori_cp-id-1-0-1-1"><rect x="959" y="485" width="112" height="40"/></clipPath><mask id="satori_om-id-1-0-1-1"><rect x="959" y="485" width="112" height="40" fill="#fff"/></mask><path fill="black" d="M985.5 499.3L985.5 496.0L974.0 496.0L976.0 495.2C975.5 494.1 974.7 492.5 974.0 491.2L970.7 492.4C971.2 493.5 971.9 494.9 972.4 496.0L960.5 496.0L960.5 499.3L967.6 499.3C967.3 505.2 966.8 511.5 960.1 515.1C961.0 515.8 962.0 516.9 962.5 517.8C967.5 514.9 969.6 510.6 970.6 505.9L979.4 505.9C979.0 510.9 978.5 513.3 977.8 513.9C977.4 514.2 977.0 514.3 976.4 514.3C975.5 514.3 973.6 514.3 971.7 514.1C972.3 515.0 972.8 516.4 972.9 517.4C974.8 517.5 976.6 517.5 977.7 517.3C979.0 517.2 979.9 517.0 980.7 516.0C981.8 514.8 982.4 511.7 982.9 504.1C983.0 503.7 983.1 502.7 983.1 502.7L971.0 502.7C971.2 501.5 971.2 500.4 971.3 499.3ZM991.1 504.1C992.9 506.2 995.0 509.1 995.8 511.0L998.9 509.1C998.0 507.2 995.8 504.4 993.9 502.5ZM1013.7 497.2L1007.4 497.2L1007.4 491.6L1003.8 491.6L1003.8 497.2L988.3 497.2L988.3 500.5L1003.8 500.5L1003.8 513.3C1003.8 513.9 1003.5 514.2 1002.8 514.2C1002.1 514.2 999.7 514.2 997.4 514.1C997.9 515.1 998.7 516.7 998.9 517.8C1001.8 517.8 1004.1 517.7 1005.5 517.1C1006.9 516.5 1007.4 515.6 1007.4 513.3L1007.4 500.5L1013.7 500.5ZM1037.7 496.6L1037.0 496.7L1030.5 496.7L1032.2 495.8C1031.5 494.6 1030.1 492.6 1029.0 491.2L1026.0 492.8C1026.8 494.0 1027.9 495.5 1028.6 496.7L1017.6 496.7L1017.6 500.0L1034.5 500.0C1031.5 503.8 1026.7 508.1 1022.1 510.9L1022.0 510.9C1020.4 510.9 1018.2 512.4 1016.2 514.5L1018.6 517.7C1019.8 515.9 1021.0 514.0 1021.9 514.0C1022.5 514.0 1023.4 514.9 1024.6 515.6C1026.5 516.8 1028.8 517.2 1032.2 517.2C1035.0 517.2 1039.2 517.0 1041.2 516.9C1041.2 516.0 1041.8 514.2 1042.1 513.3C1039.5 513.7 1035.2 514.0 1032.3 514.0C1029.4 514.0 1027.0 513.8 1025.3 512.7C1030.9 509.0 1036.7 503.5 1040.3 498.3ZM1045.0 517.7L1048.5 517.7L1048.5 498.3L1045.0 498.3ZM1045.5 493.4C1046.7 494.7 1048.2 496.5 1048.7 497.7L1051.5 496.0C1050.9 494.7 1049.4 493.0 1048.1 491.7ZM1054.3 507.4L1059.7 507.4L1059.7 510.0L1054.3 510.0ZM1054.3 502.1L1059.7 502.1L1059.7 504.7L1054.3 504.7ZM1051.3 512.7L1062.8 512.7L1062.8 499.4L1051.3 499.4ZM1069.2 492.9L1052.5 492.9L1052.5 496.0L1065.7 496.0L1065.7 514.1C1065.7 514.4 1065.7 514.6 1065.3 514.6C1065.0 514.6 1063.9 514.6 1063.0 514.5C1063.4 515.4 1063.9 516.6 1064 517.5C1065.7 517.5 1067.1 517.5 1068.0 517.0C1068.9 516.4 1069.2 515.7 1069.2 514.1Z " clip-path="url(#satori_cp-id-1-0-1-1)" mask="url(#satori_om-id-1-0-1-1)"/></svg>