<svg width="1200" height="630" viewBox="0 0 1200 630" xmlns="http://www.w3.org/2000/svg"><rect x="0" y="0" width="1200" height="630" fill="#fefbfb"/><defs><clipPath id="satori_bc-id-0"><path x="105" y="39" width="1056" height="504" d="M109,39 h1048 a4,4 0 0 1 4,4 v496 a4,4 0 0 1 -4,4 h-1048 a4,4 0 0 1 -4,-4 v-496 a4,4 0 0 1 4,-4"/></clipPath></defs><g opacity="0.9"><path x="105" y="39" width="1056" height="504" fill="#ecebeb" d="M109,39 h1048 a4,4 0 0 1 4,4 v496 a4,4 0 0 1 -4,4 h-1048 a4,4 0 0 1 -4,-4 v-496 a4,4 0 0 1 4,-4"/><path width="1056" height="504" clip-path="url(#satori_bc-id-0)" fill="none" stroke="#000" stroke-width="8" d="M106.172,40.172 A4,4 0 0 1 109,39 h1048 a4,4 0 0 1 4,4 v496 a4,4 0 0 1 -4,4 h-1048 a4,4 0 0 1 -4,-4 v-496 A4,4 0 0 1 106.172,40.172"/></g><defs><clipPath id="satori_bc-id-1"><path x="72" y="63" width="1056" height="504" d="M76,63 h1048 a4,4 0 0 1 4,4 v496 a4,4 0 0 1 -4,4 h-1048 a4,4 0 0 1 -4,-4 v-496 a4,4 0 0 1 4,-4"/></clipPath></defs><path x="72" y="63" width="1056" height="504" fill="#fefbfb" d="M76,63 h1048 a4,4 0 0 1 4,4 v496 a4,4 0 0 1 -4,4 h-1048 a4,4 0 0 1 -4,-4 v-496 a4,4 0 0 1 4,-4"/><path width="1056" height="504" clip-path="url(#satori_bc-id-1)" fill="none" stroke="#000" stroke-width="8" d="M73.172,64.172 A4,4 0 0 1 76,63 h1048 a4,4 0 0 1 4,4 v496 a4,4 0 0 1 -4,4 h-1048 a4,4 0 0 1 -4,-4 v-496 A4,4 0 0 1 73.172,64.172"/><clipPath id="satori_cp-id-1-0-0"><rect x="128" y="103" width="944" height="104"/></clipPath><mask id="satori_om-id-1-0-0"><rect x="128" y="103" width="944" height="104" fill="#fff"/></mask><path fill="black" d="M160.8 165.2C158.4 173.2 153.2 177.5 130.3 179.7C131.7 181.5 133.4 185.0 134.0 187.0C159.3 183.7 166.3 177.0 169.3 165.2ZM144.5 138.2L152.3 138.2C152.3 139.3 152.0 140.3 151.8 141.3L144.1 141.3ZM160.2 129.2L168.1 129.2L168.1 132.6L160.2 132.6ZM183.5 129.2L183.5 132.6L176.2 132.6L176.2 129.2ZM168.1 141.3L159.8 141.3C159.9 140.3 160.0 139.3 160.0 138.2L168.1 138.2ZM187.9 174.9L187.9 155.9L147.7 155.9C153.1 153.4 156.2 150.5 158.0 146.9L168.1 146.9L168.1 154.5L176.2 154.5L176.2 146.9L187.4 146.9C187.3 148.0 187.0 148.6 186.8 148.9C186.4 149.4 186.0 149.4 185.4 149.4C184.6 149.5 183.1 149.4 181.4 149.2C182.1 150.7 182.7 153.0 182.8 154.5C185.5 154.6 188.2 154.7 189.6 154.6C191.1 154.4 192.7 153.9 193.7 152.8C195.0 151.3 195.4 148.7 195.8 143.7C195.8 142.8 195.8 141.3 195.8 141.3L176.2 141.3L176.2 138.2L191.3 138.2L191.3 123.6L176.2 123.6L176.2 119.9L168.1 119.9L168.1 123.6L160.2 123.6L160.2 119.9L152.5 119.9L152.5 123.6L135.8 123.6L135.8 129.2L152.5 129.2L152.5 132.6L137.6 132.6C137.1 137.4 136.2 143.1 135.3 146.9L147.9 146.9C144.7 149.5 139.7 151.4 131.5 152.8C132.9 154.4 134.9 157.6 135.6 159.4C137.3 159.1 138.9 158.7 140.5 158.4L140.5 175.6L148.7 175.6L148.7 162.8L179.1 162.8L179.1 174.9C175.7 173.9 172.5 173.1 169.6 172.5L165.2 178.2C174.2 180.4 186.5 184.4 192.7 187.1L197.5 180.7C193.0 178.9 186.0 176.7 179.2 174.9ZM251.4 130.2L220.0 130.2L220.0 127.6L251.4 127.6ZM251.4 137.9L220.0 137.9L220.0 135.1L251.4 135.1ZM259.9 122.3L212.0 122.3L212.0 143.1L259.9 143.1ZM256.5 154.8L248.0 154.8L248.0 150.9L256.5 150.9ZM239.7 154.8L231.4 154.8L231.4 150.9L239.7 150.9ZM223.1 154.8L214.9 154.8L214.9 150.9L223.1 150.9ZM265.0 145.5L206.8 145.5L206.8 160.2L265.0 160.2ZM246.9 169.4C243.9 171.5 240.3 173.1 236.2 174.4C232.0 173.1 228.2 171.4 225.2 169.4ZM256.2 162.3L254.6 162.6L207.5 162.6L207.5 169.4L217.6 169.4L215.2 170.6C218 173.1 221.2 175.4 224.8 177.2C218.3 178.5 210.9 179.2 203.6 179.6C204.9 181.5 206.3 184.9 206.8 187.0C217.4 186.2 227.4 184.8 236.4 182.1C244.6 184.7 254.1 186.3 264.2 187.0C265.2 184.9 267.2 181.5 268.9 179.6C261.6 179.3 254.5 178.5 248.0 177.3C253.6 174.4 258.3 170.6 261.6 165.6ZM298.4 150.5L291.8 152.1L291.8 141.5L298.9 141.5L298.9 133.5L291.8 133.5L291.8 119.9L283.3 119.9L283.3 133.5L275.0 133.5L275.0 141.5L283.3 141.5L283.3 154.2C279.8 155.1 276.8 155.7 274.1 156.3L276.3 164.4L283.3 162.7L283.3 177.5C283.3 178.6 282.9 179.0 281.9 179.0C281 179.0 278.0 179.0 275.2 178.9C276.2 181.1 277.3 184.5 277.6 186.7C282.7 186.7 286.2 186.5 288.6 185.2C291.0 183.8 291.8 181.8 291.8 177.6L291.8 160.4C294.4 159.8 297.0 159.0 299.5 158.3ZM328.6 154.4C326.4 159.2 323.3 163.6 319.5 167.1C315.9 163.4 313.0 159.1 311.0 154.4ZM333.9 146.3L332.4 146.6L323.8 146.6L323.8 138.0L339.9 138.0L339.9 130.1L323.8 130.1L323.8 119.8L315.3 119.8L315.3 130.1L299.8 130.1L299.8 138.0L315.3 138.0L315.3 146.6L301.1 146.6L301.1 154.4L304.8 154.4L302.7 155.0C305.3 161.6 308.7 167.3 312.9 172.1C307.9 175.4 302.0 177.7 295.7 179.2C297.3 181.1 299.3 184.7 300.2 187.0C307.3 184.9 313.6 182.0 319.2 178.1C324.3 182.1 330.2 185.1 337.2 187.2C338.4 185.0 340.8 181.5 342.6 179.8C336.2 178.2 330.7 175.8 325.9 172.5C332.0 166.4 336.7 158.5 339.4 148.6ZM364.8 137.4L372.9 137.4L372.9 128.9L346.6 128.9L346.6 137.4L356.1 137.4L356.1 164.9C352.2 165.6 348.6 166.2 345.7 166.7L347.5 175.4C355.2 173.9 365.4 171.8 374.9 169.5L374.1 161.4C371 162.0 367.9 162.6 364.8 163.2ZM413.5 132.6L413.5 124.0L374.0 124.0L374.0 132.6L382.8 132.6C381.3 140.7 379.3 149.5 377.6 155.6L402.5 155.6C401.6 168.7 400.6 175.2 398.7 176.8C397.7 177.6 396.6 177.7 395.0 177.7C392.5 177.7 386.8 177.6 381.2 177.2C383.1 179.7 384.5 183.4 384.7 186.0C389.9 186.2 395.1 186.3 398.1 186.0C401.7 185.7 404.1 185.0 406.4 182.4C409.2 179.2 410.5 171.1 411.6 151.2L411.8 147.4L388.8 147.4C389.8 142.8 390.9 137.6 391.7 132.6ZM434 147.1C437.8 147.1 440.8 144.2 440.8 140.3C440.8 136.4 437.8 133.5 434 133.5C430.2 133.5 427.2 136.4 427.2 140.3C427.2 144.2 430.2 147.1 434 147.1ZM434 181.4C437.8 181.4 440.8 178.5 440.8 174.7C440.8 170.7 437.8 167.8 434 167.8C430.2 167.8 427.2 170.7 427.2 174.7C427.2 178.5 430.2 181.4 434 181.4ZM539.3 130.6L508.3 130.6L508.3 127.7L539.3 127.7ZM539.3 138.8L508.3 138.8L508.3 135.8L539.3 135.8ZM547.9 122.2L500.1 122.2L500.1 144.3L547.9 144.3ZM505.4 175.1L505.4 171.3L514.8 171.3L514.8 174.2ZM514.8 153.7L514.8 156.6L505.4 156.6L505.4 153.7ZM505.4 162.5L514.8 162.5L514.8 165.4L505.4 165.4ZM526.4 179.9L526.3 173.1L523.0 173.4L523.0 153.7L556.5 153.7L556.5 146.9L491.3 146.9L491.3 153.7L497.6 153.7L497.6 175.7C495.3 176.0 493.2 176.1 491.2 176.2L491.9 183.7C498.2 182.9 506.4 182.1 514.8 181.2L514.8 187.1L523.0 187.1L523.0 180.3ZM545.8 163.1C544.3 165.9 542.4 168.6 540.3 170.8C537.9 168.6 535.9 165.9 534.4 163.1ZM550.6 156.2L549.3 156.4L525.4 156.4L525.4 163.1L530.7 163.1L527.1 164.1C529.1 168.5 531.6 172.4 534.7 175.7C531.6 177.8 528.1 179.6 524.5 180.7C526.0 182.2 527.9 185.0 528.8 186.9C532.9 185.2 536.8 183.2 540.3 180.6C543.9 183.3 548.1 185.3 552.9 186.8C554.0 184.7 556.3 181.6 558.0 180.0C553.6 179.0 549.6 177.3 546.2 175.3C550.3 170.7 553.5 165.1 555.5 158.1ZM583.2 142.0C582.3 149.0 580.7 155.1 578.4 160.5C576.5 159.0 574.5 157.4 572.6 155.9C573.8 151.7 574.9 146.9 575.8 142.0ZM586.9 133.9L585.3 134.1L577.4 134.1C578.3 129.4 579.0 124.9 579.6 120.7L571.1 120.0C570.7 124.4 570.0 129.2 569.1 134.1L562.5 134.1L562.5 142.0L567.6 142.0C566.3 148.4 564.8 154.4 563.3 159.0C566.9 161.7 570.8 164.9 574.5 168.2C571.0 173.6 566.6 177.6 561.3 180.3C563.1 181.9 565.5 185.0 566.6 187.0C572.2 183.7 576.9 179.5 580.7 174.0C583.4 176.7 585.8 179.3 587.4 181.6L593.0 174.3C591.1 171.8 588.4 169.0 585.1 166.1C588.7 158.0 591.0 147.7 592.1 135.1ZM629.6 149.5L615.2 149.5L615.2 144.1C620.3 139.3 625.1 133.3 628.5 128.0L622.7 123.8L620.7 124.3L594.0 124.3L594.0 132.0L615.1 132.0C612.6 135.8 609.4 139.9 606.3 142.6L606.3 149.5L591.1 149.5L591.1 157.6L606.3 157.6L606.3 177.7C606.3 178.8 605.9 179.0 604.7 179.0C603.6 179.0 599.4 179.0 595.7 179.0C596.9 181.2 598.2 184.7 598.7 187.1C604.3 187.2 608.4 187.0 611.3 185.7C614.3 184.4 615.2 182.2 615.2 177.8L615.2 157.6L629.6 157.6ZM645.2 172.1L645.2 158.0L656.7 158.0L656.7 172.1ZM656.7 150.6L645.2 150.6L645.2 138.9L656.7 138.9ZM679.6 131.0C680.7 127.9 681.6 124.9 682.4 121.8L674.2 119.9C672.1 128.4 668.6 137.1 664.5 143.1L664.5 131.5L653.3 131.5C654.5 128.4 655.8 124.8 657.1 121.2L647.7 119.9C647.4 123.2 646.5 127.9 645.6 131.5L637.5 131.5L637.5 185.0L645.2 185.0L645.2 179.7L664.5 179.7L664.5 146.1C666.4 147.4 668.9 149.0 670.0 150.1C672.2 147.0 674.5 143.0 676.4 138.7L691.8 138.7C691.0 164.1 690.0 174.9 687.9 177.2C687.0 178.2 686.2 178.5 684.8 178.5C682.9 178.5 678.7 178.5 674.0 178.0C675.6 180.4 676.7 184.0 676.9 186.4C681.1 186.5 685.4 186.6 688.2 186.2C691.0 185.7 693.1 185.0 695.1 182.3C698.0 178.5 698.8 167.0 699.8 134.8C699.8 133.8 699.8 131.0 699.8 131.0ZM687.9 163.8C685.6 159.6 680.9 152.8 677.3 147.8L670.6 151.6C674.1 156.9 678.6 163.9 680.6 168.2ZM717.0 138.8L763.0 138.8L763.0 147.0L771.4 147.0L771.4 131.2L760.9 131.2C762.9 128.6 765.1 125.8 767 123.0L758.1 120.4C756.6 123.6 754.2 127.9 751.9 131.2L742.5 131.2L746.8 129.6C745.8 126.7 743.5 122.3 741.1 119.2L733.5 122.0C735.3 124.8 737.2 128.4 738.2 131.2L726.1 131.2L728.8 129.9C727.6 127.2 724.7 123.3 722.2 120.5L714.9 123.8C716.7 126.0 718.7 128.8 720.0 131.2L709.0 131.2L709.0 147.0L717.0 147.0ZM772.2 160.4L744.2 160.4L744.2 159.0C750.4 156.1 756.2 152.2 760.6 148.2L755.1 143.9L753.4 144.3L720.9 144.3L720.9 151.8L743.6 151.8C741.0 153.3 738.2 154.9 735.5 155.9L735.5 160.4L708.0 160.4L708.0 168.3L735.5 168.3L735.5 177.3C735.5 178.3 735.1 178.6 733.6 178.6C732.2 178.7 726.8 178.7 722.2 178.5C723.6 180.7 725.2 184.3 725.7 186.8C731.9 186.8 736.4 186.7 739.9 185.4C743.2 184.2 744.2 182.0 744.2 177.5L744.2 168.3L772.2 168.3ZM825.0 155.3C809.8 160.7 793.0 166.4 782.6 169.4L785.6 178.0C796.8 174.1 812.4 168.5 826.6 163.1ZM791.9 141.6C797.6 145.9 805.7 152.3 809.5 156.0L815.6 149.5C811.6 145.9 803.1 140.0 797.6 135.9ZM841.1 124.1L783.8 124.1L783.8 132.3L832.3 132.3C831.9 161.4 831.4 174.6 829.0 177.0C828.3 178.0 827.4 178.3 825.9 178.3C823.6 178.3 819.1 178.3 813.7 178.0C815.1 180.3 816.4 183.8 816.5 186.1C821 186.2 826.3 186.4 829.6 186.0C832.8 185.5 835.0 184.4 837.1 181.3C840.0 177.1 840.7 164.9 841.1 128.5ZM916.2 139.7L916.2 131.4L886.7 131.4L891.6 129.2C890.6 126.5 888.4 122.2 886.4 118.9L878.0 122.1C879.5 125.0 881.2 128.6 882.3 131.4L852.0 131.4L852.0 139.7L870.1 139.7C869.4 154.9 868.0 171.1 850.7 180.3C853.0 182.1 855.7 185.1 857 187.4C870.0 180.0 875.3 168.8 877.7 156.7L900.4 156.7C899.4 169.6 898.1 175.7 896.2 177.4C895.2 178.2 894.3 178.3 892.7 178.3C890.6 178.3 885.5 178.3 880.6 177.8C882.3 180.1 883.5 183.7 883.6 186.2C888.5 186.5 893.3 186.5 896.1 186.2C899.3 185.9 901.6 185.2 903.8 182.8C906.8 179.7 908.3 171.7 909.6 152.2C909.8 151.0 909.8 148.4 909.8 148.4L879.0 148.4C879.3 145.5 879.5 142.6 879.7 139.7ZM946.0 156.9L957.5 156.9L957.5 148.7L926.6 148.7L926.6 156.9L937.5 156.9L937.5 174.3C932.3 175.2 927.6 175.9 923.9 176.5L926.3 185.1C935.6 183.1 948.2 180.5 960.0 177.9L959.4 170.3C955.0 171.1 950.4 172.0 946.0 172.8ZM988.3 140.5L988.3 132.1L981.5 132.1L986.4 127.9C984.4 125.5 980.2 122.1 977.0 119.9L971.3 124.5C974.1 126.7 977.7 129.7 979.7 132.1L968.3 132.1C968.2 128.2 968.2 124.2 968.2 120.2L959.0 120.2C959.0 124.2 959.1 128.2 959.2 132.1L923.9 132.1L923.9 140.5L959.7 140.5C961.4 165.8 966.8 187.1 979.1 187.1C986.0 187.1 988.8 183.8 990.1 170.2C987.8 169.3 984.6 167.2 982.6 165.2C982.3 174.3 981.4 178.1 979.9 178.1C974.6 178.1 970.3 161.5 968.7 140.5Z " clip-path="url(#satori_cp-id-1-0-0)" mask="url(#satori_om-id-1-0-0)"/><path fill="black" d="M137.3 515.6C140.8 515.6 143.9 512.6 143.9 507.4C143.9 502.8 141.7 499.7 137.8 499.7C136.1 499.7 134.4 500.6 133.0 501.8L133.1 499.1L133.1 493.0L130.6 493.0L130.6 515.3L132.6 515.3L132.8 513.7L133.0 513.7C134.3 514.9 135.9 515.6 137.3 515.6ZM136.8 513.5C135.8 513.5 134.5 513.1 133.1 511.9L133.1 503.9C134.6 502.6 135.9 501.8 137.2 501.8C140.1 501.8 141.2 504.1 141.2 507.5C141.2 511.2 139.4 513.5 136.8 513.5ZM148.0 521.8C151.0 521.8 152.6 519.5 153.7 516.5L159.4 500.1L156.9 500.1L154.2 508.5C153.8 509.9 153.3 511.4 152.9 512.8L152.8 512.8C152.3 511.4 151.8 509.8 151.3 508.5L148.2 500.1L145.6 500.1L151.7 515.3L151.3 516.4C150.7 518.3 149.6 519.7 147.9 519.7C147.5 519.7 147.0 519.6 146.7 519.5L146.2 521.5C146.7 521.7 147.3 521.8 148.0 521.8Z "/><clipPath id="satori_cp-id-1-0-1-0-2"><rect x="173" y="485" width="57" height="40"/></clipPath><mask id="satori_om-id-1-0-1-0-2"><rect x="173" y="485" width="57" height="40" fill="#fff"/></mask><path fill="black" d="M181.7 515.7C186.5 515.7 189.4 512.8 189.4 509.4C189.4 506.4 187.7 504.8 185.2 503.8L182.5 502.6C180.7 501.9 179.2 501.4 179.2 499.9C179.2 498.5 180.4 497.7 182.2 497.7C183.9 497.7 185.3 498.3 186.6 499.4L188.7 496.8C187.0 495.1 184.6 494.2 182.2 494.2C178.0 494.2 175.0 496.8 175.0 500.2C175.0 503.2 177.1 504.9 179.2 505.7L182.0 506.9C183.9 507.7 185.1 508.2 185.1 509.7C185.1 511.2 184.0 512.1 181.8 512.1C180 512.1 178.0 511.2 176.6 509.8L174.2 512.6C176.2 514.6 179.0 515.7 181.7 515.7ZM193.0 515.3L196.7 515.3L196.7 506.6C196.7 504.7 196.4 501.8 196.2 499.8L196.3 499.8L198.0 504.7L201.2 513.4L203.6 513.4L206.8 504.7L208.4 499.8L208.6 499.8C208.4 501.8 208.1 504.7 208.1 506.6L208.1 515.3L211.8 515.3L211.8 494.5L207.2 494.5L203.8 504.2C203.4 505.5 203.0 506.9 202.5 508.2L202.4 508.2C202.0 506.9 201.6 505.5 201.1 504.2L197.6 494.5L193.0 494.5ZM221.4 515.7C225.9 515.7 227.9 512.5 227.9 508.6L227.9 494.5L223.7 494.5L223.7 508.2C223.7 511.1 222.8 512.1 220.9 512.1C219.8 512.1 218.7 511.4 217.9 509.9L215.0 512.0C216.4 514.4 218.4 515.7 221.4 515.7Z " clip-path="url(#satori_cp-id-1-0-1-0-2)" mask="url(#satori_om-id-1-0-1-0-2)"/><clipPath id="satori_cp-id-1-0-1-1"><rect x="959" y="485" width="112" height="40"/></clipPath><mask id="satori_om-id-1-0-1-1"><rect x="959" y="485" width="112" height="40" fill="#fff"/></mask><path fill="black" d="M985.5 499.3L985.5 496.0L974.0 496.0L976.0 495.2C975.5 494.1 974.7 492.5 974.0 491.2L970.7 492.4C971.2 493.5 971.9 494.9 972.4 496.0L960.5 496.0L960.5 499.3L967.6 499.3C967.3 505.2 966.8 511.5 960.1 515.1C961.0 515.8 962.0 516.9 962.5 517.8C967.5 514.9 969.6 510.6 970.6 505.9L979.4 505.9C979.0 510.9 978.5 513.3 977.8 513.9C977.4 514.2 977.0 514.3 976.4 514.3C975.5 514.3 973.6 514.3 971.7 514.1C972.3 515.0 972.8 516.4 972.9 517.4C974.8 517.5 976.6 517.5 977.7 517.3C979.0 517.2 979.9 517.0 980.7 516.0C981.8 514.8 982.4 511.7 982.9 504.1C983.0 503.7 983.1 502.7 983.1 502.7L971.0 502.7C971.2 501.5 971.2 500.4 971.3 499.3ZM991.1 504.1C992.9 506.2 995.0 509.1 995.8 511.0L998.9 509.1C998.0 507.2 995.8 504.4 993.9 502.5ZM1013.7 497.2L1007.4 497.2L1007.4 491.6L1003.8 491.6L1003.8 497.2L988.3 497.2L988.3 500.5L1003.8 500.5L1003.8 513.3C1003.8 513.9 1003.5 514.2 1002.8 514.2C1002.1 514.2 999.7 514.2 997.4 514.1C997.9 515.1 998.7 516.7 998.9 517.8C1001.8 517.8 1004.1 517.7 1005.5 517.1C1006.9 516.5 1007.4 515.6 1007.4 513.3L1007.4 500.5L1013.7 500.5ZM1037.7 496.6L1037.0 496.7L1030.5 496.7L1032.2 495.8C1031.5 494.6 1030.1 492.6 1029.0 491.2L1026.0 492.8C1026.8 494.0 1027.9 495.5 1028.6 496.7L1017.6 496.7L1017.6 500.0L1034.5 500.0C1031.5 503.8 1026.7 508.1 1022.1 510.9L1022.0 510.9C1020.4 510.9 1018.2 512.4 1016.2 514.5L1018.6 517.7C1019.8 515.9 1021.0 514.0 1021.9 514.0C1022.5 514.0 1023.4 514.9 1024.6 515.6C1026.5 516.8 1028.8 517.2 1032.2 517.2C1035.0 517.2 1039.2 517.0 1041.2 516.9C1041.2 516.0 1041.8 514.2 1042.1 513.3C1039.5 513.7 1035.2 514.0 1032.3 514.0C1029.4 514.0 1027.0 513.8 1025.3 512.7C1030.9 509.0 1036.7 503.5 1040.3 498.3ZM1045.0 517.7L1048.5 517.7L1048.5 498.3L1045.0 498.3ZM1045.5 493.4C1046.7 494.7 1048.2 496.5 1048.7 497.7L1051.5 496.0C1050.9 494.7 1049.4 493.0 1048.1 491.7ZM1054.3 507.4L1059.7 507.4L1059.7 510.0L1054.3 510.0ZM1054.3 502.1L1059.7 502.1L1059.7 504.7L1054.3 504.7ZM1051.3 512.7L1062.8 512.7L1062.8 499.4L1051.3 499.4ZM1069.2 492.9L1052.5 492.9L1052.5 496.0L1065.7 496.0L1065.7 514.1C1065.7 514.4 1065.7 514.6 1065.3 514.6C1065.0 514.6 1063.9 514.6 1063.0 514.5C1063.4 515.4 1063.9 516.6 1064 517.5C1065.7 517.5 1067.1 517.5 1068.0 517.0C1068.9 516.4 1069.2 515.7 1069.2 514.1Z " clip-path="url(#satori_cp-id-1-0-1-1)" mask="url(#satori_om-id-1-0-1-1)"/></svg>