<svg width="1200" height="630" viewBox="0 0 1200 630" xmlns="http://www.w3.org/2000/svg"><rect x="0" y="0" width="1200" height="630" fill="#fefbfb"/><defs><clipPath id="satori_bc-id-0"><path x="105" y="39" width="1056" height="504" d="M109,39 h1048 a4,4 0 0 1 4,4 v496 a4,4 0 0 1 -4,4 h-1048 a4,4 0 0 1 -4,-4 v-496 a4,4 0 0 1 4,-4"/></clipPath></defs><g opacity="0.9"><path x="105" y="39" width="1056" height="504" fill="#ecebeb" d="M109,39 h1048 a4,4 0 0 1 4,4 v496 a4,4 0 0 1 -4,4 h-1048 a4,4 0 0 1 -4,-4 v-496 a4,4 0 0 1 4,-4"/><path width="1056" height="504" clip-path="url(#satori_bc-id-0)" fill="none" stroke="#000" stroke-width="8" d="M106.172,40.172 A4,4 0 0 1 109,39 h1048 a4,4 0 0 1 4,4 v496 a4,4 0 0 1 -4,4 h-1048 a4,4 0 0 1 -4,-4 v-496 A4,4 0 0 1 106.172,40.172"/></g><defs><clipPath id="satori_bc-id-1"><path x="72" y="63" width="1056" height="504" d="M76,63 h1048 a4,4 0 0 1 4,4 v496 a4,4 0 0 1 -4,4 h-1048 a4,4 0 0 1 -4,-4 v-496 a4,4 0 0 1 4,-4"/></clipPath></defs><path x="72" y="63" width="1056" height="504" fill="#fefbfb" d="M76,63 h1048 a4,4 0 0 1 4,4 v496 a4,4 0 0 1 -4,4 h-1048 a4,4 0 0 1 -4,-4 v-496 a4,4 0 0 1 4,-4"/><path width="1056" height="504" clip-path="url(#satori_bc-id-1)" fill="none" stroke="#000" stroke-width="8" d="M73.172,64.172 A4,4 0 0 1 76,63 h1048 a4,4 0 0 1 4,4 v496 a4,4 0 0 1 -4,4 h-1048 a4,4 0 0 1 -4,-4 v-496 A4,4 0 0 1 73.172,64.172"/><clipPath id="satori_cp-id-1-0-0"><rect x="128" y="103" width="944" height="104"/></clipPath><mask id="satori_om-id-1-0-0"><rect x="128" y="103" width="944" height="104" fill="#fff"/></mask><path fill="black" d="M152.5 164.1L162.0 164.1L162.0 156.7L152.5 156.7L152.5 148.8L162.8 148.8L162.8 145.5C164.5 146.7 166.4 148.2 167.3 149.1C173.9 145.0 177.8 138.7 179.4 129.7L187.0 129.7C186.7 136.1 186.2 138.7 185.5 139.7C185.0 140.2 184.3 140.4 183.4 140.4C182.4 140.4 180.1 140.4 177.6 140.1C178.8 142.0 179.6 145.1 179.7 147.3C182.9 147.4 185.9 147.4 187.7 147.2C189.6 146.9 191.2 146.3 192.5 144.7C194.2 142.7 194.9 137.4 195.4 125.5C195.5 124.5 195.5 122.5 195.5 122.5L163.7 122.5L163.7 129.7L171.4 129.7C170.2 135.6 167.6 140.0 162.8 143.0L162.8 141.2L151.4 141.2L151.4 134.6L161.6 134.6L161.6 127.2L151.4 127.2L151.4 119.9L143.5 119.9L143.5 127.2L133.0 127.2L133.0 134.6L143.5 134.6L143.5 141.2L131.3 141.2L131.3 148.8L144.8 148.8L144.8 170.3C143.2 168.5 141.9 165.9 140.8 162.7C141.0 159.5 141.1 156.2 141.1 152.9L133.6 152.4C133.5 164.6 133.0 176.2 129.4 183.4C131.2 184.1 134.8 186.1 136.2 187.1C137.6 183.8 138.7 179.9 139.5 175.4C145.2 183.5 153.8 185.3 167.2 185.3L195.1 185.3C195.7 182.7 197.1 178.8 198.3 176.8C191.9 177.2 172.6 177.2 167.2 177.1C161.3 177.1 156.4 176.7 152.5 175.4ZM173.5 156.9L185.2 156.9L185.2 165.9L173.5 165.9ZM165.5 172.6L193.7 172.6L193.7 150.0L165.5 150.0ZM223.2 142.0C222.3 149.0 220.7 155.1 218.4 160.5C216.5 159.0 214.5 157.4 212.6 155.9C213.8 151.7 214.9 146.9 215.8 142.0ZM226.9 133.9L225.3 134.1L217.4 134.1C218.3 129.4 219.0 124.9 219.6 120.7L211.1 120.0C210.7 124.4 210.0 129.2 209.1 134.1L202.5 134.1L202.5 142.0L207.6 142.0C206.3 148.4 204.8 154.4 203.3 159.0C206.9 161.7 210.8 164.9 214.5 168.2C211.0 173.6 206.6 177.6 201.3 180.3C203.1 181.9 205.5 185.0 206.6 187.0C212.2 183.7 216.9 179.5 220.7 174.0C223.4 176.7 225.8 179.3 227.4 181.6L233.0 174.3C231.1 171.8 228.4 169.0 225.1 166.1C228.7 158.0 231.0 147.7 232.1 135.1ZM269.6 149.5L255.2 149.5L255.2 144.1C260.3 139.3 265.1 133.3 268.5 128.0L262.7 123.8L260.7 124.3L234.0 124.3L234.0 132.0L255.1 132.0C252.6 135.8 249.4 139.9 246.3 142.6L246.3 149.5L231.1 149.5L231.1 157.6L246.3 157.6L246.3 177.7C246.3 178.8 245.9 179.0 244.7 179.0C243.6 179.0 239.4 179.0 235.7 179.0C236.9 181.2 238.2 184.7 238.7 187.1C244.3 187.2 248.4 187.0 251.3 185.7C254.3 184.4 255.2 182.2 255.2 177.8L255.2 157.6L269.6 157.6ZM313.0 158.0L313.0 149.2L328.2 149.2L328.2 158.0ZM290.6 158.0C290.8 155.4 290.9 152.8 290.9 150.5L290.9 149.2L304.4 149.2L304.4 158.0ZM304.4 132.8L304.4 141.2L290.9 141.2L290.9 132.8ZM328.2 141.2L313.0 141.2L313.0 132.8L328.2 132.8ZM336.7 124.7L282.4 124.7L282.4 150.4C282.4 160.5 281.7 173.3 273.9 181.9C275.8 182.9 279.3 185.9 280.6 187.5C285.8 181.9 288.4 173.9 289.7 166.1L304.4 166.1L304.4 186.2L313.0 186.2L313.0 166.1L328.2 166.1L328.2 176.9C328.2 178.2 327.7 178.6 326.4 178.6C325.1 178.6 320.3 178.7 316.3 178.5C317.4 180.7 318.7 184.4 319.0 186.7C325.5 186.8 329.9 186.6 332.8 185.2C335.7 183.9 336.7 181.6 336.7 177.0ZM357.2 172.1L357.2 158.0L368.7 158.0L368.7 172.1ZM368.7 150.6L357.2 150.6L357.2 138.9L368.7 138.9ZM391.6 131.0C392.7 127.9 393.6 124.9 394.4 121.8L386.2 119.9C384.1 128.4 380.6 137.1 376.5 143.1L376.5 131.5L365.3 131.5C366.5 128.4 367.8 124.8 369.1 121.2L359.7 119.9C359.4 123.2 358.5 127.9 357.6 131.5L349.5 131.5L349.5 185.0L357.2 185.0L357.2 179.7L376.5 179.7L376.5 146.1C378.4 147.4 380.9 149.0 382.0 150.1C384.2 147.0 386.5 143.0 388.4 138.7L403.8 138.7C403.0 164.1 402.0 174.9 399.9 177.2C399.0 178.2 398.2 178.5 396.8 178.5C394.9 178.5 390.7 178.5 386.0 178.0C387.6 180.4 388.7 184.0 388.9 186.4C393.1 186.5 397.4 186.6 400.2 186.2C403.0 185.7 405.1 185.0 407.1 182.3C410.0 178.5 410.8 167.0 411.8 134.8C411.8 133.8 411.8 131.0 411.8 131.0ZM399.9 163.8C397.6 159.6 392.9 152.8 389.3 147.8L382.6 151.6C386.1 156.9 390.6 163.9 392.6 168.2ZM443 181.9C456.0 181.9 463.6 174.6 463.6 156.9L463.6 127.5L453.4 127.5L453.4 157.8C453.4 168.9 449.3 172.6 443 172.6C436.8 172.6 432.9 168.9 432.9 157.8L432.9 127.5L422.3 127.5L422.3 156.9C422.3 174.6 430.0 181.9 443 181.9ZM476.4 180.8L486.0 180.8L486.0 158.6C486.0 153.6 485.1 146.1 484.6 141.1L484.9 141.1L489.2 153.6L497.4 176.0L503.6 176.0L511.8 153.6L516.1 141.1L516.4 141.1C515.9 146.1 515.1 153.6 515.1 158.6L515.1 180.8L524.8 180.8L524.8 127.5L513.0 127.5L504.1 152.5C503.0 155.8 502.0 159.3 500.9 162.7L500.5 162.7C499.4 159.3 498.4 155.8 497.3 152.5L488.2 127.5L476.4 127.5ZM537.9 180.8L570.2 180.8L570.2 171.9L548.6 171.9L548.6 127.5L537.9 127.5ZM613.6 173.5L613.6 136.3L637.8 136.3L637.8 127.4L580.3 127.4L580.3 136.3L603.8 136.3L603.8 173.5L576.4 173.5L576.4 182.1L641.9 182.1L641.9 173.5ZM667.9 159.8L694.2 159.8L694.2 164.0L667.9 164.0ZM694.2 129.9L694.2 133.9L667.9 133.9L667.9 129.9ZM694.2 149.8L694.2 153.8L667.9 153.8L667.9 149.8ZM694.2 143.8L667.9 143.8L667.9 140.0L694.2 140.0ZM713.8 171.7L713.8 164.0L702.9 164.0L702.9 123.2L659.6 123.2L659.6 164.0L648.4 164.0L648.4 171.7L666.1 171.7C661.4 175.1 653.7 178.8 647.3 181.0C649.2 182.6 652.0 185.4 653.5 187.2C660.7 184.6 669.7 180.1 675.3 176.0L669.2 171.7L690.8 171.7L686.8 176.2C694.6 179.5 703.0 184.1 707.7 187.2L714.8 180.9C710.3 178.3 702.9 174.8 695.9 171.7ZM756.4 168.1L765.2 168.1L765.2 174.9L756.4 174.9ZM765.2 146.5L756.4 146.5L756.4 140.1L765.2 140.1ZM765.2 160.5L756.4 160.5L756.4 154.1L765.2 154.1ZM786.3 174.9L773.2 174.9L773.2 168.1L783.8 168.1L783.8 160.5L773.2 160.5L773.2 154.1L783.9 154.1L783.9 146.5L773.2 146.5L773.2 140.1L784.7 140.1L784.7 132.2L771.0 132.2L775.4 130.4C774.4 127.6 772.4 123.5 770.5 120.5L763.0 123.4C764.6 126.1 766.2 129.5 767.1 132.2L757.4 132.2C758.7 129.0 760.0 125.8 761.2 122.5L753.1 120.3C749.9 130.9 744.0 141.3 737.5 147.8C738.3 148.5 739.4 149.6 740.5 150.7L735.8 151.9L735.8 141.0L743.0 141.0L743.0 133.2L735.8 133.2L735.8 119.9L727.5 119.9L727.5 133.2L719.6 133.2L719.6 141.0L727.5 141.0L727.5 154.1C724.2 155.0 721.2 155.7 718.7 156.3L720.6 164.4L727.5 162.6L727.5 177.2C727.5 178.3 727.2 178.5 726.3 178.5C725.5 178.5 722.9 178.5 720.4 178.5C721.5 180.9 722.5 184.5 722.7 186.8C727.4 186.8 730.6 186.5 732.8 185.1C735.1 183.7 735.8 181.4 735.8 177.3L735.8 160.1C738.2 159.5 740.6 158.7 742.8 158.0L742.0 152.3C742.6 153.1 743.2 153.7 743.6 154.2C745.2 152.5 746.7 150.5 748.2 148.5L748.2 187.2L756.4 187.2L756.4 182.7L786.3 182.7ZM856.6 147.2L856.6 139.6L821.2 139.6C821.9 138.2 822.4 136.6 822.9 135.2L815.7 133.4L815.7 131.7L834.5 131.7L834.5 136.3L843.0 136.3L843.0 131.7L857 131.7L857 124.1L843.0 124.1L843.0 119.9L834.5 119.9L834.5 124.1L815.7 124.1L815.7 119.9L807.2 119.9L807.2 124.1L792.8 124.1L792.8 131.7L807.2 131.7L807.2 136.3L813.5 136.3C813.1 137.4 812.6 138.5 812.1 139.6L793.1 139.6L793.1 147.2L807.7 147.2C803.1 153.7 797.2 159.1 790.3 162.8C792.0 164.5 794.8 168.1 795.8 169.9C798.2 168.5 800.5 166.7 802.7 164.9L802.7 187.1L810.8 187.1L810.8 156.5C813.2 153.7 815.4 150.5 817.3 147.2ZM857.6 165.1L841.2 165.1L841.2 163.8C845.5 161.2 849.8 158.0 853.2 154.8L848.3 150.8L846.6 151.2L820.1 151.2L820.1 157.8L838.7 157.8C836.8 159.2 834.8 160.5 832.9 161.5L832.9 165.1L814.4 165.1L814.4 172.3L832.9 172.3L832.9 178.8C832.9 179.6 832.5 179.8 831.6 179.9C830.5 179.9 826.9 179.9 823.7 179.8C824.7 181.9 826.0 184.8 826.3 187.0C831.3 187.0 835.0 187.0 837.6 185.8C840.4 184.7 841.2 182.8 841.2 179.0L841.2 172.3L857.6 172.3Z " clip-path="url(#satori_cp-id-1-0-0)" mask="url(#satori_om-id-1-0-0)"/><path fill="black" d="M137.3 515.6C140.8 515.6 143.9 512.6 143.9 507.4C143.9 502.8 141.7 499.7 137.8 499.7C136.1 499.7 134.4 500.6 133.0 501.8L133.1 499.1L133.1 493.0L130.6 493.0L130.6 515.3L132.6 515.3L132.8 513.7L133.0 513.7C134.3 514.9 135.9 515.6 137.3 515.6ZM136.8 513.5C135.8 513.5 134.5 513.1 133.1 511.9L133.1 503.9C134.6 502.6 135.9 501.8 137.2 501.8C140.1 501.8 141.2 504.1 141.2 507.5C141.2 511.2 139.4 513.5 136.8 513.5ZM148.0 521.8C151.0 521.8 152.6 519.5 153.7 516.5L159.4 500.1L156.9 500.1L154.2 508.5C153.8 509.9 153.3 511.4 152.9 512.8L152.8 512.8C152.3 511.4 151.8 509.8 151.3 508.5L148.2 500.1L145.6 500.1L151.7 515.3L151.3 516.4C150.7 518.3 149.6 519.7 147.9 519.7C147.5 519.7 147.0 519.6 146.7 519.5L146.2 521.5C146.7 521.7 147.3 521.8 148.0 521.8Z "/><clipPath id="satori_cp-id-1-0-1-0-2"><rect x="173" y="485" width="57" height="40"/></clipPath><mask id="satori_om-id-1-0-1-0-2"><rect x="173" y="485" width="57" height="40" fill="#fff"/></mask><path fill="black" d="M181.7 515.7C186.5 515.7 189.4 512.8 189.4 509.4C189.4 506.4 187.7 504.8 185.2 503.8L182.5 502.6C180.7 501.9 179.2 501.4 179.2 499.9C179.2 498.5 180.4 497.7 182.2 497.7C183.9 497.7 185.3 498.3 186.6 499.4L188.7 496.8C187.0 495.1 184.6 494.2 182.2 494.2C178.0 494.2 175.0 496.8 175.0 500.2C175.0 503.2 177.1 504.9 179.2 505.7L182.0 506.9C183.9 507.7 185.1 508.2 185.1 509.7C185.1 511.2 184.0 512.1 181.8 512.1C180 512.1 178.0 511.2 176.6 509.8L174.2 512.6C176.2 514.6 179.0 515.7 181.7 515.7ZM193.0 515.3L196.7 515.3L196.7 506.6C196.7 504.7 196.4 501.8 196.2 499.8L196.3 499.8L198.0 504.7L201.2 513.4L203.6 513.4L206.8 504.7L208.4 499.8L208.6 499.8C208.4 501.8 208.1 504.7 208.1 506.6L208.1 515.3L211.8 515.3L211.8 494.5L207.2 494.5L203.8 504.2C203.4 505.5 203.0 506.9 202.5 508.2L202.4 508.2C202.0 506.9 201.6 505.5 201.1 504.2L197.6 494.5L193.0 494.5ZM221.4 515.7C225.9 515.7 227.9 512.5 227.9 508.6L227.9 494.5L223.7 494.5L223.7 508.2C223.7 511.1 222.8 512.1 220.9 512.1C219.8 512.1 218.7 511.4 217.9 509.9L215.0 512.0C216.4 514.4 218.4 515.7 221.4 515.7Z " clip-path="url(#satori_cp-id-1-0-1-0-2)" mask="url(#satori_om-id-1-0-1-0-2)"/><clipPath id="satori_cp-id-1-0-1-1"><rect x="959" y="485" width="112" height="40"/></clipPath><mask id="satori_om-id-1-0-1-1"><rect x="959" y="485" width="112" height="40" fill="#fff"/></mask><path fill="black" d="M985.5 499.3L985.5 496.0L974.0 496.0L976.0 495.2C975.5 494.1 974.7 492.5 974.0 491.2L970.7 492.4C971.2 493.5 971.9 494.9 972.4 496.0L960.5 496.0L960.5 499.3L967.6 499.3C967.3 505.2 966.8 511.5 960.1 515.1C961.0 515.8 962.0 516.9 962.5 517.8C967.5 514.9 969.6 510.6 970.6 505.9L979.4 505.9C979.0 510.9 978.5 513.3 977.8 513.9C977.4 514.2 977.0 514.3 976.4 514.3C975.5 514.3 973.6 514.3 971.7 514.1C972.3 515.0 972.8 516.4 972.9 517.4C974.8 517.5 976.6 517.5 977.7 517.3C979.0 517.2 979.9 517.0 980.7 516.0C981.8 514.8 982.4 511.7 982.9 504.1C983.0 503.7 983.1 502.7 983.1 502.7L971.0 502.7C971.2 501.5 971.2 500.4 971.3 499.3ZM991.1 504.1C992.9 506.2 995.0 509.1 995.8 511.0L998.9 509.1C998.0 507.2 995.8 504.4 993.9 502.5ZM1013.7 497.2L1007.4 497.2L1007.4 491.6L1003.8 491.6L1003.8 497.2L988.3 497.2L988.3 500.5L1003.8 500.5L1003.8 513.3C1003.8 513.9 1003.5 514.2 1002.8 514.2C1002.1 514.2 999.7 514.2 997.4 514.1C997.9 515.1 998.7 516.7 998.9 517.8C1001.8 517.8 1004.1 517.7 1005.5 517.1C1006.9 516.5 1007.4 515.6 1007.4 513.3L1007.4 500.5L1013.7 500.5ZM1037.7 496.6L1037.0 496.7L1030.5 496.7L1032.2 495.8C1031.5 494.6 1030.1 492.6 1029.0 491.2L1026.0 492.8C1026.8 494.0 1027.9 495.5 1028.6 496.7L1017.6 496.7L1017.6 500.0L1034.5 500.0C1031.5 503.8 1026.7 508.1 1022.1 510.9L1022.0 510.9C1020.4 510.9 1018.2 512.4 1016.2 514.5L1018.6 517.7C1019.8 515.9 1021.0 514.0 1021.9 514.0C1022.5 514.0 1023.4 514.9 1024.6 515.6C1026.5 516.8 1028.8 517.2 1032.2 517.2C1035.0 517.2 1039.2 517.0 1041.2 516.9C1041.2 516.0 1041.8 514.2 1042.1 513.3C1039.5 513.7 1035.2 514.0 1032.3 514.0C1029.4 514.0 1027.0 513.8 1025.3 512.7C1030.9 509.0 1036.7 503.5 1040.3 498.3ZM1045.0 517.7L1048.5 517.7L1048.5 498.3L1045.0 498.3ZM1045.5 493.4C1046.7 494.7 1048.2 496.5 1048.7 497.7L1051.5 496.0C1050.9 494.7 1049.4 493.0 1048.1 491.7ZM1054.3 507.4L1059.7 507.4L1059.7 510.0L1054.3 510.0ZM1054.3 502.1L1059.7 502.1L1059.7 504.7L1054.3 504.7ZM1051.3 512.7L1062.8 512.7L1062.8 499.4L1051.3 499.4ZM1069.2 492.9L1052.5 492.9L1052.5 496.0L1065.7 496.0L1065.7 514.1C1065.7 514.4 1065.7 514.6 1065.3 514.6C1065.0 514.6 1063.9 514.6 1063.0 514.5C1063.4 515.4 1063.9 516.6 1064 517.5C1065.7 517.5 1067.1 517.5 1068.0 517.0C1068.9 516.4 1069.2 515.7 1069.2 514.1Z " clip-path="url(#satori_cp-id-1-0-1-1)" mask="url(#satori_om-id-1-0-1-1)"/></svg>