<svg width="1200" height="630" viewBox="0 0 1200 630" xmlns="http://www.w3.org/2000/svg"><rect x="0" y="0" width="1200" height="630" fill="#fefbfb"/><defs><clipPath id="satori_bc-id-0"><path x="105" y="39" width="1056" height="504" d="M109,39 h1048 a4,4 0 0 1 4,4 v496 a4,4 0 0 1 -4,4 h-1048 a4,4 0 0 1 -4,-4 v-496 a4,4 0 0 1 4,-4"/></clipPath></defs><g opacity="0.9"><path x="105" y="39" width="1056" height="504" fill="#ecebeb" d="M109,39 h1048 a4,4 0 0 1 4,4 v496 a4,4 0 0 1 -4,4 h-1048 a4,4 0 0 1 -4,-4 v-496 a4,4 0 0 1 4,-4"/><path width="1056" height="504" clip-path="url(#satori_bc-id-0)" fill="none" stroke="#000" stroke-width="8" d="M106.172,40.172 A4,4 0 0 1 109,39 h1048 a4,4 0 0 1 4,4 v496 a4,4 0 0 1 -4,4 h-1048 a4,4 0 0 1 -4,-4 v-496 A4,4 0 0 1 106.172,40.172"/></g><defs><clipPath id="satori_bc-id-1"><path x="72" y="63" width="1056" height="504" d="M76,63 h1048 a4,4 0 0 1 4,4 v496 a4,4 0 0 1 -4,4 h-1048 a4,4 0 0 1 -4,-4 v-496 a4,4 0 0 1 4,-4"/></clipPath></defs><path x="72" y="63" width="1056" height="504" fill="#fefbfb" d="M76,63 h1048 a4,4 0 0 1 4,4 v496 a4,4 0 0 1 -4,4 h-1048 a4,4 0 0 1 -4,-4 v-496 a4,4 0 0 1 4,-4"/><path width="1056" height="504" clip-path="url(#satori_bc-id-1)" fill="none" stroke="#000" stroke-width="8" d="M73.172,64.172 A4,4 0 0 1 76,63 h1048 a4,4 0 0 1 4,4 v496 a4,4 0 0 1 -4,4 h-1048 a4,4 0 0 1 -4,-4 v-496 A4,4 0 0 1 73.172,64.172"/><clipPath id="satori_cp-id-1-0-0"><rect x="128" y="103" width="944" height="209"/></clipPath><mask id="satori_om-id-1-0-0"><rect x="128" y="103" width="944" height="209" fill="#fff"/></mask><path fill="black" d="M152.5 164.1L162.0 164.1L162.0 156.7L152.5 156.7L152.5 148.8L162.8 148.8L162.8 145.5C164.5 146.7 166.4 148.2 167.3 149.1C173.9 145.0 177.8 138.7 179.4 129.7L187.0 129.7C186.7 136.1 186.2 138.7 185.5 139.7C185.0 140.2 184.3 140.4 183.4 140.4C182.4 140.4 180.1 140.4 177.6 140.1C178.8 142.0 179.6 145.1 179.7 147.3C182.9 147.4 185.9 147.4 187.7 147.2C189.6 146.9 191.2 146.3 192.5 144.7C194.2 142.7 194.9 137.4 195.4 125.5C195.5 124.5 195.5 122.5 195.5 122.5L163.7 122.5L163.7 129.7L171.4 129.7C170.2 135.6 167.6 140.0 162.8 143.0L162.8 141.2L151.4 141.2L151.4 134.6L161.6 134.6L161.6 127.2L151.4 127.2L151.4 119.9L143.5 119.9L143.5 127.2L133.0 127.2L133.0 134.6L143.5 134.6L143.5 141.2L131.3 141.2L131.3 148.8L144.8 148.8L144.8 170.3C143.2 168.5 141.9 165.9 140.8 162.7C141.0 159.5 141.1 156.2 141.1 152.9L133.6 152.4C133.5 164.6 133.0 176.2 129.4 183.4C131.2 184.1 134.8 186.1 136.2 187.1C137.6 183.8 138.7 179.9 139.5 175.4C145.2 183.5 153.8 185.3 167.2 185.3L195.1 185.3C195.7 182.7 197.1 178.8 198.3 176.8C191.9 177.2 172.6 177.2 167.2 177.1C161.3 177.1 156.4 176.7 152.5 175.4ZM173.5 156.9L185.2 156.9L185.2 165.9L173.5 165.9ZM165.5 172.6L193.7 172.6L193.7 150.0L165.5 150.0ZM218.6 132.2C220.3 135.2 222.0 138.7 222.6 140.9L230.0 137.8C229.4 136.3 228.4 134.3 227.3 132.2L235.9 132.2L235.9 125.3L220.0 125.3C220.6 124.0 221.2 122.8 221.7 121.6L213.6 119.4C211.2 125.8 207.1 132.2 202.4 136.4C204.3 137.3 207.8 139.5 209.4 140.9C211.7 138.6 214.0 135.6 216.2 132.2ZM206.6 187.0L214.9 187.0L214.9 148.8L206.6 148.8ZM210.2 142.8C213.1 145.5 216.4 149.4 217.8 151.9L224.5 147.2C222.9 144.6 219.4 141.1 216.5 138.6ZM230.1 172.6L230.1 168.8L242.3 168.8L242.3 172.6ZM242.3 159.2L242.3 163.0L230.1 163.0L230.1 159.2ZM249.9 153.0L222.9 153.0L222.9 178.9L249.9 178.9ZM265.8 141.3L225.6 141.3L225.6 148.9L257.4 148.9L257.4 178.0C257.4 179.0 257.0 179.3 255.9 179.3C254.9 179.3 250.9 179.3 247.7 179.1C248.7 181.1 249.8 184.2 250.3 186.4C255.7 186.5 259.5 186.4 262.2 185.2C264.9 184.0 265.8 182.1 265.8 178.0ZM249.5 125.3C250.0 124.0 250.5 122.7 250.9 121.5L242.8 119.6C241.1 125.6 237.9 131.6 233.8 135.4C235.9 136.4 239.3 138.6 240.8 140.0C242.7 137.9 244.6 135.3 246.2 132.3L249.7 132.3C251.6 135.3 253.6 138.6 254.4 141.0L261.7 137.5C261.1 136.1 260.0 134.2 258.8 132.3L268.3 132.3L268.3 125.3ZM290.4 155.4L290.4 150.5L303.5 150.5L303.5 155.4ZM290.4 139.1L303.5 139.1L303.5 144.0L290.4 144.0ZM325.9 144.0L312.3 144.0L312.3 139.1L325.9 139.1ZM325.9 155.4L312.3 155.4L312.3 150.5L325.9 150.5ZM340.5 167.2L312.3 167.2L312.3 162.5L334.8 162.5L334.8 132.1L324.5 132.1C326.4 129.4 328.6 126.3 330.5 123.2L321.0 120.4C319.7 124.0 317.1 128.6 314.8 132.1L299.4 132.1L302.5 130.6C301.1 127.6 297.8 123.2 295.0 120.2L287.7 123.5C289.8 126.1 292.2 129.4 293.6 132.1L282.0 132.1L282.0 162.5L303.5 162.5L303.5 167.2L275.7 167.2L275.7 175.2L303.5 175.2L303.5 186.9L312.3 186.9L312.3 175.2L340.5 175.2ZM357.2 172.1L357.2 158.0L368.7 158.0L368.7 172.1ZM368.7 150.6L357.2 150.6L357.2 138.9L368.7 138.9ZM391.6 131.0C392.7 127.9 393.6 124.9 394.4 121.8L386.2 119.9C384.1 128.4 380.6 137.1 376.5 143.1L376.5 131.5L365.3 131.5C366.5 128.4 367.8 124.8 369.1 121.2L359.7 119.9C359.4 123.2 358.5 127.9 357.6 131.5L349.5 131.5L349.5 185.0L357.2 185.0L357.2 179.7L376.5 179.7L376.5 146.1C378.4 147.4 380.9 149.0 382.0 150.1C384.2 147.0 386.5 143.0 388.4 138.7L403.8 138.7C403.0 164.1 402.0 174.9 399.9 177.2C399.0 178.2 398.2 178.5 396.8 178.5C394.9 178.5 390.7 178.5 386.0 178.0C387.6 180.4 388.7 184.0 388.9 186.4C393.1 186.5 397.4 186.6 400.2 186.2C403.0 185.7 405.1 185.0 407.1 182.3C410.0 178.5 410.8 167.0 411.8 134.8C411.8 133.8 411.8 131.0 411.8 131.0ZM399.9 163.8C397.6 159.6 392.9 152.8 389.3 147.8L382.6 151.6C386.1 156.9 390.6 163.9 392.6 168.2ZM434.1 153.1C435.7 147.5 437.3 141.5 438.7 135.6L439.0 135.6C440.6 141.4 442.0 147.5 443.6 153.1L445.2 158.9L432.6 158.9ZM415.7 180.8L426.5 180.8L430.3 167.2L447.5 167.2L451.3 180.8L462.4 180.8L445.3 127.5L432.8 127.5ZM467.8 180.8L478.4 180.8L478.4 156.8C480.7 151.0 484.5 148.9 487.6 148.9C489.3 148.9 490.4 149.1 491.9 149.5L493.7 140.4C492.5 139.9 491.2 139.5 488.9 139.5C484.8 139.5 480.4 142.4 477.5 147.7L477.3 147.7L476.5 140.5L467.8 140.5ZM515.5 181.9C520.0 181.9 524.9 180.3 528.8 177.0L524.5 170.0C522.3 171.8 519.5 173.2 516.7 173.2C510.9 173.2 506.6 168.3 506.6 160.7C506.6 153.1 510.8 148.2 517.0 148.2C519.2 148.2 521.1 149.1 523.1 150.8L528.2 144.0C525.2 141.5 521.4 139.5 516.4 139.5C505.5 139.5 495.8 147.3 495.8 160.7C495.8 174.1 504.3 181.9 515.5 181.9ZM536.3 180.8L546.9 180.8L546.9 153.1C549.8 150.2 551.9 148.6 555.2 148.6C559.2 148.6 560.9 150.8 560.9 157.0L560.9 180.8L571.5 180.8L571.5 155.7C571.5 145.6 567.8 139.5 559.1 139.5C553.6 139.5 549.6 142.4 546.4 145.4L546.9 137.9L546.9 123.4L536.3 123.4Z M600.5 180.8L632.8 180.8L632.8 171.9L611.1 171.9L611.1 127.5L600.5 127.5ZM641.2 180.8L651.8 180.8L651.8 140.5L641.2 140.5ZM646.5 134.0C650.1 134.0 652.7 131.7 652.7 128.2C652.7 124.8 650.1 122.5 646.5 122.5C642.9 122.5 640.4 124.8 640.4 128.2C640.4 131.7 642.9 134.0 646.5 134.0ZM663.1 180.8L673.7 180.8L673.7 153.1C676.6 150.2 678.7 148.6 682.0 148.6C686 148.6 687.7 150.8 687.7 157.0L687.7 180.8L698.3 180.8L698.3 155.7C698.3 145.6 694.6 139.5 685.9 139.5C680.4 139.5 676.3 142.4 672.8 145.9L672.5 145.9L671.7 140.5L663.1 140.5ZM721.3 181.9C726.8 181.9 730.6 179.2 734.1 175.1L734.4 175.1L735.2 180.8L743.8 180.8L743.8 140.5L733.2 140.5L733.2 167.7C730.5 171.3 728.3 172.8 725.0 172.8C721.1 172.8 719.4 170.6 719.4 164.4L719.4 140.5L708.8 140.5L708.8 165.7C708.8 175.8 712.6 181.9 721.3 181.9ZM750.6 180.8L761.5 180.8L765.3 173.4C766.4 171.1 767.5 168.7 768.7 166.4L769.0 166.4C770.3 168.7 771.6 171.1 772.9 173.4L777.4 180.8L788.7 180.8L776.1 161.0L788.0 140.5L777.0 140.5L773.6 147.7C772.7 150.0 771.6 152.3 770.7 154.5L770.4 154.5C769.2 152.3 767.9 150.0 766.8 147.7L762.8 140.5L751.4 140.5L763.2 159.8Z M823.5 172.9L831.4 172.9L831.4 157.7L845.9 157.7L845.9 150.1L831.4 150.1L831.4 134.8L823.5 134.8L823.5 150.1L809.0 150.1L809.0 157.7L823.5 157.7Z M139.6 285.1L152.6 285.1L158.5 258.8C159.3 254.6 160.0 250.5 160.8 246.4L161.0 246.4C161.7 250.5 162.5 254.6 163.4 258.8L169.3 285.1L182.6 285.1L192.4 231.8L182.4 231.8L178.1 257.8C177.3 263.4 176.5 269.0 175.7 274.8L175.4 274.8C174.2 269.0 173.1 263.3 172.0 257.8L165.9 231.8L156.7 231.8L150.5 257.8C149.4 263.4 148.2 269.0 147.2 274.8L146.9 274.8C146.1 269.0 145.2 263.4 144.4 257.8L140.2 231.8L129.4 231.8ZM199.6 285.1L210.2 285.1L210.2 244.8L199.6 244.8ZM204.9 238.3C208.5 238.3 211.0 236.0 211.0 232.5C211.0 229.0 208.5 226.7 204.9 226.7C201.2 226.7 198.7 229.0 198.7 232.5C198.7 236.0 201.2 238.3 204.9 238.3ZM221.5 285.1L232.0 285.1L232.0 257.4C235.0 254.4 237.1 252.8 240.4 252.8C244.4 252.8 246.1 255.0 246.1 261.3L246.1 285.1L256.7 285.1L256.7 260.0C256.7 249.8 252.9 243.8 244.2 243.8C238.7 243.8 234.6 246.7 231.1 250.1L230.9 250.1L230.1 244.8L221.5 244.8ZM281.8 286.1C286.0 286.1 290 283.8 293.0 280.9L293.2 280.9L294.0 285.1L302.6 285.1L302.6 227.6L292.1 227.6L292.1 241.8L292.4 248.2C289.6 245.5 286.8 243.8 282.2 243.8C273.5 243.8 265.3 251.8 265.3 264.9C265.3 278.2 271.8 286.1 281.8 286.1ZM284.5 277.4C279.2 277.4 276.2 273.2 276.2 264.9C276.2 256.8 280.0 252.5 284.5 252.5C287.0 252.5 289.6 253.3 292.1 255.5L292.1 273.2C289.7 276.2 287.3 277.4 284.5 277.4ZM330.8 286.1C340.9 286.1 350.2 278.3 350.2 264.9C350.2 251.6 340.9 243.8 330.8 243.8C320.7 243.8 311.5 251.6 311.5 264.9C311.5 278.3 320.7 286.1 330.8 286.1ZM330.8 277.5C325.4 277.5 322.3 272.6 322.3 264.9C322.3 257.4 325.4 252.4 330.8 252.4C336.3 252.4 339.4 257.4 339.4 264.9C339.4 272.6 336.3 277.5 330.8 277.5ZM365.2 285.1L377.3 285.1L381.4 267.5C382.2 263.8 382.8 260.0 383.6 255.8L384.0 255.8C384.8 260.0 385.4 263.7 386.3 267.5L390.5 285.1L403.0 285.1L412.9 244.8L403.1 244.8L398.7 264.7C398 268.6 397.4 272.4 396.7 276.5L396.3 276.5C395.5 272.4 394.8 268.6 393.8 264.7L388.8 244.8L379.4 244.8L374.5 264.7C373.5 268.5 372.8 272.4 372.0 276.5L371.7 276.5C371 272.4 370.5 268.6 369.7 264.7L365.3 244.8L354.7 244.8ZM432.1 286.1C442.6 286.1 448.2 280.4 448.2 273.4C448.2 265.9 442.3 263.2 437.0 261.2C432.7 259.6 429.0 258.5 429.0 255.6C429.0 253.3 430.7 251.7 434.4 251.7C437.3 251.7 440.1 253.1 443 255.2L447.8 248.7C444.4 246.2 439.9 243.8 434.1 243.8C424.9 243.8 419.0 248.9 419.0 256.1C419.0 262.9 424.7 266.0 429.8 267.9C434.1 269.6 438.2 270.9 438.2 273.9C438.2 276.5 436.4 278.2 432.4 278.2C428.7 278.2 425.2 276.6 421.6 273.8L416.8 280.4C420.8 283.7 426.7 286.1 432.1 286.1ZM485.3 275.5C483.5 271.8 480.7 267.5 477.3 262.9C480.6 253.9 482.7 243.1 483.9 230.7L478.4 229.1L476.8 229.4L454.8 229.4L454.8 237.6L474.7 237.6C473.8 243.6 472.5 249.5 470.9 254.9C467.5 250.7 463.9 246.7 460.6 243.0L454.3 248.1C458.6 252.9 463.3 258.7 467.4 264.3C463.5 273.0 458.4 280.0 452.3 284.4C454.4 286.0 457.0 289.2 458.4 291.3C464.3 286.5 469.3 280.4 473.2 272.7C475.2 276.0 476.9 278.9 478.1 281.6ZM508.4 237.6C506.9 246.9 504.3 255.1 500.9 262.0C497.8 254.8 495.7 246.5 494.3 237.6ZM512.0 229.1L510.6 229.4L486.0 229.4L486.0 237.6L489.6 237.6L486.3 238.1C488.3 250.5 491.1 261.6 495.5 270.6C491.0 276.4 485.6 280.8 479.2 283.7C481.2 285.4 483.7 288.9 484.9 291.2C490.8 288.0 496.0 284.0 500.4 278.9C503.9 284.0 508.4 288.2 513.8 291.4C515.1 289.1 517.8 285.8 519.8 284.0C514.1 281.1 509.5 276.7 505.9 271.2C512.0 261.1 516.0 247.8 517.7 230.6ZM577.7 241.8L577.7 248.7L542.0 248.7L542.0 241.8ZM586.4 256.6L586.4 233.9L565.5 233.9C564.5 231.2 562.8 227.1 561.2 224.0L552.7 226.1C553.7 228.4 555.0 231.4 555.9 233.9L533.1 233.9L533.1 252.4C533.1 262.4 532.5 276.2 524.7 285.8C526.7 286.8 530.3 290.0 531.8 291.6C539.5 282.4 541.6 267.8 541.9 256.6ZM551.8 279.6L551.8 269.7L579.3 269.7L579.3 279.6ZM543.4 261.8L543.4 290.9L551.8 290.9L551.8 287.3L579.3 287.3L579.3 290.8L588.1 290.8L588.1 261.8ZM628.7 229.7L600.5 229.7L600.5 237.2L628.7 237.2ZM647.3 239.7C647.4 235.1 647.5 230.3 647.5 225.4L639.0 225.4C639.0 230.3 639.0 235.1 638.9 239.7L630.8 239.7L630.8 247.9L638.6 247.9C638.1 259.3 636.5 269.2 632.4 277.0C631.1 272.1 628.2 264.4 625.7 258.6L618.8 260.5C619.9 263.2 621.0 266.3 622.1 269.4L609.8 272.3C612.2 266.7 614.4 260.2 615.9 254.1L630.0 254.1L630.0 246.3L598.2 246.3L598.2 254.1L607.1 254.1C605.5 261.7 603.0 269.0 602.0 271.1C600.9 273.7 599.9 275.4 598.5 275.9C599.5 278.0 600.8 281.9 601.3 283.5C603.3 282.2 606.4 281.1 624.2 276.5C624.6 277.8 624.9 279.0 625.1 279.9L631.9 277.8C630.4 280.3 628.6 282.7 626.5 284.7C628.6 286.1 631.5 289.1 632.9 291.3C643.0 281.2 646.0 266.0 647.0 247.9L654.5 247.9C653.8 270.4 653.1 279.1 651.5 281.1C650.8 282.1 650.1 282.3 648.8 282.3C647.3 282.3 644.2 282.3 640.9 282.0C642.3 284.4 643.2 287.9 643.4 290.4C647.1 290.5 650.8 290.5 653.0 290.1C655.6 289.6 657.3 288.9 659.0 286.4C661.4 283.1 662.2 272.6 662.9 243.6C662.9 242.5 663.0 239.7 663.0 239.7ZM723.1 245.1C722.3 251.5 721.0 257.0 719.3 262.0C717.3 256.9 715.9 251.1 714.9 245.1ZM697.1 253.3L695.6 253.7L691.5 253.7C692.6 252.6 693.6 251.3 694.6 250.0L703.1 250.0C702.0 252.0 700.8 253.8 699.6 255.3ZM687.8 237.9L693.6 237.9C692.5 239.5 691.4 241.1 690.3 242.7L687.8 242.7ZM736.2 245.1L736.2 237.2L717.0 237.2C718.0 233.5 718.9 229.4 719.6 225.5L710.9 224.1C709.5 233.0 707.2 241.5 703.9 248.4L703.9 242.7L699.9 242.7C702.7 238.2 705.2 233.3 707.2 228.1L699.3 225.9C698.1 229.3 696.6 232.7 694.8 235.7L694.8 230.7L687.8 230.7L687.8 224.1L679.9 224.1L679.9 230.7L671.7 230.7L671.7 237.9L679.9 237.9L679.9 242.7L668.9 242.7L668.9 250.0L683.9 250.0C682.7 251.3 681.3 252.6 680.0 253.7L675.2 253.7L675.2 257.3C672.9 258.9 670.4 260.3 668.0 261.6C669.7 263.1 672.6 266.4 673.8 268.0C677.6 265.9 681.3 263.2 684.8 260.3L689.3 260.3C687.4 262.2 685.3 264.0 683.3 265.4L683.3 269.5C677.9 269.9 672.8 270.3 668.7 270.6L669.7 278.2C673.5 277.8 678.3 277.4 683.3 277.0L683.3 283.0C683.3 283.7 683.0 284.0 682.1 284.0C681.2 284.0 678.2 284.0 675.3 284.0C676.4 286.0 677.4 289.0 677.7 291.2C682.3 291.2 685.6 291.2 688.2 290.0C690.7 288.8 691.3 286.9 691.3 283.2L691.3 276.3C695.6 276.0 699.9 275.6 704.2 275.2L704.2 267.8C699.9 268.2 695.6 268.5 691.3 268.9L691.3 266.9C694.9 264.1 698.5 260.8 701.3 257.5C703.1 259.0 705.1 260.9 706.0 262.0C707.2 260.5 708.2 258.8 709.3 257.0C710.6 262.3 712.3 267.2 714.2 271.6C710.6 276.9 705.5 280.9 698.7 283.9C700.3 285.7 702.8 289.6 703.6 291.7C709.9 288.5 714.9 284.6 718.9 279.9C722.1 284.6 726.1 288.5 731.0 291.4C732.3 289.1 735.0 285.7 736.9 284.0C731.6 281.3 727.4 277.2 724.2 271.9C728.0 264.7 730.4 255.9 731.9 245.1ZM796.3 243.9L779.5 243.9L779.5 234.0L796.3 234.0ZM804.7 226.8L771.6 226.8L771.6 251.1L804.7 251.1ZM769.5 263.8C768.2 262.2 762.2 255.9 760.3 254.4L760.3 252.3L768.0 252.3L768.0 244.3L760.3 244.3L760.3 234.1C763.4 233.3 766.3 232.4 768.9 231.4L763.2 224.8C757.6 227.4 748.8 229.4 740.9 230.8C741.8 232.5 742.8 235.4 743.2 237.4C746.0 237.0 749.0 236.5 752.0 235.9L752.0 244.3L741.7 244.3L741.7 252.3L750.9 252.3C748.2 259.3 744.2 266.9 740.2 271.6C741.6 273.7 743.4 277.3 744.2 279.7C747.0 276.1 749.7 271.0 752.0 265.4L752.0 291.3L760.3 291.3L760.3 263.2C762.0 265.8 763.8 268.6 764.6 270.5ZM792.1 282.3L792.1 276.0L804.9 276.0L804.9 268.8L792.1 268.8L792.1 262.8L806.6 262.8L806.6 255.4L769.3 255.4L769.3 262.8L783.6 262.8L783.6 268.8L771.0 268.8L771.0 276.0L783.6 276.0L783.6 282.3L766.5 282.3L766.5 289.8L808.1 289.8L808.1 282.3Z " clip-path="url(#satori_cp-id-1-0-0)" mask="url(#satori_om-id-1-0-0)"/><path fill="black" d="M137.3 515.6C140.8 515.6 143.9 512.6 143.9 507.4C143.9 502.8 141.7 499.7 137.8 499.7C136.1 499.7 134.4 500.6 133.0 501.8L133.1 499.1L133.1 493.0L130.6 493.0L130.6 515.3L132.6 515.3L132.8 513.7L133.0 513.7C134.3 514.9 135.9 515.6 137.3 515.6ZM136.8 513.5C135.8 513.5 134.5 513.1 133.1 511.9L133.1 503.9C134.6 502.6 135.9 501.8 137.2 501.8C140.1 501.8 141.2 504.1 141.2 507.5C141.2 511.2 139.4 513.5 136.8 513.5ZM148.0 521.8C151.0 521.8 152.6 519.5 153.7 516.5L159.4 500.1L156.9 500.1L154.2 508.5C153.8 509.9 153.3 511.4 152.9 512.8L152.8 512.8C152.3 511.4 151.8 509.8 151.3 508.5L148.2 500.1L145.6 500.1L151.7 515.3L151.3 516.4C150.7 518.3 149.6 519.7 147.9 519.7C147.5 519.7 147.0 519.6 146.7 519.5L146.2 521.5C146.7 521.7 147.3 521.8 148.0 521.8Z "/><clipPath id="satori_cp-id-1-0-1-0-2"><rect x="173" y="485" width="57" height="40"/></clipPath><mask id="satori_om-id-1-0-1-0-2"><rect x="173" y="485" width="57" height="40" fill="#fff"/></mask><path fill="black" d="M181.7 515.7C186.5 515.7 189.4 512.8 189.4 509.4C189.4 506.4 187.7 504.8 185.2 503.8L182.5 502.6C180.7 501.9 179.2 501.4 179.2 499.9C179.2 498.5 180.4 497.7 182.2 497.7C183.9 497.7 185.3 498.3 186.6 499.4L188.7 496.8C187.0 495.1 184.6 494.2 182.2 494.2C178.0 494.2 175.0 496.8 175.0 500.2C175.0 503.2 177.1 504.9 179.2 505.7L182.0 506.9C183.9 507.7 185.1 508.2 185.1 509.7C185.1 511.2 184.0 512.1 181.8 512.1C180 512.1 178.0 511.2 176.6 509.8L174.2 512.6C176.2 514.6 179.0 515.7 181.7 515.7ZM193.0 515.3L196.7 515.3L196.7 506.6C196.7 504.7 196.4 501.8 196.2 499.8L196.3 499.8L198.0 504.7L201.2 513.4L203.6 513.4L206.8 504.7L208.4 499.8L208.6 499.8C208.4 501.8 208.1 504.7 208.1 506.6L208.1 515.3L211.8 515.3L211.8 494.5L207.2 494.5L203.8 504.2C203.4 505.5 203.0 506.9 202.5 508.2L202.4 508.2C202.0 506.9 201.6 505.5 201.1 504.2L197.6 494.5L193.0 494.5ZM221.4 515.7C225.9 515.7 227.9 512.5 227.9 508.6L227.9 494.5L223.7 494.5L223.7 508.2C223.7 511.1 222.8 512.1 220.9 512.1C219.8 512.1 218.7 511.4 217.9 509.9L215.0 512.0C216.4 514.4 218.4 515.7 221.4 515.7Z " clip-path="url(#satori_cp-id-1-0-1-0-2)" mask="url(#satori_om-id-1-0-1-0-2)"/><clipPath id="satori_cp-id-1-0-1-1"><rect x="959" y="485" width="112" height="40"/></clipPath><mask id="satori_om-id-1-0-1-1"><rect x="959" y="485" width="112" height="40" fill="#fff"/></mask><path fill="black" d="M985.5 499.3L985.5 496.0L974.0 496.0L976.0 495.2C975.5 494.1 974.7 492.5 974.0 491.2L970.7 492.4C971.2 493.5 971.9 494.9 972.4 496.0L960.5 496.0L960.5 499.3L967.6 499.3C967.3 505.2 966.8 511.5 960.1 515.1C961.0 515.8 962.0 516.9 962.5 517.8C967.5 514.9 969.6 510.6 970.6 505.9L979.4 505.9C979.0 510.9 978.5 513.3 977.8 513.9C977.4 514.2 977.0 514.3 976.4 514.3C975.5 514.3 973.6 514.3 971.7 514.1C972.3 515.0 972.8 516.4 972.9 517.4C974.8 517.5 976.6 517.5 977.7 517.3C979.0 517.2 979.9 517.0 980.7 516.0C981.8 514.8 982.4 511.7 982.9 504.1C983.0 503.7 983.1 502.7 983.1 502.7L971.0 502.7C971.2 501.5 971.2 500.4 971.3 499.3ZM991.1 504.1C992.9 506.2 995.0 509.1 995.8 511.0L998.9 509.1C998.0 507.2 995.8 504.4 993.9 502.5ZM1013.7 497.2L1007.4 497.2L1007.4 491.6L1003.8 491.6L1003.8 497.2L988.3 497.2L988.3 500.5L1003.8 500.5L1003.8 513.3C1003.8 513.9 1003.5 514.2 1002.8 514.2C1002.1 514.2 999.7 514.2 997.4 514.1C997.9 515.1 998.7 516.7 998.9 517.8C1001.8 517.8 1004.1 517.7 1005.5 517.1C1006.9 516.5 1007.4 515.6 1007.4 513.3L1007.4 500.5L1013.7 500.5ZM1037.7 496.6L1037.0 496.7L1030.5 496.7L1032.2 495.8C1031.5 494.6 1030.1 492.6 1029.0 491.2L1026.0 492.8C1026.8 494.0 1027.9 495.5 1028.6 496.7L1017.6 496.7L1017.6 500.0L1034.5 500.0C1031.5 503.8 1026.7 508.1 1022.1 510.9L1022.0 510.9C1020.4 510.9 1018.2 512.4 1016.2 514.5L1018.6 517.7C1019.8 515.9 1021.0 514.0 1021.9 514.0C1022.5 514.0 1023.4 514.9 1024.6 515.6C1026.5 516.8 1028.8 517.2 1032.2 517.2C1035.0 517.2 1039.2 517.0 1041.2 516.9C1041.2 516.0 1041.8 514.2 1042.1 513.3C1039.5 513.7 1035.2 514.0 1032.3 514.0C1029.4 514.0 1027.0 513.8 1025.3 512.7C1030.9 509.0 1036.7 503.5 1040.3 498.3ZM1045.0 517.7L1048.5 517.7L1048.5 498.3L1045.0 498.3ZM1045.5 493.4C1046.7 494.7 1048.2 496.5 1048.7 497.7L1051.5 496.0C1050.9 494.7 1049.4 493.0 1048.1 491.7ZM1054.3 507.4L1059.7 507.4L1059.7 510.0L1054.3 510.0ZM1054.3 502.1L1059.7 502.1L1059.7 504.7L1054.3 504.7ZM1051.3 512.7L1062.8 512.7L1062.8 499.4L1051.3 499.4ZM1069.2 492.9L1052.5 492.9L1052.5 496.0L1065.7 496.0L1065.7 514.1C1065.7 514.4 1065.7 514.6 1065.3 514.6C1065.0 514.6 1063.9 514.6 1063.0 514.5C1063.4 515.4 1063.9 516.6 1064 517.5C1065.7 517.5 1067.1 517.5 1068.0 517.0C1068.9 516.4 1069.2 515.7 1069.2 514.1Z " clip-path="url(#satori_cp-id-1-0-1-1)" mask="url(#satori_om-id-1-0-1-1)"/></svg>