<svg width="1200" height="630" viewBox="0 0 1200 630" xmlns="http://www.w3.org/2000/svg"><rect x="0" y="0" width="1200" height="630" fill="#fefbfb"/><defs><clipPath id="satori_bc-id-0"><path x="105" y="39" width="1056" height="504" d="M109,39 h1048 a4,4 0 0 1 4,4 v496 a4,4 0 0 1 -4,4 h-1048 a4,4 0 0 1 -4,-4 v-496 a4,4 0 0 1 4,-4"/></clipPath></defs><g opacity="0.9"><path x="105" y="39" width="1056" height="504" fill="#ecebeb" d="M109,39 h1048 a4,4 0 0 1 4,4 v496 a4,4 0 0 1 -4,4 h-1048 a4,4 0 0 1 -4,-4 v-496 a4,4 0 0 1 4,-4"/><path width="1056" height="504" clip-path="url(#satori_bc-id-0)" fill="none" stroke="#000" stroke-width="8" d="M106.172,40.172 A4,4 0 0 1 109,39 h1048 a4,4 0 0 1 4,4 v496 a4,4 0 0 1 -4,4 h-1048 a4,4 0 0 1 -4,-4 v-496 A4,4 0 0 1 106.172,40.172"/></g><defs><clipPath id="satori_bc-id-1"><path x="72" y="63" width="1056" height="504" d="M76,63 h1048 a4,4 0 0 1 4,4 v496 a4,4 0 0 1 -4,4 h-1048 a4,4 0 0 1 -4,-4 v-496 a4,4 0 0 1 4,-4"/></clipPath></defs><path x="72" y="63" width="1056" height="504" fill="#fefbfb" d="M76,63 h1048 a4,4 0 0 1 4,4 v496 a4,4 0 0 1 -4,4 h-1048 a4,4 0 0 1 -4,-4 v-496 a4,4 0 0 1 4,-4"/><path width="1056" height="504" clip-path="url(#satori_bc-id-1)" fill="none" stroke="#000" stroke-width="8" d="M73.172,64.172 A4,4 0 0 1 76,63 h1048 a4,4 0 0 1 4,4 v496 a4,4 0 0 1 -4,4 h-1048 a4,4 0 0 1 -4,-4 v-496 A4,4 0 0 1 73.172,64.172"/><clipPath id="satori_cp-id-1-0-0"><rect x="128" y="103" width="944" height="209"/></clipPath><mask id="satori_om-id-1-0-0"><rect x="128" y="103" width="944" height="209" fill="#fff"/></mask><path fill="black" d="M174.9 142.4C176.5 139.8 178.2 136.0 180.0 132.2L173.6 130.0C172.8 133.1 171.1 137.6 169.7 140.4ZM148.4 132.1C150.1 135.3 151.6 139.4 152.0 142.1L157.7 140.0C157.2 137.2 155.5 133.3 153.6 130.2ZM146.7 142.9L146.7 129.2L159.7 129.2L159.7 142.9ZM180.8 142.9L168.2 142.9L168.2 129.2L180.8 129.2ZM196.2 163.6L168.2 163.6L168.2 160.0L190.5 160.0L190.5 153.3L168.2 153.3L168.2 149.8L189.5 149.8L189.5 122.2L138.6 122.2L138.6 149.8L159.7 149.8L159.7 153.3L137.5 153.3L137.5 160.0L159.7 160.0L159.7 163.6L131.9 163.6L131.9 171.1L196.2 171.1ZM139.5 187.5C142.8 184.0 145.7 178.8 147.3 174.0L138.9 171.9C137.2 176.4 134.3 181.2 131.3 183.9ZM151.5 174.7C152.2 178.5 152.5 183.6 152.5 186.8L160.9 185.7C160.9 182.6 160.3 177.7 159.5 173.9ZM165.9 174.9C167.4 178.7 168.8 183.7 169.3 186.8L177.9 184.8C177.3 181.8 175.7 176.9 174.1 173.3ZM180.1 174.5C183.2 178.5 187.0 183.9 188.5 187.4L197.0 184.4C195.2 180.8 191.3 175.6 188.1 171.8ZM251.3 134.6C249.2 131.4 244.1 127.1 240.2 124.2L234.6 129.1C238.7 132.2 243.3 136.8 245.4 139.9ZM249.3 153.4C246.9 150.3 241.6 145.9 237.5 143.0L232.0 147.9C236.2 151.1 241.3 155.7 243.5 158.9ZM231.1 159.0C229.7 157.4 223.8 150.6 221.7 148.6L221.7 148.0L231.2 148.0L231.2 140.0L221.7 140.0L221.7 130.2C225.1 129.4 228.2 128.6 231.0 127.5L226.2 120.5C220.2 123.0 211.2 125.1 203.0 126.4C204.0 128.3 205.0 131.1 205.3 133.0C208.0 132.8 210.7 132.3 213.5 131.9L213.5 140.0L202.6 140.0L202.6 148.0L212.3 148.0C209.7 155.0 205.7 162.7 201.7 167.3C203.0 169.5 204.8 173.0 205.6 175.4C208.4 171.8 211.1 166.7 213.5 161.2L213.5 187.1L221.7 187.1L221.7 157.9C223.5 160.8 225.2 163.8 226.1 165.8ZM270.1 167.4L268.7 159.4L261.6 160.6L261.6 119.9L253.1 119.9L253.1 162.1L230.0 166.0L231.4 174.2L253.1 170.4L253.1 187.0L261.6 187.0L261.6 168.9ZM298.4 150.5L291.8 152.1L291.8 141.5L298.9 141.5L298.9 133.5L291.8 133.5L291.8 119.9L283.3 119.9L283.3 133.5L275.0 133.5L275.0 141.5L283.3 141.5L283.3 154.2C279.8 155.1 276.8 155.7 274.1 156.3L276.3 164.4L283.3 162.7L283.3 177.5C283.3 178.6 282.9 179.0 281.9 179.0C281 179.0 278.0 179.0 275.2 178.9C276.2 181.1 277.3 184.5 277.6 186.7C282.7 186.7 286.2 186.5 288.6 185.2C291.0 183.8 291.8 181.8 291.8 177.6L291.8 160.4C294.4 159.8 297.0 159.0 299.5 158.3ZM328.6 154.4C326.4 159.2 323.3 163.6 319.5 167.1C315.9 163.4 313.0 159.1 311.0 154.4ZM333.9 146.3L332.4 146.6L323.8 146.6L323.8 138.0L339.9 138.0L339.9 130.1L323.8 130.1L323.8 119.8L315.3 119.8L315.3 130.1L299.8 130.1L299.8 138.0L315.3 138.0L315.3 146.6L301.1 146.6L301.1 154.4L304.8 154.4L302.7 155.0C305.3 161.6 308.7 167.3 312.9 172.1C307.9 175.4 302.0 177.7 295.7 179.2C297.3 181.1 299.3 184.7 300.2 187.0C307.3 184.9 313.6 182.0 319.2 178.1C324.3 182.1 330.2 185.1 337.2 187.2C338.4 185.0 340.8 181.5 342.6 179.8C336.2 178.2 330.7 175.8 325.9 172.5C332.0 166.4 336.7 158.5 339.4 148.6ZM362 147.1C365.8 147.1 368.8 144.2 368.8 140.3C368.8 136.4 365.8 133.5 362 133.5C358.2 133.5 355.2 136.4 355.2 140.3C355.2 144.2 358.2 147.1 362 147.1ZM362 181.4C365.8 181.4 368.8 178.5 368.8 174.7C368.8 170.7 365.8 167.8 362 167.8C358.2 167.8 355.2 170.7 355.2 174.7C355.2 178.5 358.2 181.4 362 181.4ZM449.2 153.8L449.2 146.7L458.0 146.7L458.0 152.9L458.0 153.8ZM475.5 146.7L475.5 153.8L466.5 153.8L466.5 153.0L466.5 146.7ZM483.7 160.8L483.7 139.7L466.5 139.7L466.5 134.7L485.6 134.7L485.6 126.9L466.5 126.9L466.5 120.4L458.0 120.4L458.0 126.9L440.5 126.9C441.1 125.3 441.8 123.8 442.4 122.3L434.5 119.7C430.6 129.9 423.9 140.1 417.1 146.6C418.5 148.7 420.8 153.3 421.6 155.4C423.6 153.3 425.6 151.0 427.5 148.6L427.5 187.3L435.7 187.3L435.7 136.4C437.2 133.6 438.7 130.9 440.0 128.1L440.0 134.7L458.0 134.7L458.0 139.7L441.5 139.7L441.5 160.8L457.5 160.8C457.1 163.7 456.3 166.4 454.9 169.0C452.2 166.8 449.9 164.4 448.2 161.6L441.2 163.7C443.6 167.8 446.5 171.5 450.1 174.4C447.0 176.8 442.7 178.7 437.0 180.0C438.7 181.8 441.2 185.2 442.3 187.1C448.7 185.2 453.6 182.6 457.0 179.4C463.7 183.2 471.9 185.7 481.7 187.0C482.7 184.7 485.0 181.2 486.8 179.3C477.1 178.5 468.8 176.5 462.2 173.3C464.3 169.5 465.5 165.2 466.1 160.8ZM529.0 158.0L529.0 149.2L544.2 149.2L544.2 158.0ZM506.6 158.0C506.8 155.4 506.9 152.8 506.9 150.5L506.9 149.2L520.4 149.2L520.4 158.0ZM520.4 132.8L520.4 141.2L506.9 141.2L506.9 132.8ZM544.2 141.2L529.0 141.2L529.0 132.8L544.2 132.8ZM552.7 124.7L498.4 124.7L498.4 150.4C498.4 160.5 497.7 173.3 489.9 181.9C491.8 182.9 495.3 185.9 496.6 187.5C501.8 181.9 504.4 173.9 505.7 166.1L520.4 166.1L520.4 186.2L529.0 186.2L529.0 166.1L544.2 166.1L544.2 176.9C544.2 178.2 543.7 178.6 542.4 178.6C541.1 178.6 536.3 178.7 532.3 178.5C533.4 180.7 534.7 184.4 535.0 186.7C541.5 186.8 545.9 186.6 548.8 185.2C551.7 183.9 552.7 181.6 552.7 177.0ZM589.4 181.9C596.9 181.9 603.1 179.0 606.7 175.4L606.7 151.4L587.8 151.4L587.8 160.1L597.2 160.1L597.2 170.6C595.7 171.9 593.1 172.6 590.6 172.6C580.1 172.6 574.8 165.7 574.8 154.1C574.8 142.6 581.0 135.7 589.8 135.7C594.6 135.7 597.7 137.6 600.3 140.2L605.9 133.4C602.5 129.9 597.2 126.6 589.4 126.6C575.3 126.6 563.9 136.9 563.9 154.4C563.9 172.2 575.0 181.9 589.4 181.9ZM617.3 180.8L627.9 180.8L627.9 140.5L617.3 140.5ZM622.6 134.0C626.2 134.0 628.8 131.7 628.8 128.2C628.8 124.8 626.2 122.5 622.6 122.5C619.0 122.5 616.4 124.8 616.4 128.2C616.4 131.7 619.0 134.0 622.6 134.0ZM654.0 181.9C657.5 181.9 660.3 181.1 662.5 180.3L660.7 172.6C659.6 173.1 658.1 173.5 656.8 173.5C653.2 173.5 651.3 171.3 651.3 166.7L651.3 148.9L661.2 148.9L661.2 140.5L651.3 140.5L651.3 129.7L642.5 129.7L641.3 140.5L635.0 141.0L635.0 148.9L640.7 148.9L640.7 166.7C640.7 175.7 644.4 181.9 654.0 181.9ZM670.3 180.8L681.0 180.8L681.0 157.8L701.1 157.8L701.1 180.8L711.7 180.8L711.7 127.5L701.1 127.5L701.1 148.5L681.0 148.5L681.0 127.5L670.3 127.5ZM736.0 181.9C741.4 181.9 745.3 179.2 748.8 175.1L749.1 175.1L749.9 180.8L758.5 180.8L758.5 140.5L747.9 140.5L747.9 167.7C745.2 171.3 743.0 172.8 739.7 172.8C735.8 172.8 734.1 170.6 734.1 164.4L734.1 140.5L723.5 140.5L723.5 165.7C723.5 175.8 727.3 181.9 736.0 181.9ZM790.0 181.9C798.9 181.9 807.2 173.9 807.2 160.0C807.2 147.7 801.2 139.5 791.3 139.5C787.3 139.5 783.3 141.5 780.1 144.3L780.4 137.9L780.4 123.4L769.8 123.4L769.8 180.8L778.1 180.8L779.0 176.6L779.3 176.6C782.6 180.0 786.4 181.9 790.0 181.9ZM787.7 173.1C785.5 173.1 782.9 172.4 780.4 170.1L780.4 152.4C783.1 149.6 785.6 148.2 788.3 148.2C793.9 148.2 796.3 152.5 796.3 160.2C796.3 169.0 792.6 173.1 787.7 173.1ZM842.3 139.7L850.4 139.7L850.4 133.3L862.3 133.3L862.3 139.7L870.4 139.7L870.4 133.3L878.7 133.3L878.7 125.9L870.4 125.9L870.4 120.3L862.3 120.3L862.3 125.9L850.4 125.9L850.4 120.3L842.3 120.3L842.3 125.9L834.5 125.9L834.5 133.3L842.3 133.3ZM865.4 169.9L865.4 177.3L847.7 177.3L847.7 169.9ZM839.7 187.0L847.7 187.0L847.7 184.4L865.4 184.4L865.4 187.0L873.7 187.0L873.7 162.8L839.7 162.8ZM848.9 152.2C851.5 150.1 854.0 147.9 856.4 145.6C858.7 147.7 861.7 150.0 864.8 152.2ZM855.0 135.6C850.6 141.5 842.7 147.6 834.2 151.8L833.6 148.7L828.8 150.5L828.8 141.4L834.4 141.4L834.4 133.5L828.8 133.5L828.8 119.9L820.7 119.9L820.7 133.5L813.9 133.5L813.9 141.4L820.7 141.4L820.7 153.5C817.9 154.5 815.4 155.4 813.3 156.0L815.5 164.7L820.7 162.6L820.7 177.0C820.7 178.0 820.4 178.3 819.5 178.3C818.6 178.3 816.1 178.3 813.5 178.3C814.6 180.6 815.6 184.2 815.9 186.5C820.5 186.5 823.7 186.1 825.9 184.7C828.1 183.4 828.8 181.1 828.8 177.1L828.8 159.3C831.0 158.4 833.1 157.5 835.3 156.6C836.1 157.6 836.9 158.6 837.3 159.4C839.8 158.2 842.2 156.8 844.4 155.4L844.4 159.2L867.9 159.2L867.9 154.4C870.2 156.0 872.7 157.5 874.9 158.6C876.2 156.8 878.9 153.8 880.6 152.3C874.0 149.5 865.7 144.5 860.7 140.5C861.2 139.9 861.8 139.2 862.3 138.5ZM939.1 131.7L939.1 135.1L930.7 135.1L930.7 131.7ZM939.1 145.1L930.7 145.1L930.7 141.5L939.1 141.5ZM922.6 135.1L906.5 135.1L906.5 141.5L922.6 141.5L922.6 145.1L910.1 145.1L910.1 151.5L922.6 151.5L922.6 155.0L909.7 155.0L909.7 161.0L922.6 161.0L922.6 164.6L906.8 164.6L906.8 171.1L922.6 171.1L922.6 176.0L930.7 176.0L930.7 171.1L949.7 171.1L949.7 164.6L930.7 164.6L930.7 161.0L947.4 161.0L947.4 155.0L930.7 155.0L930.7 151.5L946.6 151.5L946.6 141.5L950.5 141.5L950.5 135.1L946.6 135.1L946.6 125.2L930.7 125.2L930.7 119.9L922.6 119.9L922.6 125.2L910.5 125.2L910.5 131.7L922.6 131.7ZM902.9 144.1L901.4 144.2L898.9 144.2C902.1 138.9 905.2 132.6 908.0 126.2L902.9 122.7L900.0 123.8L886.7 123.8L886.7 131.2L897.2 131.2C894.7 137.0 891.9 141.9 890.8 143.5C889.3 145.9 887.3 147.9 885.9 148.3C887.0 150.0 888.6 153.3 889.2 154.9C889.2 153.9 891.3 152.6 893.0 151.7L899.3 151.7C898.6 156.4 897.7 160.6 896.5 164.3C895.1 161.9 893.9 159.1 892.9 155.9L886.7 158.0C888.4 163.7 890.5 168.2 893.1 172.0C890.8 176.0 888.0 179.2 884.4 181.6C886.2 182.6 889.4 185.5 890.6 187.2C893.6 184.9 896.4 181.9 898.6 178.1C906.0 184.2 915.8 185.7 927.9 185.7L949.1 185.7C949.6 183.4 950.9 179.7 952.1 177.9C947.2 178.1 932.3 178.1 928.1 178.1C917.6 178.0 908.6 176.8 902.1 171.1C904.8 164.3 906.7 155.6 907.6 145.1ZM973.6 175.5L973.6 168.0L1007.8 168.0L1007.8 175.5ZM1007.8 152.7L1007.8 160.1L973.6 160.1L973.6 152.7ZM1007.8 137.4L1007.8 144.8L973.6 144.8L973.6 137.4ZM992.3 129.2C993.4 126.6 994.6 123.8 995.7 120.9L985.3 119.7C984.9 122.6 984.2 126.1 983.4 129.2L964.9 129.2L964.9 187.0L973.6 187.0L973.6 183.4L1007.8 183.4L1007.8 187.0L1017.0 187.0L1017.0 129.2Z M156.5 281.5C148.8 281.5 147.5 280.9 147.5 277.0L147.5 259.7L179.6 259.7L179.6 263.8L188.8 263.8L188.8 228.2L137.7 228.2L137.7 237.0L179.6 237.0L179.6 251.3L138.6 251.3L138.6 277.2C138.6 287.5 143.0 290.1 156.4 290.1L179.8 290.1C192.7 290.1 195.8 286.3 197.4 272.6C194.9 272.1 191 270.6 188.7 269.3C187.8 279.7 186.8 281.5 179.6 281.5ZM213.2 276.4L213.2 262.3L224.7 262.3L224.7 276.4ZM224.7 254.9L213.2 254.9L213.2 243.2L224.7 243.2ZM247.6 235.2C248.7 232.2 249.6 229.2 250.4 226.1L242.2 224.2C240.1 232.6 236.6 241.3 232.5 247.4L232.5 235.7L221.3 235.7C222.5 232.6 223.8 229.0 225.1 225.4L215.7 224.1C215.4 227.5 214.5 232.1 213.6 235.7L205.5 235.7L205.5 289.2L213.2 289.2L213.2 284.0L232.5 284.0L232.5 250.3C234.4 251.6 236.9 253.3 238.0 254.4C240.2 251.3 242.5 247.3 244.4 243.0L259.8 243.0C259.0 268.4 258.0 279.2 255.9 281.5C255.0 282.4 254.2 282.7 252.8 282.7C250.9 282.7 246.7 282.7 242.0 282.3C243.6 284.7 244.7 288.3 244.9 290.6C249.1 290.8 253.4 290.9 256.2 290.5C259.0 290.0 261.1 289.2 263.1 286.5C266.0 282.7 266.8 271.3 267.8 239.1C267.8 238.1 267.8 235.2 267.8 235.2ZM255.9 268.0C253.6 263.9 248.9 257.0 245.3 252.1L238.6 255.9C242.1 261.1 246.6 268.2 248.6 272.5ZM340.4 227.0L304.3 227.0L304.3 234.9L340.5 234.9ZM330.1 257.5L314.2 257.5L314.2 247.9L330.1 247.9ZM338.5 240.4L306.3 240.4L306.3 264.9L338.5 264.9ZM319.2 279.6C318.6 275.8 316.9 270.3 314.9 266.0L307.7 268.0C309.5 272.2 311.2 278.0 311.6 281.8ZM303.3 276.2C301.9 274.4 296.2 266.7 293.3 263.5C293.5 262.3 293.7 261.1 293.7 259.9L302.7 259.9L302.7 252.3L294.3 252.3C294.3 251.5 294.3 250.7 294.3 249.9L294.3 240.9L302.2 240.9L302.2 233.3L286.3 233.3C286.8 230.7 287.3 228.2 287.7 225.6L279.9 224.1C279.0 232.3 277.1 240.7 274.1 246.0C275.9 247.0 279.2 249.2 280.6 250.5C282.0 247.9 283.2 244.6 284.4 240.9L286.5 240.9L286.5 249.8C286.5 250.5 286.5 251.4 286.5 252.3L274.6 252.3L274.6 259.9L286.0 259.9C285.0 268.5 282.1 278.0 274.2 285.0C275.7 286.0 278.9 289.1 280.0 290.8C285.5 285.8 289.1 279.3 291.2 272.6C293.6 276.2 296.3 280.5 297.8 283.4ZM331.2 281.9C333.1 277.7 335 272.2 336.8 267.2L328.4 265.4C327.2 270.6 325.2 277.1 323.2 281.9L301.4 281.9L301.4 289.9L341.6 289.9L341.6 281.9ZM395.3 256.2L395.3 262.7L382.7 262.7L382.7 270.1L395.3 270.1L395.3 280.1L402.7 280.1L402.7 270.1L413.0 270.1L413.0 262.7L402.7 262.7L402.7 256.2L411.6 256.2L411.7 249.2L402.7 249.2L402.7 241.7L395.3 241.7L395.3 249.2L390.4 249.2C391.7 246.2 393.2 242.8 394.5 239.2L413.2 239.2L413.2 232.1L396.8 232.1C397.5 229.9 398.1 227.6 398.6 225.4L390.7 223.9C390.3 226.6 389.7 229.4 389.1 232.1L381.9 232.1L381.9 239.2L387.1 239.2C386.2 242.3 385.3 244.6 384.9 245.6C383.9 248.2 382.8 250.0 381.5 250.4C382.4 252.3 383.7 255.9 384.0 257.4C384.6 256.7 387.2 256.2 389.9 256.2ZM380.5 240.2C379.6 236.2 377.7 230.4 376.0 225.8L369.0 227.9C370.6 232.5 372.4 238.6 373.1 242.6ZM361.8 276.4L361.8 266.7L369.0 266.7L369.0 259.5L361.8 259.5L361.8 251.9L367.0 251.9L367.0 244.7L352.2 244.7C353.4 242.8 354.6 240.8 355.6 238.5L368.6 238.5L368.6 231.2L358.5 231.2C359.1 229.5 359.7 227.9 360.1 226.3L353.1 224.3C351.5 230.5 348.9 236.7 345.5 241.0C346.7 242.7 348.8 246.9 349.3 248.7C349.8 248.2 350.1 247.7 350.6 247.2L350.6 251.9L354.2 251.9L354.2 259.5L347.6 259.5L347.6 266.7L354.2 266.7L354.2 277.8C354.2 281.5 352.1 284.2 350.6 285.5C351.9 286.5 354.0 289.4 354.7 290.9C355.9 289.4 358.0 287.6 369.3 279.2C368.5 277.8 367.4 274.7 366.9 272.6ZM380.4 247.7L367.9 247.7L367.9 255.4L372.7 255.4L372.7 277.7C370.4 279.0 368.0 281.0 365.7 283.3L370.9 291.4C373.1 287.8 376.0 283.5 377.8 283.5C379.1 283.5 381.2 285.3 383.7 286.8C387.6 289.2 392.0 290.3 398.1 290.3C402.5 290.3 408.9 290.1 412.5 289.8C412.5 287.6 413.6 283.4 414.3 281.2C409.7 281.9 402.4 282.2 398.1 282.2C392.7 282.2 388.2 281.6 384.6 279.5C383.0 278.5 381.7 277.5 380.4 276.8ZM439.3 254.9L434.1 256.3L434.1 245.6L440.0 245.6L440.0 237.7L434.1 237.7L434.1 224.2L426.2 224.2L426.2 237.7L418.9 237.7L418.9 245.6L426.2 245.6L426.2 258.5C423.0 259.3 420.1 260.0 417.7 260.6L419.6 268.8C421.7 268.2 423.8 267.5 426.2 266.9L426.2 281.8C426.2 282.7 425.9 283.0 425 283.0C424.1 283.1 421.8 283.1 419.2 282.9C420.3 285.2 421.3 288.8 421.5 290.9C425.9 290.9 429.0 290.6 431.2 289.3C433.4 287.9 434.1 285.8 434.1 281.9L434.1 264.6C436.2 263.9 438.3 263.3 440.4 262.6ZM469.3 267.8C468.1 271.0 466.6 273.6 464.6 275.7C461.5 274.5 458.5 273.4 455.5 272.4C456.4 270.9 457.4 269.4 458.3 267.8ZM469.6 237.8C468.5 240.7 466.7 244.4 465.1 247.0L455.4 247.0L459.4 245.4C458.8 243.3 457.1 240.2 455.5 237.8ZM485.8 267.8L485.8 260.7L462.2 260.7C463.2 258.9 464.0 257.2 464.7 255.4L458.9 254.3L484.8 254.3L484.8 247.0L473.2 247.0C474.6 244.8 476.1 242.2 477.6 239.6L471.5 237.8L483.3 237.8L483.3 230.6L467.6 230.6C466.8 228.7 465.7 226.6 464.5 224.8L456.5 225.9C457.3 227.3 458.1 228.9 458.8 230.6L443.6 230.6L443.6 237.8L453.2 237.8L448.5 239.6C449.8 241.8 451.3 244.7 452 247.0L441.5 247.0L441.5 254.3L456.6 254.3C455.7 256.4 454.7 258.5 453.5 260.7L440.5 260.7L440.5 267.8L449.5 267.8C447.5 270.8 445.6 273.6 443.9 275.7C448.0 277.0 452.5 278.8 457.1 280.6C452.5 282.4 446.7 283.5 439.2 284.1C440.5 285.8 441.8 288.8 442.5 291.2C452.6 289.8 460.2 287.8 465.9 284.4C471.0 286.8 475.6 289.3 478.9 291.5L484.0 285.0C480.9 283.1 476.8 280.9 472.3 278.9C474.7 275.9 476.6 272.3 477.8 267.8ZM502.3 259.5C502.4 257.2 502.4 254.9 502.4 252.8L502.4 250.8L509.5 250.8L509.5 259.5ZM509.5 234.6L509.5 242.9L502.4 242.9L502.4 234.6ZM517.4 226.6L494.7 226.6L494.7 252.8C494.7 263.3 494.4 277.8 489.9 287.6C491.8 288.2 495.3 290.2 496.9 291.4C499.8 284.9 501.2 276.0 501.9 267.6L509.5 267.6L509.5 281.9C509.5 282.9 509.1 283.2 508.2 283.2C507.4 283.2 504.7 283.2 502.1 283.1C503.2 285.2 504.2 289.1 504.4 291.4C509.1 291.4 512.2 291.2 514.4 289.8C516.8 288.3 517.4 286.0 517.4 282.0ZM529.5 259.4L529.9 259.4C532.1 266.0 534.7 272.0 538.3 277.3C535.6 280.3 532.7 282.8 529.5 284.6ZM547.4 259.4C546.2 263.4 544.7 267.2 542.7 270.6C540.5 267.2 538.6 263.4 537.2 259.4ZM551.6 251.4L550.3 251.7L529.5 251.7L529.5 234.6L546.2 234.6L546.2 240.4C546.2 241.3 545.9 241.5 544.7 241.5C543.6 241.6 539.3 241.6 535.7 241.4C536.7 243.5 537.9 246.4 538.3 248.6C543.7 248.6 547.8 248.6 550.6 247.5C553.7 246.4 554.5 244.4 554.5 240.6L554.5 226.7L521.3 226.7L521.3 291.4L529.5 291.4L529.5 285.5C531.1 287.1 532.9 289.6 533.7 291.3C537.2 289.2 540.4 286.6 543.2 283.6C546.2 286.7 549.6 289.4 553.4 291.4C554.6 289.4 557.0 286.3 558.7 284.7C554.7 283.0 551.1 280.4 548.0 277.2C552.1 270.7 555.0 262.8 556.7 253.1ZM597.7 264.0C598.2 262.3 598.6 260.6 599.0 258.6L590.1 257.9C589.8 260.1 589.4 262.1 588.9 264.0L568.6 264.0L568.6 271.3L585.8 271.3C581.6 278.1 574.3 282.0 563.8 284.2C565.4 285.8 567.9 289.4 568.8 291.2C581.8 287.6 590.3 281.8 595.2 271.3L614.4 271.3C613.4 278.0 612.0 281.6 610.5 282.7C609.6 283.4 608.6 283.5 607.1 283.5C604.9 283.5 599.7 283.4 595.1 283.0C596.5 285.0 597.6 288.1 597.7 290.4C602.5 290.6 607.1 290.6 609.8 290.4C613.0 290.3 615.3 289.7 617.4 287.8C620.0 285.5 621.8 279.7 623.4 267.5C623.6 266.3 623.9 264.0 623.9 264.0ZM584.6 238.1L610.8 238.1C606.8 241.3 601.8 243.8 596 245.9C591.0 244.0 587.1 241.5 584.1 238.5ZM619.3 230.6L618.1 231.0L591.2 231.0C592.5 229.3 593.6 227.6 594.7 225.8L586.0 224.0C582.3 230.2 575.6 236.6 565.5 241.3C567.1 242.6 569.4 245.9 570.4 247.9C573.5 246.4 576.1 244.6 578.6 242.9C580.9 245.2 583.3 247.2 586.1 248.9C578.9 250.8 571.1 252.0 563.2 252.6C564.5 254.6 566.0 258.0 566.6 260.1C576.7 258.9 586.9 256.9 596.1 253.7C604.2 256.7 614 258.5 625.0 259.3C626.1 257.0 628.0 253.6 629.8 251.8C621.4 251.4 613.6 250.5 606.8 249.0C614.2 245.2 620.4 240.3 624.7 234.1Z " clip-path="url(#satori_cp-id-1-0-0)" mask="url(#satori_om-id-1-0-0)"/><path fill="black" d="M137.3 515.6C140.8 515.6 143.9 512.6 143.9 507.4C143.9 502.8 141.7 499.7 137.8 499.7C136.1 499.7 134.4 500.6 133.0 501.8L133.1 499.1L133.1 493.0L130.6 493.0L130.6 515.3L132.6 515.3L132.8 513.7L133.0 513.7C134.3 514.9 135.9 515.6 137.3 515.6ZM136.8 513.5C135.8 513.5 134.5 513.1 133.1 511.9L133.1 503.9C134.6 502.6 135.9 501.8 137.2 501.8C140.1 501.8 141.2 504.1 141.2 507.5C141.2 511.2 139.4 513.5 136.8 513.5ZM148.0 521.8C151.0 521.8 152.6 519.5 153.7 516.5L159.4 500.1L156.9 500.1L154.2 508.5C153.8 509.9 153.3 511.4 152.9 512.8L152.8 512.8C152.3 511.4 151.8 509.8 151.3 508.5L148.2 500.1L145.6 500.1L151.7 515.3L151.3 516.4C150.7 518.3 149.6 519.7 147.9 519.7C147.5 519.7 147.0 519.6 146.7 519.5L146.2 521.5C146.7 521.7 147.3 521.8 148.0 521.8Z "/><clipPath id="satori_cp-id-1-0-1-0-2"><rect x="173" y="485" width="57" height="40"/></clipPath><mask id="satori_om-id-1-0-1-0-2"><rect x="173" y="485" width="57" height="40" fill="#fff"/></mask><path fill="black" d="M181.7 515.7C186.5 515.7 189.4 512.8 189.4 509.4C189.4 506.4 187.7 504.8 185.2 503.8L182.5 502.6C180.7 501.9 179.2 501.4 179.2 499.9C179.2 498.5 180.4 497.7 182.2 497.7C183.9 497.7 185.3 498.3 186.6 499.4L188.7 496.8C187.0 495.1 184.6 494.2 182.2 494.2C178.0 494.2 175.0 496.8 175.0 500.2C175.0 503.2 177.1 504.9 179.2 505.7L182.0 506.9C183.9 507.7 185.1 508.2 185.1 509.7C185.1 511.2 184.0 512.1 181.8 512.1C180 512.1 178.0 511.2 176.6 509.8L174.2 512.6C176.2 514.6 179.0 515.7 181.7 515.7ZM193.0 515.3L196.7 515.3L196.7 506.6C196.7 504.7 196.4 501.8 196.2 499.8L196.3 499.8L198.0 504.7L201.2 513.4L203.6 513.4L206.8 504.7L208.4 499.8L208.6 499.8C208.4 501.8 208.1 504.7 208.1 506.6L208.1 515.3L211.8 515.3L211.8 494.5L207.2 494.5L203.8 504.2C203.4 505.5 203.0 506.9 202.5 508.2L202.4 508.2C202.0 506.9 201.6 505.5 201.1 504.2L197.6 494.5L193.0 494.5ZM221.4 515.7C225.9 515.7 227.9 512.5 227.9 508.6L227.9 494.5L223.7 494.5L223.7 508.2C223.7 511.1 222.8 512.1 220.9 512.1C219.8 512.1 218.7 511.4 217.9 509.9L215.0 512.0C216.4 514.4 218.4 515.7 221.4 515.7Z " clip-path="url(#satori_cp-id-1-0-1-0-2)" mask="url(#satori_om-id-1-0-1-0-2)"/><clipPath id="satori_cp-id-1-0-1-1"><rect x="959" y="485" width="112" height="40"/></clipPath><mask id="satori_om-id-1-0-1-1"><rect x="959" y="485" width="112" height="40" fill="#fff"/></mask><path fill="black" d="M985.5 499.3L985.5 496.0L974.0 496.0L976.0 495.2C975.5 494.1 974.7 492.5 974.0 491.2L970.7 492.4C971.2 493.5 971.9 494.9 972.4 496.0L960.5 496.0L960.5 499.3L967.6 499.3C967.3 505.2 966.8 511.5 960.1 515.1C961.0 515.8 962.0 516.9 962.5 517.8C967.5 514.9 969.6 510.6 970.6 505.9L979.4 505.9C979.0 510.9 978.5 513.3 977.8 513.9C977.4 514.2 977.0 514.3 976.4 514.3C975.5 514.3 973.6 514.3 971.7 514.1C972.3 515.0 972.8 516.4 972.9 517.4C974.8 517.5 976.6 517.5 977.7 517.3C979.0 517.2 979.9 517.0 980.7 516.0C981.8 514.8 982.4 511.7 982.9 504.1C983.0 503.7 983.1 502.7 983.1 502.7L971.0 502.7C971.2 501.5 971.2 500.4 971.3 499.3ZM991.1 504.1C992.9 506.2 995.0 509.1 995.8 511.0L998.9 509.1C998.0 507.2 995.8 504.4 993.9 502.5ZM1013.7 497.2L1007.4 497.2L1007.4 491.6L1003.8 491.6L1003.8 497.2L988.3 497.2L988.3 500.5L1003.8 500.5L1003.8 513.3C1003.8 513.9 1003.5 514.2 1002.8 514.2C1002.1 514.2 999.7 514.2 997.4 514.1C997.9 515.1 998.7 516.7 998.9 517.8C1001.8 517.8 1004.1 517.7 1005.5 517.1C1006.9 516.5 1007.4 515.6 1007.4 513.3L1007.4 500.5L1013.7 500.5ZM1037.7 496.6L1037.0 496.7L1030.5 496.7L1032.2 495.8C1031.5 494.6 1030.1 492.6 1029.0 491.2L1026.0 492.8C1026.8 494.0 1027.9 495.5 1028.6 496.7L1017.6 496.7L1017.6 500.0L1034.5 500.0C1031.5 503.8 1026.7 508.1 1022.1 510.9L1022.0 510.9C1020.4 510.9 1018.2 512.4 1016.2 514.5L1018.6 517.7C1019.8 515.9 1021.0 514.0 1021.9 514.0C1022.5 514.0 1023.4 514.9 1024.6 515.6C1026.5 516.8 1028.8 517.2 1032.2 517.2C1035.0 517.2 1039.2 517.0 1041.2 516.9C1041.2 516.0 1041.8 514.2 1042.1 513.3C1039.5 513.7 1035.2 514.0 1032.3 514.0C1029.4 514.0 1027.0 513.8 1025.3 512.7C1030.9 509.0 1036.7 503.5 1040.3 498.3ZM1045.0 517.7L1048.5 517.7L1048.5 498.3L1045.0 498.3ZM1045.5 493.4C1046.7 494.7 1048.2 496.5 1048.7 497.7L1051.5 496.0C1050.9 494.7 1049.4 493.0 1048.1 491.7ZM1054.3 507.4L1059.7 507.4L1059.7 510.0L1054.3 510.0ZM1054.3 502.1L1059.7 502.1L1059.7 504.7L1054.3 504.7ZM1051.3 512.7L1062.8 512.7L1062.8 499.4L1051.3 499.4ZM1069.2 492.9L1052.5 492.9L1052.5 496.0L1065.7 496.0L1065.7 514.1C1065.7 514.4 1065.7 514.6 1065.3 514.6C1065.0 514.6 1063.9 514.6 1063.0 514.5C1063.4 515.4 1063.9 516.6 1064 517.5C1065.7 517.5 1067.1 517.5 1068.0 517.0C1068.9 516.4 1069.2 515.7 1069.2 514.1Z " clip-path="url(#satori_cp-id-1-0-1-1)" mask="url(#satori_om-id-1-0-1-1)"/></svg>